<svg xmlns="http://www.w3.org/2000/svg" width="94.575" height="743.895" viewBox="0 0 94.575 743.895"><path d="M36.308 467.587v1.08m.6 0v-1.08m-12.84-254.52h-.96m10.8 0h-.96m-9.96-12.72 1.08.12m0-1.32-.96-.12m10.8 0-.96.12m0 1.32 1.08-.12m0 273.36-1.08-.12m0 1.32.96.12m-10.8 0 .96-.12m0-1.32-1.08.12m14.04-200.16v1.08m.6 0v-1.08m12.12-60.36v-2.88m-.6 0v2.88m-11.52 0v-2.88m-.48 0v2.88m-.12 256.44v-.24m-.001 8.641v-.12m0 1.56h-.6m-3.24-278.64v12.24m-9.24-12.24v12.24m-.72.12v-.12m10.921 0h-.24m-10.68-12.96v-.96m12 1.679h-.84m-11.76 0h1.44m8.88 0h1.44m-11.76 0h-.84m13.44 0v-.12m-13.44 0v.12m1.2-.72v-.96m11.16.001h-.24m-12.12 14.04v-12.36m.84 12.36v-12.36m11.76 12.36v-12.36m.84 12.36v-12.36m-11.28 274.44v-.36m9.24.36v-.36m-11.4-1.68h.84m11.76 0h-1.44m-8.88 0h-1.44m11.76 0h.84m-13.44 0v.12m13.44 0v-.12m-1.08.72v.96m1.08-.6v.96m-.84-.48v.48m-11.76-.48v.48m-.84-.96v.96m14.52 21.12v1.32m12.72-221.52h-11.28m51.48 68.28v.12m-13.56 130.68h-6.96m-2.04 0h-1.44m-2.16 0h-1.44m-2.04 0h-6.96m-15.6 0h-21.6m21.6-6v.36m-.6 9.84h.6m-.24-1.44h-.24m-3.36-278.88v1.68m-9.24-1.68v1.68m-.72 13.32v-.96m-.36 0 .36-.12m-.36 1.08-.48.24v.24h3.24l.48-.12.24-.12h.36v.24h3.72v-.24h.24l.36.12.48.12h3.24v-.24l-.6-.24m1.08.6h-13.44m12.6 0v-.12m.84.12v-.12m-13.44 0v.12m.84 0v-.12m.36-.6v-.84m12 1.079v-.96m-.84.72v-.84m.84.12-.36-.12m-.24.6v-.12m.84.12v-.12m-13.44 0v.12m.84 0v-.12m-.24-.36.48-.12m11.28 0 .6.12m-12.6 0v.36m12.84 0v-.36m-4.56 1.201v-.96m0 1.08v-1.32m-3.72 1.32v-1.32m3.72.12v.12m-4.08-.12-.24.12m4.56-.12.36.12m-4.68.84v-.96m-2.281-12.72h1.56l.48-.12.24-.12h.36v.24h3.72v-.24h.24l.36.12.48.12h1.44m-8.88.119h8.88m1.44 0v-.12m-11.76.12v-.12m11.76-.84v-.12m.84.12v-.12m-13.44 0v.12m.84 0v-.12m4.081 13.921v-.12m3.72 0v.12m-8.04-14.28.48-.12m11.28 0 .6.12m-12.36 15.24v-.96h3.24m1.08.96v-.96h3.72m4.32.96v-.96h-3.24m-9.36-14.28v.36m12.84 0v-.36m-4.56.12v.12m-4.08-.12h-.24m4.56 0h.36m-8.4 14.28h11.76v.96m.84-.96v-.6m-8.88-12.72v-.96m.36.24v-.12m3.72 0v.12m-8.28.96v-.96m.24.96v-.96h3.24m1.08.96v-.96h3.72m4.32.96v-.96h-3.24m-8.88.12h11.76v.96m-13.68 46.68v-1.32m9.84 231.84v-2.76m2.4 2.76v-2.76zm-8.881 0v-2.76m.12 2.76v-2.76m2.4 2.76v-2.76m-2.64 2.76v-2.76m0-.36v-1.68m9.24 4.8v-2.76m0-.36v-1.68m-10.56 0v-.12m11.76.12v-.12m-11.76 1.08v-.12m-.84.12v.12m13.44 0v-.12m-13.08.12v.36m12.84 0v-.36m.001-.96v.96m-12.84-.96v.96m13.08.96v2.76m-.84-2.76v2.76m-11.76-2.76v2.76m-.84-2.76v2.76m14.52 18.36v1.32m0-30.12v1.08m.6 0v-1.08m-13.92-253.32 3.24.36m.12-1.32-2.28-.24m8.88 0-2.16.24m.12 1.32 3.12-.36m-7.32.36h3.72m0-1.32h-3.72m-2.64-12.84 2.16.12m.12-1.2-2.28-.24m8.88 0-2.16.24m.12 1.2 2.04-.12m-6.24.12h3.72m0-1.2h-3.72m52.08 149.16v-7.8h.6m10.68 133.08h-7.68v-.6h3.6m.36 0h3.72v.6m-4.08-.6v-10.2h-3.6v-.48m3.96.48v10.2m3.72-10.68v.48h-3.72m-3.96-.48h7.68m-10.68-63.6h10.2m.48 4.08h-.48v-3.72h-10.2v3.72h-.6m11.28-7.8v7.8m-.48-4.08v-3.72m-10.2 0h-.6v7.8m10.8-7.8h.48m-10.68 0v3.72m10.68-117.6h-7.68v-.6h3.6m.36 0h3.72v.6m0-11.4v.6h-3.72m-.36 10.2v-10.2m4.08-.6h-7.68v.6m3.959 0v10.2m-.36-10.2h-3.6m-77.88 204.72h11.64m2.16 0h1.44m2.04 0h1.44m2.161 0h11.64m-32.52-206.64v18.24m0 2.04v1.44m0 2.16v1.44m0 2.04v13.8m0 2.16v1.44m0 2.04v1.44m0 2.16v13.8m0 2.16v1.32m0 2.16v1.44m0 2.16v13.8m0 2.04v1.44m0 2.16v1.44m0 2.04v13.8m0 2.16v1.44m0 2.04v1.44m0 2.16v13.8m0 2.16v1.32m0 2.16v1.44m0 2.16v13.8m0 2.04v1.44m0 2.16v1.44m0 2.04v13.8m0 2.16v1.44m0 2.04v1.44m0 2.16v18.24m87 0v-18.24m0-2.16v-1.44m0-2.04v-1.44m0-2.16v-13.8m0-2.04v-1.44m0-2.16v-1.44m0-2.04v-13.8m0-2.16v-1.44m0-2.16v-1.32m0-2.16v-13.8m0-2.16v-1.44m0-2.04v-1.44m0-2.16v-13.8m0-2.04v-1.44m0-2.16v-1.44m0-2.04v-13.8m0-2.16v-1.44m0-2.16v-1.32m0-2.16v-13.8m0-2.16v-1.44m0-2.04v-1.44m0-2.16v-13.8m0-2.04v-1.44m0-2.16v-1.44m0-2.04v-18.24m-38.88 206.64h14.88m2.04 0h1.44m2.16 0h1.44m2.04 0h14.88m2.88 2.76v-9.36m0-2.16v-1.32m0-2.16v-1.44m0-2.16v-13.8m0-2.04v-1.44m0-2.16v-1.44m0-2.04v-13.8m0-2.16v-1.44m0-2.04v-1.44m0-2.16v-13.8m0-2.16v-1.32m0-2.16v-1.44m0-2.16v-13.8m0-2.04v-1.44m0-2.16v-1.44m0-2.04v-13.8m0-2.16v-1.44m0-2.16v-1.32m0-2.16v-13.8m0-2.16v-1.32m0-2.16v-1.44m0-2.16v-13.8m0-2.04v-1.44m0-2.16v-1.44m0-2.04v-13.8m0-2.16v-1.44m0-2.16v-1.32m0-2.16v-9.36m-75.84 211.92v-.12m72.96.12v-.12m-.72-128.28v-9.96m.36 122.16v12.72h-9.84v-12.72zm-13.08-67.56h12.72v9.84h-12.72zm-64.44 77.28h-.24m.36-1.92v1.56m.48 2.64v-4.2m-.84 1.92h-6.84m-.36-.12v-1.8h-.48v4.2m8.52-4.201h-.48m-8.04 4.2h.48m.12-1.92.24-.12m-.36.36v1.68m8.04.001h-.48v-1.8l-.12-.12-.24-.12h-6.84m-.36-201.84h-.48m8.04 0v1.68m-8.04-1.68v4.32m8.52 0v-4.32m-8.04 1.68v-1.68m8.04 0h-.48m-7.44 2.04-.12-.12m7.2.36.24.12m0-.36h-.24m-6.84 0h-.24m7.44-.36v.24m-7.56 0v-.24m7.44.72.12.12m0-.6-.12.12m-7.44.6v1.68m7.2-2.28h-6.84m7.2.48v.12m-7.2-.36h6.84m.36.36v1.68m-8.04 0h.48m7.56 0h.48m22.92-44.52v.24m0 3.36v-.24m1.2-1.56v-.12m51.96 38.52h-.48m-87.36 208.08h12.72m2.04 0h1.44m2.16 0h1.44m2.04 0h12.72m15.48 0h16.32m2.16 0h1.44m2.04 0h1.44m2.16 0h16.32m-43.92-66.24-.84-1.44m-3.24 0-.84 1.44m-1.56 2.64-.36.72m-.48.72-.12.24m9.96-89.16-.12-.24m-.48-.72-.48-.72m-1.44-2.64-.84-1.44m-3.24 0-.84 1.44m-1.56 2.64-.36.72m-.48.72-.12.24m6.6 6.48.84-1.44m1.44-2.52.48-.84m.48-.72.12-.24m-3.36 94.92.84-1.44m1.44-2.521.48-.84m.48-.72.12-.24m-4.32 6.36v-.12m0-13.2v-.12m-1.32 0v.12m0 13.2v.12m.12-13.44v-.12m1.08.12v-.12m-1.08 13.68v-.12m1.08.12v-.12m.12-89.16v-.12m0-13.2v-.12m-1.32 0v.12m0 13.2v.12m.12-13.44v-.12m1.08.12v-.12m-1.08 13.68v-.12m1.08.12v-.12m.6-13.44v13.44m.48 0v-13.44m-.48 89.16v13.44m.48 0v-13.44m.84-89.16v.12m0 .24v12.72m0 .24v.12m.36 0v-13.44m-.36 89.16v.12m0 .24v12.72m0 .24v.12m.36 0v-13.44m.72-89.16v.12m0 .24v12.72m0 .24v.12m.36-2.52v-8.4m-.36 86.64v.12m0 .24v12.72m0 .24v.12m.36-2.52v-8.4m.48-91.68v.12m0 .24v12.72m0 .24v.12m.48-4.44v-4.56m-.48 84.72v.12m0 .24v12.72m0 .24v.12m.48-4.44v-4.56m.12-93.6v.12m0 .24v12.72m0 .24v.12m0 75.72v.12m0 .24v12.72m0 .24v.12m-.96-102.6v.12m0 .24v4.32m0 4.08v4.32m0 .24v.12m0 75.72v.12m0 .24v4.44m0 3.96v4.32m0 .24v.12m-.96-102.6v.12m0 .24v2.64m0 7.44v2.64m0 .24v.12m.36-1.32v-2.4m0-6v-2.4m-.36 87.84v.12m0 .24v2.76m0 7.32v2.64m0 .24v.12m.36-1.32v-2.4m0-6v-2.4m-1.68-90.48v.12m0 .24v.72m0 11.4v.6m0 .24v.12m.48 0v-.12m0-.24v-1.32m0-9.96v-1.44m0-.24v-.12m-.48 89.16v.12m0 .24v.72m0 11.4v.6m0 .24v.12m.48 0v-.12m0-.24v-1.32m0-9.96v-1.44m0-.24v-.12m-1.32-75.72v-.12m0-13.2v-.12m0 102.6v-.12m0-13.2v-.12m-1.8 0v.12m0 13.2v.12m0-102.6v.12m0 13.2v.12m-1.32 75.72v.12m0 .24v1.44m0 9.96v1.32m0 .24v.12m.36 0v-.12m0-.24v-.6m0-11.4v-.72m0-.24v-.12m-.36-89.16v.12m0 .24v1.44m0 9.96v1.32m0 .24v.12m.36 0v-.12m0-.24v-.6m0-11.4v-.72m0-.24v-.12m-1.56 1.44v2.28m0 6v2.4m.36 1.32v-.12m0-.24v-2.64m0-7.44v-2.64m0-.24v-.12m-.36 90.6v2.28m0 6v2.4m.36 1.32v-.12m0-.24v-2.64m0-7.32v-2.76m0-.24v-.12m-.96-75.72v-.12m0-.24v-4.32m0-4.08v-4.32m0-.24v-.12m0 102.601v-.12m0-.24v-4.32m0-3.96v-4.44m0-.24v-.12m-.96 13.44v-.12m0-.24v-12.72m0-.24v-.12m0-75.72v-.12m0-.24v-12.72m0-.24v-.12m.12 4.44v4.56m.48 4.44v-.12m0-.24v-12.72m0-.24v-.12m-.48 93.6v4.56m.48 4.44v-.12m0-.24v-12.72m0-.24v-.12m.36 2.52v8.4m.48 2.52v-.12m0-.24v-12.72m0-.24v-.12m-.48-86.64v8.4m.48 2.52v-.12m0-.24v-12.72m0-.24v-.12m.72 89.16v13.44m.36 0v-.12m0-.24v-12.72m0-.24v-.12m-.36-89.16v13.44m.36 0v-.12m0-.24v-12.72m0-.24v-.12m.84 89.16v13.44m.48 0v-13.44m-.48-89.16v13.44m.48 0v-13.44m.96 89.16v13.44m.36 0v-13.44m-.36-89.16v13.44m.36 0v-13.44m-9.84 101.52v-11.28m0-77.88v-11.28m10.8 88.08v-.12m-2.28.12v-.12m2.28-89.04v-.12m-2.28 0v.12m0 102.72v-.12m2.28.12v-.12m-2.28-89.16v.12m2.28 0v-.12m-2.4 89.28v.24m2.52 0v-.24m0-13.56v-.24m-2.52 0v.24m0-75.6v.24m2.52 0v-.24m0-13.68v-.12m-2.52 0v.12m-9.72 147.12v1.08m.6 0v-8.64m0-2.16v-1.44m0-2.04v-1.44m0-2.16v-7.56m-.6 0v7.56m0 2.16v1.44m0 2.04v1.44m0 2.16v7.56m-.001-24.6v.24m.6 0v-.24m15 24.6v-7.56m0-2.16v-1.44m0-2.04v-1.44m.001-2.16v-7.56m-.48 0v7.56m0 2.16v1.44m0 2.04v1.44m0 2.16v7.56m.48-24.36v-.24m-.48 0v.24m.48 25.44v-1.08m-.48 0v1.08m-15.12 0 .12 10.8m.48-1.44v24m-.48-22.56v22.56m.48 37.92v-37.92m-.48 0v37.92m.48 28.32v-28.32m-.48 0v28.32m.48 18.48v-18.48m-.48 0v18.48m.48 38.16v-20.64m-.48-.12v20.76m.48 20.04v-20.04m-.48 0v20.04m15.36 0v-20.04m-.6 0v20.04m.6-20.04v-28.32m-.6 0v28.32m.6-28.32v-28.32m-.6 0v28.32m.6-28.32v-28.32m-.6 0v28.32m.6-66.24v-22.56m-.6 0v22.56m.36-24.24v-.12m.24 1.8v-1.44l.12-9.36m-.12 71.28v-37.92m-.6 0v37.92m-23.88 161.4v-.12m0-.12v-.12m0-3.36v-.12m0-.24v-.12m0-3.24v-.12m0-.24v-.12m0-3.36v-.12m0-.12v-.12m0-3.36v-.12m0-.12v-.12m0-3.36v-.12m0-.24v-.12m0-7.08v-.12m0-.12v-.12m0 4.2v-.12m0-.24v-.12m-1.92-10.8v-.12m0-.24v-.12m0 4.2v-.12m0-.12v-.12m0 41.64v-.12m0-.12v-.12m0-3.36v-.12m0-.24v-.12m0-7.08v-.12m0-.12v-.12m0-3.36v-.12m0-.24v-.12m0-3.24v-.12m0-.24v-.12m0-3.36v-.12m0-.12v-.12m0-3.36v-.12m0-.12v-.12m0-3.36v-.12m0-.24v-.12m0-3.24v-.12m0-.24v-.12m3 33.96v-.12m0 .36v-.12m0-3.96v-.12m0 .48v-.12m0-3.96v-.12m0 .36v-.12m0-37.68v-.12m0 .48v-.12m0 3.6v-.12m0 .36v-.12m-1.08-3.6v-.12m0-.24v-.12m0 4.2v-.12m0-.12v-.12m0 41.64v-.12m0-.12v-.12m0-3.36v-.12m0-.24v-.12m0-3.36v-.12m0-.12v-.12m1.08-3.6v-.12m0 .36v-.12m0-3.96v-.12m0 .48v-.12m0-11.4v-.12m0 .36v-.12m0-11.4v-.12m0 .36v-.12m0 18.6v-.12m0 .48v-.12m0-15.24v-.12m0 .48v-.12m0 3.48v-.12m0 .48v-.12m0 7.32v-.12m0 .36v-.12m39.96-46.8h-.24m0 93.72h.24m-40.56-79.08v-.12m14.76.24v-.12m0 32.16v-.12m0 32.16v-.12m-14.76.24v-.12m37.8-28.92v-.12m0 .36v-.12m0-.96v-.12m0 .36v-.12m-61.44.96v-.12m0-.12v-.12m0-.48v-.12m0-.12v-.12m-2.52-48.96h-.24m0 93.6h.24m26.16-78.96v-.12m-9.96 32.28v-.12m9.96 32.28v-.12m-5.52-20.4v-.12m0 .36v-.12m-1.56-5.76v-.12m0 .36v-.12m0 2.64v-.12m0 .48v-.12m0 2.64v-.12m0 .36v-.12m-1.68-5.76v-.12m0 .36v-.12m0 2.64v-.12m0 .48v-.12m0 2.64v-.12m0 .36v-.12m3.24-5.76v-.12m0 .36v-.12m0 2.64v-.12m0 .48v-.12m-2.4-380.16v-.12m-2.76.12v-.12m2.88-.6v-3.84m-3 0v3.84m.24.36.12.12m2.16 0 .24-.12m.12-.12v-.24m-2.76 0v.24m2.4.36v-.24m-2.16 0v.24m-.6 4.08h.24m0-1.8h-.24m3.24 1.8h.24m0-1.8h-.24m.12-6.72v-.84m-3.24 0v.84m3.12-.96-.36-.36m-2.28 0-.48.36m5.4-1.32 1.08.12m0-1.2-.96-.12m10.8 0-.96.12m0 1.2 1.08-.12m-11.76 11.04v-.12m12.6.12v-.12m-12.36-2.52h-.24m12.6 0h-.24m-12.36.6v-.12m0 1.92v-.12m0-1.68-.6.12m0 1.56.6.12m12.6 0 .48-.12m-.48.12v-.12m-13.2-1.32h-.24m0 1.08h.24m14.04-1.08h-.36m0 1.08h.36m-14.28-.96h-.48m0 .84h.48m14.76-.84h-.48m0 .84h.48m-13.2-24.24 1.08.12m0-1.32h-.96m10.8 0h-.96m0 1.32 1.08-.12m-11.76 25.32h.24m12.12 0h.24m-11.88-39.24 1.08.12m0-1.32-.96-.12m10.8 0-.96.12m0 1.32 1.08-.12m-11.04-14.04 1.08.12m0-1.2-.96-.12m10.8 0-.96.12m0 1.2 1.08-.12m-11.04-13.92 1.08.12m0-1.32h-.96m10.8 0h-.96m0 1.32 1.08-.12m-11.04-13.92 1.08.12m0-1.32-.96-.12m10.8 0-.96.12m0 1.32 1.08-.12m-11.04-14.04 1.08.12m0-1.2-.96-.12m10.8 0-.96.12m0 1.2 1.08-.12m-11.04-13.92 1.08.12m0-1.32h-.96m10.8 0h-.96m0 1.32 1.08-.12m-11.04-13.92 1.08.12m0-1.32-.96-.12m10.8 0-.96.12m0 1.32 1.08-.12m-11.04-14.04 1.08.12m0-1.2-.96-.12m10.8 0-.96.12m0 1.2 1.08-.12m-11.04-13.92 1.08.12m0-1.32h-.96m10.8 0h-.96m0 1.32 1.08-.12m-11.04-27.96 1.08.12m0-1.2-.96-.12m10.8 0-.96.12m0 1.2 1.08-.12m-16.2 280.56v.12m2.76 0v-.12m-2.88.84v3.84m3 0v-3.84m-.24-.48h-.24m-2.16 0h-.12m-.12.12v.36m2.76 0v-.36m-2.52-.24v.12m2.16 0v-.12m.72-4.08h-.24m0 1.68h.24m-3.24-1.68h-.24m0 1.68h.24m-.12 6.84v.84m3.24 0v-.84m-3.24.84.48.36m2.28 0 .36-.36m2.4 2.64.96-.12m0-1.32-1.08.12m11.04 0-1.08-.12m0 1.32.96.12m.96-12.24v-.12m-12.6.12v-.12m12.36 2.64h.24m-12.6 0h.24m12.36-.48v-.12m0-1.8v-.12m0 2.04.48-.12m0-1.68-.48-.12m-12.6 0-.6.12m.6-.12v-.12m13.08 1.68h.36m0-1.2h-.36m-13.92 1.2h.24m0-1.2h-.24m-.48 1.08h.48m0-.84h-.48m14.76.84h.48m0-.84h-.48m-12.6 25.44.96-.12m0-1.2h-1.08m11.04 0h-1.08m0 1.2.96.12m.96-26.52h-.24m-12.12 0h-.24m.84 40.44.96-.12m0-1.2-1.08.12m11.04 0-1.08-.12m0 1.2.96.12m-10.8 14.04.96-.12m0-1.32-1.08.12m11.04 0-1.08-.12m0 1.32.96.12m-10.8 13.92.96-.12m0-1.2h-1.08m11.04 0h-1.08m0 1.2.96.12m-10.8 13.92.96-.12m0-1.2-1.08.12m11.04 0-1.08-.12m0 1.2.96.12m-10.8 14.04.96-.12m0-1.32-1.08.12m11.04 0-1.08-.12m0 1.32.96.12m-10.8 13.92.96-.12m0-1.2h-1.08m11.04 0h-1.08m0 1.2.96.12m-10.8 13.92.96-.12m0-1.2-1.08.12m11.04 0-1.08-.12m0 1.2.96.12m.12 12.72-1.08-.12m0 1.32.96.12m-10.8 0 .96-.12m0-1.32-1.08.12m.12 15.24.96-.12m0-1.2h-1.08m11.04 0h-1.08m0 1.2.96.12m-10.8 13.92.96-.12m0-1.2-1.08.12m11.04 0-1.08-.12m0 1.2.96.12m3.12-294.96v.24m.6 0v-17.28m-.6 17.04v-18.12m.6 1.08v-1.08m12.24 1.08v-1.08m-.6 0v1.08m.6 17.28v-.24m-.6 0v.24m.6-.24v-17.04m-.6 0v17.04m.6-192.6v-.24m-.6 0v.24m-12.24-.24v.24m.6 0v-.24m12.12 150v-17.28m-.6 0v17.28m-11.52 0v-17.28m-.48 0v17.28m12.24 24.359v-.12m.36-1.68v-22.56m-.6 0v22.56m.6-39.84v-21.24m-.6 0v21.24m.6-21.24v-28.32m-.6 0v28.32m.6-28.32v-28.32m-.6 0v28.32m.6-28.32v-28.32m-.6 0v28.32m.6-28.32v-24.12m-.6 0v24.12m.24-25.799v-.12m-12.24 171.96v1.44m.48 0v-24m-.48-.001v22.56m.48-39.84v-21.24m-.48 0v21.24m.48-21.24v-28.32m-.48 0v28.32m.48-28.32v-12.12m-.48 4.32v7.8m.48-29.52v-27.12m-.48 0v19.68m.48-19.68v-24.12m-.48 0v6.96m0 3.12v14.04m0-25.56v1.44m.48 0v-1.44m31.92.96h.24m-43.08-24.48v-.12m0 .36v-.12m0-3.96v-.12m0 .48v-.12m0-41.4v-.12m0 .36v-.12m0 3.6v-.12m0 .36v-.12m0 7.32v-.12m0 .48v-.12m0 3.6v-.12m0 .36v-.12m0 3.6v-.12m0 .36v-.12m0 3.6v-.12m0 .48v-.12m0 3.48v-.12m0 .48v-.12m0 3.6v-.12m0 .36v-.12m0 3.6v-.12m0 .36v-.12m3.12-33.6v-.12m0-.12v-.12m0 4.08v-.12m0-.12v-.12m0 4.08v-.12m0-.12v-.12m0 37.92v-.12m0-.12v-.12m0-3.36v-.12m0-.24v-.12m-1.08 3.96v-.12m0 .36v-.12m0-3.96v-.12m0 .48v-.12m0-41.4v-.12m0 .36v-.12m0 3.6v-.12m0 .36v-.12m0 3.6v-.12m0 .36v-.12m1.08 3.96v-.12m0-.24v-.12m0 4.2v-.12m0-.12v-.12m0 4.08v-.12m0-.12v-.12m0 4.2v-.12m0-.24v-.12m0 4.2v-.12m0-.24v-.12m0 4.2v-.12m0-.12v-.12m0 7.92v-.12m0-.24v-.12m0-3.36v-.12m0-.12v-.12m-1.08-22.44v-.12m0 .48v-.12m0 3.6v-.12m0 .36v-.12m0 3.6v-.12m0 .36v-.12m0 3.6v-.12m0 .48v-.12m0 3.48v-.12m0 .48v-.12m0 3.6v-.12m0 .36v-.12m0 7.32v-.12m0 .48v-.12m0-3.96v-.12m0 .36v-.12m38.28-14.4v-.12m0-.12v-.12m0 1.2v-.12m0-.12v-.12m-61.44-.72v-.12m0 .36v-.12m0 .72v-.12m0 .36v-.12m64.2-44.4h-.24m-40.32 78.96v-.12m-5.52-37.92v-.12m0-.12v-.12m0-2.52v-.12m0-.12v-.12m0-2.4v-.12m0-.24v-.12m-1.68 6.12v-.12m0-.12v-.12m0-2.52v-.12m0-.12v-.12m0-2.4v-.12m0-.24v-.12m-1.56 6.12v-.12m0-.12v-.12m0-2.52v-.12m0-.12v-.12m0-2.4v-.12m0-.24v-.12m8.76-20.04v-.12m-26.4 78.96h.24m0-93.6h-.24m26.4 78.96v-.12m-9.96-32.04v-.12m9.96-31.92v-.12m14.76.12v.12m0 31.92v-.12m0 32.16v-.12m-30 65.76h.72m0-2.88h-.72m0 .001-.36.36m0 2.16.36.36m3.24 0h.12m0-2.88h-.12m.12 2.88.36-.24m0-2.4-.36-.24m.48 2.76h.24m0-2.76h-.24m-3.12 2.76h2.52m0-2.64h-2.52m3 2.52h.12m0-2.4h-.12m23.52 17.76v-12.6m-23.88 0v12.6m-.36 3h1.56m.84 0h17.16m.96 0h4.08m-3.12-18v.72m.72 0v-.72m-5.28 476.76v-.72m0 2.28v-.72m0 2.28v-.72m0 2.28v-.72m0 2.4v-.72m0 2.28v-.72m0 2.28v-.72m0 2.28v-.72m0 2.28v-.72m-.48-13.44v.6m.48.12v-.72m0 5.52v-.84m0 2.4v-.84m0 2.4v-.72m0 2.28v-.72m0 2.4v-.84m0 2.4v-.84m-.72 4.44v-.12m0 1.2v-.96m-6.96-.12v-.12m.6 0v-.12m.12.12-.12.12m.48-.72v.36m3.48.24v-.24m-4.441-18.721v-.12m-.6.12v.12m1.08 0v-.12m-.84 0v-.12m-.12.12v-.12m.12.12v-.12m-.12.12v-.12m5.4.24v-.12m-.96 0v.12m.96-.12v-.12m-.96.12v-.12m.12.12v-.12m.84.12v-.12m-.36.12v-.12m-4.56-.36v-.12m0 .36v.24m2.76.12v-.12m-1.08 0v.12m.601-.359v.24m2.4-.48v.12m0 .12v.24m-.12-.481v-.12m0 .36v.24m-12.24 18.48h-.12m36.24-322.92v-.12m-.12.12v-.12m-6.72 14.04v.12m.12 0v-.12m-10.2 80.4h-.12m0 .12h.12m0 3.36h-.12m0 .24h.12m0-7.32h-.12m0 .24h.12m16.8-77.04v.12m.12 0v-.12m-16.92 87.48h-.12m0 .12h.12m3.36-87.6v.12m.12 0v-.12m-3.48-12.36h-.12m0 .24h.12m3.48-1.8v-.12m-.12.12v-.12m-3.36 8.76h-.12m0 .24h.12m0-3.72h-.12m0 .12h.12m6.72 8.64v.12m.12 0v-.12m6.6 0v.12m.12 0v-.12m-13.56-1.68h-.12m0 .12h.12m10.2-12.36v-.12m-.12.12v-.12m3.48.12v-.12m-.12.12v-.12m-6.6.12v-.12m-.12.12v-.12m7.2 105.24v-.12m.36.36v-.24m-.36 0v.24m-7.68-107.28v-.12m-.36-.24v.36m.36 0v-.36m-.36 107.4v-.12m.36.36v-.24m-.36 0v.24m8.52-107.28v-.12m-.48-.24v.36m.36 0v-.36m-8.4 106.68v.72m8.4-106.44v-.6m-8.04.48v-.48m7.8 106.44v.6m-1.08-1.92v-.12m.24.12v-.12m0 0v-.12m-.24.12v-.12m-5.76-13.8v-.12m-.12.12v-.12m.12.12v-.12m-.12.12v-.12m0 14.16v-.12m.12.12v-.12m0 0v-.12m-.12.12v-.12m0-88.92v-.12m.12.12v-.12m0 0v-.12m-.12.12v-.12m5.88.24v-.12m.24.12v-.12m0 0v-.12m-.24.12v-.12m.24-13.8v-.12m-.24.12v-.12m.24.12v-.12m-.24.12v-.12m-5.76.12v-.12m0 .121v-.12m6 89.28v-.12m-.001.12v-.12m-.36-91.08v-.12m.12.12v-.12m-.24.24v-.12m-.12.12v-.12m-5.16 0v-.12m.24.24v-.12m-.12.12v-.12m-.24 0v-.12m5.52.12v-.12m-5.4.12v-.12m-4.8 284.4v-12.6m-23.88 0v12.6m24.24-15.6h-4.08m-.96 0h-17.16m-.84 0h-1.56m-2.28 18.12h-.72m0 2.88h.72m-.72-2.88-.36.36m0 2.16.36.36m3.36 0 .36-.12m-.479.12h.12m.72-2.76h-.12m0 2.76h.12m-.84-2.76h-2.52m0 2.76h2.52m.72-2.64h-.24m0 2.52h.24m20.52-3.6v.72m.72 0v-.72m1.8-203.04h-1.92m1.92-3.48h-1.92v3.48m1.92-3.48v3.48m0-3.96h-1.92v.48m1.92 3.96h-1.92v-.48m15.96-4.8v8.16h-12.6v-8.16m12.6 8.16v-8.16h-12.6v8.16zm-12.6-8.16h12.6m.84 8.16v-.12m-16.8 19.08h19.32zm-.6-.12v-13.92m.12-.12h.48v.12h-.6v13.92l.12.12h.48-.48m19.8-14.04h.48v13.92m-.48-14.04v.12m.6 0v13.92m-19.92-13.92v-.12h19.32v.12zm17.4-63.36v-3.6h1.8v3.6zm1.8-3.96v.36m-2.4-3.36h-.84m-12.6 8.28v-8.28h12.6v8.28zm0-8.16v8.04h12.6v-8.04zm15.96-4.92h-19.32zm-19.92-.12v-13.92m.12-.12h.48m-.6 14.04v-13.92m20.4 0v13.92m.12-13.92v13.92m-.6-14.04h.48m0 .12h-.48v-.12h-19.32v.12h19.32v-.12m-19.92-1.32v.36m-.24 89.16v-.36m.24 0v.36m-.24-.36h.12m20.64 1.32v.12m0 14.04v-.12m0-103.2v.12m0 14.04v-.12m-.6 75.24v-.12m-19.32.12v-.12m19.8 13.56v-13.44m-.48-89.16v-.12m-19.32.12v-.12m19.8 13.56v-13.44m-19.801 14.04v-.12m19.32.12v-.12m-19.32 89.28v-.12m19.32.12v-.12m-20.879-15h-.12v16.2m.12-89.28h-.12v-16.08h.12m16.2 97.08h-.12m-.48 0h-.48m-.36 0h-.72m-.36 0h-.84m-.48 0h-.96m-.36 0h-.96m-.48 0h-.84m-.36 0h-.72m-.48 0h-.36m-.48 0h-.12m9.96-89.16h-.12m-.48 0h-.48m-.36 0h-.72m-.36 0h-.84m-.48 0h-.96m-.36 0h-.96m-.48 0h-.84m-.36 0h-.72m-.48 0h-.36m-.48 0h-.12m3.36 6.24-.84-1.44m-.36-.72-.72-1.08m-.48-.72-.36-.84m-.48-.72-.12-.24m0-.24h.12m.48 0h.36m.48 0h.72m.36 0h.84m.48 0h.96m.36 0h.96m.48 0h.84m.36 0h.72m.36 0h.48m.48 0h.12m-9.96.24.12.24m.48.72.36.84m.48.72.72 1.08m.36.72.84 1.44m0 89.16-.84-1.44m-.36-.72-.72-1.08m-.48-.72-.36-.84m-.48-.72-.12-.24m0-.24h.12m.48 0h.36m.48 0h.72m.36 0h.84m.48 0h.96m.36 0h.96m.48 0h.84m.36 0h.72m.36 0h.48m.48 0h.12m-9.96.24.12.24m.48.72.36.84m.48.72.72 1.08m.36.72.84 1.44m6.6-95.4h-.12m-.48 0h-.48m-.36 0h-.72m-.36 0h-.84m-.48 0h-.96m-.36 0h-.96m-.48 0h-.84m-.36 0h-.72m-.48 0h-.36m-.48 0h-.12m9.96.24h-.12m-.48 0h-.48m-.36 0h-.72m-.36 0h-.84m-.48 0h-.96m-.36 0h-.96m-.48 0h-.84m-.36 0h-.72m-.48 0h-.36m-.48 0h-.12m9.96 88.92h-.12m-.48 0h-.48m-.36 0h-.72m-.36 0h-.84m-.48 0h-.96m-.36 0h-.96m-.48 0h-.84m-.36 0h-.72m-.48 0h-.36m-.48 0h-.12m9.96.24h-.12m-.48 0h-.48m-.36 0h-.72m-.36 0h-.84m-.48 0h-.96m-.36 0h-.96m-.48 0h-.84m-.36 0h-.72m-.48 0h-.36m-.48 0h-.12m4.32 6.6h.48m.36 0h.48m-1.32-13.44h.48m.36 0h.48m-1.32-75.72h.48m.36 0h.48m-1.32-13.44h.48m.36 0h.48m.84 8.88v-7.56l.12-1.32m-.36-.001v13.44h-.12m.48.001-.12-.36v-4.2m-.24-4.32h.24m-.24-4.56h.36m-.36 13.44h.36m-.36-4.56h.24m0 89.16v-7.56l.12-1.32m-.36 0v13.44h-.12m.48 0-.12-.36v-4.2m-.24-4.2h.24m-.24-4.68h.36m-.36 13.44h.36m-.36-4.56h.24m1.32-89.16v-8.88m-.36-.001.12.48v11.76l-.12 1.2m.36.001v-4.56m-.24-4.32h.24m-.36-4.56h.36m-.36 13.44h.36m-.24-4.56h.24m0 89.16v-8.88m-.36 0 .12.48v11.76l-.12 1.2m.36 0v-4.56m-.24-4.2h.24m-.36-4.68h.36m-.36 13.44h.36m-.24-4.56h.24m1.08-89.16v-8.88m-.36-.001h.12v.48l.12 1.68v8.76l-.12 1.32v1.2h-.12m.36.001v-4.56m-.12-4.32h.12m-.24-4.56h.24m-.24 13.44h.24m-.12-4.56h.12m0 89.16v-8.88m-.36 0h.12v.48l.12 1.68v8.76l-.12 1.32v1.2h-.12m.36 0v-4.56m-.12-4.2h.12m-.24-4.68h.24m-.24 13.44h.24m-.12-4.56h.12m.96-89.16v-8.88m-.48-.001h.24v2.16l.12 1.2v6.72l-.12.84v2.52h-.24m.48.001v-4.56m-.12-4.32h.12m-.24-4.56h.24m-.24 13.44h.24m-.12-4.56h.12m0 89.16v-8.88m-.48 0h.24v2.16l.12 1.2v6.72l-.12.84v2.52h-.24m.48 0v-4.56m-.12-4.2h.12m-.24-4.68h.24m-.24 13.44h.24m-.12-4.56h.12m.6-89.16v-4.68l-.12-.84v-3.36m-.36-.001h.24v.48l.12 1.68v8.76l-.12 1.32v1.2h-.24m.36.001v-3.36l.12-1.2m-.121-4.32h.12m-.24-4.56h.12m-.12 13.44h.12m0-4.56h.12m.001 89.16v-4.68l-.12-.84v-3.36m-.36 0h.24v.48l.12 1.68v8.76l-.12 1.32v1.2h-.24m.36 0v-3.36l.12-1.2m-.121-4.2h.12m-.24-4.68h.12m-.12 13.44h.12m0-4.56h.12m.241-89.16v-4.68l-.12-.84v-3.36h-.24m.24-.001v13.44h-.24m.24.001v-3.36l.12-1.2m-.12-4.32h.12m-.12-4.56v-.12m0 9h.12m-.12 4.56v-.12m.12 84.719v-4.68l-.12-.84v-3.36h-.24m.24.001v13.44h-.24m.24 0v-3.36l.12-1.2m-.12-4.2h.12m-.12-4.68v-.12m0 9h.12m-.12 4.56v-.12m-.6-102.48h-.12m.12 13.44h-.12m.12 75.72h-.12m.12 13.44h-.12m-.48-102.6h-.36m.36 13.44h-.36m.36 75.72h-.36m.36 13.44h-.36m-.6-13.44h-.36m-.84-89.16h-.48m.48 13.44h-.48m.48 75.72h-.48m.48 13.44h-.48m-.84-102.6h-.24m.24 13.44h-.24m.24 75.72h-.24m.24 13.44h-.24m-1.32 0h-.24m.24-13.44h-.24m.24-89.16h-.24m.24 13.44h-.24m-.96 89.16h-.36m.36-13.44h-.36m.36-89.16h-.36m.36 13.44h-.36m-.84 75.72h-.36m-.6-75.72h-.36m.36-13.44h-.36m.36 89.16h-.36m.36 13.44h-.36m-.48-102.6h-.12m.12 13.44h-.12m.12 89.16h-.12m.12-13.44h-.12m-.72 8.879v-4.68l.12-.84v-3.36h.24m-.24.001v2.16l-.12 1.2v6.72l.12.84v2.52h.24m-.24 0v-3.36l-.12-1.2m.12 4.56v-.12m-.12-4.44v-.12m0-4.08v-.12m.12-4.56v-.12m-.12-80.16v-4.68l.12-.84v-3.36h.24m-.24-.001v2.16l-.12 1.2v6.72l.12.84v2.52h.24m-.24.001v-3.36l-.12-1.2m.12 4.559v-.12m-.12-4.44v-.12m0-4.2v-.12m.12-4.44v-.12m.24 98.16v-7.56l.12-1.32h.24m-.36.001v2.16l-.12 1.2v7.56l.12 1.32v1.2m.36 0h-.24v-.36l-.12-1.68v-2.52m0 4.56h.12m-.24-4.56h.12m-.12-4.2h.12m0-4.68h.12m-.12-80.28v-7.56l.12-1.32h.24m-.36-.001v2.16l-.12 1.2v7.56l.12 1.32v1.2m.36.001h-.24v-.36l-.12-1.68v-2.52m0 4.559h.12m-.24-4.56h.12m-.12-4.32h.12m0-4.56h.12m.48 8.881v-5.52l.12-.84v-2.52h.24m-.48-.001v13.44m.48.001h-.24v-2.04l-.12-1.32v-1.2m-.12 4.559h.24m-.24-4.56h.12m-.12-4.32h.12m-.12-4.56h.24m-.12 98.04v-5.52l.12-.84v-2.52h.24m-.48.001v13.44m.48 0h-.24v-2.04l-.12-1.32v-1.2m-.12 4.56h.24m-.24-4.56h.12m-.12-4.2h.12m-.12-4.68h.24m.84 8.879v-6.36l.12-1.2v-1.32h.12m-.48.001v13.44m.48 0h-.12v-.36l-.12-1.68v-2.52m-.24 4.56h.36m-.36-4.56h.24m-.24-4.2h.24m-.24-4.68h.36m-.12-80.28v-6.36l.12-1.2v-1.32h.12m-.48-.001v13.44m.48.001h-.12v-.36l-.12-1.68v-2.52m-.24 4.559h.36m-.36-4.56h.24m-.24-4.32h.24m-.24-4.56h.36m1.08 98.04v-8.88h.12m-.36.001v13.44m.36 0h-.12v-4.56m-.24 4.56h.24m-.24-4.56h.24m-.24-4.2h.24m-.24-4.68h.24m0-80.28v-8.88h.12m-.36-.001v13.44m.36.001h-.12v-4.56m-.24 4.559h.24m-.24-4.56h.24m-.24-4.32h.24m-.24-4.56h.24m1.32 98.041v-8.88m-.36 0v.48l.12 1.68v8.76l-.12 1.32v1.2m.48 0h-.12v-4.56m-.36 4.56h.36m-.24-4.56h.24m-.24-4.2h.24m-.36-4.68h.36m0-80.28v-8.88m-.36-.001v.48l.12 1.68v8.76l-.12 1.32v1.2m.48.001h-.12v-4.56m-.36 4.559h.36m-.24-4.56h.24m-.24-4.32h.24m-.36-4.56h.36m1.08 13.32v-.12m.36.12v-.12m-.36-.12v-.12m.36.12v-.12m-1.32.36v-.12m0-.12v-.12m2.28.36v-.12m0-.12v-.12m4.32.121h-.12m-5.52 89.4v-.12m.36.12v-.12m-.36-.12v.24m.36 0v-.24m-.36 0v-.12m.36.12v-.12m-.36.12h-.96m0 .24v-.12m0-.12v-.12m2.28.36v-.12m0-.12v-.12m4.32.12h-.12m-5.52-12.72v-.12m.36.12v-.12m-1.32.12v-.12m0-.12v-.12m2.28.36v-.12m0-.12v-.12m4.32.12h-.12m-5.52-88.92v-.12m.36.12v-.12m-1.32.12v-.12m0-.12v-.12m2.28.36v-.12m0-.12v-.12m-1.08 98.04v-4.68l.12-.84v-3.36m-.36 0v3.36l.12 1.32v4.2l-.12.36v4.2m.36 0v-3.36l-.12-1.2m-.24 4.56h.36m-.24-4.56h.12m-.12-4.2h.12m-.24-4.68h.36m-.12-80.28v-4.68l.12-.84v-3.36m-.36-.001v3.36l.12 1.2v4.32l-.12.36v4.2m.36.001v-3.36l-.12-1.2m-.24 4.559h.36m-.24-4.56h.12m-.12-4.32h.12m-.24-4.56h.36m-11.76 1.681h.24m0 10.2h-.24m0 78.96h.24m-.96-.6v8.64m-.48-7.92h.48m-9.48-.48v-.24h9.48v.72m-13.32 209.76 2.4-3.96m6.48 1.8-.12-.84-.36-.84-.48-.72-.72-.6-.84-.36-.96-.12-.84.12-.84.36-.72.48-.6.72m6.6 7.44v-5.64m-9 5.76v-3.6m2.16 3.6h-2.16m5.76-.72h-.36m-2.52 0h-.36m10.32-7.56h-3.36m-.12 0h-.24m3.72 0v7.56m-.36.48h-.36m-2.64-7.68h-.12v-4.56m.12 0v4.56h-.12m-.36 2.16v-2.64h.12v2.64m-3.481-6-1.08.24-.96.36-.96.6-.84.72-.72.96-.48.96-.24 1.08-.12 1.08m9.121-6.36-3.72.36m0 .12 3.72-.36m-3.721.36-.96.24-1.08.36-.96.6-.72.72-.72.84-.48.96-.24 1.08-.12 1.08m9.001-6.36-3.72.36m3.48 3.36v2.64m-3.481-6-1.08.24-.96.36-.96.6-.84.72-.72.96-.48.96-.24 1.08-.12 1.08m6.361 0-.12-.48-.24-.36-.36-.24-.48-.12-.48.12-.36.24-.24.36-.12.48m2.28 0-.12-.36-.24-.36-.36-.24-.36-.12-.36.12-.36.24-.24.36-.12.36m0 0 .12.36.24.36.36.24.36.12.36-.12.36-.24.24-.36.12-.36m-2.28 0 .12.48.24.36.36.24.48.12.48-.12.36-.24.24-.36.12-.48m.12 0-.12-.48-.24-.48-.48-.24-.48-.12-.48.12-.48.24-.24.48-.12.48m4.92 5.28h2.52m2.16.36v.12h-4.68m4.44-.36v-.12m0 0v-.12m-3 21.48v-.12m.36-2.88v2.16m-10.56-1.08v-18.96m13.2 0v20.04m-7.08-536.04h-.12m-1.56 4.08 1.68-4.08m-1.68 4.08 1.56-4.08m0 0 .12-.12m6.84.84h-.12m.72 3.36h-.12l-.6-3.36m.12 0 .6 3.36m-.12 2.16h.12v-2.16m-.12 2.16v-2.16h.12m-9.12 2.16v-2.16zm9 .36h-.12v-2.52m-.48-3.72-.12.12.6 3.6m-7.08-4.44.12.12-1.8 4.32m-.12 2.52h.12v-2.52m8.28-3.721-.36-.84-.36-.72-.72-.6-.72-.36-.84-.24h-.84l-.84.24-.72.48-.6.6-.48.72m-1.8 6.961h8.76m.12.12h-9v-.12m9 .12v-.12m-4.32-11.52-3.6-.36m9 6.24-.12-1.08-.24-1.08-.48-.96-.72-.84-.72-.72-.96-.6-1.08-.36-.96-.24m5.4 5.88-.12-1.08-.24-1.08-.48-.96-.72-.96-.84-.72-.96-.6-.96-.36-1.08-.24m4.2 8.88.48-.6.36-.72.12-.84.12-.72m-8.64-.6v-2.04h-.12m3.36-3.36v-.12l-3.6-.24m.24 3.72v2.4m8.88.24-.12-1.08-.24-1.08-.48-.96-.72-.96-.84-.72-.96-.6-.96-.36-1.08-.24m4.199 9.12.12-.12.24-.24.12-.24.12-.24.24-.24.12-.36.12-.24v-.24l.12-.36v-.84m-9.119-2.28h-.12v-4.44m.12 4.44v-4.44m5.16 6.72-.12-.48-.24-.36-.36-.24-.48-.12-.48.12-.36.24-.24.36-.12.48m2.28 0-.12-.36-.24-.36-.36-.24-.36-.12-.36.12-.36.24-.24.36-.12.36m-.001 0 .12.36.24.36.36.24.36.12.36-.12.36-.24.24-.36.12-.36m-2.279 0 .12.48.24.36.36.24.48.12.48-.12.36-.24.24-.36.12-.48m.12 0-.12-.48-.24-.48-.48-.24-.48-.12-.48.12-.48.24-.24.48-.12.48m-2.4-2.52h-.24m-.12 0h-4.8m.72 8.04h-.36m-.36-8.04v7.44m3.84 0h-4.44m.12.36v-.12m0 0v-.12m10.44 18.24v2.88m-7.92-2.88v2.88h7.92m-7.92-2.88h7.92m2.64 2.88h-2.64m-7.92 0h-2.64v-20.52m1.08 0h.12m12 .12v20.4m-13.08.6v-.6m13.08 0v.6m-8.64-.24v-.12m-4.08.12v-.12m12.36 0v.12m-8.4-.12v.12m4.44 0v-.12m4.32.36h-13.08m-2.04 289.08v-2.88 6.72m0-122.64v-.12 6.48m0 .96v6.72m0-14.04v6.36m0 4.8v2.88m41.76 14.88v-17.04l1.44-1.32v19.8zm-.001-17.04h-2.76m-23.4 0h-.24m27.84-1.32h-9.36m-2.04 0h-1.44m-2.16 0h-1.44m-2.039 0h-9.36m-2.52 15.48v1.92m-1.44-1.92v1.92m0 .72v1.68m1.44-1.44h2.76m23.4 0h2.76m-30.36 1.44h10.68m10.44 0h10.68m-27.48-4.92h-.72v-8.04m.36-1.92h.36v9.96m0 .6h-10.92v-.12m15.48 5.64v.72m0 .12v8.64m14.04 0v-8.64m0-.12v-.72h-14.04m14.04 66.84v-9.48m-14.04 9.48h14.04m-14.04-9.48v9.48m13.32-59.281-.84-6.72m-11.76 58.56.84 6.72m0-65.28-.84 6.72m11.76 58.56.84-6.72m-1.08-62.519v2.4h1.2m-12.96 0h1.32v-2.4m0 73.08v-2.4h-1.32m12.96 0h-1.2v2.4m-15 2.4v11.28h-.48m0-11.28h.48m.12 11.28h-.12m0-11.28h.12m-.6-89.16h.48v11.28h-.48m.599 0h-.12m0-11.28h.12m-2.04 102.36v-.12m-1.2-89.04v-.12m1.2.12v-.12m-1.2 74.28v.12m1.2-.12v.12m0-89.28v.12m-9.36 89.16v1.68m9.721-1.8h-9.84v-.72h10.56m0-72.72h-10.56v-.72h9.84m-.601 89.88h1.32m-1.32-.72h.6m-.6-104.88h1.32m-1.32.72h.6m1.441 101.759h-.36m-1.08 0h-.24m1.68-99.36h-.36m.36-.12h-.36m-1.08 0h-.24m1.68.12v-.12m0 10.32h-.36m-1.08 0h-.24m1.68 78.961v10.2m0-99.36v10.2m20.16-13.2h.12v5.28m0 .12v5.28m0 .24v5.16h-.12m0-1.08v1.08m.24 0h-.12m.12-16.08h-.12m.12 0h.72v5.28m0 .12v5.28m0 .24v5.16m-21.48 0h-.12v-5.16m0-.24v-5.28m0-.12v-5.28h.12m0 16.08v-.12m0-15.96v-.12m0 16.2v-1.08m0-13.92v-1.08m-.24 16.08h.12m-.12-16.08h.12m-.84 16.08v-5.16m0-.24v-5.28m0-.12v-5.28m0 16.08v-.12m0-15.96v-.12m0 16.2h.72m-.72-16.08h.72m20.76 89.16v1.08m0 13.92v1.2m0-16.2v-.12m0 16.32v-.12m0-16.08h.12v5.28m0 .12v5.28m0 .24v5.28h-.12m.24 0h-.12m.12-16.2h-.12m.12 0h.72v5.28m0 .12v5.28m0 .24v5.28m0-16.2v-.12m-21.48 16.32v-.12m0-16.08v-.12m0 16.32v-1.2m0-13.92v-1.08m0 16.2h-.12v-5.28m0-.24v-5.28m0-.12v-5.28h.12m-.24 16.199h.12m-.12-16.2h.12m-.84 16.2v-5.28m0-.24v-5.28m0-.12v-5.28m0 16.2v-.12m0-16.08v-.12m0 16.32h.72m-.72-16.2h.72m20.76-74.04h-.12m-.48 0v-.12m-19.32.12v-.12m-.48.12h-.12m20.52 0v-.12m-20.52.12v-.12m20.52.24h-5.04m-.12 0h-4.56m-.24 0h-5.4m-.12 0h-5.04m20.52.841h-5.04m-.12 0h-4.56m-.24 0h-5.4m-.12 0h-5.04m20.52 88.32h-5.04m-.12 0h-4.56m-.24 0h-5.4m-.12 0h-5.04m20.52 0v-.12m-20.52.12v-.12m20.52 0h-.12m-.48 0v-.12m-19.32.12v-.12m-.48.12h-.12m20.52 1.079h-5.04m-.12 0h-4.56m-.24 0h-5.4m-.12 0h-5.04m0-15.36h5.04m.12 0h4.56m.12 0h5.52m.12 0h5.04m0 .12v-.12m-20.52.12h.12m.48 0v-.12m19.32.12v-.12m.48.12h.12m-20.52 0v-.12m0-.84h5.04m.12 0h4.56m.12 0h5.52m.12 0h5.04m-20.52-88.319h5.04m.12 0h4.56m.12 0h5.52m.12 0h5.04m0 .12v-.12m-20.52.12h.12m.48 0v-.12m19.32.12v-.12m.48.12h.12m-20.52 0v-.12m0-.841h5.04m.12 0h4.56m.12 0h5.52m.12 0h5.04m-11.04 107.52v-.12m2.4-1.079-.84 1.2h-1.56l-.96-1.2m.6-15.84h2.28m-2.28-89.16h2.28m0 102.72h-2.28m2.28-89.28h-2.28m2.4 89.28h-2.52m0-13.56h2.52m0-75.6h-2.52m0-13.68h2.52m-3.72 105.12h4.92v-.12m-4.92 0v.12m4.92-107.4v-.12m-4.92.12v-.12m4.92.24v-.12m-4.92 0v.12m4.92 107.16h-4.92m0-107.04v-.12h4.92v.12m-4.92 106.2v.84m-.24-107.04-1.92.84m9.12 0-1.8-.84h-.12m-.241 0h-4.8m-.12 0h-.12m5.4 107.04 1.8-.84m-7.2.84h.12m.12 0h4.8m.24 0h.12m-7.32-.84 1.92.84m14.28-1.92v-14.16m.12 14.16v-14.16m0-75v-14.16m-.12 14.16v-14.16m-23.16 103.44h.24m-.359 1.32h1.2m.12 0h5.88m9 0h7.2m-23.4 0v-.12m23.4.12v-.12m-23.4-.12v.24m23.4-1.2v1.2m0-15.72h-.48m-22.56 0h-.24m.24.12h-.24m23.28 0v-.12m0 0v-.12m0-1.08h-6.48m-10.44 0h-5.16m-.12 0h-1.2m23.4 0v-.12m-23.4.12v-.12m23.4 1.2v-1.08m-23.4.24v-.24m.12-73.56h.24m-.36 1.079v.12m23.4-1.08v1.08m-23.4.12h1.2m.12 0h5.16m10.44 0h6.48m-23.4-.12v.12m23.4-.12v.12m0-15.72h-.48m-22.56 0h-.24m-.12-.959v-.24m23.4-.12h-7.2m-9 0h-5.88m-.12 0h-1.2m23.4.12v-.12m-23.4.12v-.12m21.84 90.72v14.04zm-20.4 13.92v-1.32m0-11.28v-1.32m.12 14.04h7.08m.12 0v-.12m-7.2-13.92h7.08m.12 0v-.12m5.76 14.16v-.12m.24.12h7.08m-7.32-14.04v-.12m.24.12h7.08m-13.08 14.04h.12m-.12-14.04h.12m5.64 14.04v-.12m0-13.92v-.12m-5.64 14.16h1.56m2.52 0h1.56m-5.64-14.04h1.56m2.52 0h1.56m7.32-75.24v-13.92m0 14.04v-14.04m-20.4 13.919v-1.32m0-11.28v-1.32m.12 14.04h3.36m.12 0h3.24m.12 0h.24m.12 0v-.12m-7.2-13.92h3.36m.12 0h3.24m.12 0h.24m.12 0v-.12m5.76 14.16v-.12m.24.12h.24m.12 0h3.24m.12 0h3.36m-7.32-14.04v-.12m.24.12h.24m.12 0h3.24m.12 0h3.36m-7.32 14.04v-.12m0-13.92v-.12m-5.76 14.16h.12m-.12-14.04h.12m0 14.04h1.56m2.52 0h1.56m-5.64-14.04h1.56m2.52 0h1.56m1.08 121.801v23.76m-14.16-.001v-23.76h-.84m.84 3.361h14.16m-14.16 3.36h14.16m-14.16 0v-.12m0 3.6v-.12m14.16.12h-14.16m0 3.36h14.16m0 3.36h-14.16m0 3.48h14.16m-14.16 3.36h14.16m0 12.12v-.12m0 147.72h-14.16m14.16-147.6v24.36zm0 24.36v-24.36m0 24.36v123.48zm0-.24v142.8-19.32m0 .24v19.08m-14.16-19.08v19.08zm0-123.48v-.12m0 123.6v-21.6m0-17.52v-84.36m0 123.48v-20.88m0-18.24v-108.72 24.36m-15.72 141.48v-18.96h.36m-3.6 96.96h24.24m-17.04-4.92h5.16l11.88 4.92m0 0v-.12m-14.52.24v-.12m-9.84 0v-.12m24.24-14.52v14.64l-11.88-4.92v-3.84m.24-5.88h11.64m0 0v-.12m0 14.76v-.12m7.32 3.12h-21.72m35.639 5.76h-35.64v-5.76m35.64 5.76-13.92-5.76m13.92 5.88h-35.64v-.12m.001-8.76h14.52l7.2 3h-21.72m0-3v3m21.72 0v-.12m-21.72.12v-.12m-14.64.36v-31.56m0-1.44v-2.16m-7.92 40.56.36-.24m.48-.36 7.08-4.8m-7.92-35.16v2.16m0 1.44v36.96m7.92-40.56h-7.92m0 0h-.12m.12 40.56h-.12m0-40.56v2.16m0 1.44v36.96m8.04-40.56h.12v2.16m0 1.44v31.56h-.12m4.92-3.24v-28.32m0-1.44v-2.16m-4.8 35.16 4.8-3.24m0-31.92h-4.8m4.8 0v2.16m0 1.44v28.32m7.32-4.92v-3.84m0-7.44v-.12m0-2.04v-.12m-7.32 18.48 7.32-4.92m-.24-27h-7.08m.6 12.48h3.96v-7.08h-3.96zm3.84-7.08v.12m0 6.84v.12m40.919 28.08h-.12v-36.96m.001-1.44v-2.16h.12m0 40.56v-36.96m0-1.44v-2.16m-11.28 36 11.16 4.56m-11.16-40.56v2.16m0 1.44v32.4m11.16-36h-11.16m0 36v-.12m0-35.88v-.12m0 .12v2.16m0 1.44v32.4l-9.96-4.08v-28.32m0-1.44v-2.16h9.96m-9.96 17.28v-.12m0-17.16v-.12m0 .12v2.16m0 1.44v13.68h-11.64m-.24-1.56v-.12m0-2.04v-.12m.24-13.44h11.64m-37.08 40.68h.48m22.2-5.76h-14.16m14.16 5.04v-5.04m-14.64.24v-.12m-7.92 5.52-.12.12m22.68-8.76h-9.84m-4.32 3h14.16m0 0v-3m-14.16 3v-.12m14.16.12v-.12m24.36-34.8v-35.88m-9.96 35.88v-31.8l9.96-4.08m-9.96 35.88h9.96m-21.84-23.16v-3.84l11.88-4.8v14.52h-11.64m11.64 0v-.12m0-14.4v-.12m-11.64 14.64h11.64v17.28h-11.64m11.64 0v-.12m0-17.16v-.12m21.239 17.4h-.12v-36.48m.121 36.48v-36.48m0-2.88v-1.2m-11.28 4.68v35.88m11.16-40.56-3 1.2m-6.84 2.88-1.32.6m0 35.88h11.16m-21.001-31.92h-24.24m-.12 0v-.12m9.84 0v-.12m-2.52 5.16h5.16m-12.36-4.8v-.12m12.361 4.92 11.88-4.92m-37.2-8.76.12.12m7.92 5.4v-.12m.48.36h14.16m0 0v-1.56m0-2.88v-.6m35.639-.72h-35.64m.001-.12h35.64v.12m-35.64 0v-.12m0 5.88h21.72m0 0 3.96-1.56m6.84-2.88 3.12-1.32m-35.64 0v1.32m0 2.88v1.56m21.72 0h-21.72m14.52 3h-14.52v-3m14.52 3 7.2-3m-21.72 0h-14.16m4.32 3h9.84m0 0v-3m-9.72 3.12v31.8m0-31.8v-.12m7.32 18.48v-.12m0-2.04v-.12m0-7.44v-3.84m-7.32 27h7.08m.24-27-7.32-4.8m-4.92-3.36h.12v35.16h-.12m4.92-31.8v31.8h-4.8m4.8-31.8-4.8-3.36m17.16 8.16h-5.16m4.8.12v-.12m-24.84-13.56v1.2m0 2.88v36.48m7.92-35.16v35.16h-7.92m7.92-35.161-1.92-1.32m-4.2-2.88-.96-.6m-.48-.36-.36-.24m0 40.56h-.12m0-40.56v1.2m0 2.88v36.48m.12-40.56h-.12m17.4 55.201h3.96m2.76 0h5.76m-11.88-1.08h2.76m3.84 0h4.44l.84 1.08m-12.48 0 .6-1.08m0 2.04h2.76m3.84 0h4.44l.84-.96m-11.88.96-.6-.96m0-29.16h3.96m2.76 0h5.76m-11.88-1.08h2.76m3.84 0h4.44m-11.64 1.08.6-1.08m11.04 0 .84 1.08m-11.88.96h2.76m3.84 0h4.44m-11.04 0-.6-.96m12.48 0-.84.96m-12 26.4h.12v3.48h-.12m1.08 0v-.72m0-2.04v-.72m-.96 3.48h.96m-1.08-32.64h.12v3.48h-.12m1.08 0v-.72m0-2.04v-.72m-.96 3.48h.96m10.8 25.68v.72m0 2.04v.72m0-3.48h1.32v3.48h-1.32m1.32 0h.12v-3.48h-.12m.12-25.68h-.12v-3.48h.12zm-7.8-10.32h-2.52m2.52 46.32v-19.56m0-1.44v-25.32m0 46.32h-2.52v-7.44h.72l.6-1.08-.6-1.2h-.72m0-26.88v15.6m0 1.44v9.84m0-26.88h.72l.6-1.08-.6-1.08h-.72v-7.56m2.52 46.32h.12v-19.56m0-1.44v-25.32h-.12m.24 46.32h2.64m-2.64-46.32v25.32m0 1.44v19.56m0-46.32h2.64v7.56h-.72l-.6 1.08.6 1.08h.72m0 26.88v-9.84m0-1.44v-15.6m0 26.88h-.72l-.6 1.2.6 1.08h.72v7.44m-2.64-46.32h-.12m.12 46.32h-.12m-.48-23.16v-.12m0 3.84v-.12m1.08 11.4v-.12m0 3.84v-.12m0-37.32v-.12m0-3.6v-.12m-1.08.12v-.12m0 0v-.12m1.08 3.96v-.12m0 30.12v-.12m0 .24v-.12m0-.12v-.12m-1.08 3.96v-.12m1.08-14.88v-.12m0-7.32v-.12m-.6 51.12h40.32v1.44h-40.32m0 0v-1.44m38.88-12.36h.12m-.12.12h.12m-.12 6.12h.12m-.12-.24h.12m-25.92-79.32v-.12m.12.12v-.12m7.44.12v-.12m-.12.12v-.12m7.68.12v-.12m-.12.12v-.12m7.68.12v-.12m-.24.12v-.12m-29.88 84.48v-.12m-.12.12v-.12m7.68.12v-.12m-.12.12v-.12m7.56.12v-.12m-.12.12v-.12m7.68.12v-.12m-.12.12v-.12m-26.76-84.24v-.12m-.12.12v-.12m.12 84.48v-.12m-.12.12v-.12m4.44-84.24v-.12m-.12.12v-.12m30 84.48v-.12m.24.12v-.12m3.12 0 .12.12m-.12-84.36h.12m1.32 0h-40.32v-1.44m0 87.12v-1.32h40.32-1.32m1.32-84.36h-1.32v84.36m2.76 2.76h-1.44v-90h1.44m0 90v-90m-41.76 1.44h40.32v-1.44m-40.32 1.44v-1.44h40.32m-40.32 2.88h38.88m-38.88 9.96v-4.32m0-2.88v-.6m0-.96v-1.2h38.88m-38.88 9.96v-.12m35.64 73.08 3.24 1.32m-3.241-82.92 3.24-1.32v2.64h-1.8v.12m.001 2.88v.12h1.8v38.28h-1.8v.24m0 1.44v.12h1.8v38.4m0-84.24v2.64m0 3.12v38.28m0 40.2v-38.4m0 38.4v-.12m-1.8-78.36v-.12m0-2.88v-.12m0 43.2v-.12m0-1.44v-.24m-37.08 40.2h38.88m-38.88-9.96v7.8m0 .96v1.2m38.88.12h-38.88v-.12m38.88.12v-.12m-38.88-9.96v-.12m-23.04-28.44h60.36m-60.36-1.44h60.36m.48.96v.24m0-1.08v.24m-61.44.84v-.24m0-.6v-.24m61.2-41.28h-.24m.24 2.16h-.24v-2.16m.24 2.16v-2.16m0 2.16v.36m-60.6-2.52h-.24m.24 2.16h-.24v-2.16m.24 2.16v-2.16m0 2.16v.36m60.84-2.52h-.24m0 2.16h.24v-2.16m-61.08 2.16h-.36v-2.16m0 1.2v-.24m34.32-.36v-.12m-7.2.12v-.12m33.84-.84H5.468m60.36.36H5.468m0 2.16h60.36m0 .36H5.468m-3.36-7.08v-2.28m.24 90.84v.84h-.24v-2.28m4.56-3.6h21.84v.24h-22.2zm21.84.24v.72h-22.2v-.72m22.2-80.4h-22.2v-.72h22.2zm0 .24H6.668l-.36-.24m22.2-3.36H2.348v-1.44h26.16m-21 2.88v-.12m.12.12v-.12m7.32.12v-.12m.12.12v-.12m7.44.12v-.12m.12.12v-.12m-15.12 84.48v-.12m.12.12v-.12m7.44.12v-.12m-.12.12v-.12m7.68.12v-.12m-.12.12v-.12m5.88.12v-.12m.12.12v-.12m-.12-84.24v-.12m.12.12v-.12m-23.64 4.92h-1.08m1.08.12v-.12m0 0v-.12m-1.08 55.32v-.12m0 0v-.12m0-8.76v-.12m0 .24v-.12m0-8.76v-.12m0 0v-.12m0-8.76v-.12m0 0v-.12m0-8.64v-.12m0 0v-.12m0 49.32v-.12m0 0v-.12m0-62.16v-.12m0-.12v-.12m0 9.24v-.12m0 0v-.12m0 9v-.12m0 .24v-.12m0 9.12v-.12m0-.12v-.12m0 9.24v-.12m0 0v-.12m0 9.12v-.12m0 0v-.12m0 9.24v-.12m0-.12v-.12m0 4.8v-.12m0-.12v-.12m0 10.92v-.12m0-.12v-.12m24.72 7.92H2.348m26.16-1.44H2.348v1.44m-.001-2.76h26.16m0-84.36H2.347m1.44 84.36.12-.12m-.12-84.24h.12m0 84.24-.12.12m.001-84.36h24.72-24.6m1.2 2.64h-1.2v-2.64l1.92 1.44m0 81.48-1.92 1.32v-38.16h1.2v-.36m0-1.44v-.36h-1.2v-38.04h1.2v-.24m-1.2 38.28h-.12v-38.04h.12m0-3.24h-.12v-2.64h.12m-.12 84.24v-38.16h.12m-.12 38.16h.12m1.08-81.6v.12m0 2.88v.24m.12 38.04v.36m0 1.44v.36m-1.2 38.16h24.6m0 .12h-24.6v-.12m-1.56-85.68H.188m2.16 87.12H.188v-87.12m2.16 0v87.12m1.44-85.68v84.36h-1.44m17.04-36.72h.12v6.84h-.12m.12-6.84h3.84v6.84h-3.84m3.6.12v-.12m0-6.84v-.12m-.12 7.08v-.12m0-6.84v-.12m0 3.48v-.12m0 .24v-.12m8.16 18.24v-.12m0-54v-.12m-.12.12v-.12m0 13.68v-.12m0-2.04v-.12m0-7.44v-3.84m0 54v-3.84m0-7.44v-.12m0-2.04v-.12m-5.04 13.56h5.16m-5.04-54v3.84m0 7.56v-.12m0 2.16v.12m0 40.44v-.12m0-13.44v.12m0 2.04v.12m0 7.44v3.84m14.88-321.12h14.04m0-47.88h-14.04m-20.52-29.28v3.96h-2.52v-3.96zm-2.52 3.96-.24-.12v-3.6l.24-.24m2.52 0 .24.24v3.6l-.24.12v.12h-2.52m2.76-.24v.12l-.24.12v.24h-2.52v-.24m2.52.24v.6h-2.52m2.64-4.8v-.12h-.36l-.12-.12h-1.8l-.12.12h-.36v.12m2.88-4.56v-.12h-.24l-.12-.12h-2.4v.12h-.24v.12m2.88 3.84h.12v-.12h-.36v-.12h-2.28l-.12.12h-.24v.12h.12m2.76 0v-.12h-.24l-.12-.12h-2.04l-.12.12h-.24v.12m2.64.36h.12v-.12h-.12v-.12h-.84l-.12-.12h-.6l-.12.12h-.84v.12h-.12v.12h.12m2.28 0h-.24v-.12h-1.56l-.12.12h-.24m-.6 2.52v1.8m3.48-1.8v1.8m-.12-9.36v-.12h-.24v-.12h-.96l-.12-.12h-.72v.12h-.96v.12h-.24v.12m3.12.84h.12v-.12h-.24v-.12h-1.08l-.12-.12h-.36l-.12.12h-1.08v.12h-.24v.12h.12m2.639-1.321h-.12l-.12-.12h-1.92v.12h-.12m6.121-174.239v13.8m0 17.4v146.64m-.12-177.72v13.68m0 17.4v146.64m2.52-177.84v13.8m0 17.4v146.64m6.36-177.84v13.8m0 17.4v146.64m-2.4-177.84v13.8m0 17.4v146.64m2.4-177.72v13.68m0 17.4v146.64m-10.32 0h11.88v9.12h-11.88zm11.88 9.12v4.92h-11.88v-4.92m0 5.52h11.88v-.6m-11.88-18.12h1.44m8.88 0h1.44m-11.76 0h-.84m1.2-.6v-.96m-.36 12.96h-.12v-6.24h.12m11.88 0h.12v6.24m-12.12-3.24h-.24v2.04m12.36-2.04h.24v2.04m-12.6-1.68v1.8m-.6-1.68v1.56m13.2-1.68v1.8m.48-1.68v1.56m-13.92-1.32v1.08m14.28-1.08v1.08m.48-.96v.84m-13.56-23.76h1.44m8.88 0h1.44m-11.76 0h-.84m13.44 25.8v7.56h-13.32v-7.56m0 7.56h13.32m-12.6.24h11.88v-.24m-12.24-8.64v.12m12.6-.12v.12m-12.24-6.84v-4.08m-.84 4.92v-4.92m12.6 4.08v-4.08m.84 4.92v-4.92m-14.161 5.759v3.24m0 .84v2.04m15-6.12v3.24m0 .84v2.04m-13.44-13.44v-12.36m-.84 12.84v-12.84m12.6 12.36v-12.36m.84 12.84v-12.84m.001-13.919h-.84m-11.76 0h1.44m8.88 0h1.44m-11.76 0h-.84m13.44 0v-.12m-13.44 0v.12m1.2-.72v-.96m-1.2 32.4h-.12v-2.52h.12m13.44 0h.12v2.52h-.12m-2.04-176.52v4.56m0 1.56v7.56m0 17.4v1.32m0 1.68v12.36m0 1.56v12.36m0 1.68v12.24m0 1.68v12.36m0 1.56v12.36m0 1.68v12.24m0 1.68v12.36m0 1.56v12.36m0 1.68v12.24m0 1.68v12.36m0 1.56v4.08m-9.24-177.72v4.56m0 1.56v7.56m0 17.4v1.32m0 1.68v12.36m0 1.56v12.36m0 1.68v12.24m0 1.68v12.36m0 1.56v12.36m0 1.68v12.24m0 1.68v12.36m0 1.56v12.36m0 1.68v12.24m0 1.68v12.36m0 1.56v4.08m-1.32-19.56v-12.36m-.84 12.84v-12.84m12.6 12.36v-12.36m.84 12.84v-12.84m-13.44 19.08h-.12v-2.52h.12m13.44 0h.12v2.52h-.12m0-33.12h-.84m-11.76 0h1.44m8.88 0h1.44m-11.76 0h-.84m13.44 0v-.12m-13.44 0v.12m1.2-.6v-.96m12.24 62.88v.96h-13.32v-.96m0 .96h13.32m-12.6-49.8v-12.48m-.84 12.96v-12.96m12.6 12.48v-12.48m.84 12.96v-12.96m0-13.92h-.84m-11.76 0h1.44m8.88 0h1.44m-11.76 0h-.84m13.44 0v-.12m-13.44 0v.12m1.2-.72v-.96m-.36 14.04v-12.36m-.84 12.84v-12.84m12.6 12.36v-12.36m.84 12.84v-12.84m0-13.92h-.84m-11.76 0h1.44m8.88 0h1.44m-11.76 0h-.84m13.44 0v-.12m-13.44 0v.12m1.2-.72v-.96m-.36 14.04v-12.36m-.84 12.84v-12.84m12.6 12.36v-12.36m.84 12.84v-12.84m-12-14.64v-.96m12 1.56h-.84m-11.76 0h1.44m8.88 0h1.44m-11.76 0h-.84m13.44 0v-.12m-13.44 0v.12m.84 12.48v-12.48m-.84 12.96v-12.96m12.6 12.48v-12.48m.84 12.96v-12.96m-13.56 19.2h.12m0-2.52h-.12v2.52m13.56-2.52h.12v2.52h-.12m0-33.12h-.84m-11.76 0h1.44m8.88 0h1.44m-11.76 0h-.84m13.44 0v-.12m-13.44 0v.12m1.2-.72v-.96m-.36 14.04v-12.36m-.84 12.84v-12.84m12.6 12.36v-12.36m.84 12.84v-12.84m0-13.921h-.84m-11.76 0h1.44m8.88 0h1.44m-11.76 0h-.84m13.44 0v-.12m-13.44 0v.12m1.2-.72v-.96m-.36 14.04v-12.36m-.84 12.84v-12.84m12.6 12.36v-12.36m.84 12.84v-12.84m0-14.039h-.84m-11.76 0h1.44m8.88 0h1.44m-11.76 0h-.84m13.44 0v-.12m-13.44 0v.12m1.2-.6v-.96m-.36 14.039v-12.48m-.84 12.96v-12.96m12.6 12.48v-12.48m.84 12.96v-12.96m-12-14.52v-1.08m12 1.681h-.84m-11.76 0h1.44m8.88 0h1.44m-11.76 0h-.84m13.44 0v-.12m-13.44 0v.12m1.2-.72v-.96m-.36 14.04v-12.36m-.84 12.84v-12.84m12.6 12.36v-12.36m.84 12.84v-12.84m-13.56 19.08h.12m0-2.52h-.12v2.52m13.56-2.52h.12v2.52h-.12m-10.68-53.4v-1.8m0-29.4v-8.52m0 39.72-2.88.48v-40.2m3.359 39.72v-1.8m0-29.4v-8.52m0 39.72h-.48m8.04 0v-1.8m0-32.76v-5.16m-.599 5.04v-5.04m3.48 40.2v-2.28m0-31.32v-6.6m0 40.2-2.88-.48m-.6 0h-6.96m10.44.48v.48h-.48v-.36l-2.4-.48h-8.04l-2.52.48v.36m9.96-.96v-.12m-6.96.12v-.12m-2.4 32.88v-1.44m-.84 1.92v-1.92m12.6 1.44v-1.44m.84 1.92v-1.92m0-24.96h-.84m-11.76 0h1.44m8.88 0h1.44m-11.76 0h-.84m13.44 0v-.12m-13.44 0v.12m12.36-1.56h-.24m-11.28 9.12v-7.56m-.84 7.56v-7.56m12.6 7.56v-7.56m.84 7.56v-7.56m-12.6-1.56v-4.32m-.84 4.8v-4.32m12.6 3.84v-4.32m.84 4.8v-4.32m-12.6-135.84h11.88v5.16m-9.84-4.44v4.44m7.679 0v-4.44h-7.68m-2.039-.72v5.16m9.72-4.44h-7.68m-2.04-4.2h11.88v3.48M22.628.188v3.48m-2.64-2.52v-.72h2.64m-.72 8.4v-7.68h-1.92m14.52-.72h2.64v.72h-1.92v7.68m-15.24 0v-7.68h1.92m13.32 0h1.8v7.68m-2.64 181.68h-1.2m-9.24 0h-1.32m11.76.84h-1.2m-9.24 0h-1.32m11.76 55.92h-1.2m-9.24 0h-1.32m11.76-.84h-1.2m-9.24 0h-1.32m11.76 56.64h-1.2m-9.24 0h-1.32m11.76-.84h-1.2m-9.24 0h-1.32m13.68 12.6h-.96m-13.68-1.2h-.84m.84 1.2h-.96m11.04 11.28v.36h-6.36m6.36-.36h-6.36v.36m0 4.08h6.36zm6.36-4.08v.12h-6.36v3.96-4.08m0 3.72h6.36v-3.6m-13.8 94.44h2.52m0 .24h-2.52v3.84m2.52-3.84v3.84h-2.52m2.76-3.72v3.6l-.24.12m-2.52 0-.24-.12v-3.6m.24-1.08h2.52m0 .48h-2.52v.24m-.24.12v-.24m2.76.12v-.24m.24.12v.24m-2.88 3.96h.12v.12h1.2v.12l.12-.12h1.08l.12-.12h.12m-2.76.6h-.12v.12h.12v.12h.6l.12.12h1.32l.12-.12h.6v-.12h.12v-.12h-.12m-2.76.12.12.12h.6l.12.12h1.08l.12-.12h.6v-.12h.12m-2.88 3.84h.12v.12h.48l.12.12h1.56l.12-.12h.48v-.12h.12m-2.76-4.32h-.12v.24h.36v.12h2.04v-.12h.36v-.24h-.12m-2.401 0h.12v.12h.72l.12.12h.36l.12-.12h.72v-.12m.721-2.52v-1.68m-3.48 1.68v-1.68m.24 8.4h-.12v.12h.12v.12h.48v.12h2.04v-.12h.48v-.12h.12l-.12-.12m-3.12.96h.12v.12h.48v.12h2.04v-.12h.48v-.12h.12m-2.761.36v.12h.48l.12.12h1.08l.12-.12h.48v-.12m10.201 174.36v-1.08m0-17.4v-159.36m2.4 177.72v-.96m0-17.4v-159.36m0 177.72v-.96m0-17.4v-159.36m-8.76 177.72v-.96m0-17.4v-159.36m2.4 177.84v-1.08m0-17.4v-159.36m-2.52 177.72v-.96m0-17.4v-159.36m-1.44-9.24h11.88m-11.88-4.92h11.88v4.92m-11.88 0v-4.92m0 14.16h11.88v-9.24m-11.88 9.24v-9.24m0-5.52h11.88v.6m-.12 18.12h-1.44m-8.88 0h-1.44m11.76 0h.84m-13.08.48v.96m.84.24h.24m10.92-.96v.96m.36-6.84h.12v-6.12m-12 6.12h-.12v-6.12m0 1.08h-.24v2.04h.24m12.12 0h.24v-2.04m0 1.44v.36-1.92m.479 1.8v-1.68m-13.08 1.8v-1.92m-.6 1.8v-1.68m14.04 1.44v-1.2m-14.28 1.2v-1.2m14.76 1.08v-.84m-1.799 23.64h-1.44m-8.88 0h-1.44m11.76 0h.84m-13.08.48v.96m.84.24h.24m10.92-.96v.96m1.08-35.04h-13.32zv7.56m-13.32 0v-7.56m12.6 0v-.12m-11.88.12v-.12h11.88m.36 8.88v-.12m-12.6.12v-.12m.36 6.84v3.96m-.84-4.8v4.8m13.44-4.8v4.8m-.84-3.96v3.96m-13.321-5.761v-3.12m0-.84v-2.16m15 6.12v-3.12m0-.84v-2.16m-13.44 13.44v12.36m-.84-12.84v12.84m13.44-12.84v12.84m-.84-12.36v12.36m-12.599 14.041h.84m11.76 0h-1.44m-8.88 0h-1.44m.36 1.68.24-.12m10.92-.96v1.08m-12.36-29.88h-.12v-2.52m13.56 2.52h.12v-2.52m-11.4 176.52v-.96m0-17.4v-.12m0-1.68v-12.36m0-1.68v-12.24m0-1.68v-12.24m0-1.68v-12.36m0-1.68v-12.24m0-1.68v-12.24m0-1.68v-12.36m0-1.68v-12.24m0-1.68v-12.24m0-1.68v-12.36m0-1.68v-12.24m0-1.68v-3.96m9.24 177.72v-.96m0-17.4v-.12m0-1.68v-12.36m0-1.68v-12.24m0-1.68v-12.24m0-1.68v-12.36m0-1.68v-12.24m0-1.68v-12.24m0-1.68v-12.36m0-1.68v-12.24m0-1.68v-12.24m0-1.68v-12.36m0-1.68v-12.24m0-1.68v-3.96m-10.56 19.56v12.36m-.84-12.84v12.84m13.44-12.84v12.84m-.84-12.36v12.36m-12.6-16.68h-.12v-2.4m13.56 0h.12v2.4h-.12m-13.44 30.6h.84m11.76 0h-1.44m-8.88 0h-1.44m-.84 0v.12m1.2 1.56h.24m10.92-.96v.96m-12.24-63.84h13.32zm13.32 0v-.12m-13.32.12v-.12m13.32.96v-.84m-13.32.84v-.84m.72 49.8v12.36m-.84-12.84v12.84m13.44-12.84v12.84m-.84-12.36v12.36m-12.6 13.92h.84m11.76 0h-1.44m-8.88 0h-1.44m0-12.36v12.36m-.84-12.84v12.84m13.44-12.84v12.84m-.84-12.36v12.36m-12.6 14.04h.84m11.76 0h-1.44m-8.88 0h-1.44m0-12.36v12.36m-.84-12.84v12.84m13.44-12.84v12.84m-.84-12.36v12.36m-12.6 13.919h.84m11.76 0h-1.44m-8.88 0h-1.44m12.6-12.839v12.84m-.84-12.36v12.36m-11.76-12.36v12.36m-.84-12.84v12.84m0-16.56h-.12v-2.52h.12m13.44 2.52h.12v-2.52m-13.56 33h.84m11.76 0h-1.44m-8.88 0h-1.44m0-12.36v12.36m-.84-12.84v12.84m13.44-12.84v12.84m-.84-12.36v12.36m-12.6 14.04h.84m11.76 0h-1.44m-8.88 0h-1.44m.36 1.68.24-.12m10.92-.96v1.08m-11.52-14.04v12.36m-.84-12.84v12.84m13.44-12.84v12.84m-.84-12.36v12.36m-12.6 13.92h.84m11.76 0h-1.44m-8.88 0h-1.44m0-12.361v12.36m-.84-12.84v12.84m13.44-12.84v12.84m-.84-12.36v12.36m-12.6 13.921h.84m11.76 0h-1.44m-8.88 0h-1.44m-.84 0v.12m1.2 1.56h.24m10.92-.96v.96m1.08-14.52v12.84m-.84-12.36v12.36m-11.76-12.36v12.36m-.84-12.84v12.84m0-16.56h-.12v-2.52h.12m13.44 0h.12v2.52h-.12m-13.44 30.6h.84m11.76 0h-1.44m-8.88 0h-1.44m.36 1.68.24-.12m10.92-.96v1.08m-12.48 57.24v-39.12l2.88.48v9.48m10.44-10.32h.48v.36l-2.88.48h-8.04m-2.88-.48v-.36h.36v.36l2.52.48h8.04l2.4-.48v-.36m-9.961.84v9m7.56-9v11.4m2.88-11.88v19.44m-3.48-18.96v11.4m-9.359-44.041v12.36m-.84-12.84v12.84m13.44-12.84v12.84m-.84-12.36v12.36m.84 1.081v.72m-.84-.24v.24m-11.76-.24v.24m-.84-.72v.72m.84 17.4v.72m-.84-.72v.24m13.44-.24v.24m-.84-.24v.72m-11.76 135.36h11.88m-2.16-.72v-4.56m-7.68 0v4.56h7.68m-9.72.72v-5.28m11.88 5.28v-5.28m-9.84 4.56h7.68m2.16 4.2h-11.88v-3.48m11.88 3.48v-3.48m2.64 2.52v.72h-2.64m.72-8.52v7.8h1.92m-14.52.72h-2.64v-.72h1.92v-7.8m15.12 0v7.8h-1.8m-13.32 0h-1.92v-7.8m2.64-238.321h1.32m9.24 0h1.2m-11.76.84h1.32m9.24 0h1.2m-11.76 55.8h1.32m9.24 0h1.2m-11.76-.84h1.32m9.24 0h1.2m-13.68 56.88h.96m13.8-1.2h.36m-.36 1.2h.36m-15-179.04h.84m-.96-1.32h.96m13.68.001h.96m-4.56-15.6h-6.36m6.36-.12h-6.36m0 4.08h6.36zm6.36-3.96v3.96-4.08m-6.36 0v.12m0 3.96v-.12m0 .48h6.36v-.36m0-3.6h-6.36v3.6m12.36-141.12h11.28m0 3.24h-11.28m11.28 3.36h-11.28m11.28 3.36h-11.28m-.12-13.321h.12v19.92h-.96v-19.92m13.2.001v19.92h-.96m0 0v-19.92m0 16.56h-11.28m11.28-189.84h-11.28m11.28 25.68h-11.28m0-25.44h11.28m.12 148.8v24.24zh-.12m.12 24.24h-.12v-24.24m.12-123.48v123.72m0-.24v-123.48h-.12v123.48m0-123.48v-25.32h.12v25.32m0 .12v-25.44m-11.4 25.32v-.12m0-25.2v25.32zm0 148.8v-.12m0-123.36v27.36m0 17.4v78.72m0-123.48v27.36m0 17.4v78.72m0 24.24v-.12m11.28.12h-11.28m-15.24-136.08h13.56m-13.56-.6h.24m6.48-37.32h40.32m-40.32-1.32h40.32v1.32m0-90h1.44v90h-1.44m0-90.001v90m-39-2.76v-.12m-.12.12v-.12m0-84.24v-.12m.12.12v-.12m-1.32-2.759h40.32v1.44h-40.32zm40.56 90.96v.96m-.24-.96v.96m-34.8-4.68v-.12m.12.12v-.12m7.44.12v-.12m.12.12v-.12m7.44.12v-.12m-.12.12v-.12m7.56.12v-.12m.12.12v-.12m7.32.12v-.12m.12.12v-.12m-30.12-84.24v-.12m.12.12v-.12m7.44.12v-.12m.12.12v-.12m7.32.12v-.12m.12.12v-.12m7.56.12v-.12m-.12.12v-.12m12.24 84.48h-40.32v1.44m38.88-74.76h.12m-.12-.12h.12m-.12-6h.12m-.12-.12h.12m-41.4 10.44h-.12m.12 13.44v-.12m0-1.92v-.12m0-7.56v-3.72m-.12 53.88h.12v-3.84m0-7.44v-.12m0-2.04v-.12m-.12-40.44h5.16m0 0v-.12m-4.56 1.56v-.12m4.44-1.2v3.72m0 7.56v.12m0 1.92v.12m0-13.44v-.12m0 54v-.12m0-13.32v-.12m0 2.16v.12m0 7.44v3.84m.12-54v-.12m0 54.12v.12m33-69.24v-.12m-.12.12v-.12m-40.92 36.96v-.12m0-6.96v-.12m19.92-19.44h-24.36m9.84-.12v-.12m2.64 5.16h-5.16m17.04-4.92-11.88 4.92m-11.28-4.68v-.12m23.04 14.52v-14.52m-11.88 4.92v3.72m.12 5.88h11.76m0-14.52-11.88 4.92m-2.52-13.68h35.64m-13.92 5.64h-21.72m35.64-5.64-13.92 5.64m-21.72 0v-5.64m0-.12h35.64v.12m-13.92 5.64v.12h-21.72v-.12m14.52 3h-14.52m0 0v-2.88m21.72 0-7.2 2.88m-37.08-8.64h-.12m.12 40.56v-2.04m0-1.44v-37.08m0 40.56h-.12v-2.04m0-1.44v-37.08m.12 0 .36.24m.48.36 7.08 4.8v31.68m0 1.44v2.04h-7.92m7.92 0v-2.04m0-1.44v-31.68l4.92 3.36v28.32m0 1.44v2.04h-4.92m0 0v-.12m0-35.04v-.12m4.92 35.28v-2.04m0-1.44v-28.32l7.2 4.92v3.72m0 7.56v.12m0 1.92v.12m-.12 13.44h-7.08m.6-5.28h3.96v-7.08h-3.96zm3.84 0v-.12m0-6.96v-.12m29.64 12.48v-2.04m0-1.44v-32.4l11.16-4.68v37.08m0 1.44v2.04h-11.16m11.16-40.56h.12v37.08m0 1.44v2.04m-21.24-31.8v28.32m0 1.44v2.04m9.96 0v-2.04m0-1.44v-32.4m-9.96 35.88h9.96m0-35.88-9.96 4.08m9.96 31.8v-.12m0-35.76v-.12m-21.84 20.4v.12m0 1.92v.12m11.88-3.84h-11.76m11.76 17.28v-2.04m0-1.44v-13.8m-11.76 17.28h11.76m0 0v-.12m0-17.16v-.12m-14.4-17.52h-14.16m-8.52-5.64h.48m7.56 5.4v-.12m-7.92-5.28h-.12m22.68.6v5.04m0 0v.12h-14.16m0-.12v-.12m14.16 3.12h-9.84m9.84-2.88v2.88m24.36 31.92v36l-9.96-4.08v-31.92zm0 36v-.12m0-35.88v-.12m-9.96 32.04v-14.52m0 14.52-11.88-4.92v-3.84m.12-5.76h11.76m0-.12v-17.28m0 17.28h-11.76m-.12-1.56v-.12m0-2.04v-.12m.12-13.44h11.76m21.12 0v36.6m0 2.76v1.32l-3-1.32m-6.84-2.76-1.32-.6v-36h11.16m0 40.68h.12m0-40.68v36.6m0 2.76v1.32m-.12-40.68h.12m-38.16 27.12h5.16m11.88 4.8h-24.36m.12 0v-.12m12.36-4.68 11.88 4.8m-14.52.24v-.12m-9.84-.12v-.12m24.36.12v-.12m-14.52 3.12v1.68m0 2.76v.72m-14.64-4.8v-.12m.48-.24h14.16m0 0h21.72l3.84 1.68m6.96 2.76 3.12 1.32h-35.64m0 0v-1.32m0-2.76v-1.68m0 5.88h35.64v-.12m-35.64-8.76h14.52m7.2 3h-21.72m0 0v-3m14.52 0 7.2 3m-21.72 0v-.12m21.72.12v-.12m-21.72.12h-14.16m4.32-3h9.84v3m0 0v-.12m-14.16.12v-.12m11.64-11.64v3.84l-7.2 4.92v-31.92m0 0h7.08m-7.08 31.92v-.12m0-31.8v-.12m-4.92 35.28v-35.16m4.92 0v31.92l-4.92 3.24m0-35.16h4.92m-4.92 35.16v-.12m0-35.04v-.12m17.28 27.12v.12h-5.16m.48-.24v-.12m4.68.36v-.12m-17.28-27v35.28l-1.92 1.32m-6 0v-36.6m0 0h7.92m-8.04 36.6v-36.6h.12m62.88-42.12h-40.32v-1.44m39 85.8v-84.36h1.32m-42.96 57.84h.72l.6-1.08-.6-1.08h-.72v-15.6m0-1.44v-9.96h.72l.6-1.08-.6-1.08h-.72v-7.56h2.52v19.68m0 1.44v25.2h-2.52v-7.44m2.52-38.88h.12v19.68m0 1.44v25.2m2.64-38.76h-.6l-.6 1.08.6 1.08h.6v9.96m0 1.44v15.6h-.6l-.6 1.08.6 1.08h.6v7.44h-2.52v-25.2m0-1.44v-19.68h2.52v7.56m-2.52 38.76h-.12m.12-46.32h-.12m-5.28 8.64h3.96m2.76 0h5.76m-12.48 0 .48-.96h2.88m3.84 0h4.44l.84.96m-12 .959h2.88m3.84 0h4.44m-11.64-.96.48.96m11.16 0 .84-.96m-12 30.12h2.88m3.84 0h4.44m-11.16.001-.48-.96h3.96m2.76 0h5.76l-.84.96m-11.16-2.04h2.88m3.84 0h4.44l.84 1.08m.36-30.96v3.6h-1.44v-.84m1.44.84h.12v-3.6h-.12m-13.2 0h.12v3.6h-.12m0 25.56h.12v3.6h-.12m13.32 0h-.12v-3.6h.12zm30.119-19.56v-.24m0 1.08v-.24m-61.44-.84v.24m0 .6v.24m.001-.6v.24m61.2-.84h.24m1.2.839v-.24m-62.04.84h60.36m-60.36-1.44h60.36m.48 40.08h-.24m.24 2.521h-.24v-2.28m.24 0v2.28m-.24 0h-.24v-2.28m-60.48 2.28h-.12v-2.28m.12 0v2.28m-.12 0h-.36v-2.28m0 .96v.36m34.32.24v.12m-7.2-.12v.12m33.84-1.92H6.068m0 .24h60.48m0 2.28H6.068m60.48.24H6.068m63.72-85.2v-.96m-.24 1.8v-.84m.24.84v-.84m-40.56 87.96h38.88m-38.88-9.96v4.44m0 2.76v.72m0 .84v1.2m38.88.12h-38.88v-.12m38.88.12v-.12m-38.88-9.96v-.12m-8.76-43.8v-.12m0 .24v-.12m3.24-.6v-.12m0 7.08v.12m-3.6-7.08v6.96m0-6.96h3.84v6.96h-3.84m-14.52 42.72h-1.08m0-55.08v-.12m0 0v-.12m0 9v-.12m0 .36v-.12m0 9v-.12m0 0v-.12m0 9v-.12m0 .24v-.12m0 9.12v-.12m0-.12v-.12m0 13.68v-.12m0 0v-.12m0-8.76v-.12m0 .24v-.12m0-9v-.12m0 .24v-.12m0-8.76v-.12m0 0v-.12m24.72-36.48v-7.8m0-.84v-1.2h38.88m0-.12h-38.88v.12m38.88-.12v.12m-38.88 9.84v.12m-24.72 27.6v-.12m0 .24v-.12m0-9v-.12m0 .24v-.12m0-8.76v-.12m0 0v-.12m0-4.32v-.12m0 .24v-.12m2.52-14.04h22.2v.6h-22.2zm22.2.6v.24H7.387l-.36-.24m.361 80.28h21.84m-22.2.24h22.2v-.24m-22.2.84h22.2v-.6m-22.201.6v-.6m22.2 1.92v-.12m-.12.12v-.12m.12-84.24v-.12m-.12.12v-.12m-5.76.12v-.12m-.24.12v-.12m-7.44.12v-.12m.12.12v-.12M3.068 98.828v.84h-.24v-2.16m0 2.16v.96m.24-.96v.96m5.04-88.92v-.12m.24.12v-.12m14.76 84.48v-.12m.24.12v-.12m-7.68.12v-.12m.12.12v-.12m-7.68.12v-.12m.24.12v-.12m-3.84-73.2v-.12m0 0v-.12m63.6-10.8h.12m-.12 84.36h.12m-63.72-79.56v-.12m0 .24v-.12m-1.68-8.4v-1.08m.24 1.8v-.72m-.24 2.16v-2.16m26.4 2.16H3.068m26.16-1.44H3.067v1.44m26.161 88.56H3.067v-1.32h26.16m-24.719-1.44v-.12m0-84.24v-.12m0 84.48v-.12m-1.44 1.56H.907v-87.24h2.16zm0-85.8h26.16m0 84.36H3.067m1.441-84.36v84.36h-1.44m1.44-84.36h-1.44m1.44 84.24h24.72m0 .12H4.508v-.12m1.32-5.76h-1.32v-38.04h1.32m0-2.16v.36m0 1.44v.36m0-2.16h-1.32v-38.16m2.04 82.8-2.04 1.32v-2.52h1.32m0-3.24v.24m0 2.76v.24m.72-80.28-2.04-1.32m0 38.16v-38.16m0 78.36v-38.04m0 43.8v-2.52m0 2.52v-.12m1.2-2.4v-.24m0-2.76v-.24m.12-38.04v-.36m0-1.44v-.36m-1.32-38.16h24.72m0-.12H4.508v.12m61.8 40.08h1.8v38.4h-1.8m0 3.12v-.24m0-2.76v-.12m0 3.12h1.8v2.52l-3.24-1.32m3.24-44.4v-38.4l-3.24 1.32m3.24-1.32v38.4m0 1.68v38.4m0 5.64v-2.52m0 2.52v-.12m-1.8-45.6v.12m0 1.44v.12m0 38.4v.12m0 2.76v.24m-52.32 55.2v2.88m.72-2.88v2.88m-1.08-2.52v2.16m3.6-2.52v2.88m.12-2.88v2.88m.36-2.64v2.4m.36.12v-.12m0-.36v-2.04m0 2.52v-.12m-.24-2.64v2.76m-1.2 15.24v1.44m25.44-1.44h-4.56m-.96 0h-17.16m-.84 0h-1.92m25.44 1.44h-4.56m-.96 0h-17.16m-.84 0h-1.92m25.44-1.44v1.44m-25.44.96h.36m24.6 0h.48m-25.44-.96v.96m25.44 0v-.96m-6.24-1.44v-12.48h.12v12.48m-.24 0v-12.48h.12v12.36m-13.08.12v-12.48zm-.12-.12v.12-12.48zh.12m19.32-13.8v1.32h-4.56m-.96 0h-17.16m-.84 0h-1.92v-1.32m25.439 0h-4.56m-.96 0h-17.16m-.84 0h-1.92m0 2.4h.72m23.88 0h.84m-.839 0h.72v-1.08h-4.44m-.96 0h-17.16m-.84 0h-1.92m25.44 1.08v-1.08m-7.2 14.52v.36h-11.28v-.36m0 .36v.24h11.28v-.24m5.04-16.32-.48-.24m-1.2 0-.48.24m-16.92 0-.48-.24m-3.36.12v.24m24.6-.24h-1.92m-1.68 0h-.48m-.96 0h-15.96m-2.04 0h-1.56m24.6 0v.24m-3.36 16.56-.48.12m2.16 0-.48-.12m.48.12h.36v.12h-2.76m-19.2 0h.24m.84 0h1.68m20.52.12h-4.08m-.96 0h-17.16m22.2 0v-.96m-5.04 0h-1.68m-11.28 0h-2.52m-2.76 0h-1.32m24.6 0h-1.32m-23.28.96v-.12m24.6.12v-.12m-24.6.12v-.12m24.6.12v-.12m-24.6.36v-.12m24.6.12v-.12m-24.6.12v-.24m24.6 0v.24h-4.08m-.96 0h-17.16m22.2 0v-.12m-23.52-21.12v.24m0 2.04v.36m2.4-2.64h-1.08m-.84 0h-.48m2.4 2.64h-1.08m-.84 0h-.48m2.4-2.64v2.64m17.04 22.92h-.96v-29.16h.96zm-18.12-29.16v29.16h-.84m.84-29.16h-.84v29.16m-.6-25.68h-5.64m5.64 22.56h-5.64m.12-.12h5.4v-1.08m-.6-21.24h-2.52m-.84 0h-1.44v22.32m5.52.12v-1.2m0-17.4v-1.08m0-2.76v-.12m-5.64 22.56v-22.56m.12 2.28h1.2m4.08-1.92.12-.24m0 22.32-2.04-2.04v-17.52m-3.36 17.52h3.36m16.44 474v-.12m-8.28 0v.12m7.44-.12h-.84m-3.48 0h-1.44m6.6.12h-1.68m-3.48 0h-3.12m8.64.12v.84m-9-.84v.84m9-2.04h.12v-15m.72.6v.24h.24v.72h-.24v.84h.24v.72h-.24v.84h.24v.72h-.24v.84h.24v.72h-.24v.96h.24v.72h-.24v.84h.24v.72h-.24v.84h.24v.72h-.24v.84h.24v.72h-.24v.84h.24v.72h-.24v.36m-.72-10.8h.12m-.12-3.84v-.12m1.2 1.8h-.24m0-.72h.24m0 2.28h-.24m0-.72h.24m0 2.28h-.24m0-.72h.24m0 2.28h-.24m0-.72h.24m0 2.4h-.24m0-.72h.24m0 2.28h-.24m0-.72h.24m0 2.28h-.24m0-.72h.24m0 2.28h-.24m0-.72h.24m0 2.28h-.24m0-.72h.24m-1.32-14.52h.6m-9.36.12h.72m8.04 0h.6m-9.24 15.84h-.12v-14.76h.12m-.36 0v14.76h.24m1.92 1.08h1.44m3.24 0h.84m2.16-.12v.12m-7.8-.48v.12m7.8-15.6v-.84m0 15.84v.84m-8.52 1.2h8.28m0 0h-4.68zm-4.68 0v-.12m4.68.12v.12m-4.68-.12v.12h4.68m-4.68-.12h-3.6v.12h3.6m0-.12h-3.6m7.68-3.24v-14.04zm-8.04 0v-14.04h8.04m0 14.04h-8.04m0-14.04v-.12m8.04.12v-.12m-8.04 14.16h8.04m0 0v1.44h-8.04v-1.44m8.04 1.44v-.12m-8.04.12v-.12m0-1.32v-.12m8.04 1.56h-8.04m0-15.48v14.04m8.04 1.44v-.12m-8.04.12v-.12m8.04-15.36h-8.04m-.6.24v.12m0 14.88v-.12m7.44 2.16h-5.16m4.56-1.68h-3.96v-.12m.24.72h3.48m0 .12h-3.48v-.12l.24-.12h3.12m.36 1.08v-.24h-3.96m3.96.24h-3.96m.24-.72h3.48l-.12.12h-3.12m3.24-.12v-.24h-3.48m3.36.36v.36m.36 0v-.12m0 .36v-.12m-.24-.6v-.12m-.12.24v-.12m.12-.24v-.12m2.04-17.76v1.68m-8.04 0v-.12m8.04.12v-.12m-8.04.12v-1.68h8.04m-6.6-.48v-.12m4.92.24v-.12m0 0v-.12m0 .24v-.12m-4.44.36v-.12m4.44.12v-.12m-4.44-.36v-.12m1.92.72v-.12m-6.6 20.16v-.24h3m0-.84h-3m0 .12v.72h-3.24m3.36-.84-3.24-.24m3.12 1.08h-3.24m26.04-310.44h.12m6.6 0h.12m-8.04 91.2h.36m6.72-107.28v.12m-4.92 0v-.12h4.92m-4.92 0v-.12h4.92v.12m.24.12v.12m-5.4-.12v.12m-10.08 284.04h-.12v-12.36l.12-.12zm-.12 0h-.12v-12.48m.12 0v12.48m-13.2 0v-12.48.12zm.12 0v-12.48zm-.12-12.36h.12m13.08 12.36v-.12m-13.2.12h.12m12.96 0h.24m-13.32 0h.12m14.88-15.24h-.12 2.76-.24m-.12 0-.48.12h-.24v.12h-.72l-.12-.12h-.12l-.48-.12m-20.761-.12v.84m24.6-.84h-4.08m-.96 0h-17.16m-.84 0h-1.56m24.6 0v.84m-23.28 0h-1.32m19.56 0h-1.68m-11.28 0h-2.52m20.52 0h-1.32m-23.28-.96v.12m24.6-.12v.12m-24.6-.12v-.12m24.6.12v-.12m-24.6-.12v.24m24.6-.24v.24m-24.6-.24v-.12m24.601.12h-4.08m-.96 0h-17.16m20.52 17.4-.48.12m-1.2 0-.48-.12m-16.92 0-.48.12m21.24-.36v.24h-1.92m-1.68 0h-.48m-.96 0h-15.96m3-15.96v-.48h11.28v.48m-11.28-.48v-.24h11.28v.24m-18.24 14.879v1.32m25.44-1.32h-4.56m-.96 0h-17.16m-.84 0h-1.92m25.44.001v1.32h-4.56m-.96 0h-17.16m-.84 0h-1.92m0-2.4h.72m-.72 1.079v-1.08m25.32 0v1.08m-25.32-1.08h.72m23.88 0h.72m-25.32 1.08v-1.08m25.32 1.08h-4.44m-.96 0h-17.16m-.84 0h-1.92m25.44-14.039v1.44h-4.56m-.96 0h-17.16m-.84 0h-1.92v-1.44m25.439 0h-4.56m-.96 0h-17.16m-.84 0h-1.92m0-.96h.36m-2.279 20.4v-2.88m-.72 2.88v-2.88m-.36 2.52v-2.16m4.08 2.4v-2.52m-.36 2.64v-2.76m-.12 2.76v-2.76m.84 0v.12m0 .36v2.04m0-2.52v-.12m-.12 2.88v-2.76m.6 6.36v-29.16h.84v29.16zm18 0v-29.16h.96v29.16zm-17.16-6.6h1.08m0 3.12h-1.08m-1.321-2.4v-.24m2.4 2.64v-2.64m-2.64 2.64h-5.28m5.28-22.44v1.08m0 17.4v1.2m0 2.52v.24m.001-22.44h-5.28v22.44m-.24-22.56h5.76v1.2m0 21.24v.24h-5.76v-22.68m.24.24h5.28m-5.52 22.44h5.76m-5.76 0v-.12m.24-2.16h1.08m4.08 1.92.12.24m-2.04-2.88v-17.28l2.04-2.16m-5.28 2.159h3.24m-3.24.12h3.24m22.8-178.68v-.12m-.12.24v-.12m20.4.12v-.12m-20.4-89.04v-.12m.12 0v-.12m20.28.24v-.12m-20.4 14.04v-.12m20.4.12v-.12m-20.28.24v-.12m-.12 89.16v-.12m.12.24v-.12m20.28 0v-.12m-21.72-1.08v1.68m-.24-1.439v1.44m.12-90.96v1.8m.12-1.8v1.8m-.12-1.8v1.8m-1.2-1.8v1.8m1.08-1.8v1.8m-.96-1.8v1.8m1.08 74.4v1.68m.12-1.68v1.68m-.12-1.68v1.68m-1.2-1.68v1.68m1.08-1.68v1.68m-.96-1.68v1.68m1.08-90.84v1.68m.12-1.68v1.68m-.12-1.68v1.68m-.12-1.68v1.44m-13.8 303.48h3.36m1.08 0h1.2m1.08 0h1.2m1.08-.12h3.12m1.56-511.8v-.12m0 0 .48-.6.36-.84.24-.72.12-.84m-9.12-6.36 3.6.36m-3.36 3.36v2.4m-4.44 5.64h3.12m31.2 204v5.28m0 .12v5.28m0 .24v5.16m.24-16.08v5.28m0 .12v5.28m0 .24v5.16m.72-16.08v5.28m0 .12v5.28m0 .24v5.16m-21.48 0v-5.16m0-.24v-5.28m0-.12v-5.28m-.24 16.08v-5.16m0-.24v-5.28m0-.12v-5.28m-.72 16.08v-5.16m0-.24v-5.28m0-.12v-5.28m21.48 89.16v5.28m0 .12v5.28m0 .24v5.28m.24-16.2v5.28m0 .12v5.28m0 .24v5.28m.72-16.2v5.28m0 .12v5.28m0 .24v5.28m-21.48 0v-5.28m0-.24v-5.28m0-.12v-5.28m-.24 16.2v-5.28m0-.24v-5.28m0-.12v-5.28m-.72 16.2v-5.28m0-.24v-5.28m0-.12v-5.28m21.48-74.04h-5.04m-.12 0h-4.56m-.24 0h-5.4m-.12 0h-5.04m20.52.24h-5.04m-.12 0h-4.56m-.24 0h-5.4m-.12 0h-5.04m20.52.72h-5.04m-.12 0h-4.56m-.24 0h-5.4m-.12 0h-5.04m20.52 88.32h-5.04m-.12 0h-4.56m-.24 0h-5.4m-.12 0h-5.04m20.52.12h-5.04m-.12 0h-4.56m-.24 0h-5.4m-.12 0h-5.04m20.52.72h-5.04m-.12 0h-4.56m-.24 0h-5.4m-.12 0h-5.04m0-15.12h5.04m.12 0h4.56m.12 0h5.52m.12 0h5.04m-20.52-.24h5.04m.12 0h4.56m.12 0h5.52m.12 0h5.04m-20.52-.6h5.04m.12 0h4.56m.12 0h5.52m.12 0h5.04m-20.52-88.32h5.04m.12 0h4.56m.12 0h5.52m.12 0h5.04m-20.52-.24h5.04m.12 0h4.56m.12 0h5.52m.12 0h5.04m-20.52-.72h5.04m.12 0h4.56m.12 0h5.52m.12 0h5.04m-11.04 107.52v-.12m1.56.12v-.12m-12.36-3h.24m22.56 0h.48m-23.28.12h.24m22.56 0h.48m-23.4 1.2h1.2m.24 0h5.76m8.88 0h7.32m0-15.6h-.48m-22.56 0h-.24m23.28-.24h-.48m-22.56 0h-.24m23.28-1.08h-6.48m-10.44 0h-5.04m-.24 0h-1.2m.12-73.56h.24m22.56 0h.48m-23.28.12h.24m22.56 0h.48m-23.4 1.08h1.2m.24 0h5.04m10.44 0h6.48m0-15.48h-.48m-22.56 0h-.24m23.28-.24h-.48m-22.56 0h-.24m23.28-1.08h-7.32m-8.88 0h-5.76m-.24 0h-1.2m8.76 104.64v-.48m0-.24v-2.4m0-7.8v-2.52m0-.24v-.36m5.76 14.04v-.36m0-13.44v-.24m-5.64 14.04v-.36m0-13.44v-.24m5.64 14.04v-.36m0-13.44v-.24m-5.76-75.12v-.48m-.001-.24v-2.4m0-7.8v-2.52m0-.24v-.36m5.76 14.04v-.36m0-13.44v-.24m0 14.04v-.36m0-13.44v-.24m-5.64 14.04v-.36m0-13.44v-.24m-22.68 304.56v18.96m.12-18.96v18.96m5.88 13.92v-.12m14.76.24v-.12m0 32.16v-.12m0 32.16v-.12m-14.76.24v-.12m0-64.2v-.12m-9.96 32.28v-.12m9.96 32.28v-.12m-9.96-32.04v-.12m.24.12v-.12m24.36-31.8v-.12m0 32.04v-.12m0 32.04v.12m-.24-63.96v.12m0 31.8v-.12m0 32.04v-.12m-11.76-4.68v-.12m0-54v-.12m12.6-576.96v-.12m0-31.92v-.12m0-31.8v-.12m-.12 63.96v-.12m0-31.8v-.12m0-31.68v-.12m-11.76 4.92v-.12m0 54.24v-.12m-12.6-27v-.12m.24.12v-.12m9.72 32.28v-.12m0-64.2v-.12m0 64.44v-.12m-9.96-32.04v-.12m9.96-32.04v-.12m14.76 64.32v-.12m0-31.92v-.12m0-31.92v-.12m-5.16 144.96v-12.6m-19.08 12.6v-12.6m18.48-1.68v.36m1.2-.36v.36m-19.08-.36v.36m19.56-.12v.12m-2.16-.12v.12m-16.92-.12v.12m19.08-.12v.12m-2.28-.12v.12m-16.8-.12v.12m20.76 16.92h-4.08m-.96 0h-17.16m-.84 0h-1.56m24.6.24h-4.08m-.96 0h-17.16m-.84 0h-1.56m24.6 0h-4.08m-.96 0h-17.16m-.84 0h-1.56m14.16 473.16h-.6m-3.36 0h-2.16m7.56-17.04h.84m-9.24 0h.36m8.88 16.68h-3m-3.12 0h-3.12m9 1.32v.96m-4.68-.96v.96m2.88-1.08v-.12m-4.56.12h3.96m-.12-.12h-3.72m3.84.12v-.12m-.12 0v-.12m-5.879.36h-3l-3.24.72m.12-1.08 3.12.24m30.48-219.12v-.12m-8.64-105.48h.12m.12 105.6v-.12m-.12.12v-.12m-5.64 165.36v12.6m-19.08-12.6v12.6m21.84-15.6h-4.08m-.96 0h-17.16m-.84 0h-1.56m24.6-.24h-4.08m-.96 0h-17.16m-.84 0h-1.56m24.6 0h-4.08m-.96 0h-17.16m-.84 0h-1.56m22.44 17.52v-.36m-1.2.36v-.36m-17.88.36v-.36m19.56.24v-.24m-2.16.24v-.24m-16.92.24v-.24m19.2.24v-.24m-2.4.24v-.24m-16.8.24v-.24m-1.68 7.68v-.12m-.36.12v-.12m18.36.12v-.12m-.24.12v-.12m2.16-291.12v-.12m12.72.12v-.12m7.08 5.64.12-.12m-20.52-4.8v-.12m0 12.84v-.12m11.88.84h.12m2.64 13.08v-.12m-8.16-8.04v-.12m6.6 70.32.12-.12m7.2 5.4h.12m-20.52-4.92v-.12m.36-.24.12-.12m-.48 13.2v-.12m11.76 1.08v-.12m3.72 1.08-.12-.12m-7.08-19.8h-.12m-4.2-4.32v-.12m12.6.12v-.12m-3.72-3.72h-.12m28.92-51.96h10.2m.48 4.08h-.48v-3.72h-10.2v3.72h-.6m11.28-7.8v7.8m-.48-4.08v-3.72m-10.2 0h-.6v7.8m10.8-7.8h.48m-10.68 0v3.72m11.4-4.8h-12.72m12.72 9.96h-12.72v-9.96m13.44-71.04h-16.32m-2.04 0h-1.44m-2.16 0h-1.44m-2.04 0h-16.32m-12.6 0h-11.76m-2.16 0h-1.32m-2.16 0h-1.44m-2.16 0H4.508m-2.04-2.52v9.36m0 2.16v1.32m0 2.16v1.44m0 2.16v13.8m0 2.04v1.44m0 2.16v1.44m0 2.04v13.8m0 2.16v1.44m0 2.16v1.32m0 2.16v13.8m0 2.16v1.32m0 2.16v1.44m0 2.16v13.8m0 2.04v1.44m0 2.16v1.44m0 2.04v13.8m0 2.16v1.44m0 2.16v1.32m0 2.16v13.8m0 2.16v1.44m0 2.04v1.44m0 2.16v13.8m0 2.04v1.44m0 2.16v1.44m0 2.04v13.8m0 2.16v1.44m0 2.16v1.32m0 2.16v9.36m91.92-211.92h-17.76m-2.16 0h-1.32m-2.16 0h-1.44m-2.16 0h-17.64m-12.6 0h-12.84m-2.04 0h-1.44m-2.16 0h-1.44m-2.04 0H2.467m30.361-261.6v-1.2l-5.04.6zm-.12 736.68.12-1.2h-5.04z" style="fill:none;stroke:#000;stroke-width:.2;stroke-linecap:round;stroke-linejoin:round;stroke-miterlimit:10;stroke-dasharray:none;stroke-opacity:1"/></svg>