<svg xmlns="http://www.w3.org/2000/svg" width="810.495" height="363.975" viewBox="0 0 810.495 363.975"><path d="M53.468 3.188v-3m-.6 0v3m-11.4 0v-3m-.6 0v3m0 264.72h11.28-.12m.12 0v-.12m-.12.12v-.12m.12.12v-.12m-11.4.12h.12m-21.6-212.28H5.107m74.281 14.16v-14.16h14.16v14.16zm-74.28 198.12h14.16m60.12 0v-14.16h14.16v14.16zm653.4 21.24h-15.96m-2.16 0h-1.44m-2.04 0h-1.44m-2.16 0h-13.8m-2.04 0h-1.44m-2.16 0h-1.44m-2.04 0h-13.8m-2.16 0h-1.44m-2.16 0h-1.32m-2.16 0h-13.8m-2.16 0h-1.44m-2.04 0h-1.44m-2.16 0h-13.8m-2.04 0h-1.44m-2.16 0h-1.44m-2.04 0h-13.8m-2.16 0h-1.44m-2.16 0h-1.32m-2.16 0h-13.8m-2.16 0h-1.44m-2.04 0h-1.44m-2.16 0h-13.8m-2.16 0h-1.32m-2.16 0h-1.44m-2.04 0h-13.8m-2.16 0h-1.44m-2.16 0h-1.32m-2.16 0h-13.8m-2.16 0h-1.44m-2.04 0h-1.44m-2.16 0h-13.8m-2.16 0h-1.32m-2.16 0h-1.44m-2.16 0h-13.8m-2.04 0h-1.44m-2.16 0h-1.44m-2.04 0h-13.8m-2.16 0h-1.44m-2.04 0h-1.44m-2.16 0h-13.8m-2.16 0h-1.32m-2.16 0h-1.44m-2.16 0h-13.8m-2.04 0h-1.44m-2.16 0h-1.44m-2.04 0h-13.8m-2.16 0h-1.44m-2.04 0h-1.44m-2.16 0h-13.8m-2.16 0h-1.32m-2.16 0h-1.44m-2.16 0h-13.8m-2.04 0h-1.44m-2.16 0h-1.44m-2.04 0h-13.8m-2.16 0h-1.44m-2.04 0h-1.44m-2.16 0h-13.8m-2.16 0h-1.32m-2.16 0h-1.44m-2.16 0h-13.8m-2.04 0h-1.44m-2.16 0h-1.44m-2.04 0h-13.8m-2.16 0h-1.44m-2.04 0h-1.44m-2.16 0h-13.8m-2.16 0h-1.32m-2.16 0h-1.44m-2.16 0h-13.8m-2.04 0h-1.44m-2.16 0h-1.44m-2.04 0h-13.8m-2.16 0h-1.44m-2.16 0h-1.32m-2.16 0h-13.8m-2.16 0h-1.32m-2.16 0h-1.44m-2.16 0h-13.8m-2.04 0h-1.44m-2.16 0h-1.44m-2.04 0h-16.08v-21.24m-70.08-212.28v-10.08m0-2.16v-1.44m0-2.16v-1.32m0-2.16v-13.8m0-2.16v-1.44m0-2.04v-1.44m0-2.16V3.188m110.04 0v11.04m0 2.04v1.44m0 2.16v1.44m0 2.04v11.04m599.28 246.96v7.8M23.468 3.188h15.96m2.04 0h1.44m2.16 0h1.44m2.04 0h13.8m2.16 0h1.44m2.04 0h1.44m2.16 0h13.8m2.16 0h1.32m2.16 0h1.44m2.16 0h13.8m2.04 0h1.44m2.16 0h1.44m2.04 0h15.96m-71.76-1.44h9m2.16 0h1.32m2.16 0h1.44m2.16 0h13.8m2.04 0h1.44m2.16 0h1.44m2.04 0h13.8m2.16 0h1.44m2.04 0h1.44m2.16 0h9m-42.72 288.84v-22.68m640.56 22.68h-16.68m-2.16 0h-1.32m-2.16 0h-1.44m-2.16 0h-13.8m-2.04 0h-1.44m-2.16 0h-1.44m-2.04 0h-13.8m-2.16 0h-1.44m-2.16 0h-1.32m-2.16 0h-13.8m-2.16 0h-1.44m-2.04 0h-1.44m-2.16 0h-13.8m-2.04 0h-1.44m-2.16 0h-1.44m-2.04 0h-13.8m-2.16 0h-1.44m-2.16 0h-1.32m-2.16 0h-13.8m-2.16 0h-1.44m-2.04 0h-1.44m-2.16 0h-13.8m-2.04 0h-1.44m-2.16 0h-1.44m-2.04 0h-13.8m-2.16 0h-1.44m-2.16 0h-1.32m-2.16 0h-13.8m-2.16 0h-1.44m-2.04 0h-1.44m-2.16 0h-13.8m-2.04 0h-1.44m-2.16 0h-1.44m-2.04 0h-13.8m-2.16 0h-1.44m-2.16 0h-1.32m-2.16 0h-13.8m-2.16 0h-1.44m-2.04 0h-1.44m-2.16 0h-13.8m-2.04 0h-1.44m-2.16 0h-1.44m-2.04 0h-13.8m-2.16 0h-1.44m-2.16 0h-1.32m-2.16 0h-13.8m-2.16 0h-1.44m-2.04 0h-1.44m-2.16 0h-13.8m-2.16 0h-1.32m-2.16 0h-1.44m-2.04 0h-13.8m-2.16 0h-1.44m-2.16 0h-1.32m-2.16 0h-13.8m-2.16 0h-1.44m-2.04 0h-1.44m-2.16 0h-13.8m-2.16 0h-1.32m-2.16 0h-1.44m-2.16 0h-13.8m-2.04 0h-1.44m-2.16 0h-1.32m-2.16 0h-13.8m-2.16 0h-1.44m-2.04 0h-1.44m-2.16 0h-13.8m-2.16 0h-1.32m-2.16 0h-1.44m-2.16 0h-13.8m-2.04 0h-1.44m-2.16 0h-1.44m-2.04 0h-13.8m-2.16 0h-1.44m-2.04 0h-1.44m-2.16 0h-13.8m-2.16 0h-1.32m-2.16 0h-1.44m-2.16 0h-13.8m-2.04 0h-1.44m-2.16 0h-1.44m-2.04 0h-16.68m42.72-288.84v11.04m0 2.04v1.44m0 2.16v1.44m0 2.04v11.04m-69.48 25.56h13.92v-2.88m-60.12 0v2.88m60.12-2.88h-13.92m-2.16 0h-1.44m-2.16 0h-1.32m-2.16 0h-13.8m-2.16 0h-1.44m-2.04 0h-1.44m-2.16 0h-13.92m0 212.28h13.92m2.16 0h1.44m2.04 0h1.44m2.16 0h13.8m2.16 0h1.32m2.16 0h1.44m2.16 0h13.92m-60.12-2.76v2.76m60.12 0v-2.76h-13.92m-2.16 0h-1.44m-2.16 0h-1.32m-2.16 0h-13.8m-2.16 0h-1.44m-2.04 0h-1.44m-2.16 0h-13.92m74.639-202.44h-.36m0 198.12h.36m476.16-164.16v-9.48m0-2.16v-1.44m0-2.16v-1.32m.001-2.16v-9.6m162.119 192.48v-.12m-88.68.12h16.8m2.04 0h1.44m2.16 0h1.44m2.04 0h13.8m2.16 0h1.44m2.04 0h1.44m2.16 0h13.8m2.16 0h1.32m2.16 0h1.44m2.161 0h16.68m-184.68 0h14.16m-14.16 0v-.12m135.96-198v-.12m43.08.12h-16.92m-2.16 0h-1.44m-2.04 0h-1.44m-2.16 0h-16.92m-162.84 198.12h8.76m2.16 0h1.44m2.16 0h1.32m2.16 0h8.88m57.24 0h3m-133.801 0h9.48m2.16 0h1.44m2.16 0h1.32m2.16 0h13.8m2.16 0h1.44m2.04 0h1.44m2.16 0h13.8m2.04 0h1.44m2.16 0h1.44m2.04 0h13.8m2.16 0h1.44m2.16 0h1.32m2.16 0h13.8m2.16 0h1.44m2.04 0h1.44m2.16 0h13.8m2.16 0h1.32m2.16 0h1.44m2.04 0h13.8m2.16 0h1.44m2.16 0h1.32m2.16 0h13.8m2.16 0h1.44m2.04 0h1.44m2.16 0h13.8m2.16 0h1.32m2.16 0h1.44m2.16 0h13.8m2.04 0h1.44m2.16 0h1.32m2.16 0h13.8m2.16 0h1.44m2.04 0h1.44m2.161 0h9.48m-162.12-192.48h9.6m2.16 0h1.32m2.16 0h1.44m2.16 0h9.48m-28.32 28.32v-9.48m0-2.16v-1.44m0-2.16v-1.32m0-2.16v-9.6m-42.36 41.04h-7.92m-2.16 0h-1.44m-2.04 0h-1.44m-2.16 0h-13.8m-2.16 0h-1.32m-2.16 0h-1.44m-2.16 0h-7.92m48.12-41.04v15.96m0 2.16v1.32m0 2.16v1.44m0 2.16v15.84m-48.12 145.8v-13.08m0-2.16v-1.32m0-2.16v-1.44m0-2.16v-13.08m252.599 41.04v-13.92m0-2.16v-1.44m0-2.04v-1.44m0-2.16v-13.8m0-2.04v-1.44m0-2.16v-1.44m0-2.04v-13.8m0-2.16v-1.44m0-2.16v-1.32m0-2.16v-13.8m0-2.16v-1.44m0-2.04v-1.44m0-2.16v-13.8m0-2.04v-1.44m0-2.16v-1.44m0-2.04v-13.8m0-2.16v-1.44m0-2.16v-1.32m0-2.16v-13.8m0-2.16v-1.44m0-2.04v-1.44m0-2.16v-13.8m0-2.04v-1.44m0-2.16v-1.44m.001-2.04v-14.04m-167.76 192.48h-14.76m-2.16 0h-1.44m-2.16 0h-1.32m-2.16 0h-13.8m-2.16 0h-1.44m-2.04 0h-1.44m-2.16 0h-13.8m-2.04 0h-1.44m-2.16 0h-1.44m-2.04 0h-14.88m252.599-192.48h-9.48m-2.16 0h-1.44m-2.04 0h-1.44m-2.16 0h-13.8m-2.16 0h-1.32m-2.16 0h-1.44m-2.04 0h-13.8m-2.16 0h-1.44m-2.16 0h-1.32m-2.16 0h-13.8m-2.16 0h-1.44m-2.04 0h-1.44m-2.16 0h-13.8m-2.16 0h-1.32m-2.16 0h-1.44m-2.16 0h-13.8m-2.04 0h-1.44m-2.16 0h-1.32m-2.16 0h-13.8m-2.16 0h-1.44m-2.04 0h-1.44m-2.16 0h-13.8m-2.16 0h-1.32m-2.16 0h-1.44m-2.16 0h-13.8m-2.04 0h-1.44m-2.16 0h-1.44m-2.04 0h-13.8m-2.16 0h-1.44m-2.04 0h-1.44m-2.16 0h-13.8m-2.16 0h-1.32m-2.16 0h-1.44m-2.159 0h-9.48m5.64 157.08h14.88m2.04 0h1.44m2.16 0h1.44m2.04 0h13.8m2.16 0h1.44m2.04 0h1.44m2.16 0h13.8m2.16 0h1.32m2.16 0h1.44m2.16 0h14.76v13.08m0 2.16v1.44m0 2.16v1.32m0 2.16v13.08m33.96-186.84v9.6m0 2.16v1.32m0 2.16v1.44m0 2.16v9.48m-118.8 12.72v-15.84m0-2.16v-1.44m0-2.16v-1.32m0-2.16v-15.96m118.8 28.32h-9.48m-2.16 0h-1.44m-2.16 0h-1.32m-2.16 0h-9.6m-90.48-28.32h7.92m2.16 0h1.44m2.16 0h1.32m2.16 0h13.8m2.16 0h1.44m2.04 0h1.44m2.16 0h7.92m42.36 28.32h9.6m2.16 0h1.32m2.16 0h1.44m2.16 0h9.48m21.36-33.96h-10.8m-2.16 0h-1.44m-2.04 0h-1.44m-2.16 0h-13.8m-2.16 0h-1.32m-2.16 0h-1.44m-2.16 0h-13.8m-2.04 0h-1.44m-2.16 0h-1.44m-2.04 0h-13.8m-2.16 0h-1.44m-2.04 0h-1.44m-2.16 0h-13.8m-2.16 0h-1.32m-2.16 0h-1.44m-2.16 0h-13.8m-2.04 0h-1.44m-2.16 0h-1.44m-2.04 0h-10.8m90.48 157.08h-2.76m164.88 41.04h5.64m-5.76-198.12h-16.92m-2.16 0h-1.32m-2.16 0h-1.44m-2.16 0h-16.8m-135.96 157.08v-.12m-67.92.12h17.88m2.04 0h1.44m2.16 0h1.44m2.04 0h13.8m2.16 0h1.44m2.04 0h1.44m2.16 0h17.88m-67.92 0v-.12m84.84 35.52h-14.76m-2.16 0h-1.44m-2.16 0h-1.32m-2.16 0h-13.8m-2.16 0h-1.44m-2.04 0h-1.44m-2.16 0h-13.8m-2.04 0h-1.44m-2.16 0h-1.44m-2.04 0h-14.88m84.84-35.4v13.08m0 2.16v1.44m0 2.16v1.32m0 2.16v13.08m33.96-158.52h-9.48m-2.16 0h-1.44m-2.16 0h-1.32m-2.16 0h-9.6m162.119-33.96v-.12m-252.6 46.8v-15.84m0-2.16v-1.44m0-2.16v-1.32m.001-2.16v-15.96m252.599-5.64h-12.24m-36.48 0h-15.84m-2.04 0h-1.44m-2.16 0h-1.44m-2.04 0h-13.8m-2.16 0h-1.44m-2.16 0h-1.32m-2.159 0h-26.52m-2.16 0h-1.44m-2.04 0h-1.44m-2.16 0h-13.8m-2.16 0h-1.32m-2.16 0h-1.44m-2.16 0h-13.8m-2.04 0h-1.44m-2.16 0h-1.44m-2.04 0h-13.8m-2.16 0h-1.44m-2.04 0h-1.44m-2.16 0h-13.8m-2.16 0h-1.32m-2.16 0h-1.44m-2.16 0h-13.8m-2.04 0h-1.44m-2.16 0h-1.44m-2.04 0h-10.8m145.8 0v-.12m106.8.12h-16.92m-2.16 0h-1.44m-2.04 0h-1.44m-2.16 0h-16.92m43.08 0v-.12m-252.6.12v-.12m258.24.12h-5.64m-43.08 0h-15.84m-2.04 0h-1.44m-2.16 0h-1.44m-2.04 0h-13.8m-2.16 0h-1.44m-2.16 0h-1.32m-2.16 0h-15.72m-115.32 0h-10.68m-2.04 0h-1.44m-2.16 0h-1.44m-2.04 0h-10.68m258.24 0v-.12m-252.6 157.2v-.12m67.92.12h16.92m55.32-157.08h-10.8m-2.16 0h-1.44m-2.04 0h-1.44m-2.16 0h-13.8m-2.16 0h-1.32m-2.16 0h-1.44m-2.16 0h-13.8m-2.04 0h-1.44m-2.16 0h-1.44m-2.04 0h-13.8m-2.16 0h-1.44m-2.04 0h-1.44m-2.16 0h-13.8m-2.16 0h-1.32m-2.16 0h-1.44m-2.16 0h-13.8m-2.04 0h-1.44m-2.16 0h-1.44m-2.04 0h-10.8m5.64 46.68v-15.84m0-2.16v-1.44m0-2.16v-1.32m0-2.16v-15.96m90.48 28.32v-9.48m0-2.16v-1.44m0-2.16v-1.32m0-2.16v-9.6m-90.48 186.84v-13.08m0-2.16v-1.32m0-2.16v-1.44m0-2.16v-13.08m252.599-157.08h-5.64m-43.08 0h-8.16m-2.16 0h-1.44m-2.04 0h-1.44m-2.16 0h-13.8m-2.16 0h-1.32m-2.16 0h-1.44m-2.16 0h-13.8m-2.04 0h-1.44m-2.16 0h-1.44m-2.04 0h-13.8m-2.16 0h-1.44m-2.04 0h-1.44m-2.16 0h-13.8m-2.16 0h-1.32m-2.16 0h-1.44m-2.16 0h-13.8m-2.04 0h-1.44m-2.16 0h-1.44m-2.04 0h-13.8m-2.16 0h-1.44m-2.16 0h-1.32m-2.16 0h-13.8m-2.16 0h-1.44m-2.04 0h-1.44m-2.16 0h-13.8m-2.04 0h-1.44m-2.16 0h-1.44m-2.039 0h-8.16m258.239 198.12v-17.52m0-2.04v-1.44m0-2.16v-1.44m0-2.04v-13.8m0-2.16v-1.44m0-2.04v-1.44m.001-2.16v-17.52m-.001 67.2v-.12m0-198v-.12m0 131.04v-14.88m0-2.04v-1.44m0-2.16v-1.44m0-2.04v-13.8m0-2.16v-1.44m0-2.16v-1.32m0-2.16v-13.8m0-2.16v-1.44m0-2.04v-1.44m0-2.16v-13.8m0-2.04v-1.44m0-2.16v-1.44m0-2.04v-13.8m0-2.16v-1.44m0-2.16v-1.32m.001-2.16v-14.88m-252.6 46.68v-15.84m0-2.16v-1.44m0-2.16v-1.32m0-2.16v-15.96m0 186.84v-13.08m0-2.16v-1.32m0-2.16v-1.44m0-2.16v-13.08m90.48-151.44h9.6m2.16 0h1.32m2.16 0h1.44m2.16 0h9.48m133.799 192.48v-13.92m0-2.16v-1.44m0-2.04v-1.44m0-2.16v-13.8m0-2.04v-1.44m0-2.16v-1.44m0-2.04v-13.8m0-2.16v-1.44m0-2.16v-1.32m0-2.16v-13.8m0-2.16v-1.44m0-2.04v-1.44m0-2.16v-13.8m0-2.04v-1.44m0-2.16v-1.44m0-2.04v-13.8m0-2.16v-1.44m0-2.16v-1.32m0-2.16v-13.8m0-2.16v-1.44m0-2.04v-1.44m0-2.16v-13.8m0-2.04v-1.44m0-2.16v-1.44m.001-2.04v-14.04m-5.64 198.12h5.64m0-198.12v-.12m-5.64 198.24v-.12m-246.96-40.92h21.36m-316.44-157.08h12.96m2.04 0h1.44m2.16 0h1.44m2.04 0h12.96m217.92 0h9.6m2.04 0h1.44m2.16 0h1.44m2.04 0h9.6m-371.88 198.12h7.08m83.52-198.12h-14.16m-2.16 0h-1.44m-2.16 0h-1.32m-2.16 0h-13.8m-2.16 0h-1.32m-2.16 0h-1.44m-2.16 0h-13.8m-2.04 0h-1.44m-2.16 0h-1.44m-2.04 0h-14.16m83.52 0v-.12m198.12 192.6h-11.28m-253.44 0h-11.28m121.68 0h-11.28m208.08 0h-11.28m-196.8-186.84h11.28m111.84 186.84h-11.28m-222.24-186.84h11.28m354.6-5.64h-12.24m-2.04 0h-1.44m-2.16 0h-1.44m-2.04 0h-13.8m-2.16 0h-1.44m-2.16 0h-1.32m-2.16 0h-13.8m-2.16 0h-1.44m-2.04 0h-1.44m-2.16 0h-13.8m-2.04 0h-1.44m-2.16 0h-1.44m-2.04 0h-13.8m-2.16 0h-1.44m-2.16 0h-1.32m-2.16 0h-13.8m-2.16 0h-1.44m-2.04 0h-1.44m-2.16 0h-13.8m-2.04 0h-1.44m-2.16 0h-1.44m-2.04 0h-13.8m-2.16 0h-1.44m-2.16 0h-1.32m-2.16 0h-13.8m-2.16 0h-1.44m-2.04 0h-1.44m-2.16 0h-13.8m-2.16 0h-1.32m-2.16 0h-1.44m-2.04 0h-13.8m-2.16 0h-1.44m-2.16 0h-1.32m-2.16 0h-13.8m-2.16 0h-1.44m-2.04 0h-1.44m-2.16 0h-13.8m-2.16 0h-1.32m-2.16 0h-1.44m-2.16 0h-13.8m-2.04 0h-1.44m-2.16 0h-1.32m-2.16 0h-13.8m-2.16 0h-1.44m-2.04 0h-1.44m-2.16 0h-13.8m-2.16 0h-1.32m-2.16 0h-1.44m-2.16 0h-12.12m203.76 192.48h-11.28m-192.48 5.64h12.12m2.16 0h1.44m2.16 0h1.32m2.16 0h13.8m2.16 0h1.44m2.04 0h1.44m2.16 0h13.8m2.16 0h1.32m2.16 0h1.44m2.04 0h13.8m2.16 0h1.44m2.16 0h1.32m2.16 0h13.8m2.16 0h1.44m2.04 0h1.44m2.16 0h13.8m2.16 0h1.32m2.16 0h1.44m2.16 0h13.8m2.04 0h1.44m2.16 0h1.32m2.16 0h13.8m2.16 0h1.44m2.04 0h1.44m2.16 0h13.8m2.16 0h1.32m2.16 0h1.44m2.16 0h13.8m2.04 0h1.44m2.16 0h1.44m2.04 0h13.8m2.16 0h1.44m2.04 0h1.44m2.16 0h13.8m2.16 0h1.32m2.16 0h1.44m2.16 0h13.8m2.04 0h1.44m2.16 0h1.44m2.04 0h13.8m2.16 0h1.44m2.04 0h1.44m2.16 0h13.8m2.16 0h1.32m2.16 0h1.44m2.16 0h13.8m2.04 0h1.44m2.16 0h1.44m2.04 0h12.24m-101.16-192.48h11.28m-53.76 0h11.28m73.68 0h11.28m26.88 0h11.28m-176.88 0h11.28m174.84 90.6v-.12m0-90.48v-.12m-378.6-5.52h7.08m6.96 5.64h9.96m99.12 0h11.28m58.08 0h11.28m31.2 0h11.28m31.2 0h11.28m31.2 0h11.28m26.88 0h11.28m9.24 0v-.12m-365.88.12h1.32m364.56-5.64h-8.64m-2.16 0h-1.44m-2.04 0h-1.44m-2.16 0h-13.8m-2.16 0h-1.32m-2.16 0h-1.44m-2.16 0h-13.8m-2.04 0h-1.44m-2.16 0h-1.44m-2.04 0h-13.8m-2.16 0h-1.44m-2.04 0h-1.44m-2.16 0h-13.8m-2.16 0h-1.32m-2.16 0h-1.44m-2.16 0h-13.8m-2.04 0h-1.44m-2.16 0h-1.44m-2.04 0h-13.8m-2.16 0h-1.44m-2.04 0h-1.44m-2.16 0h-13.8m-2.16 0h-1.32m-2.16 0h-1.44m-2.16 0h-13.8m-2.04 0h-1.44m-2.16 0h-1.44m-2.04 0h-13.8m-2.16 0h-1.44m-2.16 0h-1.32m-2.16 0h-13.8m-2.16 0h-1.32m-2.16 0h-1.44m-2.16 0h-13.8m-2.04 0h-1.44m-2.16 0h-1.44m-2.04 0h-13.8m-2.16 0h-1.44m-2.16 0h-1.32m-2.16 0h-13.8m-2.16 0h-1.44m-2.04 0h-1.44m-2.16 0h-13.8m-2.04 0h-1.44m-2.16 0h-1.44m-2.04 0h-13.8m-2.16 0h-1.44m-2.16 0h-1.32m-2.16 0h-8.64m371.52 5.64v-5.64m0 192.48v5.64M93.907 62.708v-.12m378.6.12v-.12m-378.6.12v-.12m7.08.12v-.12m-7.079.12h7.08m371.52 0h-10.92m-2.16 0h-1.44m-2.16 0h-1.32m-2.16 0h-13.8m-2.16 0h-1.44m-2.04 0h-1.44m-2.16 0h-13.8m-2.04 0h-1.44m-2.16 0h-1.44m-2.04 0h-13.8m-2.16 0h-1.44m-2.16 0h-1.32m-2.16 0h-13.8m-2.16 0h-1.44m-2.04 0h-1.44m-2.16 0h-13.8m-2.04 0h-1.44m-2.16 0h-1.44m-2.04 0h-13.8m-2.16 0h-1.44m-2.16 0h-1.32m-2.16 0h-18.36m-2.16 0h-1.44m-2.04 0h-1.44m-2.16 0h-13.8m-2.16 0h-1.32m-2.16 0h-1.44m-2.16 0h-13.8m-2.04 0h-1.44m-2.16 0h-1.44m-2.04 0h-13.8m-2.16 0h-1.44m-2.04 0h-1.44m-2.16 0h-13.8m-2.16 0h-1.32m-2.16 0h-1.44m-2.16 0h-13.8m-2.04 0h-1.44m-2.16 0h-1.44m-2.04 0h-13.8m-2.16 0h-1.44m-2.04 0h-1.44m-2.16 0h-13.8m-2.16 0h-1.32m-2.16 0h-1.44m-2.16 0h-19.44m197.04 0h-16.08m-2.04 0h-1.44m-2.16 0h-1.44m-2.04 0h-13.8m-2.16 0h-1.44m-2.16 0h-1.32m-2.16 0h-13.8m-2.16 0h-1.44m-2.04 0h-1.44m-2.16 0h-13.8m-2.04 0h-1.44m-2.16 0h-1.44m-2.04 0h-13.8m-2.16 0h-1.44m-2.16 0h-1.32m-2.16 0h-13.8m-2.16 0h-1.44m-2.04 0h-1.44m-2.16 0h-13.8m-2.04 0h-1.44m-2.16 0h-1.44m-2.04 0h-13.8m-2.16 0h-1.44m-2.16 0h-1.32m-2.16 0h-16.08m-6.36 69.72v4.2m0 54.48v-4.2m-53.76 81h-.12 11.4m0 0h-11.4zh-11.4m.12 0h-.12m-.12 0h-.36m12 0h.36m-28.08-230.52v-1.32m9.72 231.84v-2.76m2.4 2.76v-2.76m.12 2.76v-2.76m-8.88 2.76v-2.76zm2.4 0v-2.76m-2.64 2.76v-2.76m9.24 2.76v-2.76m2.16 0v2.76m-.84-2.76v2.76m-11.76-2.76v2.76m-.84-2.76v2.76m69-135.48v4.2m0 54.48v-4.2m-41.88 81v-.12m-.6.12v-.12m.6.12v-.12m358.44-213.48v-.12m.72-13.8v3.6l.12.36v8.04m2.88 0v-12m-3.72-.36v.36m4.44 0v-.36m-.48 0v-.24m-3.48 0v.24m3-1.08v-.12m-2.52 0v.12m2.52-.24-.24-.6m-2.04.12-.24.48m2.28 1.08v-.36m-2.04.12v.24m2.04-1.68v-.12m-2.04 0v.24m2.04 1.2v-.48m-2.04 0v.6m189.36 170.52v-.12m-16.56 0v.12m16.56 0v-.12m-16.56.12v-.12m16.68.24h-.12m-16.68 0v-.12m16.8.24v-.12m-16.8.12v-.12m16.68-2.28v-.12m-16.56.12v-.12m16.68 2.64v-.12m-16.8.12v-.12m16.68-2.28v-.12m-16.56.12v-.12m16.68 2.64v-.12m-16.8.12v-.12m16.8-2.28h-.12m-16.68 0v-.12m16.8 2.52v-.12m-16.8.12v-.12m16.8.12v-.12m-16.8.12v-.12m16.8.24v-.12m-16.8.12v-.12m16.8.72v-.6m-16.8 0v.6m16.8-3v-.12m-16.8 0v.12m16.68-2.4v-.12m-16.56 0v.12m16.68 2.52v-.12m-16.8 0v.12m16.68-2.52v-.12m-16.56.12v-.12m16.68 2.64v-.12m-16.8.12v-.12m16.8-2.28h-.12m-16.68 0v-.12m16.8 2.64v-.12m-16.8.12v-.12m16.8.12v-.12m-16.8.12v-.12m16.8.12v-.12m-16.8.12v-.12m16.8.84v-.6m-16.8 0v.6m16.8-3.12v-.12m-16.8.12v-.12m16.68-2.28v-.12m-16.56.12v-.12m16.68 2.64v-.12m-16.8.12v-.12m16.68-2.28v-.12m-16.56.12v-.12m16.68 2.64v-.12m-16.8.12v-.12m16.8-2.28h-.12m-16.68 0v-.12m16.8 2.52v-.12m-16.8.12v-.12m16.8.12v-.12m-16.8.12v-.12m16.8.24v-.12m-16.8.12v-.12m16.8.72v-.6m-16.8 0v.6m16.8-3v-.12m-16.8 0v.12m16.68-2.4v-.12m-16.56 0v.12m16.68 2.52v-.12m-16.8 0v.12m16.68-2.4v-.12m-16.56 0v.12m16.68 2.4v-.12m-16.8.12v-.12m16.8-2.28h-.12m-16.68 0v-.12m16.8 2.64v-.12m-16.8.12v-.12m16.8.12v-.12m-16.8.12v-.12m16.8.24v-.12m-16.8.12v-.12m16.8.72v-.6m-16.8 0v.6m16.8-3.12v-.12m-16.8.12v-.12m16.8.24v-.12m-16.8.12v-.12m16.8.24v-.12m-16.8.12v-.12m16.8.12v-.12m-16.8.12v-.12m16.8.12v-.12m-16.8.12v-.12m16.8.24v-.12m-16.8.12v-.12m16.8.72v-.6m-16.8 0v.6m16.8-2.04v-.12m-16.8 0v.12m8.28 122.64v-.12m.24.12v-.12m-.24.24v.12m.12 0v-.12m8.76-8.4v-.12m-17.16.12v-.12m16.8-2.76v-.12m-.12 0v.12m.24-.12h-.12m-.12 0v-.12m-16.56.24v-.12m-.24 0v.12m.24-.12v-.12m-.24.12v-.12m0 .36h-3.12m0 .6h3.12m17.04 0h.48m0-.6h-.48m-5.4 9.48v-.12m-6.12.36v-.12m-.36.12v-.12m12.24-14.04v-.12m0 1.32h.12m.48 1.56v-.12m-.24-.12v-.12m0-.48v-.12m-1.08-2.52h-.12m0 2.04h.12m-16.2 13.56h16.08m-.6-17.52v-.12m.12-.24v.12m-15.36.24v-.12m.12-.24v.12m10.08.24v-.12m-5.16.12v-.12m-5.88-106.08v-.12m.36 21h-.12m0 .24h.12m0-1.2h-.12m0 .24h.12m16.68.72h-.12m0 .24h.12m0-1.2h-.12m0 .24h.12m-16.68 21.48h-.12m0 .12h.12m0-1.08h-.12m0 .12h.12m16.68.84h-.12m0 .12h.12m0-1.08h-.12m0 .12h.12m.48-13.56v-.12m-.12.12v-.12m-.24-.84v-.12m0 .6v-.12m1.32-.6h-.12m0 .72h.12m-19.32.48v-.12m-.12.12v-.12m-.12-2.16h-.12m0 .72h.12m3.12 39.6v-.12m.12.24v-.12m0-.12v.12m13.08 0v-.12m-.12.24v-.12m0 0v-.12m-13.2.12h.24m.12 0h12.72m.12 0h.24m0-1.92h-13.44m-.12.96h.12m-.36-.24v-.12m.36.12h-.12m13.56.24v-.12m0-.12v-.12m.36.12v-.12m-13.68-33.12v-.12m.12.24v-.12m0-.12v-.12m13.08.24v-.12m-.12.24v-.12m0-.12v-.12m-13.2.24h.24m.12 0h12.72m.12 0h.24m0-1.92h-13.44m-.12.96h.12m-.36-.36v-.12m.36.12h-.12m13.56.36v-.12m0-.24v-.12m.36.12v-.12m-4.2 60.48 3.84-.36m-.12-1.32-3.96.48m-9.36.84 3.84.36m.12-1.2-3.84-.48m4.32 1.8h4.56m0-1.32h-4.56m0 .48v-.12m0 .48v-.12m4.56-.24v-.12m0 .48v-.12m.6-13.2 3.84-.48m-.12-1.32-3.96.48m-9.36.84 3.84.48m.12-1.32-3.84-.48m4.32 1.8h4.56m0-1.32h-4.56m0 .48v-.12m0 .48v-.12m4.56-.24v-.12m0 .48v-.12m.6-13.2 3.84-.48m-13.44 0 3.84.48m.6 0h4.56m-4.56-.48v-.12m4.56.12v-.12m.6-13.2 3.84-.48m-.12-1.2-3.96.36m-9.36.84 3.84.48m.12-1.32-3.84-.36m4.32 1.68h4.56m0-1.32h-4.56m0 .6v-.12m0 .36v-.12m4.56-.12v-.12m0 .36v-.12m.6-13.2 3.84-.48m-.12-1.2-3.96.36m-9.36.84 3.84.48m.12-1.32-3.84-.36m4.32 1.68h4.56m0-1.2h-4.56m0 .48v-.12m0 .36v-.12m4.56-.12v-.12m0 .36v-.12m.6-13.2 3.84-.48m-.12-1.2-3.96.36m-9.36.84 3.84.48m.12-1.32-3.84-.36m4.32 1.68h4.56m0-1.2h-4.56m0 .48v-.12m10.44 43.56v-.12m0 .48v-.12m.24.12v-.12m0 .36v-.12m-6.12-43.68v-.12m0-.12v-.12m-4.56.36v-.12m10.56 43.56h.12m0-.12h-.12m-.12 1.32v-.12m0-.24v-.12m.12.36h.12m0-.12h-.12m.12 1.92v-.12m0 .36v-.12m-.24-.48v-.12m0 .48v-.12m.24-.12h-.12m0 .12h.12m-.24-1.2v-.12m0 .36v-.12m.24-.12h-.12m0 .24h.12m-16.56-1.32v-.12m-.24 0v-.12m0-.12v-.12m.24 1.44v-.12m0-1.2v-.12m0-.24v-.12m-.24.36h.12m0-.12h-.12m.24 1.32v-.12m0-.24v-.12m-.24.36h.12m0-.12h-.12m0 1.92v-.12m0 .36v-.12m.24-.84v-.12m0 .48v-.12m0 .48v-.12m-.12-.12h-.12m0 .12h.12m.12-1.2v-.12m0 .36v-.12m-.12-.12h-.12m0 .24h.12m16.68 3.36h-.12m0 .36h.12m-.12-.24h-.12m0 .12h.12m.36-.12h-.12m0 .12h.12m-.24-1.2h-.12m0 .36h.12m-.12-.36h-.12m0 .24h.12m.36-.24h-.12m0 .24h.12m-.24-6.24h-.12m0 .36h.12m-.12-.24h-.12m0 .12h.12m.36-.12h-.12m0 .12h.12m-.24 13.56h-.12m0 .36h.12m-.12-.24h-.12m0 .12h.12m.36-.12h-.12m0 .12h.12m-.24-1.2h-.12m0 .36h.12m-.12-.24h-.12m0 .12h.12m.36-.12h-.12m0 .12h.12m-.24 7.68h-.12m0 .36h.12m-.12-.36h-.12m0 .24h.12m.36-.24h-.12m0 .24h.12m-.24-1.2h-.12m0 .36h.12m-.12-.36h-.12m0 .24h.12m.36-.24h-.12m0 .24h.12m-.24 7.56h-.12m0 .36h.12m-.12-.24h-.12m0 .12h.12m.36-.12h-.12m0 .12h.12m-.24-1.2h-.12m0 .36h.12m-.12-.24h-.12m0 .12h.12m.36-.12h-.12m0 .12h.12m0-85.32h-.12m0 .12h.12m-.24-1.2h-.12m.36.12h-.12m0 .12h.12m-.24 28.32h-.12m0 .36h.12m-.12-.36h-.12m0 .24h.12m.36-.24h-.12m0 .24h.12m-.24-1.2h-.12m0 .36h.12m-.12-.36h-.12m0 .24h.12m.36-.24h-.12m0 .24h.12m-.24-6.24h-.12m0 .36h.12m-.12-.24h-.12m0 .12h.12m.36-.12h-.12m0 .12h.12m-.24-1.2h-.12m0 .36h.12m-.12-.24h-.12m0 .12h.12m.36-.12h-.12m0 .12h.12m-.24-6.12h-.12m0 .36h.12m-.12-.24h-.12m0 .12h.12m.36-.12h-.12m0 .12h.12m-.24-1.2h-.12m0 .36h.12m-.12-.24h-.12m0 .12h.12m.36-.12h-.12m0 .12h.12m-.24-6.24h-.12m0 .36h.12m-.12-.24v-.12m-.12.36h.12m.36-.24h-.12m0 .24h.12m0-1.2h-.12m0 .12h.12m-.24 28.32h-.12m0 .36h.12m-.12-.24h-.12m0 .12h.12m.36-.12h-.12m0 .12h.12m-.24-1.2h-.12m0 .36h.12m-.12-.24h-.12m0 .12h.12m.36-.12h-.12m0 .12h.12m-.24 14.52h-.12m0 .36h.12m-.12-.24h-.12m0 .12h.12m.36-.12h-.12m0 .12h.12m-.24-1.2h-.12m0 .36h.12m-.12-.24h-.12m0 .12h.12m.36-.12h-.12m0 .12h.12m-.24-2.76h-.12m0 .36h.12m-.12-.24h-.12m0 .24h.12m.36-.24h-.12m0 .24h.12m-.24-1.32h-.12m0 .36h.12m-.12-.24h-.12m0 .24h.12m.36-.24h-.12m0 .24h.12m-.24 48.96h-.12m0 .24h.12m-.12-.24v-.12m-.12.36h.12m.36-.24h-.12m0 .24h.12m0-1.2h-.12m0 .24h.12m-.24 7.56h-.12m.36.12h-.12m0 .12h.12m-.24-.84v-.12m.24-.12h-.12m0 .12h.12m0-102.84v-.12m0 34.56v-.12m-.48 32.64v-.12m0-32.52v-.12m.48 38.16v-.12m-.48 0v-.12m-16.44 31.44h-.12m-.12.12h-.12m0 .12h.12m.12-.84v-.12m-.12-.12h-.12m0 .12h.12m.12-6.12v-.12m0 .36h.12m-.24-.24h-.12m0 .24h.12m.24-.24v-.12m0 .36v-.12m-.24-1.08h-.12m0 .24h.12m.24-6.24h-.12m0 .36h.12m-.24-.24h-.12m0 .12h.12m.36-.12h-.12m0 .12h.12m-.12-1.2h-.12m0 .36h.12m-.24-.24h-.12m0 .12h.12m.36-.12h-.12m0 .12h.12m-.12-6.12h-.12m0 .36h.12m-.24-.36h-.12m0 .24h.12m.36-.24h-.12m0 .24h.12m-.12-1.2h-.12m0 .36h.12m-.24-.36h-.12m0 .24h.12m.36-.24h-.12m0 .24h.12m-.12-6.24h-.12m0 .36h.12m-.24-.24h-.12m0 .12h.12m.36-.12h-.12m0 .12h.12m-.12-1.2h-.12m0 .36h.12m-.24-.24h-.12m0 .12h.12m.36-.12h-.12m0 .12h.12m-.12-26.88h-.12m0 .36h.12m-.24-.24h-.12m0 .24h.12m.36-.24h-.12m0 .24h.12m-.12-1.32h-.12m0 .36h.12m-.241-.24h-.12m0 .24h.12m.36-.24h-.12m0 .24h.12m-.12 4.08h-.12m0 .36h.12m-.24-.24h-.12m0 .12h.12m.36-.12h-.12m0 .12h.12m-.12-1.2h-.12m0 .36h.12m-.24-.24h-.12m0 .12h.12m.36-.12h-.12m0 .12h.12m-.12 11.04h-.12m0 .36h.12m-.24-.24h-.12m0 .12h.12m.36-.12h-.12m0 .12h.12m-.12 6.72h-.12m0 .36h.12m-.24-.24h-.12m0 .12h.12m.36-.12h-.12m0 .12h.12m-.12-1.2h-.12m0 .36h.12m-.24-.36h-.12m0 .24h.12m.36-.24h-.12m0 .24h.12m-.12-30.36h-.12m0 .36h.12m-.24-.24h-.12m0 .12h.12m.36-.12h-.12m0 .12h.12m-.12-1.2h-.12m0 .36h.12m-.24-.24h-.12m0 .12h.12m.36-.12h-.12m0 .12h.12m-.12-26.88h-.12m0 .36h.12m-.24-.24h-.12m0 .24h.12m.24-.24v-.12m0 .36h.12m-.36-1.2h-.12m0 .12h.12m.24 7.68h-.12m0 .36h.12m-.24-.24h-.12m0 .12h.12m.36-.12h-.12m0 .12h.12m-.12-1.2h-.12m0 .36h.12m-.24-.24h-.12m0 .12h.12m.36-.12h-.12m0 .12h.12m-.12 7.56h-.12m0 .36h.12m-.24-.24h-.12m0 .12h.12m.36-.12h-.12m0 .12h.12m-.12-1.2h-.12m0 .36h.12m-.24-.24h-.12m0 .12h.12m.36-.12h-.12m0 .12h.12m-.12 7.68h-.12m0 .36h.12m-.24-.36h-.12m0 .24h.12m.36-.24h-.12m0 .24h.12m-.12-1.2h-.12m0 .36h.12m-.24-.36h-.12m0 .24h.12m.36-.24h-.12m0 .24h.12m-.36-26.76h-.12m0 .12h.12m.24-1.2h-.12m-.12.12h-.12m0 .12h.12m-.12 31.56v-.12m.48 32.64v-.12m0-32.52v-.12m-.48 38.16v-.12m.48 0v-.12m18.361 37.56v-.12m-.12.24v-.12m2.4 3.48h-.12m0 1.32h.12m-3.36-1.32h-.12m0 1.2h.12m.24-12.72-.36.36m.24-.36-.36.36m-16.68 16.2v-.12m.36.12v-.12m-.36-10.68v-.12m.36.12v-.12m-.36 7.32v-.12m.36.12v-.12m-.36-3.48v-.12m.36.12v-.12m-.36 11.76v-.12m.36.12v-.12m15.84-118.08v-.12m.24 111.24v-.12m.12.12v-.12m-.12-1.32v-.12m.12.24v-.12m-17.52 1.44v.12m0-1.44v-.12m16.56 4.08v-.12m-.36.12v-.12m.36-10.68v-.12m-.36.12v-.12m.36 7.32v-.12m-.36.12v-.12m.36-3.48v-.12m-.36.12v-.12m.36 11.76v-.12m-.36.12v-.12m0 2.4v-.12m.36.12v-.12m-15.6.12v-.12m.36.12v-.12m11.04.12v-.12m.36.12v-.12m-7.92.12v-.12m.36.12v-.12m3.48.12v-.12m.24.12v-.12m7.92-11.16v-.12m.12-.36h-.12m0 1.2h.12m0-1.2v-.12m0 1.32v-.12m-.12-1.56v-.12m0-.48v-.12m-16.2 1.68v-.12m0 .84h.12m0-1.2h-.12m0 1.2v-.12m0-1.08v-.12m.12-.36v-.12m0-.48v-.12m15.48 9.84v-.12m.36.12v-.12m-15.6.12v-.12m.36.12v-.12m11.04.12v-.12m.36.12v-.12m-7.92.12v-.12m.36.12v-.12m3.48.12v-.12m.24.12v-.12m-7.92 2.52v.12m.36 0v-.12m15.24.12v-.12m-.36 0v.12m.12-.96v-.12m.12.12v-.12m-.24.12v-.12m.36.12v-.12m-15.6.12v-.12m.24.12v-.12m-.24.12v-.12m.24.12v-.12m11.28.12v-.12m.12.12v-.12m-.24.12v-.12m.36.12v-.12m-7.92.12v-.12m.24.12v-.12m-.36.12v-.12m.36.12v-.12m9.96 1.08v-.12m.24.12v-.12m-12.96.12v-.12m.24.12v-.12m-.24.24v.12m.12 0v-.12m14.64-21v-.12m-16.56.12v-.12m16.56.24v-.12m-16.56.12v-.12m16.68.24-.12-.12m-16.68 0v.12m16.8.12v-.12m-16.8 0v.12m16.68-2.4v-.12m-16.56 0v.12m16.68 2.52v-.12m-16.8 0v.12m16.68-2.52v-.12m-16.56.12v-.12m16.68 2.64v-.12m-16.8.12v-.12m16.8-2.28h-.12m-16.68 0v-.12m16.8 2.64v-.12m-16.8 0v.12m16.8 0v-.12m-16.8.12v-.12m16.8.12v-.12m-16.8.12v-.12m16.8.72v-.6m-16.8 0v.6m16.8-3v-.12m-16.8.12v-.12m16.68-2.28v-.12m-16.56.12v-.12m16.68 2.64v-.12m-16.8.12v-.12m16.68-2.28v-.12m-16.56.12v-.12m16.68 2.64v-.12m-16.8.12v-.12m16.8-2.28-.12-.12m-16.68 0v.12m16.8 2.4v-.12m-16.8.12v-.12m16.8.12v-.12m-16.8.12v-.12m16.8.24v-.12m-16.8.12v-.12m16.8.72v-.6m-16.8 0v.6m16.8-3v-.12m-16.8 0v.12m16.68-2.4v-.12m-16.56 0v.12m16.68 2.52v-.12m-16.8 0v.12m16.68-2.52v-.12m-16.56.12v-.12m16.68 2.64v-.12m-16.8.12v-.12m16.8-2.28h-.12m-16.68 0v-.12m16.8 2.64v-.12m-16.8 0v.12m16.8 0v-.12m-16.8.12v-.12m16.8.12v-.12m-16.8.12v-.12m16.8.84v-.72m-16.8 0v.72m16.8-3.12v-.12m-16.8.12v-.12m16.68-2.28v-.12m-16.56.12v-.12m16.68 2.64v-.12m-16.8.12v-.12m16.68-2.28v-.12m-16.56.12v-.12m16.68 2.64v-.12m-16.8.12v-.12m16.8-2.28h-.12m-16.68 0v-.12m16.8 2.52v-.12m-16.8.12v-.12m16.8.12v-.12m-16.8.12v-.12m16.8.24v-.12m-16.8.12v-.12m16.8.72v-.6m-16.8 0v.6m16.8-3v-.12m-16.8 0v.12m16.8.12v-.12m-16.8 0v.12m16.8 0v-.12m-16.8.12v-.12m16.8.24v-.12m-16.8.12v-.12m16.8.12v-.12m-16.8.12v-.12m16.8.24v-.12m-16.8 0v-.12m16.8.84v-.6m-16.8 0v.6m38.16 28.8h1.32m-3.48 0h.6m1.56 8.52h1.32m-3.48 0h.6m3.12-.48v-8.16m-.48.12v7.92m-4.08-39.36v10.32m0 2.04v1.44m0 2.16v1.44m0 2.04v10.32m.6 0v-10.68m0-2.04v-1.44m0-2.16v-1.32m0-2.16v-10.68m-16.441.72h15.84m.6-.72h-16.44m-38.28 42.12h11.04m2.16 0h1.44m2.16 0h1.32m2.16 0h13.8m2.16 0h1.44m2.04 0h1.44m2.161 0h11.04m0-.72h-10.68m-2.16 0h-1.44m-2.16 0h-1.32m-2.16 0h-13.8m-2.16 0h-1.44m-2.04 0h-1.44m-2.16 0h-10.8m-.6-41.4v16.44m0 2.16v1.44m0 2.16v1.32m0 2.16v16.44m.6-.72v-15.72m0-2.16v-1.32m0-2.16v-1.44m0-2.16v-15.72m15.84-.72h-16.44m.6.72h15.84m-140.28-87.12h-.72m295.68-1.08v3.48l.12.12v.12h.12v.12h1.8v.24h-4.2v-.24h1.8l.12-.12.12-.12v-.12m0-3.48v3.48m2.16-4.08h-4.2m32.28.24h-.24v.12h-.12v3.84h.12v.12l.12.12h1.8v.24h-4.2v-.24h1.8v-.12h.12v-.12h.12v-3.6m.48-.36h1.68v-.24h-4.2m-28.08-88.92h-1.68v-.24h4.2v.24m-2.04 3.84.12.12v.12h.12l.12.12h1.68v.24h-4.2m2.04-4.08v3.48m.6-3.84h1.56m-2.04.36v3.48m29.76-3.48v3.6h.12v.12h.12l.12.12h1.68v.24h-4.2m4.2-4.44v-.24h-4.2m2.04.6v3.48m-749.4 144.72h-7.8v-.6h3.72m.36 0h3.72v.6m76.44-125.28h-.6m-10.2 0h-.6m.6-4.08h10.2m0 4.08v-3.72h-10.2v3.72m10.2-4.08v-3.72m.6 7.8v-7.8h-.6m-10.2 0v3.72m-.6 4.08v-7.8h.6m-65.64-70.2h-3.72m-4.08-.48v.48h3.72m4.08 0v-.48h-7.8m84.24 203.76h-7.8v-.6h3.72m.36 0h3.72v.6m-4.08-.6v-10.2h-3.72v-.48m4.08.48v10.2m3.72-10.68v.48h-3.72m-4.08-.48h7.8m-10.8-63.6h10.2m.6 4.08h-.6v-3.72h-10.2v3.72h-.6m11.4-7.8v7.8m-.6-4.08v-3.72m-10.2 0h-.6v7.8m10.8-7.8h.6m-10.8 0v3.72m10.8-117.6h-7.8v-.6h3.72m.36 0h3.72v.6m0-11.28v.48h-3.72m-.36 10.2v-10.2m4.08-.48h-7.8v.48m4.08 0v10.2m-.36-10.2h-3.72m78.6 29.16h5.64m0 144.36h-5.64m223.56-144.36h5.64m0 144.36h-5.64m-148.56 0h-5.76m0-144.36h5.76m111.84 144.36h-5.76m0-144.36h5.76m79.2 0h5.64m0 144.36h-5.64m-121.68 0h-5.76m0-144.36h5.76m261 126h-5.64m0-107.52h5.64m-97.56 107.52h-5.64m0-101.88h5.64m7.08 101.88h-5.64m0-101.88h5.64m-7.08 147.12h-11.52m-2.04 0h-1.44m-2.16 0h-1.44m-2.04 0h-13.8m-2.16 0h-1.44m-2.16 0h-1.32m-2.16 0h-13.8m-2.16 0h-1.44m-2.04 0h-1.44m-2.16 0h-13.8m-2.16 0h-1.32m-2.16 0h-1.44m-2.16 0h-13.8m-2.04 0h-1.44m-2.16 0h-1.32m-2.16 0h-13.8m-2.16 0h-1.44m-2.04 0h-1.44m-2.16 0h-13.8m-2.16 0h-1.32m-2.16 0h-1.44m-2.16 0h-13.8m-2.04 0h-1.44m-2.16 0h-1.44m-2.04 0h-13.8m-2.16 0h-1.44m-2.04 0h-1.44m-2.16 0h-13.8m-2.16 0h-1.32m-2.16 0h-1.44m-2.16 0h-13.8m-2.04 0h-1.44m-2.16 0h-1.44m-2.04 0h-13.8m-2.16 0h-1.44m-2.04 0h-1.44m-2.16 0h-13.8m-2.16 0h-1.32m-2.16 0h-1.44m-2.16 0h-13.8m-2.04 0h-1.44m-2.16 0h-1.44m-2.04 0h-13.8m-2.16 0h-1.44m-2.04 0h-1.44m-2.16 0h-13.8m-2.16 0h-1.32m-2.16 0h-1.44m-2.16 0h-11.4m0-198.12h11.4m2.16 0h1.44m2.16 0h1.32m2.16 0h13.8m2.16 0h1.44m2.04 0h1.44m2.16 0h13.8m2.04 0h1.44m2.16 0h1.44m2.04 0h13.8m2.16 0h1.44m2.16 0h1.32m2.16 0h13.8m2.16 0h1.44m2.04 0h1.44m2.16 0h13.8m2.04 0h1.44m2.16 0h1.44m2.04 0h13.8m2.16 0h1.44m2.16 0h1.32m2.16 0h13.8m2.16 0h1.44m2.04 0h1.44m2.16 0h13.8m2.04 0h1.44m2.16 0h1.44m2.04 0h13.8m2.16 0h1.44m2.16 0h1.32m2.16 0h13.8m2.16 0h1.44m2.04 0h1.44m2.16 0h13.8m2.16 0h1.32m2.16 0h1.44m2.04 0h13.8m2.16 0h1.44m2.16 0h1.32m2.16 0h13.8m2.16 0h1.44m2.04 0h1.44m2.16 0h13.8m2.16 0h1.32m2.16 0h1.44m2.16 0h13.8m2.04 0h1.44m2.16 0h1.44m2.04 0h11.52v9.36m0 2.159v1.44m0 2.04v1.44m0 2.16v13.8m0 2.16v1.32m0 2.16v1.44m0 2.161v9.36h-5.64v-18.12m0-2.04v-1.44m0-2.16v-1.44m0-2.04v-18.12h-10.68m-2.04 0h-1.44m-2.16 0h-1.44m-2.04 0h-10.68v21.24h-5.64v-21.24h-13.8m-2.16 0h-1.32m-2.16 0h-1.44m-2.16 0h-13.8v21.24h-5.64v-21.24h-13.8m-2.16 0h-1.32m-2.16 0h-1.44m-2.04 0h-13.8v21.24h-5.76v-21.24h-13.8m-2.04 0h-1.44m-2.16 0h-1.44m-2.04 0h-13.8v21.24h-5.76v-21.24h-15.72m-2.04 0h-1.44m-2.16 0h-1.44m-2.04 0h-13.8m-2.16 0h-1.44m-2.16 0h-1.32m-2.16 0h-15.72v21.24h-5.76v-21.24h-15.72m-2.04 0h-1.44m-2.16 0h-1.44m-2.04 0h-13.8m-2.16 0h-1.44m-2.16 0h-1.32m-2.16 0h-15.72v21.24h-5.64v-21.24h-15.84m-2.04 0h-1.44m-2.16 0h-1.44m-2.04 0h-13.8m-2.16 0h-1.44m-2.16 0h-1.32m-2.16 0h-15.72v8.4m0 2.04v1.44m0 2.16v1.44m0 2.04v13.8m0 2.16v1.44m0 2.04v1.44m0 2.16v13.8m0 2.16v1.32m0 2.16v1.44m0 2.16v13.8m0 2.04v1.44m0 2.16v1.44m0 2.04v13.8m0 2.16v1.44m0 2.04v1.44m0 2.16v13.8m0 2.16v1.32m0 2.16v1.44m0 2.16v13.8m0 2.04v1.44m0 2.16v1.44m0 2.04v13.8m0 2.16v1.44m0 2.04v1.44m0 2.16v8.28h15.72m2.16 0h1.32m2.16 0h1.44m2.16 0h13.8m2.04 0h1.44m2.16 0h1.44m2.04 0h15.84v-21.24h5.64v21.24h15.72m2.16 0h1.32m2.16 0h1.44m2.16 0h13.8m2.04 0h1.44m2.16 0h1.44m2.04 0h15.72v-21.24h5.76v21.24h15.72m2.159 0h1.32m2.16 0h1.44m2.16 0h13.8m2.04 0h1.44m2.16 0h1.44m2.041 0h15.72v-21.24h5.76v21.24h13.8m2.04 0h1.44m2.16 0h1.44m2.04 0h13.8v-21.24h5.76v21.24h13.8m2.04 0h1.44m2.16 0h1.32m2.16 0h13.8v-21.24h5.64v21.24h13.8m2.16 0h1.44m2.16 0h1.32m2.16 0h13.8v-21.24h5.64v21.24h10.68m2.04 0h1.44m2.16 0h1.44m2.04 0h10.68v-15.24m0-2.04v-1.44m0-2.16v-1.44m0-2.04v-15.24h5.64v18m0 2.16v1.44m0 2.04v1.44m0 2.16v18m259.679-198.12v14.04m0 2.04v1.44m0 2.16v1.44m0 2.04v13.8m0 2.16v1.44m0 2.04v1.44m0 2.16v13.8m0 2.16v1.32m0 2.16v1.44m0 2.16v13.8m0 2.04v1.44m0 2.16v1.44m0 2.04v13.8m0 2.16v1.44m0 2.04v1.44m0 2.16v13.8m0 2.16v1.32m0 2.16v1.44m0 2.16v13.8m0 2.04v1.44m0 2.16v1.44m0 2.04v13.8m0 2.16v1.44m0 2.04v1.44m.001 2.16v13.92h-9.48m-2.16 0h-1.44m-2.04 0h-1.44m-2.16 0h-13.8m-2.04 0h-1.44m-2.16 0h-1.44m-2.04 0h-13.8m-2.16 0h-1.44m-2.16 0h-1.32m-2.16 0h-13.8m-2.16 0h-1.44m-2.04 0h-1.44m-2.16 0h-13.8m-2.16 0h-1.32m-2.16 0h-1.44m-2.16 0h-13.8m-2.04 0h-1.44m-2.16 0h-1.32m-2.16 0h-13.8m-2.16 0h-1.44m-2.04 0h-1.44m-2.16 0h-13.8m-2.16 0h-1.32m-2.16 0h-1.44m-2.16 0h-13.8m-2.04 0h-1.44m-2.16 0h-1.44m-2.04 0h-13.8m-2.16 0h-1.44m-2.04 0h-1.44m-2.16 0h-13.8m-2.16 0h-1.32m-2.16 0h-1.44m-2.16 0h-9.48v-18m0-2.16v-1.44m0-2.04v-1.44m0-2.16v-18h9m2.04 0h1.44m2.16 0h1.44m2.04 0h13.8m2.16 0h1.44m2.16 0h1.32m2.16 0h13.8m2.16 0h1.44m2.04 0h1.44m2.16 0h13.8m2.04 0h1.44m2.16 0h1.44m2.04 0h9v15.24m0 2.04v1.44m0 2.16v1.44m0 2.04v15.24h16.2m2.039 0h1.44m2.16 0h1.44m2.04 0h13.8m2.16 0h1.44m2.16 0h1.32m2.16 0h13.8m2.16 0h1.44m2.04 0h1.44m2.16 0h13.8m2.16 0h1.32m2.16 0h1.44m2.04 0h13.8m2.16 0h1.44m2.16 0h1.32m2.16 0h13.8m2.16 0h1.44m2.04 0h1.44m2.161 0h16.08m0-186.84h-16.08m-2.16 0h-1.44m-2.04 0h-1.44m-2.16 0h-13.8m-2.16 0h-1.32m-2.16 0h-1.44m-2.16 0h-13.8m-2.04 0h-1.44m-2.16 0h-1.32m-2.16 0h-13.8m-2.16 0h-1.44m-2.04 0h-1.44m-2.16 0h-13.8m-2.16 0h-1.32m-2.16 0h-1.44m-2.16 0h-13.8m-2.04 0h-1.44m-2.16 0h-1.44m-2.04 0h-16.2v15.24m0 2.16v1.44m0 2.04v1.44m0 2.16v15.24h-5.64v-15.24m0-2.16v-1.44m0-2.04v-1.44m0-2.16v-15.24h-17.28m-2.16 0h-1.44m-2.04 0h-1.44m-2.16 0h-17.28v18.12m0 2.04v1.44m0 2.16v1.44m0 2.04v18.12h-4.2v-18.12m0-2.04v-1.44m0-2.16v-1.44m0-2.04v-18.12h-13.8m-2.16 0h-1.44m-2.16 0h-1.32m-2.16 0h-13.8v18.12m0 2.04v1.44m0 2.16v1.44m0 2.04v18.12h-5.64v-9.36m-.001-2.16v-1.44m0-2.16v-1.32m0-2.16v-13.8m0-2.16v-1.44m0-2.04v-1.44m.001-2.16v-9.36m5.64 157.08h14.88m2.04 0h1.44m2.16 0h1.44m2.04 0h13.8m2.16 0h1.44m2.04 0h1.44m2.16 0h13.8m2.16 0h1.32m2.16 0h1.44m2.16 0h14.76m-84.84 35.4v-13.08m0-2.16v-1.32m0-2.16v-1.44m0-2.16v-13.08m84.84 35.4h-14.76m-2.16 0h-1.44m-2.16 0h-1.32m-2.16 0h-13.8m-2.16 0h-1.44m-2.04 0h-1.44m-2.16 0h-13.8m-2.04 0h-1.44m-2.16 0h-1.44m-2.04 0h-14.88m84.84-35.4v13.08m0 2.16v1.44m0 2.16v1.32m0 2.16v13.08m-90.481-192.48h9.48m2.16 0h1.44m2.16 0h1.32m2.16 0h13.8m2.16 0h1.44m2.04 0h1.44m2.16 0h13.8m2.04 0h1.44m2.16 0h1.44m2.04 0h13.8m2.16 0h1.44m2.16 0h1.32m2.16 0h13.8m2.16 0h1.44m2.04 0h1.44m2.16 0h13.8m2.16 0h1.32m2.16 0h1.44m2.04 0h13.8m2.16 0h1.44m2.16 0h1.32m2.16 0h13.8m2.16 0h1.44m2.04 0h1.44m2.16 0h13.8m2.16 0h1.32m2.16 0h1.44m2.16 0h13.8m2.04 0h1.44m2.16 0h1.32m2.16 0h13.8m2.16 0h1.44m2.04 0h1.44m2.161 0h9.48M8.228 265.148h17.16m2.16 0h1.44m2.04 0h1.44m2.16 0h17.16M8.228 58.508v18.24m0 2.04v1.44m0 2.16v1.44m0 2.04v13.8m0 2.16v1.44m0 2.04v1.44m0 2.16v13.8m0 2.16v1.32m0 2.16v1.44m0 2.16v13.8m0 2.04v1.44m0 2.16v1.44m0 2.04v13.8m0 2.16v1.44m0 2.04v1.44m0 2.16v13.8m0 2.16v1.32m0 2.16v1.44m0 2.16v13.8m0 2.04v1.44m0 2.16v1.44m0 2.04v13.8m0 2.16v1.44m0 2.04v1.44m0 2.16v18.24m76.44-203.88v8.04m10.68-6.6v-4.2h-15.96m-2.16 0h-1.44m-2.04 0h-1.44m-2.16 0h-13.8m-2.16 0h-1.32m-2.16 0h-1.44m-2.04 0h-13.92m-2.04 0h-1.44m-2.16 0h-1.32m-2.16 0H8.228m802.08 62.4h-3v-4.68h-13.8m-2.16 0h-1.44m-2.16 0h-1.32m-2.16 0h-13.8v4.68h-7.08v-4.68h-22.68v4.68h-7.08m0-7.56h10.8m2.16 0h1.32m2.16 0h1.44m2.04 0h13.8m2.16 0h1.44m2.16 0h1.32m2.16 0h13.8m2.16 0h1.44m2.04 0h1.44m2.16 0h10.68m-76.68 7.56v-7.56m76.68 0v1.56m0 .24v4.2m0 .24v1.32m0 89.28h-10.68m-2.16 0h-1.44m-2.04 0h-1.44m-2.16 0h-13.8m-2.16 0h-1.32m-2.16 0h-1.44m-2.16 0h-13.8m-2.04 0h-1.44m-2.16 0h-1.32m-2.16 0h-10.8v-7.44h7.08v4.68h22.68v-4.68m7.08 0v4.68h13.8m2.16 0h1.32m2.16 0h1.44m2.16 0h13.8v-4.68h3m-46.92 0h7.08m39.84 0v1.32m0 .24v4.2m0 .24v1.44m-725.64 52.08v-11.28h10.68m0 14.16v-4.32m-43.56 4.32h17.16m2.16 0h1.32m2.16 0h1.44m2.16 0h17.16m2.76 2.76v-7.08m-75.84 7.08h10.32m2.16 0h1.44m2.04 0h1.44m2.16 0h13.8m2.16 0h1.32m2.16 0h1.44m2.16 0h13.8m2.04 0h1.44m2.16 0h1.44m2.04 0h10.32m-75.84 0v-.12m0-212.16v-.12m75.84 7.2v-7.08m-11.28 168.48v9.84h4.92v-9.84zm11.28-168.48h-10.32m-2.04 0h-1.44m-2.16 0h-1.44m-2.04 0h-13.8m-2.16 0h-1.44m-2.16 0h-1.32m-2.16 0h-13.8m-2.16 0h-1.44m-2.04 0h-1.44m-2.16 0h-10.32m457.32 45.36h13.8m2.16 0h1.32m2.16 0h1.44m2.16 0h13.8m218.64 112.08h10.08m2.04 0h1.44m2.16 0h1.44m2.04 0h13.8m2.16 0h1.44m2.16 0h1.32m2.16 0h13.8m2.16 0h1.44m2.04 0h1.44m2.16 0h9.96m-75.24 50.64v-9.24m0-2.16v-1.44m0-2.04v-1.44m0-2.16v-13.8m0-2.04v-1.44m0-2.16v-1.44m0-2.04v-9.24m-636.96 50.64h8.76m2.16 0h1.32m2.16 0h1.44m2.16 0h13.8m2.04 0h1.44m2.16 0h1.44m2.04 0h13.8m2.16 0h1.44m2.04 0h1.44m2.16 0h13.8m2.16 0h1.32m2.16 0h1.44m2.16 0h13.8m2.04 0h1.44m2.16 0h1.44m2.04 0h13.8m2.16 0h1.44m2.04 0h1.44m2.16 0h13.8m2.16 0h1.32m2.16 0h1.44m2.16 0h13.8m2.04 0h1.44m2.16 0h1.44m2.04 0h13.8m2.16 0h1.44m2.04 0h1.44m2.16 0h13.8m2.16 0h1.32m2.16 0h1.44m2.16 0h13.8m2.04 0h1.44m2.16 0h1.44m2.04 0h13.8m2.16 0h1.44m2.16 0h1.32m2.16 0h13.8m2.16 0h1.44m2.04 0h1.44m2.16 0h13.8m2.04 0h1.44m2.16 0h1.44m2.04 0h13.8m2.16 0h1.44m2.16 0h1.32m2.16 0h13.8m2.16 0h1.44m2.04 0h1.44m2.16 0h13.8m2.04 0h1.44m2.16 0h1.44m2.04 0h13.8m2.16 0h1.44m2.16 0h1.32m2.16 0h13.8m2.16 0h1.44m2.04 0h1.44m2.16 0h13.8m2.04 0h1.44m2.16 0h1.44m2.04 0h13.8m2.16 0h1.44m2.16 0h1.32m2.16 0h9m.239 0v-.12m.72.12h.48m.12 0h.12m13.44 0h.12m.12 0h.48m.96 0h.12m.12 0h15.84m2.16 0h1.44m2.16 0h1.32m2.16 0h13.8m2.16 0h1.44m2.04 0h1.44m2.16 0h13.8m2.04 0h1.44m2.16 0h1.44m2.04 0h13.8m2.16 0h1.44m2.16 0h1.32m2.16 0h13.8m2.16 0h1.44m2.04 0h1.44m2.161 0h15.84m0-203.76h-14.88m-2.04 0h-1.44m-2.16 0h-1.44m-2.04 0h-13.8m-2.16 0h-1.44m-2.16 0h-1.32m-2.16 0h-13.8m-2.16 0h-1.44m-2.04 0h-1.44m-2.16 0h-13.8m-2.04 0h-1.44m-2.16 0h-1.44m-2.04 0h-13.8m-2.16 0h-1.44m-2.16 0h-1.32m-2.16 0h-13.8m-2.16 0h-1.44m-2.04 0h-1.44m-2.16 0h-13.8m-2.16 0h-1.32m-2.16 0h-1.44m-2.04 0h-13.8m-2.16 0h-1.44m-2.16 0h-1.32m-2.16 0h-13.8m-2.16 0h-1.44m-2.04 0h-1.44m-2.16 0h-13.8m-2.16 0h-1.32m-2.16 0h-1.44m-2.16 0h-13.8m-2.04 0h-1.44m-2.16 0h-1.44m-2.04 0h-13.8m-2.16 0h-1.44m-2.04 0h-1.44m-2.16 0h-13.8m-2.16 0h-1.32m-2.16 0h-1.44m-2.16 0h-13.8m-2.04 0h-1.44m-2.16 0h-1.44m-2.04 0h-13.8m-2.16 0h-1.44m-2.04 0h-1.44m-2.16 0h-13.8m-2.16 0h-1.32m-2.16 0h-1.44m-2.16 0h-13.8m-2.04 0h-1.44m-2.16 0h-1.44m-2.04 0h-13.8m-2.16 0h-1.44m-2.04 0h-1.44m-2.16 0h-13.8m-2.16 0h-1.32m-2.16 0h-1.44m-2.16 0h-13.8m-2.04 0h-1.44m-2.16 0h-1.44m-2.04 0h-13.8m-2.16 0h-1.44m-2.04 0h-1.44m-2.16 0h-13.8m-2.16 0h-1.32m-2.16 0h-1.44m-2.16 0h-13.8m-2.04 0h-1.44m-2.16 0h-1.44m-2.04 0h-13.8m-2.16 0h-1.44m-2.16 0h-1.32m-2.16 0h-13.8m-2.16 0h-1.32m-2.16 0h-1.44m-2.16 0h-13.8m-2.04 0h-1.44m-2.16 0h-1.44m-2.04 0h-13.8m-2.16 0h-1.44m-2.16 0h-1.32m-2.16 0h-14.88m636.96 50.64v-9.24m0-2.16v-1.44m0-2.04v-1.44m0-2.16v-13.8m0-2.16v-1.32m0-2.16v-1.44m0-2.16v-9.12m75.239 50.64h-9.96m-2.16 0h-1.44m-2.04 0h-1.44m-2.16 0h-13.8m-2.16 0h-1.32m-2.16 0h-1.44m-2.16 0h-13.8m-2.04 0h-1.44m-2.16 0h-1.44m-2.039 0h-10.08m75.239 99.6v2.88m0-92.16v13.32m0 2.04v1.44m0 2.16v1.44m0 2.04v13.8m0 2.16v1.44m0 2.16v1.32m0 2.16v13.8m0 2.16v1.44m0 2.04v1.44m.001 2.16v13.32m0-92.16v2.76m-714.96 154.56h-17.04m-2.04 0h-1.44m-2.16 0h-1.44m-2.04 0h-13.8m-2.16 0h-1.44m-2.16 0h-1.32m-2.16 0h-13.8m-2.16 0h-1.44m-2.04 0h-1.44m-2.16 0H6.188m86.28-170.16v-.12m-86.28-49.08h13.2m2.16 0h1.44m2.04 0h1.44m2.16 0h13.8m2.16 0h1.32m2.16 0h1.44m2.16 0h13.8m2.04 0h1.44m2.16 0h1.44m2.04 0h13.8m2.16 0h1.44m2.16 0h1.32m2.16 0h13.2v11.4m0 203.76v11.28m349.32-56.16-.12-1.68-.48-1.56-.72-1.44-1.08-1.2-1.2-1.08-1.44-.84-1.44-.48-1.68-.24-1.56.12-1.44.24m-5.76 8.16v.72l.24 1.68.6 1.44.84 1.32 1.2 1.2 1.32.96 1.44.6 1.56.48h1.56l1.68-.24.6-.24m-38.881-172.56v-.36l-.12-.36-.12-.24-.24-.36-.24-.24-.36-.12-.36-.12-.36-.12h-.36l-.36.12-.36.12-.24.24-.36.24-.12.36-.12.36-.12.36v.36l.12.36.12.36.12.24.36.36.24.12.36.24h.36l.36.12.36-.12.36-.12.36-.12.24-.24.24-.36.12-.36.12-.36zm.481 0-.12-.36-.12-.48-.12-.36-.36-.36-.36-.24-.36-.24-.36-.24h-.96l-.36.12-.48.24-.36.24-.24.24-.24.48-.24.36v1.32l.24.36.24.48.24.24.36.24.48.24.36.12h.48l.48-.12.36-.12.36-.24.36-.24.36-.36.12-.36.12-.48zl-.12-.48-.12-.36-.24-.48-.24-.24-.36-.36-.36-.24-.48-.12h-.96l-.36.12-.48.24-.36.36-.24.36-.24.36-.12.48v.48m4.44-.96-.12-.36-.36-.36-.24-.24-.36-.24-.48-.24h-.84l-.36.12-.48.12-.36.24-.24.24-.24.36-.24.36m-.12-12.96h4.44m-4.44-.36h4.44m-.481-.24h-3.48m-1.319 14.4v-.36l-.12-.36-.24-.24-.24-.36-.24-.24-.36-.12-.24-.12-.48-.12h-.36l-.36.12-.24.12-.36.24-.24.24-.24.36-.12.36v1.08l.12.36.24.24.24.36.36.12.24.24h.36l.36.12.48-.12.24-.12.36-.12.24-.24.24-.36.24-.36.12-.36zm-5.16 0v-.36l-.12-.36-.12-.24-.24-.36-.24-.24-.36-.12-.36-.12-.36-.12h-.36l-.36.12-.36.12-.24.24-.36.24-.12.36-.12.36-.12.36v.36l.12.36.12.36.12.24.36.36.24.12.36.24h.36l.36.12.36-.12.36-.12.36-.12.24-.24.24-.36.12-.36.12-.36zm-5.041 0v-.36l-.12-.36-.24-.24-.12-.36-.36-.24-.24-.12-.36-.12-.36-.12h-.48l-.36.12-.24.12-.36.24-.24.24-.24.36-.12.36v1.08l.12.36.24.24.24.36.36.12.24.24h.36l.48.12.36-.12.36-.12.24-.12.36-.24.12-.36.24-.36.12-.36zm-123.719 0v-.36l-.12-.36-.24-.24-.12-.36-.36-.24-.24-.12-.36-.12-.36-.12h-.36l-.36.12-.36.12-.36.24-.24.24-.24.36-.12.36v1.08l.12.36.24.24.24.36.36.12.36.24h.36l.36.12.36-.12.36-.12.24-.12.36-.24.12-.36.24-.36.12-.36zm-10.2 0v-.36l-.12-.36-.12-.24-.24-.36-.36-.24-.24-.12-.36-.12-.36-.12h-.36l-.36.12-.36.12-.36.24-.24.24-.12.36-.24.36v1.08l.24.36.12.24.24.36.36.12.36.24h.36l.36.12.36-.12.36-.12.24-.12.36-.24.24-.36.12-.36.12-.36zm-20.4 0v-.36l-.12-.36-.12-.24-.24-.36-.36-.24-.24-.12-.36-.12-.36-.12h-.36l-.36.12-.36.12-.36.24-.24.24-.12.36-.12.36-.12.36v.36l.12.36.12.36.12.24.24.36.36.12.36.24h.36l.36.12.36-.12.36-.12.24-.12.36-.24.24-.36.12-.36.12-.36zm25.56 0-.12-.36-.12-.36-.12-.24-.24-.36-.24-.24-.36-.12-.36-.12-.36-.12h-.36l-.36.12-.36.12-.24.24-.24.24-.24.36-.12.36-.12.36v.36l.12.36.12.36.24.24.24.36.24.12.36.24h.36l.36.12.36-.12.36-.12.36-.12.24-.24.24-.36.12-.36.12-.36zm-10.2 0-.12-.36v-.36l-.24-.24-.24-.36-.24-.24-.36-.12-.36-.12-.36-.12h-.36l-.36.12-.36.12-.24.24-.24.24-.24.36-.12.36-.12.36v.36l.12.36.12.36.24.24.24.36.24.12.36.24h.36l.36.12.36-.12.36-.12.36-.12.24-.24.24-.36.24-.36v-.36zm-5.161 0v-.36l-.12-.36-.12-.24-.24-.36-.36-.24-.24-.12-.36-.12-.36-.12h-.36l-.36.12-.36.12-.36.24-.24.24-.12.36-.24.36v1.08l.24.36.12.24.24.36.36.12.36.24h.36l.36.12.36-.12.36-.12.24-.12.36-.24.24-.36.12-.36.12-.36zm-5.039 0-.12-.36v-.36l-.24-.24-.24-.36-.24-.24-.36-.12-.36-.12-.36-.12h-.36l-.36.12-.36.12-.24.24-.24.24-.24.36-.12.36-.12.36v.36l.12.36.12.36.24.24.24.36.24.12.36.24h.36l.36.12.36-.12.36-.12.36-.12.24-.24.24-.36.24-.36v-.36zm341.04 154.2h-.12m3.24.96h-.12m.12-.96h-.12m-3-2.16h-.12m4.08 1.08h-.24m-3.72-3.12h-.12m4.08 1.08h-.24m-3.72-3.24h-.12m6.6 7.68h-.12m.12-.96-.12-.12m-6.36-8.64h-.12m6.6 6.6h-.12m-3.84-7.56v.96m-2.16 0v-.96m2.28 0v.96m-2.4 0v-.96m3.84.96h-.12m-1.2-.96v.96m-2.76 0 .12-.96m5.16 3.24h-.12m-2.16-3.24v.96m-3.12 0v-.96m6.36 5.4h-.24m-12.6 3.24h-.12m16.2-2.16h-.12m-15.96.12h-.12m16.2-2.28h-.12m-16.08 2.28v-.12m16.2-2.04v-.12m-16.08.12h-.12m16.2-2.16h-.12m-16.081 4.44h-.12m16.56 3.36v-.12m-.12.72v-.12m-16.32.12v-.12m-.12-.6v.12m16.44-5.52v-.12m-16.439 5.64v-.12m16.44-5.4v-.12m.12 5.64v-.12m-.12.72v-.12m-16.32.12v-.12m-.12-.48v-.12m16.56.12v-.12m-.12.6v-.12m-16.32.12v-.12m-.12-.36v-.12m16.44.96v-.12m-16.32.12v-.12m16.32-6.24v-.12m.24 5.04v-.12m-16.8.12v-.12m16.56-4.68v-.12m-16.321 0-.12.12m16.56 3.24v-.12m-.12.84v-.12m-16.32.12v-.12m-.12-.6v-.12m16.44-5.4v-.12m.241 7.32v-.12m-16.8.12v-.12m.12-1.56v-.12m16.44-5.4v-.12m-.12-.96v-.12m-16.08.12v-.12m16.32 6.72v-.12m-.12.84v-.12m-16.32.12v-.12m-.12-.6v-.12m16.56.12v-.12m-.12.72v-.12m-16.32.12v-.12m-.12-.48v-.12m16.44-6.48v-.12m-16.32.12v-.12m16.56 6.12v-.12m-16.8.12v-.12m16.56-4.68v-.12m-16.321.12h-.12m16.56 3.36v-.12m-.12.84v-.12m-16.32 0v-.12m-.12-.6v.12m16.44-4.56v-.12m-16.32.12v-.12m16.561 6.24v-.12m-16.8.12v-.12m.12-1.44v-.12m16.44-4.32v-.12m-16.32.12v-.12m16.32 5.16v-.12m.12-.48v-.12m-.12.72v-.12m-16.32.12v-.12m-.12-.48v-.12m16.56.12v-.12m-.12.6v-.12m-16.32.12v-.12m-.12-.36v-.12m16.44-4.32h.12m-16.44 0h-.12m16.68 3.84v-.12m-16.8.12v-.12m16.68-1.44v-.12m-.12.84v-.12m-16.32.12v-.12m-.12-.6v-.12m16.68 1.8v-.12m-16.8.12v-.12m16.68-1.56v-.12m-.12.84v-.12m-16.32.12v-.12m-.12-.6v-.12m16.56.12v-.12m-.12.72v-.12m-16.32.12v-.12m-.12-.48v-.12m16.68-.48v-.12m-16.8.12v-.12m16.68-1.32v-.12m-.12.84v-.12m-16.32.12v-.12m-.12-.72v.12m16.68 1.56v-.12m-16.8.12v-.12m.12-1.44v-.12m16.56.12v-.12m-.12.72v-.12m-16.32.12v-.12m-.12-.48v-.12m16.56.12v-.12m-.12.6v-.12m-16.32.12v-.12m-.12-.36v-.12m16.56.12.12-.12m-16.8 0 .12.12m5.52 120.6v1.32m5.52-.48v.12m-.36.36h-5.16m0-.48h5.52m-5.52.48h5.16m.12-1.32h-5.28m0 0h5.16m.36.72h-5.52m5.52.12h-5.52v-.12m5.52 0v.12m-5.52 0v-.12m5.52.12v-.12m0 0h-5.52v-.72m11.88-9.12h-.12m.12-.36h-.12m0 .48v-.12m.12-.36h-.12m.48-2.76v-.12m0 1.32v-.12m0-1.08v-.12m-1.44 13.92h-16.08v-.12m16.08 0v.12h-16.08m16.08 0v-.12m-16.08.12v-.12m16.08.12v-.12m-16.08.48h16.08zm16.08 0v-.12m-16.08-.24v.36m16.08 0v-.36m0 .48h-16.08v-.12m16.08.12v-.12m0-16.2h.12m-11.76-2.4h.84l.24-.12h5.04l.24.12h.84-1.56l-.12-.12h-3.84l-.12.12h-1.32zm7.2 0 3.48.48h.96l.6 1.32v.36h-.6m-16.08 0h-.6v-.36l.6-1.32h.96l3.48-.48m10.68.48-3.48-.48m-10.68.48 3.48-.48m-5.04-71.28v-12.48m0-2.16v-1.44m0-2.04v-1.44m0-2.16v-12.48m0 34.32v-.12m0-34.2v12.6m0 2.04v1.44m0 2.16v1.44m0 2.04v12.6m0-34.32v-.12m0 34.32v-12.48m0-2.16v-1.44m0-2.04v-1.44m0-2.16v-12.48m.119 28.92v-.12m0-2.64v-.12m0-2.64v-.12m0-2.64v-.12m0-2.64v-.12m0-2.64v-.12m0-2.64v-.12m0-2.64v-.12m0-2.64v-.12m0-2.64v-.12m0-2.64v-.12m.24 33.12h-.24m0-34.32v-.12m.24 34.44v-2.88m0-.24v-.72m0-.24v-5.76m0-.12v-.84m0-.12v-2.28m0-.24v-.72m0-.24v-2.28m0-.12v-.84m0-.12v-4.68m0-1.08v-.12m0-2.04v-.12m0-1.92v-.12m0-1.92v-.12m0-2.04v-.12m.12 32.04v-.12m0-22.44v4.8m0 .12v.84m0 .12v2.28m0 .24v.72m0 .24v2.28m0 .12v.84m0 .12v5.76m0 .24v.72m0 .24v2.88m0-.24v-22.32m0-1.08v-.12m0-1.92v-.12m0-2.04v-.12m0-1.92v-.12m0-2.04v-.12m.001 28.08v-.12m0 3.96v-.12m0 .24v-22.44m16.68-12.48v2.88-.48m0 .48v-2.88m-17.04 2.88v-2.88 2.4zm0 0v-2.88m0 0 .24-.36v2.4l-.24.36m15.96 39.6h-14.88m14.88-.48h-14.88m14.88 1.08h-14.88m.84 22.92h13.2m.12 0v.12h-13.44m13.44 0v.12h-13.44v-.12m13.44.36h-.24m-.12 0h-12.72m-.12 0h-.24m13.44 0v-.12m-13.44.12v-.12m13.44-.12v.24m-13.2 0v-.12m.12 0v.12m12.84-.12v.12m-.12 0v-.12m-13.08.12v-.24m13.08.12v-.12m.12.12v-.12m-12.96.12v-.12m.12.12v-.12m13.08-.24v-1.44m-13.44 1.44v-1.44m.12-33.12h13.2m.12.12v.12h-13.44m13.44 0h-13.44m13.44.36h-.24m-.12 0h-12.72m-.12 0h-.24m13.44 0v-.12m-13.44.12v-.12m13.44-.24v.36m-13.2-.12v-.12m.12.12v-.12m12.84.12v-.12m-.12.12v-.12m-13.08.24v-.36m13.08.24v-.12m.12.12v-.12m-12.96.12v-.12m.12.12v-.12m13.08-.24v-1.44m-13.44 1.44v-1.44m-.12.84v-.12m13.679 59.76-.12.12h-.12l-3.84.36h-.12v-.12h-.12v-.36h-.12v-.36h.12v-.24l.12-.12m-5.519 1.2h.12l-3.84-.36v-.12h.12v-.12h.12v-.96h-.12v-.12h-.12l-.12.12h-.12v.12m9.12.24v1.32h-4.56v-1.32m10.32 1.68h-16.08v-1.32h.72m5.04 0v-.12m4.56.12v-.12m-10.32 1.56h16.08v-.12m-1.201-14.76-.12.12h-.12l-3.84.36h-.12v-.12h-.12v-.36h-.12v-.36h.12v-.24h.12v-.12m-5.519 1.32h.12v-.12l-3.84-.36v-.12h.12v-.12h.12v-.96h-.12l-.12-.12v.12h-.12l-.12.12m9.12.24v1.32h-4.56v-1.32m-.84 1.2-.24.12m-.12 0v-.12m-4.56.48h16.08m-16.08-1.32h.72m5.04 0v-.12m4.56.12v-.12m-10.32 1.56h16.08v-.12m-1.201-14.76v.12h-.24l-3.84.48v-.12h-.12v-.12h-.12v-.36h-.12v-.12m-5.279.72h.12l-3.84-.48m8.88-.24v.72h-4.56v-.72m-5.76 1.08h16.08v-1.08m-16.08 1.32h16.08v-.24m-1.201-14.76v.12h-.24l-3.84.48v-.12h-.12v-.12h-.12v-.24l-.12-.12v-.36h.12v-.24h.12v-.12m-5.519 1.32h.12l-3.84-.48v-.12h.12v-.12h.12v-.84l-.12-.12h-.24l-.12.12m9.12.24v1.32h-4.56v-1.32m-.84 1.2-.24.12m-.12 0v-.12m-4.56.48h16.08m-16.08-1.32h.72m5.04 0v-.12m4.56.12v-.12m-10.32 1.68h16.08v-.24m-1.201-14.76v.12h-.24l-3.84.48-.12-.12v-.12h-.12v-.24l-.12-.12v-.36h.12v-.24h.12v-.12m-5.519 1.32h.12l-3.84-.48.12-.12v-.12h.12v-.84l-.12-.12h-.24v.12h-.12v.12m9.12.24v1.2h-4.56v-1.2m-4.2.48-.72.24m0 .6v-.48m9.48.12v-.36m5.76.96h-16.08v-1.32h.72m5.04 0v-.12m4.56.12v-.12m-10.32 1.68h16.08v-.24m-1.201-14.76v.12h-.24l-3.84.48-.12-.12v-.12h-.12v-.24l-.12-.12v-.36h.12v-.24h.12v-.12m-5.519 1.32h.12l-3.84-.48m8.88-.72v1.2h-4.56v-1.2m-4.2.48-.72.24m0 .6v-.48m9.48.12v-.36m5.76.96h-16.08v-1.32h.72m5.04 0v-.12m4.56.12v-.12m-10.32 1.68h16.08v-.24m-15.48 60.84h14.88m-14.88.36h14.88m-14.88.6h14.88m-14.88-14.76h14.88m-14.88.36h14.88m-14.88.6h14.88m.96-5.04v-.24m-.24-.36v.36m.12-66v.6m-.12-.6v.6m-16.32-.6v.6m-.12-.6v.6m16.92 90.36v-.12m-.12-85.2h-.12m.24 92.28v-.24m-.36 7.8v-.12m.36-69.24v-12.48m0-2.16v-1.44m0-2.04v-1.44m0-2.16v-12.48m0 0v12.6m0 2.04v1.44m0 2.16v1.44m0 2.04v12.6m0 0v-.12m0-34.2v-.12m0 34.32v-12.48m0-2.16v-1.44m0-2.04v-1.44m0-2.16v-12.48m-.12 30.24v-5.52m0-1.32v-5.76m0-1.08v-5.64m0-1.32v-5.76m0-1.08v-2.76h.12m-.12 8.16v-1.2m0 3.96v-.12m-.36 23.52v-.12m0-31.92v.12m0 2.04v.12m0 1.92v.12m0 2.04v.12m0 2.04v-.12m0 1.2v4.68m0 .12v.84m0 .12v2.28m0 .24v.72m0 .24v2.28m0 .12v.84m0 .12v5.76m0 .24v.72m0 .24v2.88m.36-34.32v-.12m-.36 11.88v22.44m0-.12v-22.32m0-1.08v-.12m0-1.92v-.12m0-2.04v-.12m0-1.92v-.12m0-2.04v-.12m0 32.16v-.12m.48 37.92v-10.44m0-5.64v-21.6m0 0v21.6m0 5.64v10.56m0-.12v-.12m0 .24v-.12m0-37.68v-.12m0 37.8v-10.44m0-5.64v-21.6m-.12 33.72v-5.76m0 9.84v-2.88m0 2.88v-.12m0-1.56v-1.2m0-13.32v-.48m0 6.72v-.6m0-6.12v-.12m0 0v-.12m0-2.52v-.12m0 0v-.12m0-2.52v-.12m0 0v-.12m0-2.52v-.12m0 0v-.12m0-2.52v-.12m0 0v-.12m0-2.52v-.12m0 0v-.12m0-2.52v-.12m0 0v-.12m0-2.52v-.12m0 0v-.12m0-1.56h-.36m0 37.8h.36m-.36-37.8v2.76m0 .12v.84m0 .12v2.28m0 .24v.72m0 .24v5.76m0 .24v.72m0 .24v2.28m0 .12v.84m0 .12v3.96m0 5.64v.6m0 .12v1.44m0 .24v.72m0 .24v.48m0 .24v.84m0 .24v1.32m0 .24v.84m0 .12v2.88h.36m-.36-37.92v-.12m0 29.28v-1.8m0-5.64v-21.72m0 29.16v-.12m0 8.76v-.12m0-4.92v4.92m0-5.4v-.84m0-.24v-.48m0-.24v-.72m0-.24v-.12m0-29.4v-.12m0 29.28v-1.8m0-5.64v-21.72m0 29.28v-.12m.48 43.08v-12.48m0-2.16v-1.32m0-2.16v-1.44m0-2.04v-12.6m0 0v12.6m0 2.16v1.32m0 2.16v1.44m0 2.16v12.48m0 0v-.12m0-34.2v-.12m0 34.32v-12.48m0-2.16v-1.32m0-2.16v-1.44m0-2.04v-12.6m-.12 20.64v-2.76m0-2.76v-2.76m0-2.76v-2.76m0 0v-2.76m0 4.08v-1.2m0 3.96v-.12m0 11.16v-1.2m0 3.96v-.12m0 7.2v-.12m0 0v-.12m0-2.52v-.12m0 0v-.12m0-2.52v-.12m0 0v-.12m0-2.64v-.12m0-2.52v-.12m0 0v-.12m0-2.52v-.12m0 0v-.12m0-2.52v-.12m0 0v-.12m0-2.52v-.12m0 0v-.12m0-2.64v-.12m0-2.52v-.12m0 0v-.12m0-2.52v-.12m0 0v-.12m-.36-3.96v2.76m0 .12v.84m0 .12v5.76m0 .24v.72m0 .24v5.76m0 .12v.84m0 .12v5.04m0 1.92v.12m0 2.04v-.12m0 2.16v.12m0 2.04v-.12m.36-30.84h-.36m0 30.96v-.12m0-2.04v-.12m0-1.92v-.12m0-2.04v-.12m0-1.92v-22.68m-16.8-.12v-10.44m0-5.64v-21.6m0 37.8v-.12m0-37.68v21.6m0 5.64v10.56m0-37.8v-.12m0 37.8v-10.44m0-5.64v-21.6m0 33.36v-.12m.12.12v.36m0 .24v.84m0-2.76v-.12m0-2.64v-.12m0-8.16v-.12m0-2.64v-.12m0-2.64v-.12m0-2.64v-.12m0-2.64v-.12m0-2.64v-.12m0-2.64v-.12m0-2.64v-.12m.24 36.24h-.24m-.001-37.8h.24m0 37.8v-2.88m0-.12v-.84m0-.24v-1.32m0-.24v-.84m0-.24v-.48m0-.24v-.72m0-.24v-1.44m0-.12v-.6m0-5.64v-3.96m0-.12v-.84m0-.12v-2.28m0-.24v-.72m0-.24v-5.76m0-.24v-.72m0-.24v-2.28m0-.12v-.84m0-.12v-2.76m-.119 36.12v-1.2m0-2.76v-.12m0 1.32v-1.08m.239-32.28v2.76m0 .12v.84m0 .12v2.28m0 .24v.72m0 .24v5.76m0 .24v.72m0 .24v2.28m0 .12v.84m0 .12v3.96m0 5.64v.6m0 .12v1.44m0 .24v.72m0 .24v.48m0 .24v.84m0 .24v1.32m0 .24v.84m0 .12v2.88m.001-8.76v-1.8m0-5.64v-21.72m-.001 32.64v-.12m0-.24v-.84m0-.24v-.48m0-.24v-.72m0-.24v-.12m.001 8.28v-4.92m0 1.08v-.12m0-.96v-.12m0 5.28v-.12m-.001-8.04v.72m0 .36v.36m0 .24v.72m0 .36v.12m.001-32.64v-.12m0 29.28v-1.8m0-5.64v-21.72m.12 87v-15m0 15v-.12m0-14.88v-.12m-.6.36v-12.48m0-2.16v-1.32m0-2.16v-1.44m0-2.04v-12.6m0 34.32v-.12m0-34.2v12.6m0 2.16v1.32m0 2.16v1.44m0 2.16v12.48m0-34.32v-.12m0 34.32v-12.48m0-2.16v-1.32m0-2.16v-1.44m0-2.04v-12.6m.119 28.92v-.12m0-2.64v-.12m0-2.64v-.12m0-2.64v-.12m0-2.64v-.12m0-2.64v-.12m0-2.64v-.12m0-2.64v-.12m0-2.64v-.12m0-2.64v-.12m0-2.64v.12m0 32.88v-.12m0-34.2h.24m0 30.96v-.12m0-1.92v-.12m0-2.04v-.12m0-1.92v-.12m0-2.04v-4.92m0-.12v-.84m0-.12v-5.76m0-.24v-.72m0-.24v-5.76m0-.12v-.84m0-.12v-2.76m-.24 34.44v-.12m.36-34.32v2.76m0 .12v.84m0 .12v5.76m0 .24v.72m0 .24v5.76m0 .12v.84m0 .12v4.92m0 8.4v-.12m0-2.04v-.12m0-1.92v-.12m0-2.04v-.12m0-1.92v-22.68m18.841 43.08h.24v-3.6m-.24 0v3.6m1.2-2.52h.12m-2.88.36h.48m.48-8.16v4.2m.36-4.2v4.2h-.36m.96-4.2v4.2h-.6m.96-4.2v4.2h-.36m-2.16 0v-4.2h.12m-.12 4.2h1.2m-.12-4.2h.12m2.52 1.68v2.52m-.12-4.2v1.68m-1.08 2.52h1.2m-1.2-4.2h.12m-.84 5.4h-1.68v-.48h3.48v.48h-.48m-2.64-8.4v1.92m2.4-1.92h.36m-2.88 0v1.92m2.88-1.92h.12m.239 0v1.92m-2.04 5.64-.12.36m.12 0v-.24m-.36-.12v.12m0 .12v.12m1.921.48v-.12m-2.64.48-.36-.36m3.48 0-.36.36m1.56-3.84v-.12m-4.2 2.88v.24m.359 5.76v-.12m1.8.12v-.12m-2.76-11.64v1.08m.12 0v-.12m-.12-.96h.12m3.6 1.08v-1.08m-.12 1.08v-.12m0-.96h.12m-3.6-1.92v-.12m.001 12.48v-.6m4.92-9.24v.12m0 2.04v.12m-1.08-.12h-.36m.36-1.68h-.36m-3.36 4.56v-.36m3.24 0v.36m-3.48-.36v-4.2m-16.32-39.72v-2.28m0-6.96v-6.84m0-1.56v-12.24m0-1.56v-12.24m0-1.56v-8.76m-.6 54h.6m-.72 0v-1.8m0-29.16v-.12m.36 31.44h.12m16.8-60.84v-.48m0-.96v-.48m-.12 2.04.12-.12m-.72.12h.12m.12 0h.36m-18-.48v-1.32m17.04 103.2v15.72m-.24.12h-15.72m-.12-.12v-15.72m16.08 0h-.24m-.24 0h-4.92m-.24 0h-4.8m-.24 0h-4.92m-.24 0h-.24m.12 15.84h15.72m-15.84-15.84h.24m.24 0h4.92m.24 0h4.8m.24 0h4.92m.24 0h.24m-16.08 0v-.12m16.08.12v-.12m-16.08 0v.12m15.84-.24h-15.72m15.96.24v-.12m-.24-.12h-15.72m.48-40.8v9.96m0 1.44v12.36m0 1.44v3.96m-.72-29.16v10.2m0 2.04v1.44m0 2.16v1.44m0 2.04v10.2m16.32-29.52v10.2m0 2.04v1.44m0 2.16v1.44m0 2.04v10.32m-.72-29.64v9.96m0 1.44v12.36m0 1.44v3.96m.72-29.16h-.72m0 0h.6m-.6-54v8.76m0 1.56v12.24m0 1.56v12.24m0 1.56v6.84m0 6.96v2.28m.72-31.08v.12m0 29.16v1.8m-.36 56.88h-15.72m-.12-.12v-.12m16.08 1.68v-.48m-15.96.6h15.72m-15.84-.6v.48m16.08-.48h-5.28m-6.12 0h-4.68m.12.6v-.12m15.72.12h-15.72m15.96-.72h-5.28m-6.12 0h-4.68m16.08.12v-.12m0 0v-.96m0 3.12v-.6m-15.96.6h15.84m.12-.6h-14.4m-.12 0h-1.56m15.96.6v-.12m.12.12v-.12m-15.96.12h15.84m0-.96h-15.84m15.96.24h-8.04m-.12 0h-6.24m-.12 0h-1.56m16.08.12v-.12m-16.08.12v-.12m16.08-.24v.24m-16.08 0v-.24m-.24-12.6v4.32m16.56-4.32v4.32m-9.72-16.32-.12.12m4.08 1.08h-.24m-3.72-3.24h-.12m4.08 1.08h-.24m-3.72-3.12h-.12m6.6 6.6h-.12m-6.36-8.76h-.12m6.6 6.6h-.12m-12.96 3.24h-.12m16.2-2.16h-.12m-16.08 2.16v-.12m15.84-7.56h-.12m-15.72 7.68v.12m15.84-7.8v-.12m-15.84 7.92v-.12m15.96-7.56-.12-.12m-15.72 5.52-.12.12m16.2-2.28h-.12m-16.08 4.44h-.12m16.08-7.68v-.12m-15.96 5.64v-.12m16.2-2.04v-.12m-16.2 2.28v-.12m16.2-2.04v-.12m-16.2 2.28v.12m16.32-2.28h-.12m-16.08 0h-.12m16.2-2.16h-.12m-16.08 4.44h-.12m16.44-2.16v-.12m-16.32 0v.12m16.2-2.28v-.12m-16.08.12-.12.12m16.2-2.28h-.12m.48 9.36v-.12m-16.8.12v-.12m16.56-4.8v-.12m-16.321.12h-.12m16.56 3.36v-.12m-.12.84v-.12m-16.32.12v-.12m-.12-.6v-.12m16.44-5.4v-.12m.241 7.2v-.12m-16.8.12v-.12m16.44-9.12v-.12m-16.32 7.8v-.12m16.44-5.4v-.12m.12 5.64v-.12m-.12.72v-.12m-16.32.12v-.12m-.12-.48v-.12m16.56.12v-.12m-.12.72v-.12m-16.32.12v-.12m-.12-.48v-.12m16.68-.48v-.12m-16.8.12v-.12m16.56-4.68v-.12m-16.321.12h-.12m16.56 3.36v-.12m-.12.72v-.12m-16.32.12v-.12m-.12-.6v.12m16.44-5.52v-.12m.241 7.2v-.12m-16.8.12v-.12m.12-1.44v-.12m16.44-5.4v-.12m.12 5.64v-.12m-.12.72v-.12m-16.32.12v-.12m-.12-.48v-.12m16.56.12v-.12m-.12.6v-.12m-16.32.12v-.12m-.12-.36v-.12m16.68-.48v-.12m-16.8.12v-.12m16.56-4.8v-.12m-16.321.12h-.12m16.56 3.36v-.12m-.12.84v-.12m-16.32.12v-.12m-.12-.6v-.12m16.681 1.68v-.12m-16.8.12v-.12m16.68-1.44v-.12m-.12.72v-.12m-16.32.12v-.12m-.12-.48v-.12m16.56.12v-.12m-.12.72v-.12m-16.32.12v-.12m-.12-.48v-.12m16.68-.48v-.12m-16.8.12v-.12m16.68-1.32v-.12m-.12.72v-.12m-16.32.12v-.12m-.12-.6v.12m16.68 1.56v-.12m-16.8.12v-.12m.12-1.44v-.12m16.56.12v-.12m-.12.72v-.12m-16.32.12v-.12m-.12-.48v-.12m16.56.12v-.12m-.12.6v-.12m-16.32.12v-.12m-.12-.36v-.12m16.68-.48v-.12m-16.8.12v-.12m16.8.24v-.12m-16.8.12v-.12m141.48-211.92h-14.16v-12.84h14.16m-48.12 12.84h2.88m-2.88-12.84h2.88m0 12.84v-.12m-2.88-12.72v12.84m5.64 0h-2.76v-12.84h2.76m0 12.84h2.88m-2.88 0v-12.84h2.88m0 12.84h2.88m-2.88 0v-12.84h2.88m0 12.84h2.76m-2.76-12.84h2.76m0 12.84v-.12m-2.76-12.72v12.84m2.76 0h2.88m0-12.84h-2.88v12.84m5.64 0h-2.76v-12.84h2.76m0 12.84h2.88m-2.88 0v-12.84h2.88m0 12.84h2.88m-2.88-12.84h2.88m0 12.84v-.12m-2.88-12.72v12.84m5.64 0h-2.76v-12.84m2.76 12.84v-.12m-2.76-12.72h2.76m0 12.84h2.88m-2.88-12.84h2.88m0 12.84v-.12m-2.88-12.72v12.84m5.28 0h-2.4v-12.84h2.4m-147.6 38.04v-.12m5.64.12v-.12m-5.64.12v.12m5.64-.12v.12m-5.64 0v.12m5.64-.12v.12m142.32-38.28h-.36v-.96h14.52m-14.52 14.76h14.52m-.6 31.68v-5.04h.36v5.04zm0 87.84h.36v4.2h-.36zm-128.04-134.4v-.24h3.24v.24zm128.4 18.24h-.24v-3.24m.24 0v3.24m-.24 9.96h.24v3.24h-.24zm-.12 157.08v-5.16h.36v5.16zm-101.16 78.48.84.6 1.08.36 1.08.24h1.08l1.08-.24.96-.36.96-.72.24-.24m0-8.16-.24-.24-.96-.6-.96-.48-1.08-.24h-1.08l-1.08.24-1.08.36-.84.6m-.12 9 .96.6 1.08.36 1.08.24h1.08l1.08-.24 1.08-.48.84-.6.36-.36m0-8.16-.36-.36-.84-.6-1.08-.36-1.08-.24h-1.08l-1.08.12-1.08.48-.96.6m-20.64-31.68h-1.92m-1.2 0h-14.88m-1.2 0h-2.04m19.92 22.32v10.2-.12m0-14.76v.24m0 .48v.96m0 3v10.08m-18.48.12v-.12h18.48m0 .12h-18.48m0-15.96h1.2m16.2 0h.6m-18 0h1.2m16.2 0h.12m-17.52 0v-.12m0 16.08v-11.64m0-.6v-3.72m0 15.84v-11.52m0-.6v-3.72m36.72-16.56v16.44m0 2.16v1.44m0 2.16v1.32m0 2.16v16.56l-.12-.12m.12-42.12h-.12v16.44m0 2.16v1.44m0 2.16v1.32m0 2.16v16.44m.119.12h-11.4m-2.16 0h-1.32m-2.16 0h-1.44m-2.16 0h-13.8m-2.04 0h-1.44m-2.16 0h-1.44m-2.039 0h-11.4v-.12m54.84 0h-11.28m-2.16 0h-1.32m-2.16 0h-1.44m-2.16 0h-13.8m-2.04 0h-1.44m-2.16 0h-1.44m-2.04 0h-11.4m0-42.12h16.8zm0 42.24v-16.56m0-2.16v-1.32m0-2.16v-1.44m0-2.16v-16.44m0 42.12v-16.44m0-2.16v-1.32m0-2.16v-1.44m0-2.16v-16.44m54.96 0h-16.92 16.8m-22.441-223.8v.36m0 .24v16.32m0 2.16v1.44m0 2.04v1.44m.001 2.16v16.32m14.16-42.48h-14.16m128.16 16.2h-.24m-127.92 26.28h-9.48m-2.16 0h-1.44m-2.16 0h-1.32m-2.16 0h-9.6m-561.48 153.6h9.96m76.44-12.72v12.72h-9.96v-12.72zm-13.2-67.56h12.84v9.84h-12.84zm0-54.6h12.84v9.96h-12.84zm-63.24-70.32h-9.96m80.04 12.72h6.36m-9.96-12.72v10.08m9.96 2.64v-12.72h-9.96m483.72 275.16v12.48h-2.88m55.2-54.84h-18.96m-1.2 0h-14.88m-1.2 0h-18.96m55.2 54.84v-11.28m0-2.16v-1.44m0-2.16v-1.32m0-2.16v-13.8m0-2.16v-1.44m0-2.04v-1.44m0-2.16v-11.28m0 54.84h-2.88v-12.48m-52.32-42.36v11.28m0 2.16v1.44m0 2.04v1.44m0 2.16v13.8m0 2.16v1.32m0 2.16v1.44m0 2.16v11.28m2.88 0v14.16h-2.88v-14.16m52.32 14.16h2.88v-14.16m-2.88 14.16v-14.16m5.76-57.72h-21.84m-17.28 0h-21.84m60.96 74.64v-10.8m0-2.16v-1.44m0-2.16v-1.32m0-2.16v-10.92m-.001-.6v-7.92m0-.6v-12.6m0-2.16v-1.44m0-2.16v-1.32m.001-2.16v-12.72m-60.96 74.64h14.4m2.04 0h1.44m2.16 0h1.44m2.04 0h13.8m2.16 0h1.44m2.16 0h1.32m2.16 0h14.4m-60.96-74.64v9.72m0 2.16v1.44m0 2.16v1.32m0 2.16v13.8m0 2.16v1.32m0 2.16v1.44m0 2.16v13.8m0 2.04v1.44m0 2.16v1.44m0 2.04v9.72m-121.44-158.04v7.92m160.2-3.96v-.6m-16.56 0v.6m16.32-9.36v-.12m-16.08.12v-.12m16.32.48.12-.12m-16.8 0 .12.12m16.56 0 .12-.12m-16.8 0 .12.12m16.56 0 .12-.12m-16.8 0 .12.12m16.56 111.48v-.12m-16.68.12v-.12m16.92.96h.48m-.84-5.64h-.12m.12 1.92h-.12m.12-2.28v-.24m-16.32.24v-.24m0-73.44v-.12m0-2.88v-.12m0-.84v-.12m0-2.28v-.12m0-.84v-.12m0-2.4v-.12m0-.84v-.12m0-5.88v-.12m0-.84v-.12m0-2.28v-.12m0-.84v-.12m1.08 50.88v-.12m14.16.12v-.12m-14.16-34.32v-.12m14.16.12v-.12m1.32 37.8v-.12m-16.8.12v-.12m.24-.84v-.12m16.32 3.36h.12m.24 0h.12m-.48-.96h.12m.24 0h.12m-.48-6h.12m.24 0h.12m-.48 13.8h.12m.24 0h.12m-.48-.96h.12m.24 0h.12m-.48 7.92h.12m.24 0h.12m-.48-.96h.12m.24 0h.12m-.48 7.8h.12m.24 0h.12m-.48-.96h.12m.24 0h.12m-.12-85.2h.12m-.12-.96h.12m-.48 28.56h.12m.24 0h.12m-.48-.96h.12m.24 0h.12m-.48-6h.12m.24 0h.12m-.48-.96h.12m.24 0h.12m-.48-5.88h.12m.24 0h.12m-.48-.96h.12m.24 0h.12m-.48-5.88h.12m.24 0h.12m-.12-1.08h.12m-.48 28.56h.12m.24 0h.12m-.48-.96h.12m.24 0h.12m-.48 14.76h.12m.24 0h.12m-.48-.96h.12m.24 0h.12m-.48-2.4h.12m.24 0h.12m-.48-1.08h.12m.24 0h.12m-.48 49.32h.12m.24 0h.12m-.12-.96h.12m-.12 7.8h.12m-.36-.84h.12m.12-.12h.12m-.48-68.64v-.12m0 37.92v-.12m0 .24v-.12m0-8.28v-.12m0-.12v-.12m0 .24v-.12m0 8.76v-.12m-16.56 30.84v-.12m.12-5.88v-.12m.12-6.84h-.12m.12-.96h-.12m.12-5.88h-.12m.12-.96h-.12m.12-6h-.12m.12-.96h-.12m.12-26.52h-.12m.12-1.08h-.12m.12 4.44h-.12m.12-.96h-.12m.12 11.28h-.12m.12 6.96h-.12m.12-.96h-.12m.12-30.12h-.12m.12-.96h-.12m.12-26.52h-.12m.12 6.84h-.12m.12-.96h-.12m.12 7.8h-.12m.12-.96h-.12m.12 7.92h-.12m.12-.96h-.12m.12 41.64v-.12m0 0v-.12m0-2.76v-.12m0-.84v-.12m0-1.08v-.12m0-3.36v-.12m0-1.08v-.12m0-6.72v-.12m0-.96v-.12m0-2.28v-.12m0-.84v-.12m0-2.4v-.12m0-.84v-.12m0-2.4v-.12m0-.84v-.12m0-5.76v-.12m0-.84v-.12m0 35.16v-.12m0 21.24v-.12m0-.84v-.12m0-2.4v-.12m0-.84v-.12m18.36 20.88v-.12m-18.36-34.44v-.12m0 1.08v-.12m0 2.64v-.12m0 1.08v-.12m0 2.52v-.12m0 1.08v-.12m0 2.64v-.12m0 1.08v-.12m20.52 27.48h.12m1.44-9.24v-.12m0 2.4v-.12m-1.44-4.8.12.12m0 0v-.12m-20.64-90.24v8.4m0 1.56v12.24m0 1.56v12.24m0 1.56v6.84m0 6.96v2.28m16.44-60.72v-.12m0-.24v-.12m-.36 61.2v-2.28m0-6.96v-6.84m0-1.56v-12.24m0-1.56v-12.24m0-1.56v-8.4m-.12 112.56v-.12m-15.84.12v-.12m15.96-8.16v-.12m.12-.6h-.12m.12-2.52h-.12m.12-.48h-.12m-16.2 2.16v-1.2m.12 1.2v-.12m0 .6v-.12m-.12.36h.12m0 .84v-.12m-.12-.6h.12m-.12-2.52h.12m-.12-.48h.12m8.04 11.28v-.12m8.16-18.96v-.12m-16.44.12v-.12m16.56-7.56v-.48m-16.56 0v.48M12.548 62.588v-.6m0-.6.36-.48m109.44-40.68v2.4m-1.8.599v-.24m2.04 0-.12-.12m.24.12h1.44m-3.6.24h3.6m-110.4 239.88-.48-.12m.96-202.439.36.36m2.76 200.52h-.12m.36-1.92v1.56m.36 2.64v-4.2m-.72 1.92h-6.96m-.36-.12v-1.8h-.48v4.2m8.52-4.2h-.36m-8.16 4.2h.48m.24-1.92.12-.12m-.36.36v1.68m8.04 0h-.36v-1.68l-.12-.12-.12-.12-.12-.12h-6.96m78.72-1.2.36-.36m.96 2.88-.48.12m-15.72-227.04h12.72m2.16 0h1.44m2.04 0h1.44m2.16 0h12.72m.119 0v.84m-34.8 0h12.84m2.04 0h1.44m2.16 0h1.44m2.041 0h12.84m-34.8 0v-.84h-4.08m19.32 24.48.48-.12m1.2 1.56v.12m-1.2-1.68.48.12m-80.4-.6h-.48m8.16 0v1.56m-8.16-1.56v4.2m8.52 0v-4.2m-8.04 1.56v-1.56m8.04 0h-.36m-7.44 1.92-.24-.12m7.32.36.12.12m0-.36h-.12m-6.96 0h-.12m7.44-.36-.12.24m-7.56 0v-.24m7.44.72.12.12m0-.6-.12.12m-7.44.6v1.68m7.32-2.28h-6.96m7.2.48.12.12m-7.32-.36h6.96m.36.36v1.68m-8.16 0h.48m7.68 0h.36m26.64-44.52h-3.72v.24m3.72 3.36h-3.72v-.24m83.28 28.8h-3.6m1.92.36.12-.12m-.24.24v2.52m.12 0v-2.52m.24 2.88h1.44m-3.6.12h3.6v-.12m-110.88 204.96.48-.12m-.84 2.64-.36-.48m109.56-242.28.12.12m-51.96 4.68v-.84h3.6m.24.84h-3.84m38.64-.84h-12.84m-2.04 0h-1.44m-2.16 0h-1.44m-2.04 0h-12.84m34.799 0v.84m-34.8 0v-.84m34.68.84h-12.72m-2.16 0h-1.44m-2.04 0h-1.44m-2.159 0h-12.72m11.4 39.48v-4.2h.48m8.04 4.2v-4.2m-8.04 1.56v-1.56m7.32 2.16.12.12m.24.24v1.68m-7.44-1.92.12-.12m-.12-.24-.24-.12m.36.36h6.96m.12-.24h-.12m-6.96 0h-.12m7.32.48.12.12m-.12-.72-.12.12m-7.44-.12v-.24m7.32.36h-6.96m7.08.36.12.12m.12-.84-.12.24m-8.04 2.4h.48m7.68 0h.36m-51.24-9.36v-2.52m1.8-.48h-3.72m0 .12h1.44m.24.12.12.12m.48-.24h1.44m-3.72-.12v.12m1.92.24.24-.12m-.72 3.12h-1.44m2.28 0h-.12m-2.16.12v-.12m1.68 0h-.24m-1.44.12h3.72m-1.92-.48v.24m1.92.24v-.12m-1.8-.12v-.24m.36.36h1.44m-1.56 0-.24-.12m-.12 0-.12.12m2.04-3.36v.12m77.4-32.04h-1.44v-.24h3.6v.24h-1.44m-29.04 239.64h.36v4.2m-8.52-4.2v4.2m8.16-4.2v1.56m-7.44.36-.24-.12m7.32.12h-6.96m7.08.36-.12-.12h-6.96l-.12.12m-.24.239v-.12m7.68 1.8h.36m-7.8-2.28h.12m-.36-.36v.24M9.428 65.588v-9.96h11.64m-11.64 9.96h11.64m100.56-40.92v11.4h-12.72m-3.84 0v-11.4m16.56 0h-12.72zm0-.24h-12.72m12.72.12h-12.72m0-.72h12.72v.84m-63 6.6h-11.28m46.68 4.8v-11.4m3.72 0v11.4m3.72-11.4v11.4m-3.72 0v-11.4m-39.12-.24v3.36h-11.28m11.28-3.36h-11.28m74.4 27.36v.12m0 1.68v-.12m-16.68-3.24h-.12m-44.04 0h17.4m2.16 0h1.44m2.16 0h1.32m2.16 0h17.4m.72.96v-.12m-44.16-.84v.12m44.16.84v-.96m-44.16.12h17.4m2.16 0h1.44m2.04 0h1.44m2.16 0h17.52m-44.16.84v-.84m44.16.84h-17.52m-2.16 0h-1.44m-2.04 0h-1.44m-2.16 0h-17.4m60.12-.96v-11.28h-16.56v11.28zm-78.48 3.36h-.12m-.96-1.68v1.68m1.44-3.36v1.56m78.12-12.84v-.96h-16.68m-46.32 0v-3.36h-11.28m17.28 15.599v-11.28m3.72 11.28v-11.28m7.32-14.28v11.4m-3.72 0v-11.4m3.72 0v-.12m-1.56.12h-2.16m7.44 0v11.4m-3.72 0v-11.4m7.32 0v11.4m-3.6 0v-11.4m7.32 0v11.4m-3.72 0v-11.4m3.72 11.4v-11.4m3.72 0v11.4m3.6-11.4v11.4m-3.6 0v-11.4m14.64 11.4v-11.4m-3.6 11.4v-11.4m-29.52 14.28v11.28m-3.6 0v-11.28m3.6 11.28v-11.28m3.72 0v11.28m46.2-27.239v.24m-36.36 32.4v4.8m0 2.64v-.12m0 .6v.6m-64.44-8.52h16.2m2.04 0h1.44m2.16 0h1.44m2.04 0h13.8m2.16 0h1.44m2.04 0h1.44m2.16 0h16.08m-64.44 8.52v-.6m0-.12v-.36m0-1.08v-.6m0-2.88v-2.88m83.88-17.64h-17.4m-2.16 0h-1.44m-2.16 0h-1.32m-2.16 0h-17.52m44.16.84h-17.4m-2.16 0h-1.44m-2.04 0h-1.44m-2.16 0h-17.4v-.84m44.04.96h-17.4m-2.16 0h-1.32m-2.16 0h-1.44m-2.16 0h-17.4m-.12 12.24h-17.28 17.4zm-17.28-.72h17.4v.6h-17.4m17.28-13.08h-17.28v.96m18 0v-.12m24 220.68v.6m0 .36v1.08m0 1.08v.36m0 .12v4.8h-16.08m-2.16 0h-1.44m-2.04 0h-1.44m-2.16 0h-13.8m-2.04 0h-1.44m-2.16 0h-1.44m-2.04 0h-16.2m39.72-228.96h-17.28m0 11.28h17.28m3.84-11.28v11.28m20.88 8.28h-16.08m-2.16 0h-1.44m-2.04 0h-1.44m-2.16 0h-13.8m-2.04 0h-1.44m-2.16 0h-1.44m-2.04 0h-16.2v2.04m-11.64 197.52v9.84m11.64 0v-4.8m0-.12v-.36m0-2.64v-1.92m-11.64 9.84h11.64m0-9.84H9.428m112.68-204.481v-.12m-.48-1.68v-9.72m0-2.04v-1.44m0-2.16v-1.44m0-2.039v-9.72m-62.88 14.76v-16.8h.84v16.8m-13.2-16.92v16.92m.96-16.92v13.56m0 .12v3.24m-.96-16.92h.96m54.12 29.16v-11.28m3.6 11.28v-11.28m-7.32 0v11.28m-3.72 0v-11.28zm-3.6 0v-11.28zm-3.72 0v-11.28zm-3.72 0v-11.28zm-3.6 0v-11.28m-3.72 11.28v-11.28m3.72 0v11.28m576.48 240v4.32m-613.8-82.56v-11.28m0-77.88v-11.28m13.92 156.12v-.12m-2.52-228.84v-17.28m-.6 0v17.28m-11.4 0v-17.28m-.6 0v17.28m12.6-17.28V.188m-.6 0v21.24m-11.4 0V.188m-.6 0v21.24m17.64 88.8v-.12m-.12.12v-.12m-6.72 14.04v.12m.12 0v-.12m-10.2 80.4v-.12m0 .24v-.12m0 3.48v-.12m0 .36v-.12m0-7.2v-.12m0 .36v-.12m16.8-76.92v.12m.12 0v-.12m-16.92 87.48v-.12m0 .24v-.12m3.36-87.48v.12m.12 0v-.12m-3.48-12.36v-.12m0 .36v-.12m3.48-1.68v-.12m-.12.12v-.12m-3.36 8.76v-.12m0 .36v-.12m0-3.6v-.12m0 .24v-.12m6.72 8.76v.12m.12 0v-.12m6.6 0v.12m.12 0v-.12m-13.56-1.68v-.12m0 .24v-.12m10.2-12.24v-.12m-.12.12v-.12m3.48.12v-.12m-.12.12v-.12m-6.6.12v-.12m-.12.12v-.12m7.2 105.24v-.12m.48.36v-.24m-.36 0v.24m-7.68-107.28v-.12m-.36-.24v.36m.24 0v-.36m-.36 107.4v-.12m.36.36v-.24m-.24 0v.24m8.4-107.28v-.12m-.36-.24v.36m.36 0v-.36m-8.4 106.68v.72m8.28-106.44v-.6m-8.04.48v-.48m7.8 106.44v.6m-.96-1.92v-.12m.12.12v-.12m0 0v-.12m-.12.12h-.12m-5.64-13.92v-.12m-.24.12v-.12m.24.12v-.12m-.24.12v-.12m0 14.16v-.12m.24.12v-.12m0 0v-.12m-.24.12v-.12m0-88.92v-.12m.24.12v-.12m0 0v-.12m-.24.12v-.12m6 .24v-.12m.12.12v-.12m0 0v-.12m-.12.12h-.12m.24-13.92v-.12m-.12.12v-.12m.12.12v-.12m-.24.12h.12m-5.76 0v-.12m0 .12v-.12m5.88 89.28v-.12m0 .12v-.12m-.36-91.08v-.12m.12.12v-.12m-.12.24v-.12m-.24.12v-.12m-5.16 0v-.12m.24.24v-.12m-.12.12v-.12m-.12 0h-.12m5.52 0v-.12m-5.28.12h-.12m-6.96 105.24h19.32zm-.6-.12v-13.92m.119-.12h.48v.12h-.48v14.04h.48-.48m20.401-.12v-13.92h-.12m-.36-.12v.12m.48 0v13.92m-19.92-13.92v-.12h19.32v.12zm19.32-75.12h-19.32zm-19.92-.12v-13.92m.12-.12h.48m-.48 14.04v-13.92m20.4 0v13.92zm-.6-.12h-19.32v.12h19.32zm-19.92-1.32v.36m20.52 90.12v.12m0 14.04v-.12m0-103.2v.12m0 14.04v-.12m-.48 75.24h-.12m-19.32 0v-.12m19.92 13.56v-13.44m-.48-89.16h-.12m-19.32 0v-.12m19.92 13.56v-13.44m-19.92 14.04v-.12m19.32.12h.12m-19.44 89.16v-.12m19.32.12h.12m-21-15.12v16.08m0-89.16v-16.08m1.44 91.56v11.28h-.36m0-11.28h.36m.12 11.28h-.12m0-11.28h.12m-.48-89.16h.36v11.28h-.36m.48 0h-.12m0-11.28h.12m-.24 99.96h-.24m.24-99.36h-.24m.24 89.16v10.2m0-99.36v10.2m20.28-13.2v5.28m0 .12v5.28m0 .24v5.16h-.12m0-1.08v1.08m.24 0h-.12m.12-16.08h-.12m.84 16.08h-.72m.72-16.08h-.72m.84 0v5.28m0 .12v5.28m0 .24v5.16h-.12m-21.48 0h-.12v-5.16m0-.24v-5.28m0-.12v-5.28h.12m0 16.08v-.12m0-15.96v-.12m0 16.2v-1.08m0-13.92v-1.08m-.24 16.08h.12m-.12-16.08h.12m-.84 16.08v-5.16m0-.24v-5.28m0-.12v-5.28m0 16.08h.12m-.12-16.08h.12m0 16.08h.6m-.6-16.08h.6m20.76 89.16v1.08m0 13.92v1.08m.12-16.08h-.12m.12 16.08h-.12m.12-16.08v5.28m0 .12v5.28m0 .24v5.16h.12m.72 0h-.72m.72-16.08h-.72m.84 0v5.28m0 .12v5.28m0 .24v5.16h-.12m.12-16.08h-.12m-21.48 16.08v-.12m0-15.96v-.12m0 16.2v-1.08m0-13.92v-1.08m0 16.08h-.12v-5.16m0-.24v-5.28m0-.12v-5.28h.12m-.24 16.08h.12m-.12-16.08h.12m-.84 16.08v-5.16m0-.24v-5.28m0-.12v-5.28m0 16.08h.12m-.12-16.08h.12m0 16.08h.6m-.6-16.08h.6m20.76-74.04h-.12m-.36 0h-.12m-19.32 0v-.12m-.48.12h-.12m20.52 0v-.12m-20.52.12v-.12m20.52.24h-5.04m-.12 0h-4.56m-.12 0h-5.52m-.12 0h-5.04m20.52.84h-5.04m-.12 0h-4.56m-.12 0h-5.52m-.12 0h-5.04m20.52 88.32h-5.04m-.12 0h-4.56m-.12 0h-5.52m-.12 0h-5.04m20.52 0v-.12m-20.52.12v-.12m20.52 0h-.12m-.36 0h-.12m-19.32 0v-.12m-.48.12h-.12m20.52.96h-5.04m-.12 0h-4.56m-.12 0h-5.52m-.12 0h-5.04m0-15.24h5.04m.12 0h4.68m.12 0h5.4m.12 0h5.04m0 .12v-.12m-20.52.12h.12m.48 0v-.12m19.32.12h.12m.36 0h.12m-20.52 0v-.12m0-.84h5.04m.12 0h4.68m.12 0h5.4m.12 0h5.04m-20.52-88.32h5.04m.12 0h4.68m.12 0h5.4m.12 0h5.04m0 .12v-.12m-20.52.12h.12m.48 0v-.12m19.32.12h.12m.36 0h.12m-20.52 0v-.12m0-.84h5.04m.12 0h4.68m.12 0h5.4m.12 0h5.04m-11.04 107.52v-.12m2.52-1.08-.96 1.2h-1.56l-.84-1.2m-.84 0h4.92v-.12m-4.92 0v.12m4.92-107.4v-.12m-4.8.12h-.12m4.92.12v-.12m-4.92 0v.12m4.92 107.16h-4.92m0-107.04v-.12h4.92v.12m-4.8 106.08v.96m-.36-107.04-1.8.84m6.96-.84h-4.8m-.12 0h-.24m5.4 107.04 1.92-.96m-7.32.96h.24m.12 0h4.8m.12 0h.12m-7.2-.96 1.8.96m14.28-1.92v-14.16m.12 14.16v-14.16m0-75v-14.16m-.12 14.16v-14.16m-21.96 104.76h5.88m9 0h7.2v-1.2m-.001-105.001h-7.2m-9 0h-5.88m22.08.12v-.12m-1.44 104.76v-14.04m-.119 14.041v-14.04m-20.281 13.92v-1.32m0-11.28v-1.32m0 14.04h7.08m.24 0v-.12m-7.32-13.92h7.08m.24 0v-.12m5.64 14.16v-.12m.24.12h7.08m-7.32-14.04v-.12m.24.12h7.08m-12.96 14.04v-.12m0-13.92v-.12m5.64 14.16v-.12m0-13.92v-.12m-5.64 14.16h1.68m2.4 0h1.56m-5.64-14.04h1.68m2.4 0h1.56m7.44-75.24v-13.92m-.119 14.04v-14.04m-20.281 13.92v-1.32m0-11.28v-1.32m0 14.04h3.36m.12 0h3.24m.12 0h.24m.24 0v-.12m-7.32-13.92h3.36m.12 0h3.24m.12 0h.24m.24 0v-.12m5.64 14.16v-.12m.24.12h.24m.12 0h3.24m.12 0h3.36m-7.32-14.04v-.12m.24.12h.24m.12 0h3.24m.12 0h3.36m-7.32 14.04v-.12m0-13.92v-.12m-5.64 14.16v-.12m0-13.92v-.12m0 14.16h1.68m2.4 0h1.56m-5.64-14.04h1.68m2.4 0h1.56m1.081 157.68h-14.04m11.16-229.2h-11.16m6.72 85.44h.12m6.6 0h.12m-8.04 91.2h.48m6.6-107.28v.12m-4.8 0v-.12h4.8m-4.8 0v-.12h4.8v.12m-5.28.12v-.12m5.52.12v.12m-5.4-.12v.12m-7.44 90.96v-.12m-.12.24v-.12m20.52.12v-.12m-20.52-89.04v-.12m.12 0v-.12m20.4.24v-.12m-20.52 14.04v-.12m20.52.12v-.12m-20.4.24v-.12m-.12 89.16v-.12m.12.24v-.12m20.4 0v-.12m.12-104.04v5.28m0 .12v5.28m0 .24v5.16m.12-16.08v5.28m0 .12v5.28m0 .24v5.16m.72-16.08v5.28m0 .12v5.28m0 .24v5.16m-21.48 0v-5.16m0-.24v-5.28m0-.12v-5.28m-.24 16.08v-5.16m0-.24v-5.28m0-.12v-5.28m-.6 16.08v-5.16m0-.24v-5.28m0-.12v-5.28m21.48 89.16v5.28m0 .12v5.28m0 .24v5.16m.12-16.08v5.28m0 .12v5.28m0 .24v5.16m.72-16.08v5.28m0 .12v5.28m0 .24v5.16m-21.48 0v-5.16m0-.24v-5.28m0-.12v-5.28m-.24 16.08v-5.16m0-.24v-5.28m0-.12v-5.28m-.6 16.08v-5.16m0-.24v-5.28m0-.12v-5.28m21.36-74.04h-5.04m-.12 0h-4.56m-.12 0h-5.52m-.12 0h-5.04m20.52.24h-5.04m-.12 0h-4.56m-.12 0h-5.52m-.12 0h-5.04m20.52.72h-5.04m-.12 0h-4.56m-.12 0h-5.52m-.12 0h-5.04m20.52 88.32h-5.04m-.12 0h-4.56m-.12 0h-5.52m-.12 0h-5.04m20.52.12h-5.04m-.12 0h-4.56m-.12 0h-5.52m-.12 0h-5.04m20.52.72h-5.04m-.12 0h-4.56m-.12 0h-5.52m-.12 0h-5.04m0-15.12h5.04m.12 0h4.68m.12 0h5.4m.12 0h5.04m-20.52-.24h5.04m.12 0h4.68m.12 0h5.4m.12 0h5.04m-20.52-.6h5.04m.12 0h4.68m.12 0h5.4m.12 0h5.04m-20.52-88.32h5.04m.12 0h4.68m.12 0h5.4m.12 0h5.04m-20.52-.24h5.04m.12 0h4.68m.12 0h5.4m.12 0h5.04m-20.52-.6h5.04m.12 0h4.68m.12 0h5.4m.12 0h5.04m-11.04 107.4v-.12m1.56.12h.12m10.44-3.12h.36m-.36.12h.36m-21.96 1.2h5.76m9 0h7.2m0-15.6h-.36m.36-.24h-.36m0-74.64h.36m-.36.12h.36m0-14.4h-.36m.36-.24h-.36m.36-1.08h-7.2m-9 0h-5.76m14.52.24v-.12m-.12 0h.24m0 105.6v-.12m-8.76-105.36h.12m-5.4 1.2.12-.12m12.6.12.12-.12m7.08 5.64v-.12m-20.52-4.8.12-.12m-.12 12.84.12-.12m11.88.84v-.12m1.2 75.24v-.12m7.32 5.4v-.12m-20.52-4.8h.12m.36-.36v-.12m-.48 13.2h.12m11.64.96v-.12m3.72 1.08-.12-.12m402.24-3.48h.6m0-2.16h-.6m-15.24.24h-.24m0 1.68h.24m7.08-6v2.4m1.44 0v-2.4m3.6 1.32.6-.6m-.48-.48-.6.6m3.48 5.88h.12m0-3.12h-.12m-1.44 1.32h-.36m0 .6h.36m-12.84-1.92h-.24m0 3.12h.24m13.92 0h.12m0-3.12h-.12m3.72 1.32h-1.56m0 .6h1.56m-6.36-4.08v-.12m-.48-.48v-.12m7.56 2.04 1.32-.48m-1.08-3-1.32.48m-19.68 1.44h-.72m0 7.92h.72m22.68-7.44.6-.24m-.96-2.4-.6.24m-2.76 3.48 1.08-.36m-.72-2.04-1.08.48m-16.8 1.2h-1.44m0 6.24h1.44m24.24-8.4.84-.24m-.36-1.2-.96.24m-.36 1.2.72-.24m-.24-.6-.72.24m-7.2 3.36 1.32-.48m-.24-.6-1.2.36m2.52-.24.48-.12m-.24-.6-.48.12m2.04 0 .36-.12m-.24-.6-.24.12m5.04-1.2.24-.12m-.24-.6-.24.12m-27.48 6.48h-.36m0 .12h.36m.48-.12h-.48m0 .12h.48m18.36 1.92h.36m0-4.08h-.36m11.16.24h-.24m0 3.6h.24m-9.84-.24h8.04m0-3.12h-8.04m8.04 2.52h1.56m0-1.92h-1.56m-9 1.92h.96m0-1.92h-.96m30.48 1.44v-.12m0-.12v-.12m-4.32.36v-.12m0-.12v-.12m-13.08.84h.72m0-1.92h-.72m-2.28-.36v-.12m0 2.76v-.12m3.36.6v-.12m0-3.36v-.12m9.96-.36h-.24m0 4.44h.24m-9.48-.84h8.04m0-2.88h-8.04m-.24 3.72h.24m0-4.44h-.24m-.24 3.84h.24m0-3.36h-.24m10.2 3.12h2.28m0-2.88h-2.28m0 3.72h.12m0-4.44h-.12m6.12 2.4v-.12m-4.32.12v-.12m-14.52.84h.12m.6 0h.72m0-1.92h-.72m-.6 0h-.12m-.72 2.76h.24m0-3.6h-.24m0 .48h-.12m0 2.64.12.12m.36-.36.24-.12m0-1.92-.24-.12m.24 2.04h.12m0-1.92h-.12m2.28 0h-1.2m0 1.92h1.2m0 1.32h.36m0-4.44h-.36m16.68 2.16v-.36l-.12-.48-.12-.36-.36-.36-.24-.24-.36-.24-.48-.12h-.84l-.36.12-.36.12-.36.24-.36.36-.12.36-.24.36v1.2l.24.48.12.36.36.24.36.24.36.24h.36l.48.12.36-.12.48-.12.36-.24.24-.24.36-.36.12-.36.12-.36zm-36.361 1.08.12-.6v-1.08l-.12-.48-.24-.48-.36-.48-.48-.36-.48-.24-.48-.24m2.04 3.96.12-.6v-1.08l-.24-.48-.24-.48-.36-.48-.36-.36-.48-.24-.48-.12m-1.439-.12-.48.24-.48.24-.48.36-.24.48-.36.48-.12.48v1.08l.12.6m2.04-3.84h.12l-.6.12-.48.24-.36.36-.36.48-.24.48-.24.48v1.08l.12.6m4.08-.36.12-.36v-.72l-.12-.36-.24-.24-.12-.12-.24-.24h-.24l-.36-.12h-.24l-.24.12h-.36l-.24.24-.12.12-.12.24-.12.36-.12.24v.24l.12.24v.36m.6-4.32-.72.24-.6.24-.48.48-.48.6-.36.6-.24.6-.12.72.12.72.12.72m6.96 0 .12-.72.12-.72-.12-.72-.24-.6-.36-.6-.36-.6-.6-.48-.6-.24-.72-.24m6.6 5.16h-.36l-.12-.12h-.12l-.12-.12h-.12l-.12-.12-.12-.12v-.12l-.12-.12-.12-.12v-.36h-.12v-.6l.12-.12v-.36l.12-.12.12-.12v-.12h.12v-.12h.12l.12-.12h.12v-.12h.24l.12-.12h.24m1.32 2.52h-.12v.12l-.12.12h-.12v.12h-.12v.12h-.24l-.12.12h-.72l-.12-.12h-.12l-.12-.12h-.12l-.12-.12-.12-.12v-.12l-.12-.12-.12-.12v-.24l-.12-.12v-.72l.12-.12v-.24l.12-.12.12-.12v-.12h.12v-.12h.12l.12-.12h.12v-.12h.24l.12-.12h.6v.12h.24l.12.12h.12v.12h.12l.12.12v.12l.12.12m-.241-.24-.36-1.56-.6-1.32-.84-1.32-.96-1.08-1.32-.96-1.32-.6-1.44-.48-1.56-.12m7.201 13.08.6-1.08.36-1.08.24-1.2m-16.8-.48.12 1.32.48 1.32.6 1.2m7.2-13.08-1.56.24-1.56.36-1.32.72-1.32.96-1.08 1.2-.84 1.32-.48 1.44-.24 1.56m21.12-2.16v-.24h-.12v-.36h-.12v-.24h-.12v-.36l-.12-.12v-.12l-.12-.12v-.24l-.12-.12v-.24l-.12-.12v-.24h-.12v-.36h-.12v-.12m-.24 3.48v-.12l-.12-.12v-.24h-.12v-.36h-.12v-.24l-.12-.12v-.24l-.12-.12v-.24l-.12-.12v-.24h-.12v-.36h-.12v-.24l-.12-.12v-.12m-20.4 1.44v7.92m.72-7.92v7.92m18-6v1.08m0 1.92v1.08m10.56-3.84v3.6m.24-3.6v3.6m-9.84-3.36v1.32m0 .6v1.2m8.04-3.12v3.12m-10.68-6.48.24-.12.36-.12.24-.12.24-.24.24-.36.12-.24.12-.36v-.36l-.12-.24-.12-.36-.12-.24-.24-.24-.24-.24-.36-.12-.24-.12-.36-.12m-11.641 1.68-.12-.36-.12-.36-.12-.24-.24-.24-.36-.24-.24-.12h-.96l-.36.12-.24.12-.36.24-.12.24-.24.36v.24l-.12.36m11.041 1.56v-2.16h-5.04v2.16zm34.08 10.8v-3.48m.72 3.48v-3.48m1.8-1.92h.12m-4.56 0h.12m0-.48h-.12m-12.96-.84h-.72m-.6 0h-.48m1.8 2.16v-.12m0-1.92v-.12m-1.8 2.16h.48m.6 0h.72m1.08.72v-3.48m9.72 3.36h.12m0-3.36h-.12m-9.48-.48v4.44m.24-4.44v4.44m9.72-.84v-.12m0-2.76v-.12m.36.12h-.6v.12h-.12v.12h-.12v.12h-.12v.12l-.12.12v.24h-.12v1.2l.12.12v.12l.12.12v.12l.12.12h.12v.12h.12v.12h.36m1.199-2.88v-.12h-.12v-.12h-.12v-.12h-.12v-.12h-.12v-.12h-.12l-.12-.12h-.84l-.12.12h-.12l-.12.12-.12.12-.12.12-.12.12-.12.12v.12l-.12.12v.24h-.12v.6h-.12v.72l.12.12v.48l.12.12v.12l.12.12v.12l.12.12.12.12v.12h.12v.12h.12v.12h.24v.12h.36l.12.12m-.119-4.44h-.48v.12h-.24v.12h-.12v.12h-.12v.12h-.12v.12h-.12v.24h-.12v.24l-.12.12v.24l-.12.12v1.2l.12.12v.36h.12v.24l.12.12v.12h.12v.12l.12.12.12.12.12.12h.12l.12.12h.36v.12h.12m.24-3.72h-.12m0 2.88h.12m-.72-3.12v-.12m0 3.48v-.12m6.6-1.32v-.12m-4.32.12v-.12m-15-1.92v3.6m-.24-3.6v3.6m3.24-3.96v4.44m-.36-4.44v4.44m-14.88-3.84-.36-1.32-.6-1.2-.84-.96-.96-.96-1.08-.72-1.2-.6m-5.04 0-1.2.6-1.08.72-.96.96-.84 1.08-.6 1.2-.36 1.32m-3 1.56v-.12m47.28 5.64v-3.48m.48 3.48v-3.48m-16.8-3.36h.24m.12 0h.24m-.6 2.52h.24m.12 0h.24m115.92-67.08h.12m0-.12h-.12m.96 21.96v-.12m-.24-.12v-.12m0-26.76v.12m.24-.24v-.12m-.96 2.04h.12m0-.12h-.12m-3.72 58.8v-.12m3.72-38.04h.12m9.6 0h.12m0-1.92h-.24m-9.48 0h-.12m13.2-19.68v-.12m0 .24v-.12m-16.56.36v-.12m0-.6v-.12m5.52-.6v-.12m-.72.12v-.12m-2.52.6v-.12m.24-.6h-.12m11.88.72v-.12m-.12-.6h-.12m-3 .24v-.12m.72.12v-.12m4.8 1.56v-.12m0-.6v-.12m-16.56.48v-.12m0 .24v-.12m12.96 27.84h.24m-9.84 0h.12m9.48 25.08h.24m0-1.2h-.24m-9.6 1.2h.12m0-1.2h-.12m9.6-12.6h.24m0-1.2h-.24m-9.6 1.2h.12m0-1.2h-.12m9.6-34.2h.24m0-1.32h-.24m-9.6 1.32h.12m0-1.32h-.12m9.6 15.12h.24m0-1.32h-.24m-9.6 1.32h.12m0-1.32h-.12m9.72 12.48h.12m0-.12h-.12m-.84-1.8v-.12m.24.24v-.12m0 27v-.12m-.24.36v-.12m.84-21.72h.12m0-.12h-.12m0 3.48h.12m0-.12h-.12m0 3.6h.12m0-.12h-.12m0 3.6h.12m0-.12h-.12m0 3.6h.12m0-.12h-.12m0 3.48h.12m0-.12h-.12m0 3.6h.12m0-.12h-.12m-9.72.12h.12m0-.12h-.12m0-3.36h.12m0-.12h-.12m0-3.24h.12m0-.12h-.12m0-3.36h.12m0-.12h-.12m13.2-1.08h.12m0-.12h-.12m-13.2-2.16h.12m0-.12h-.12m0-3.36h.12m0-.12h-.12m0-3.24h.12m0-.12h-.12m.96 21.96v-.12m-.24-.12v-.12m0-26.76v-.12m.24-.12v.12m12.24 15.6h.12m0-.24h-.12m-13.2-13.44h.12m0-.12h-.12m13.2 12.48h.12m0-.24h-.12m0 1.2h.12m0-.12h-.12m0 13.32v-.12m0 .24v-.12m-16.56.36v-.12m0-.6v-.12m5.52-.6v-.12m-.72.12v-.12m11.88-10.08h-.12m0 .12h.12m-14.4 10.56v-.12m.24-.6h-.12m11.88.72v-.12m-.12-.6h-.12m-3 .24v-.12m.72.12v-.12m4.8 1.56v-.12m0-.6v-.12m-16.56.48v-.12m0 .24v-.12m16.56.6v-.12m0-.24v-.12m0 .72v-.12m-16.56-.12v-.12m0-.24v-.12m0 .72v-.12m16.68-13.08h-.12m0 .24h.12m0 .48h-.12m0 .24h.12m-.12-16.2v-.12m0 .24v-.12m-16.56.36v-.12m0-.6v-.12m5.52-.6v-.12m-.72.12v-.12m-2.52.6v-.12m.24-.6h-.12m11.88.72v-.12m-.12-.6h-.12m-3 .24v-.12m.72.12v-.12m4.8 1.56v-.12m0-.6v-.12m-16.56.48v-.12m0 .24v-.12m16.68 15h-.12m0 .12h.12m-16.8-1.44h.12m0-.12h-.12m0 1.2h.12m0-.24h-.12m0-1.08h.12m0-.24h-.12m0 1.2h.12m0-.12h-.12m.12 2.04h-.12m0 .12h.12m0-1.2h-.12m0 .24h.12m0 .48h-.12m0 .24h.12m0-1.2h-.12m0 .12h.12m16.92 17.04v-.12m-.36-55.2h.12m-.12 1.08h.12m-16.8-1.08h.12m-.12 1.08h.12m0 51.24v-.12m0-.24v-.12m0 .72v-.12m16.56-.12v-.12m0-.24v-.12m.12.48h.12m0-.24h-.12m-.12.48v-.12m.12 0h.12m0-.12h-.12m-.12-51.48h.12m-.12-.96h.12m0 .36h-.12m0 .36h.12m0-1.32h-.12m0 .36h.12m-16.8 1.2h.12m-.12-.96h.12m0 .36h-.12m0 .36h.12m0-1.32h-.12m0 .36h.12m16.68.48h-.12m.12.72v-.12m-16.68-.6h-.12m0 .72v-.12m-.24-.48h-.12m0 .48h.12m.36-1.56v-.12m13.08-2.4h.12m0-.12h-.12m-13.08-1.44v-.12m12.24-.24v-.12m4.32.48v-.12m-17.52-11.52v-.12m0-.12v-.12m0 4.44v-.12m0-.12v-.12m13.44 7.8v-.12m4.92-11.4h.12m0-.24h-.12m0 4.32h.12m0-.24h-.12m-4.92 34.44v-.12m4.92-42h-18.24m13.08 42.36v-.12m-13.08-39.24h-.12m0 6.36h.12m13.92 11.16h.12m0-.12h-.12m4.32-17.4v-.12m0 6.48v-.12m-4.32 18.12h.12m0-.12h-.12m0 3.6h.12m0-.12h-.12m0 3.6h.12m0-.12h-.12m0 3.48h.12m0-.12h-.12m0 3.6h.12m0-.12h-.12m-9.72.12h.12m0-.12h-.12m0-3.36h.12m0-.12h-.12m0-3.24h.12m0-.12h-.12m0-3.36h.12m0-.12h-.12m0-3.36h.12m0-.12h-.12m13.2 47.4-.48-.24-.72-.36-.96-.24-1.2-.24m-13.441 1.92h-.12v-.72l.36-.24.6-.36.6-.24.72-.12 1.2-.24 1.44-.24 1.08-.12h4.32l1.8.12 1.56.24 1.44.24.96.24m-12.359-32.28v-26.16m-3.36 27.36v-27.24m3.36 26.04v-26.16zm-.6-26.76h.6v26.76m-.6-26.76v27.36m.6-.6v.6m0-26.76v-.12m-3.36.24v27.24zm2.76 26.64v-27.36m-2.76.72 2.16-.48m.48-.12.12-.12m0 27.36h-.12m-.48.12-2.16.48m2.76-.6h-.12m-.48.12-2.16.48m16.56 0v-27.24m-3.36 26.16v-26.28m0 26.16v-26.16m0 26.76v-27.36h.6v27.36m2.76-26.64v27.24m0-27.24v27.24m-2.76-27.96v27.36m-10.44-5.16h.12m9.48 0h.24m-9.84-.12h.12m9.48 0h.24m-9.84.24h.12m9.48 0h.24m0 .24h-.12m-9.6 0h-.12m10.44 4.8h.12m.48.12 2.16.48m-2.76-.6h.12m.48.12 2.16.48m0-27.24-2.16-.48m-.48-.12-.12-.12m-.6.48h-.36m-9.12 0h-.36m9.84 0h-.24m-9.36 0h-.24m10.32-.48v-.24m-10.32 1.8h.12m9.48 0h.24m-9.84 0h.12m9.48 0h.24m-.001 39.72h-.24m0 10.08h.24m0 .12h-.24m0-10.32h.24m-9.839 10.32h.12m0-.12h-.12m0-10.08h.12m0-.12h-.12m9.84-25.08h-.24m.24-10.2h-.24m0-.12h.24m-9.84 10.32h.12m0-10.32h-.12m-3.48-4.08v-.12m3.48 27.84h.12m9.48 0h.24m3.24-29.04v.24m-2.64-.84v.24m-13.68.36v.24m-.12-.24v.36m2.76-.96v.24m.6 40.8h.12m9.48 0h.24m-9.84-21.72h.12m9.48 0h.24m-9.6 35.28h-.12v-26.16m9.48 26.16v-26.16m-9.36 0v26.16m0 .12v-.12m-.12-26.16v26.16m9.48-26.16v26.16zm-1.2-.6v-.12m-.72.12h-5.52m-.72 0v-.12m8.16.72v-.12m0 26.28v-.12m-1.08.6v-.12m-6.36.24h5.52m-6.36-.12v-.12m.84.24h5.52m-6.48-.48v-.12m-.96-26.16v-.12m9.36.12v-.12m.12 1.56h-.12m-.24 24.84v-.12m-9.36-49.08h.12m9.48 0h.24m-.24 49.2v-.12m-.36.12v-.12m.12.12v-.12m-9.36 0v-26.16m-3.36 27.36v-27.24m16.56 13.68v-.12m-13.2 12.48v-26.16zm-.6-26.76h.6v27.36h-.6zm.6 27.36v-.12m0-26.64v-.12m-3.36 27.48v-27.24m0 27.24v-27.24m2.76 26.64v-27.36m-.001 27.36h-.12m-.48.12-2.16.48m2.76-.6h-.12m-.48.12-2.16.48m0-27.24 2.16-.6m.48 0 .12-.12m13.801 27.96v.6zv-27.24m-3.36-.12v26.16m0-26.16v26.16m0 0v-26.76h.6v27.36m-.6-.6v.6m0-26.76v-.12m3.36 27.48v-27.24zm-2.76-27.96v27.36m0 0h.12m.48.12 2.16.48m0-27.24-2.16-.6m-.48 0-.12-.12m0 27.36h.12m.48.12 2.16.48m-13.68.12h10.8m-10.8 0v-.12m.48-1.08h1.2m7.44 0h1.2m.48 1.2v-.72m-8.52.48v-.12m11.4-10.44v-.12m-16.68 12.12v-.12m16.68-12.72v-.12m-2.76 11.76v-.12m-10.44-28.56h1.2m7.44 0h1.2m.48.6v-.24m-.48.72h-.36m-9.12 0h-.36m-.48-.72v.24m10.32.48h-.24m-9.36 0h-.24m13.2 16.68v-.12m0-16.68v.24m-.12-.24v.24m-2.64-.84v.24m-13.68.36v.24m-.12-.24v.24m2.76-.84v.24m-2.76 14.4v-.12m-.12 1.2v.24m3.48-17.64h.12m9.48 0h.24m-9.84 1.08h.12m9.48 0h.24m-13.2 15v-.12m16.56 14.64v3.12m-.12 0v-3.12h.12m-2.76 2.28v-2.88l2.64.6v3.12m-2.76-3.72v2.88m0-2.88h-10.8v2.88m10.8 0v-2.88m-10.8 0v2.88m-.12-2.88v2.88m0-2.88-2.64.6v3.12-3.12m-.12 3.12v-3.12h.12m16.68 4.44v-.12m-13.44-58.92h.12m9.48 0h.24m-9.84.96h.12m9.48 0h.24m-14.04 4.2v-.48m0-.96v-.48m17.52 1.68h-.12m.72-.24v-.96m-13.8 21.36v-26.16m9.48 26.16v-26.16m-9.36 26.16v-26.16m-.12 0v26.16m-3.48-26.4v-3m0 0v3m2.76-.6v-3m-2.76 3.6 2.16-.48m.48 0 .12-.12m-2.76.6 2.16-.48m.48-.12h.12m0-3-2.76.6m2.76-.6v3m11.04 0v-3m-11.04 3h2.04m.72 0h5.52m.72 0h2.04m-11.04-3h11.04m-11.04 3h2.04m.72 0h5.52m2.76-3v-.12m-11.04.12v-.12m11.04.12v3m2.76.6-2.16-.48m-.48 0-.12-.12m2.76.6-2.16-.48m-.48-.12h-.12m2.76.6v-.12m-2.76-3.48 2.76.6v3-3m0 3v-3m-3.6 29.4v-26.16zm-7.44.6h5.52zm6.24-27.36v-.12m-.72.12h-5.52m-.72 0v-.12m8.16.72v-.12m0 26.28v-.12m-9.36.12v-.12m8.28.6v-.12m-7.2.12v-.12m7.32-.12v-.12m-8.28.12h.84m8.28 0v-.12m.12-.12v-.12m-.96.36h.84m-9.24-26.4v-.12m9.36.12v-.12m-13.8-15.48h18.24m0 1.56h-18.24v-1.56h18.24zm-14.52 10.2h10.8m3.72-10.08h-18.24v-.12h18.24zm-3.72 9.96h-10.8m10.8.12v-.12h3.6-3.6m3.72 0v-9.96m-3.72 9.96v-.12m-10.8.12h-3.72m0 0v-9.96h18.24m-14.52 9.96h-3.72m3.72 0v-.12m-3.72.12v-.12m1.8-7.32v-.12m14.64.12v-.12m-2.401 12.48h-.24m-9.48 0h-.12m9.84 0h-.24m-9.48 0h-.12m-4.199-13.44h-.12v5.16m0 .24v-.12m-.6.12v-.12m14.64 12h-.12m-13.92-11.88v-.6m0-.24v-3.84m0 4.68h-.6v-5.4m0 5.4v-.12m0-5.28v-.12m0 .12v-.12m0 5.64v-.12m0 0v-5.4m18.96 0v5.16m0-5.28v.12m-4.32 20.76h-.12m4.56-15.36v-.12m.6.12v-.12m-.6-5.28v.48m0 .24v3.84m0-4.56v-.12m0 5.52v-.12m.6-5.28v5.4h-.6m.6 0v-.12m0-5.28v-.12m-.001.12v-.12m0 6.12v-.12m0-.36v-.12m0-5.4v5.4m-.719 3.24h-3.72v-.12h3.72zm-3.72 0v-.12m3.72 1.56v-1.44m-4.32 22.56h-.12m4.44-21.12v-1.44m0-.12v-.12m0-9.84v-.12m0 10.08v-9.96m-18.24 10.08h3.72m0-.12h-3.72v.12m3.72 0v-.12m-3.72.12v1.44m0-1.56v-9.96m6 13.559v-.12m6.24.12v-.12m1.56 28.68h.24m-9.84 0h.12m9.48 25.08h.24m-9.84 0h.12m9.48-13.8h.24m-9.84 0h.12m9.48-35.4h.24m-9.84 0h.12m9.48 13.8h.24m-9.84 0h.12m-3.48 38.16v-.12m0 .24v-.12m5.16-28.8v-.12m6.24.12v-.12m-8.04-26.04h.12m9.48 0h.24m-9.84.12h.12m9.48 0h.24m-9.84.72h.12m9.48 0h.24m-9.84 0h.12m9.48 0h.24m-9.84-.48h.12m9.6 0h.12m-13.32 4.56v-.12m0-.24v-.12m0-.6v-.12m0-.12v-.12m16.8 1.44v-.12m0-.24v-.12m0-.6v-.12m0-.12v-.12m0 1.08h-.12m.12-.96h-.12m.12.72h-.12m.12-.96h-.12m-16.92.84h-.12m.48.12v-.12m0 .24v-.12m0-1.44v-.12m0-3.96v-.12m16.56.12v-.12m0 .24v-.12m-17.04 5.401v.12m.12-.12h.12m-.24-.12v-.12m-539.28 44.52h-1.44m0 2.52h1.44m-3.24-3h-4.2m0 3.6h4.2m2.28 6.6h.96m.12 0h12.36m.24 0h.96v-10.2h-.96m-13.68 3v7.2m14.04-5.04h.12m0 0h-.12m.24-4.2h.36m0 8.28h-.12m-14.4 0h-.12m14.28-9h-.6m-12.72 0h-.72m14.04 8.88v-8.88m-14.04 0v.24m0 2.52v6.12m.72-9.36h12.72m0 5.88v4.44h-12.72v-4.44m0-5.88v-3.96zm12.72 0h-.12v-3.96m.12 3.96v-3.96h-.12m-12.6 3.96h12.6m-12.6-3.96h12.6m.12 3.96h-.12v3m.12-3v3m-12.72-3v3zm-3.24-2.04h1.8v8.16m-1.8 0v-8.16m0 8.52v-.36m-4.8-2.88v-2.4m21.36 8.4h.36m0-7.8h-.36m-14.28 7.8h.24m-6.72-9v3.6m20.16-56.76h1.32m0-2.52h-1.32m3.24 3h4.08m0-3.48h-4.08m-2.28-6.72h-.96m-.24 0h-12.36m-.12 0h-.96v10.2h.96m13.68-3v-7.2m-14.04 5.16h-.24m0 0h.24m-.36 4.08h-.24m0-8.28h.12m14.4 0h.12m-14.4 9h.72m12.72 0h.6m-14.04-8.88v8.88m14.04 0v-.24m0-2.52v-6.12m-.72 9.48h-12.6m0-6v-4.44h12.72v4.44m0 6v3.96m-.12-3.96v3.96h.12m-12.72-3.96v3.96zm0 3.96v-.12m12.6-3.84h-12.6m12.6 3.96h-12.6m0-3.96v-3.12zm12.72 0h-.12v-3.12m.12 3.12v-3.12m0-.96v-1.92m3.24-.12h-1.92m1.92 8.04h-1.92v-8.04m1.92 0v8.04m0-8.52v.48m4.68 2.88v2.4m-21.36-8.52h-.24m0 7.8h.24m14.4-7.8h-.36m6.72 9v-3.48m29.88-67.8v8.28m0 2.16v1.44m0 2.04v1.44m0 2.16v13.8m0 2.16v1.32m0 2.16v1.44m0 2.16v13.8m0 2.04v1.44m0 2.16v1.44m0 2.04v13.8m0 2.16v1.44m0 2.04v1.44m0 2.16v13.8m0 2.16v1.32m0 2.16v1.44m0 2.16v13.8m0 2.04v1.44m0 2.16v1.32m0 2.16v13.8m0 2.16v1.44m0 2.04v1.44m0 2.16v13.8m0 2.16v1.32m0 2.16v1.44m0 2.16v8.28m631.2-168.12v12.48m0 2.16v1.44m0 2.04.12 1.44m0 2.16v13.8m0 2.04v1.44m0 2.16v1.44m0 2.04v13.8m0 2.16v1.44m0 2.16v1.32m0 2.16v13.8m0 2.16v1.44m0 2.04v1.44m0 2.16v13.8m0 2.04v1.44m0 2.16v1.44m0 2.04.12 13.8m0 2.16v1.44m0 2.16v1.32m0 2.16v13.8m0 2.16v1.32m0 2.16v1.44m0 2.16v12.36m-330.36-113.52v-4.8m1.32 2.4h-2.76m4.92 3.6-.72-1.2v-4.8l.72-1.08h.72l.72 1.08v4.8l-.72 1.2zm5.04 0-.72-1.2v-4.8l.72-1.08h.72l.72 1.08v4.8l-.72 1.2zm3.6 0-.72-1.2v-4.8l.72-1.08h.72l.72 1.08v4.8l-.72 1.2zm3.479 0-.72-1.2v-4.8l.72-1.08h.72l.72 1.08v4.8l-.72 1.2zm-349.319 10.92v-4.68m1.44 2.28h-2.88m4.32-2.28.72-1.2v7.08m-.72 0h1.44m1.44 0v-1.2m2.16 1.2-.72-1.2v-4.68l.72-1.2h.72l.72 1.2v4.68l-.72 1.2zm3.48 0-.6-1.2v-4.68l.6-1.2h.72l.72 1.2v4.68l-.72 1.2zm3.6 0-.72-1.2v-4.68l.72-1.2h.72l.72 1.2v4.68l-.72 1.2zm2.16 35.64h.84v-2.88h-.84zm26.88 71.16H.188m82.2-76.92-1.2-.48-.96 4.92zm159.48-134.88-1.2.6 3.24 3.96zm5.88-.36-1.2.48 2.52 4.32zm6.24.12-1.32.24 1.8 4.68zm6-.36-1.32.12.84 4.92zm6 .36-1.32-.24v5.04zm5.16.24-1.2-.24-.24 4.92zm5.28.24-1.2-.36-1.08 4.8zm123.12-.36-1.2-.12v4.92zm6.12 0-1.32-.36-.72 4.92zm5.64.36-1.2-.6-1.56 4.8zm5.28.6-1.08-.72-2.16 4.44zm187.92 261.36 1.2-.12-1.2-4.92zm-1.32-81.48 1.2-.24-1.44-4.8zm-20.4-.48 1.32.12-.24-4.92zm18.12-82.08 1.2-.48-2.4-4.32zm-16.2.36 1.32.24.6-4.92zm4.44-14.04h1.32l-.84-5.04zm-141.24 74.16 1.32.12-.24-4.92zm-396.72-79.92-1.32.12.84 4.92zm-5.88 57-1.2-.36-.48 5.04z" style="fill:none;stroke:#000;stroke-width:1;stroke-linecap:round;stroke-linejoin:round;stroke-miterlimit:10;stroke-dasharray:none;stroke-opacity:1"/></svg>