<svg xmlns="http://www.w3.org/2000/svg" width="1588" height="1122.667" viewBox="487 538 1087 423"><g style="fill:none;stroke:#000;stroke-width:5;stroke-linecap:round;stroke-linejoin:round;stroke-miterlimit:10;stroke-dasharray:none;stroke-opacity:1" transform="matrix(.16 0 0 -.16 0 1122.667)"><path id="p0" d="M4114 1128h206v-38h95v47h4v96h-305z"/><path id="p1" d="M6958 3225v-161"/><path id="p2" d="M6958 2991v-107"/><path id="p3" d="M6958 2811v-412"/><path id="p4" d="M6958 2252v-412"/><path id="p5" d="M6958 1767v-354"/><path id="p6" d="M6966 1437v279"/><path id="p7" d="M6966 1868v145"/><path id="p8" d="M6966 2036v216"/><path id="p9" d="M6966 2399v216"/><path id="p10" d="M6966 2638v145"/><path id="p11" d="M6966 3080v133"/><path id="p12" d="M8386 2762v-124h15v-16h206v163h-206v-23z"/><path id="p13" d="M9432 1889v-386h124v213h-15v23h15v150z"/><path id="p14" d="M8870 1295v-205h205v205z"/><path id="p15" d="M9083 1295v-178h19v-27h104v205z"/><path id="p16" d="M9214 1295v-205h93v27h27v-27h91v205z"/><path id="p17" d="M9432 1495v-405h107v27h17v298h-15v22h15v58z"/><path id="p18" d="M9563 1215v-98h2v-27h205v27h27v171h-153v-73z"/><path id="p19" d="M9563 1430v-135h234v120h-25v15z"/><path id="p20" d="M9563 1889v-452h234v279h-25v23h25v150z"/><path id="p21" d="M9781 1288h-209v-66h65v66z"/><path id="p22" d="M5113 2960h-77"/><path id="p23" d="M5036 2952h77"/><path id="p24" d="M5457 1841h-301"/><path id="p25" d="M5026 1841h-171"/><path id="p26" d="M4862 1834h140"/><path id="p27" d="M5156 1834h301"/><path id="p28" d="M4542 1324v156"/><path id="p29" d="M4534 1480v-134"/><path id="p30" d="M3149 3407h177"/><path id="p31" d="M3334 3407h174"/><path id="p32" d="M3515 3407h166"/><path id="p33" d="M3863 3407h155"/><path id="p34" d="M4018 3414h-155"/><path id="p35" d="M3681 3414h-166"/><path id="p36" d="M3508 3414h-174"/><path id="p37" d="M3326 3414h-177"/><path id="p38" d="M4205 2910h114"/><path id="p39" d="M4326 2918h-121"/><path id="p40" d="M3524 2198v-137"/><path id="p41" d="M3531 2061v137"/><path id="p42" d="M9797 2013h-234"/><path id="p43" d="M9541 2013h-209"/><path id="p44" d="M9208 2013h-108"/><path id="p45" d="M9077 2013h-208"/><path id="p46" d="M8846 2013h-108"/><path id="p47" d="M8614 2013h-213"/><path id="p48" d="M8386 2006h274"/><path id="p49" d="M8738 2006h470"/><path id="p50" d="M9286 2006h511v7"/><path id="p51" d="M8386 1117v178"/><path id="p52" d="M8379 1314v-197h7"/><path id="p53" d="M8386 2135v99"/><path id="p54" d="M8386 2410v127"/><path id="p55" d="M8386 2638v124"/><path id="p56" d="M8379 2762v-124"/><path id="p57" d="M8379 2557v-147"/><path id="p58" d="M8379 2262v-157"/><path id="p59" d="M8386 3392v142"/><path id="p60" d="M8379 3534v-165"/><path id="p61" d="M7966 1407h92"/><path id="p62" d="M8111 1739h-198"/><path id="p63" d="M7877 1739h-201"/><path id="p64" d="M7653 1739h-209"/><path id="p65" d="M7422 1739h-209"/><path id="p66" d="M7190 1739h-110"/><path id="p67" d="M7073 1739h-92"/><path id="p68" d="M6981 1731h209"/><path id="p69" d="M7213 1731h209"/><path id="p70" d="M7444 1731h209"/><path id="p71" d="M7676 1731h201"/><path id="p72" d="M7913 1731h198"/><path id="p73" d="M6974 1228h-81"/><path id="p74" d="M6815 1228h-92"/><path id="p75" d="M6730 1221h85"/><path id="p76" d="M6893 1221h81v7"/><path id="p77" d="M7468 1236h-98v-8h98"/><path id="p78" d="M7568 1411h79"/><path id="p79" d="M7682 1411h75"/><path id="p80" d="M7764 1418h-82"/><path id="p81" d="M7647 1418h-79"/><path id="p82" d="M7883 1312h103"/><path id="p83" d="M8029 1312h87"/><path id="p84" d="M8116 1320h-87"/><path id="p85" d="M7986 1320h-101"/><path id="p86" d="M8058 2043h-96"/><path id="p87" d="M7907 1945h209"/><path id="p88" d="M8116 1953h-100"/><path id="p89" d="M8008 1953h-101"/><path id="p90" d="M8116 2516h-87"/><path id="p91" d="M7987 2516h-102"/><path id="p92" d="M7885 2509h102"/><path id="p93" d="M8029 2509h87"/><path id="p94" d="M7885 2135h102"/><path id="p95" d="M8029 2135h87"/><path id="p96" d="M8116 2142h-87"/><path id="p97" d="M7987 2142h-102"/><path id="p98" d="M7966 2607h92"/><path id="p99" d="M8116 2706h-209"/><path id="p100" d="M7907 2698h101"/><path id="p101" d="M8016 2698h100"/><path id="p102" d="M8116 2920h-203"/><path id="p103" d="M7913 2912h203v8"/><path id="p104" d="M8116 3153h-100"/><path id="p105" d="M8008 3153h-101"/><path id="p106" d="M7907 3146h209"/><path id="p107" d="M8058 3243h-92"/><path id="p108" d="M7907 1498h101"/><path id="p109" d="M8016 1498h116"/><path id="p110" d="M8132 1505h-225"/><path id="p111" d="M7093 2996v84"/><path id="p112" d="M7086 3072v-76"/><path id="p113" d="M7885 3331h102"/><path id="p114" d="M8029 3331h87"/><path id="p115" d="M8116 3339h-87"/><path id="p116" d="M7987 3339h-102"/><path id="p117" d="M7080 1430h110"/><path id="p118" d="M7219 1430h203"/><path id="p119" d="M7450 1430h110"/><path id="p120" d="M7560 1437h-110"/><path id="p121" d="M7422 1437h-203"/><path id="p122" d="M7190 1437h-114"/><path id="p123" d="M5113 1270h-96"/><path id="p124" d="M4727 1263h73"/><path id="p125" d="M4999 1263h114"/><path id="p126" d="M9425 1804v-216"/><path id="p127" d="M9425 1511v-89"/><path id="p128" d="M9425 1295v-205h7v230"/><path id="p129" d="M9432 1397v98"/><path id="p130" d="M9432 1588v216"/><path id="p131" d="M9563 1288h74"/><path id="p132" d="M9644 1288h109"/><path id="p133" d="M9753 1295h-190"/><path id="p134" d="M8386 1295h180"/><path id="p135" d="M8666 1295h197"/><path id="p136" d="M8917 1295h158"/><path id="p137" d="M9129 1295h77"/><path id="p138" d="M9260 1295h165"/><path id="p139" d="M9425 1303h-165"/><path id="p140" d="M9221 1303h-92"/><path id="p141" d="M9090 1303h-173"/><path id="p142" d="M8878 1303h-212"/><path id="p143" d="M8566 1303h-180"/><path id="p144" d="M8386 3385h190"/><path id="p145" d="M8614 3385h184"/><path id="p146" d="M8836 3385h193"/><path id="p147" d="M9068 3385h202"/><path id="p148" d="M9270 3392h-187"/><path id="p149" d="M9029 3392h-178"/><path id="p150" d="M8798 3392h-169"/><path id="p151" d="M8576 3392h-190"/><path id="p152" d="M3647 1457v126"/><path id="p153" d="M3639 1583v-126"/><path id="p154" d="M4102 1644v-103"/><path id="p155" d="M4110 1541v103"/><path id="p156" d="M3524 1810h-148"/><path id="p157" d="M3299 1810h-158v-8h158"/><path id="p158" d="M3376 1802h155"/><path id="p159" d="M5121 2941v263"/><path id="p160" d="M5113 3204v-244"/><path id="p161" d="M3141 1137v-93"/><path id="p162" d="M5356 1841h-200v4h-4v210h-484v-214h-207v4h-46v-4h-74v214h-445v545h445v210h327v-210h488v210h200z"/><path id="p163" d="M6509 3530h77v-118h-77z"/><path id="p164" d="M6584 3386h-75v-240h75z"/><path id="p165" d="M8139 1117v220"/><path id="p166" d="M8139 1437v279"/><path id="p167" d="M8139 1739v274"/><path id="p168" d="M8139 2112v202"/><path id="p169" d="M8139 2337v201"/><path id="p170" d="M8139 2638v274"/><path id="p171" d="M8139 2935v278"/><path id="p172" d="M8139 3313v221h-7v-195"/><path id="p173" d="M8132 3146v-211"/><path id="p174" d="M8132 2912v-206"/><path id="p175" d="M8132 2509v-172"/><path id="p176" d="M8132 2314v-172"/><path id="p177" d="M8132 1945v-206"/><path id="p178" d="M8132 1716v-211"/><path id="p179" d="M8132 1312v-195"/><path id="p180" d="M5121 1487v217"/><path id="p181" d="M5113 1691v-204"/><path id="p182" d="M3095 1090h92"/><path id="p183" d="M8386 1437v101"/><path id="p184" d="M8386 1615v101h-7v-101"/><path id="p185" d="M8379 1538v-101"/><path id="p186" d="M8401 1716h-15v-279h15v-15h213v15h23v-15h209v15h23v-15h208v15h23v-15h209v15h23v-15h93v467h-803v-150h-221z"/><path id="p187" d="M9425 1415H8386v-112h1039z"/><path id="p188" d="M8386 1117h19v-27h207v205h-226z"/><path id="p189" d="M8863 1295h-243v-178h19v-27h205v27h19z"/><path id="p190" d="M8386 1746h220v112h-220z"/><path id="p191" d="M8386 2339h19v-20h207v20h18v264h-128v-66h-116v-198"/><path id="p192" d="M8386 2615v-70h97v70z"/><path id="p193" d="M8386 2312v-70h98v70z"/><path id="p194" d="M8386 2036h15v-23h213v23h16v91h-97v17h97v159h-127v-69h-117v-90h96v-17h-96z"/><path id="p195" d="M8386 2006v-117h15v-24h213v31h1155v110z"/><path id="p196" d="M8386 3385v-149h251v-23h-15v-278h15v-23h-23v-274h1183v575h-25v23h25v298h-27v26h-205v-26h-26v26h-205v-26h-10v-149z"/><path id="p197" d="M8386 2904v-111h220v111z"/><path id="p198" d="M6981 1415h-15v-77h107v92h-92z"/><path id="p199" d="M6730 1117h28v-27h198v27h18v104h-244z"/><path id="p200" d="M4121 2910v-135h198v135z"/><path id="p201" d="M4534 1346v134h-77v-30h-31v-104z"/><path id="p202" d="M4542 1480v-210h224v210z"/><path id="p203" d="M4773 1270h236v210h-204v-30h-32z"/><path id="p204" d="M3923 1106h141v158h-141z"/><path id="p205" d="M3878 1644v-187h193v30h31v157z"/><path id="p206" d="M3647 1644v-187h193v30h31v157z"/><path id="p207" d="M3141 2159v-314h46v-35h301v35h36v314h-36v39h-301v-39z"/><path id="p208" d="M5461 3410h38v-22h-31v-243h31v-38h-31v-255h35v-46h-35v-139h31v-23h-31v-300h31v-38h-31v-300h31v-22h-31v-139h35v-46h-35v-255h31v-38h-31v-243h31v-23h-31v-103h35v-47h301v47h46v-47h302v47h46v-47h214v47h26v103h-22v23h22v243h-22v38h22v259h-22v38h22v143h-22v38h22v284h-22v38h22v285h-22v38h22v143h-22v38h22v259h-22v38h31v243h-31v22h22v104h-26v46h-214v-46h-46v46h-348 46v-46h-46v46h-301v-46h-42z"/><path id="p209" d="M3187 3514h-46v-99h8v-1h177v1h8v-1h174v1h7v-1h166v1h8v-1h166v1h8v-1h204v146h-185v-46h-46v46h-301v-46h-47v46h-301z"/><path id="p210" d="M4114 3422h301v138h-90v-33h-211z"/><path id="p211" d="M7896 3534v-195h224v195h-6v26h-205v-26z"/><path id="p212" d="M7907 3213h-22v-60h115v83h-93z"/><path id="p213" d="M8024 3236v-83h108v60h-16v23z"/><path id="p214" d="M7894 2947v-12h13v-15h209v15h7v211h-230v-161h-8v-38z"/><path id="p215" d="M7885 2901v-39h8v-156h230v206h-230v-11z"/><path id="p216" d="M8000 2698h-115v-60h22v-23h93z"/><path id="p217" d="M8024 2615h92v23h16v60h-108z"/><path id="p218" d="M7896 2339h13v-9h207v7h4v172h-224z"/><path id="p219" d="M7909 2312h-13v-170h224v172h-4v8h-207z"/><path id="p220" d="M7907 2013h-22v-60h115v83h-93z"/><path id="p221" d="M8024 2036v-83h108v60h-16v23z"/><path id="p222" d="M7885 1750h8v-11h230v206h-230v-156h-8z"/><path id="p223" d="M7885 1704v-38h8v-161h230v211h-7v15h-209v-15h-14v-12z"/><path id="p224" d="M7885 1498v-61h22v-23h93v84z"/><path id="p225" d="M8024 1498v-84h92v23h16v61z"/><path id="p226" d="M7894 1117h15v-27h205v27h6v195h-226z"/><path id="p227" d="M7875 1320h-111v-230h111z"/><path id="p228" d="M7764 2135h113v187h-113z"/><path id="p229" d="M7764 2516v-187h113v187z"/><path id="p230" d="M7877 3331v229h-59v-229z"/><path id="p231" d="M7341 3441h54v-85h26v-1h116v-119h-93v-15h209v15h23v-15h135v339h-133v-26h-27v26h-205v-26h-26v26h-79z"/><path id="p232" d="M6730 3534v-298h16v-8h212v8h24v156h173v-36h35v23h23v-23h175v77h-54v127h-119v-26h-27v26h-205v-26h-27v26h-198v-26z"/><path id="p233" d="M6719 1460h-6v-197h6v-23h-6v-12h502v43h155v-35h190v194h-116v-15h-22v15h-209v-15h-23v15h-110v-99h-122v1890h-212v-8h-33v-30h6v-46h-6v-253h6v-46h-6v-178h6v-22h27v-23h-27v-2h-6v-265h6v-9h30v-27h-30v-10h-6v-265h6v-1h27v-23h-27v-22h-6v-178h6v-46h-6v-260h6z"/><path id="p234" d="M6989 3385v-141h159v141z"/><path id="p235" d="M7452 3244h77v104h-77z"/><path id="p236" d="M6966 3072v-137h15v-15h105v152z"/><path id="p237" d="M6966 2790h107v122h-107z"/><path id="p238" d="M6966 1739h107v122h-107z"/><path id="p239" d="M7182 1221h-201v-104h201z"/><path id="p240" d="M7222 1263v-158h141v158z"/><path id="p241" d="M7370 1105h50v12h26v-27h205v27h27v-27h79v321h-189v-183h-198z"/><path id="p242" d="M6966 1437h602v-19h85v19h23v-19h88v-98h368v87h-255v324h-201v-15h-23v15h-209v-15h-22v15h-209v-15h-23v15h-209v-15h-15z"/><path id="p243" d="M6966 1868h114v-129h797v304h255v92h-375v187h-81v-8h-23v8h-207v-10h-26v10h-207v-8h-23v8h-207v-10h-17v-276h15v-23h-15z"/><path id="p244" d="M6966 2339h17v-10h207v8h23v-8h207v10h26v-10h207v8h23v-8h81v187h375v91h-255v305h-797v-129h-114v-145h15v-23h-15z"/><path id="p245" d="M6966 3213v-133h127v-160h97v15h23v-15h209v15h22v-15h209v15h23v-15h201v323h255v88h-314v-118h-852"/><path id="p246" d="M7155 3349v-105h259v27h7v-27h24v104h-24v-23h-7v24z"/><path id="p247" d="M8637 2312v-299h209v23h23v-23h208v23h23v-23h209v316h-207v-17h-27v17h-206v-15h-23v15h-207v-17z"/><path id="p248" d="M9332 2314h-16v-278h16v-23h209v23h22v-23h209v23h25v182h-74v82h74v14h-25v15h-207v-17h-26v17h-207z"/><path id="p249" d="M9083 3392h234v142h-10v26h-205v-26h-19z"/><path id="p250" d="M8870 3534h-19v-142h224v168h-205z"/><path id="p251" d="M8639 3534h-10v-142h215v168h-205z"/><path id="p252" d="M8386 3392h236v142h-10v26h-207v-26h-19z"/><path id="p253" d="M8139 1117h2v-27h207v27h31v186-186 2417h-31v26h-207v-26h-2z"/><path id="p254" d="M6455 1240h-10v-103h13v-47h215v47h32v103h-25v23h25v197h-32v47h32v260h-32v46h32v178h-32v46h32v265h-32v46h32v265h-32v47h32v178h-32v46h32v221h-250v2h-10v-259h10v-38h-10v-143h10v-38h-10v-285h10v-38h-10v-284h10v-38h-10v-143h10v-38h-10v-259h10v-38h-10v-243h10z"/><path id="p255" d="M6445 3514v-104h10v-304h250v31h-32v46h32v205h-25v22h25v104h-32v46h-215v-46z"/><path id="p256" d="M6509 3412v118h77v-118z"/><path id="p257" d="M6509 3386h75v-240h-75z"/><path id="p258" d="M6631 3372h40v-208h-40z"/><path id="p259" d="M8386 2935h15v-23h213v317h-213v-16h-15z"/><path id="p260" d="M8637 2339h2v-2h436v2h27v-2h437v2h26v-2h232v136h-28v131h28v11h-25v15h-209v-15h-22v15h-209v-15h-23v15h-209v-15h-23v15h-208v-15h-23v15h-209z"/><path id="p261" d="M3141 1492h46v-47h-46v-308h46v-47h301v47h47v-47h301v47h46v-47h33v181h156v-15h39v-16h309v16h38v-23h-31v-96h35v-47h301v47h46v-47h302v47h46v-47h301v47h4v126h-927v76h-115v148h436v354h254v4h47v-4h301v4h4v961h-4v4h-301v-4h-47v4h-152v96h-102v410h606v198h-4v46h-301v-46h-46v46h-302v-46h-46v46h-301v-46h-39v-92h35v-23h-38v16h-309v-16h-39v8h-930v-98h102v-97h-102v-8h46v-45h-46v-307h46v-46h-46v-59h102v-96h-102v-160h46v-46h-46v-239h394v-47h-4v-314h4v-46h-47v3h-301v-3h-46z"/><path id="p262" d="M3639 1449v203h471v-203h-74v8h-138v-8z"/><path id="p263" d="M4114 2767v151h18v-8h77v8h117v-151z"/><path id="p264" d="M5121 3201h31v-38h-31v-311h35v-35h301v35h4v457h-340z"/><path id="p265" d="M4862 3124v-210h95v46h156v349h-251v-146h39v-39z"/><path id="p266" d="M5113 2952h-148v-135h144v35h4z"/><path id="p267" d="M4862 1526h39v-38l116-1v-217h96v421h-111v143h-140v-49h39v-39h-39z"/><path id="p268" d="M5121 1487h31v-37h-31v-180h340v529h-4v35h-301v-35h-35z"/><path id="p269" d="M5009 1698h104v101h-4v35h-100v-136"/><path id="p270" d="M8386 2036h15v-23h213v23h16v91h-97v17h97v159h-127v-69h-117v-90h96v-17h-96z"/><path id="p271" d="M6815 1090h-92"/><path id="p272" d="M6893 1086h76"/><path id="p273" d="M6893 1081h76"/><path id="p274" d="M6969 1086h-76"/><path id="p275" d="M6815 1086h-92"/><path id="p276" d="M6969 1081h-76"/><path id="p277" d="M6815 1081h-92"/><path id="p278" d="M6723 1079h92v10"/><path id="p279" d="M6893 1079h76"/><path id="p280" d="M6893 1090h76v-11"/><path id="p281" d="M6815 1090h-92v-4"/><path id="p282" d="M3488 3560h-301"/><path id="p283" d="M4326 3560h-791"/><path id="p284" d="M3187 3560h301"/><path id="p285" d="m4326 3565-1185-5"/><path id="p286" d="m4326 3565-838-5"/><path id="p287" d="M3132 3570h1194"/><path id="p288" d="M3136 3565h1190"/><path id="p289" d="M3132 3570h1194"/><path id="p290" d="M3187 3560h301"/><path id="p291" d="M3535 3560h791"/><path id="p292" d="M4326 3572H3129"/><path id="p293" d="M6983 3560h205-232"/><path id="p294" d="M6983 3560h205"/><path id="p295" d="M7420 3560h-205"/><path id="p296" d="M7883 3560h-205"/><path id="p297" d="M8114 3560h-205"/><path id="p298" d="M7651 3560h-205"/><path id="p299" d="M7678 3560h205"/><path id="p300" d="M7188 3560h232-205"/><path id="p301" d="M7446 3560h205"/><path id="p302" d="M7420 3560h694-668"/><path id="p303" d="M7651 3560h463-436"/><path id="p304" d="M7883 3560h231-205"/><path id="p305" d="M6723 3565h92"/><path id="p306" d="M6893 3565h1259"/><path id="p307" d="M6723 3570h92"/><path id="p308" d="M6893 3570h1259"/><path id="p309" d="M6893 3565h1259"/><path id="p310" d="M6723 3565h92"/><path id="p311" d="M6893 3570h1259"/><path id="p312" d="M6723 3570h92"/><path id="p313" d="M6983 3560h205"/><path id="p314" d="M7215 3560h205"/><path id="p315" d="M7446 3560h205"/><path id="p316" d="M7678 3560h205"/><path id="p317" d="M7909 3560h205"/><path id="p318" d="M8152 3572H6893"/><path id="p319" d="M6815 3572h-92v-2"/><path id="p320" d="M9475 3565h101"/><path id="p321" d="M9296 3565h102"/><path id="p322" d="M9475 3570h101"/><path id="p323" d="M9296 3570h102"/><path id="p324" d="M9576 3572h-101"/><path id="p325" d="M9398 3572h-102"/><path id="p326" d="M4326 1090h-235"/><path id="p327" d="M4091 1081h235"/><path id="p328" d="M4091 1079h235"/><path id="p329" d="M4326 1086h-235"/><path id="p330" d="M4326 1081h-235"/><path id="p331" d="M4091 1079h235v10"/><path id="p332" d="M4326 1090h-235v-11"/><path id="p333" d="M8206 1090h-78"/><path id="p334" d="M8283 1086h92"/><path id="p335" d="M8128 1081h78"/><path id="p336" d="M8283 1081h92"/><path id="p337" d="M8128 1079h78"/><path id="p338" d="M8375 1086h-92"/><path id="p339" d="M8206 1086h-78"/><path id="p340" d="M8375 1081h-92"/><path id="p341" d="M8206 1081h-78"/><path id="p342" d="M8128 1079h78v10"/><path id="p343" d="M8283 1079h92v2"/><path id="p344" d="M8283 1090h92v-4"/><path id="p345" d="M8206 1090h-78v-11"/><path id="p346" d="M3136 1822v283"/><path id="p347" d="M3132 1822v283"/><path id="p348" d="M3141 1822v283"/><path id="p349" d="M3129 2105v-283"/><path id="p350" d="m3141 3055-5 127"/><path id="p351" d="M3129 3182v-128"/><path id="p352" d="M3136 3054v128"/><path id="p353" d="M3132 3054v128"/><path id="p354" d="M3141 3055v127h-12v-128"/><path id="p355" d="M6631 3158h39v214h-39z"/><path id="p356" d="M4733 1469h101"/><path id="p357" d="M3141 3622v-143"/><path id="p358" d="M3075 3560h163"/></g></svg>