<svg xmlns="http://www.w3.org/2000/svg" width="1588" height="1122.667" viewBox="487 538 1087 423"><path stroke-width=".8" d="M658.24 942.187h32.96v6.08h15.2v-7.52h.64v-15.36h-48.8zm455.04-335.52v25.76m0 11.68v17.12m0 11.68v65.92m0 23.52v65.92m0 11.68v56.64m1.28-3.84v-44.64m0-24.32v-23.2m0-3.68v-34.56m0-23.52v-34.56m0-3.68v-23.2m0-47.52v-21.28m227.2 72.16v19.84h2.4v2.56h32.96v-26.08h-32.96v3.68zm167.36 139.68v61.76h19.84v-34.08h-2.4v-3.68h2.4v-24zm-89.92 95.04v32.8h32.8v-32.8zm34.08 0v28.48h3.04v4.32h16.64v-32.8zm20.96 0v32.8h14.88v-4.32h4.32v4.32H1508v-32.8zm34.88-32v64.8h17.12v-4.32h2.72v-47.68h-2.4v-3.52h2.4v-9.28zm20.96 44.8v15.68h.32v4.32h32.8v-4.32h4.32v-27.36h-24.48v11.68zm0-34.4v21.6h37.44v-19.2h-4v-2.4zm0-73.44v72.32h37.44v-44.64h-4v-3.68h4v-24zm34.88 96.16h-33.44v10.56h10.4v-10.56zm-746.88-267.52h-12.32m0 1.28h12.32m55.04 177.76h-48.16m-20.8 0H776.8m1.12 1.12h22.4m24.64 0h48.16m-146.4 81.6v-24.96m-1.28 0v21.44m-221.6-329.76h28.32m1.28 0h27.84m1.12 0h26.56m29.12 0h24.8m0-1.12h-24.8m-29.12 0H562.4m-1.12 0h-27.84m-1.28 0h-28.32m168.96 80.64h18.24m1.12-1.28H672.8m-108.96 115.2v21.92m1.12 0v-21.92m1002.56 29.6h-37.44m-3.52 0h-33.44m-19.84 0H1456m-3.68 0h-33.28m-3.68 0h-17.28m-19.84 0h-34.08m-2.4 1.12h43.84m12.48 0h75.2m12.48 0h81.76v-1.12m-225.76 143.36v-28.48m-1.12-3.04v31.52h1.12m0-162.88v-15.84m0-28.16v-20.32m0-16.16v-19.84m-1.12 0v19.84m0 12.96v23.52m0 23.68v25.12m1.12-205.92v-22.72m-1.12 0v26.4m-66.08 313.92h14.72m8.48-53.12h-31.68m-5.76 0h-32.16m-3.68 0h-33.44m-3.52 0h-33.44m-3.68 0h-17.6m-1.12 0h-14.72m0 1.28h33.44m3.68 0h33.44m3.52 0h33.44m3.68 0h32.16m5.76 0h31.68m-181.92 80.48h-12.96m-12.48 0h-14.72m1.12 1.12h13.6m12.48 0h12.96v-1.12m79.04-1.28h-15.68v1.28h15.68m16-29.28h12.64m5.6 0h12m1.12-1.12h-13.12m-5.6 0h-12.64m50.4 16.96h16.48m6.88 0h13.92m0-1.28h-13.92m-6.88 0h-16.16m27.68-115.68h-15.36m-8.8 15.68h33.44m0-1.28h-16m-1.28 0h-16.16m33.44-90.08h-13.92m-6.72 0h-16.32m0 1.12h16.32m6.72 0h13.92m-36.96 59.84h16.32m6.72 0h13.92m0-1.12h-13.92m-6.72 0h-16.32m12.96-74.4h14.72m9.28-15.84h-33.44m0 1.28h16.16m1.28 0h16m0-35.52h-32.48m0 1.28h32.48v-1.28m0-37.28h-16m-1.28 0h-16.16m0 1.12h33.44m-9.28-15.52h-14.72m-9.44 279.2h16.16m1.28 0h18.56m0-1.12h-36m-130.24-238.56v-13.44m-1.12 1.28v12.16m127.84-53.6h16.32m6.72 0h13.92m0-1.28h-13.92m-6.72 0h-16.32m-128.8 305.44h17.6m4.64 0h32.48m4.48 0h17.6m0-1.12H1192m-4.48 0h-32.48m-4.64 0h-18.24m-314.08 26.72h-15.36m-46.4 1.12H768m31.84 0h18.24m689.92-86.56v34.56m0 12.32v14.24m0 20.32v32.8h1.12v-36.8m0-12.32v-15.68m0-14.88v-34.56m20.96 82.56h11.84m1.12 0h17.44m0-1.12h-30.4m-188.32 0h28.8m16 0h31.52m8.64 0H1452m8.64 0h12.32m8.64 0h26.4m0-1.28h-26.4m-6.24 0h-14.72m-6.24 0h-27.68m-6.24 0h-33.92m-16 0h-28.8m0-333.12h30.4m6.08 0h29.44m6.08 0h30.88m6.24 0h32.32m0-1.12h-29.92m-8.64 0h-28.48m-8.48 0h-27.04m-8.48 0h-30.4m-758.24 309.6v-20.16m-1.28 0v20.16m74.08-29.92v16.48m1.28 0v-16.48m-93.76-26.56h-23.68m-12.32 0h-25.28v1.28h25.28m12.32 0h24.8m254.4-182.24v-42.08m-1.28 0v39.04m-315.52 291.68v14.88m354.4-127.52h-32v-.64h-.64v-33.6h-77.44v34.24h-33.12v-.64h-7.36v.64h-11.84v-34.24h-71.2v-87.2h71.2v-33.6h52.32v33.6h78.08v-33.6h32zm184.48-270.24h12.32v18.88h-12.32zm12 23.04h-12v38.4h12zm248.8 363.04v-35.2m0-16v-44.64m0-3.68v-43.84m0-15.84v-32.32m0-3.68v-32.16m0-16v-43.84m0-3.68v-44.48m0-16v-35.36h-1.12v31.2m0 30.88v33.76m0 3.68v32.96m0 31.52v27.52m0 3.68v27.52m0 31.52v32.96m0 3.68v33.76m0 30.88v31.2m-481.76-59.2v-34.72m-1.28 2.08v32.64m-322.88 63.52h14.72m831.84-55.52v-16.16m0-12.32v-16.16h-1.12v16.16m0 12.32v16.16m3.52-44.64h-2.4v44.64h2.4v2.4h34.08v-2.4h3.68v2.4h33.44v-2.4h3.68v2.4h33.28v-2.4h3.68v2.4h33.44v-2.4h3.68v2.4H1508v-74.72h-128.48v24h-35.36zm163.84 48.16h-166.24v17.92H1508zm-166.24 47.68h3.04v4.32h33.12v-32.8h-36.16zm76.32-28.48h-38.88v28.48h3.04v4.32h32.8v-4.32h3.04zm-76.32-72.16h35.2v-17.92h-35.2zm0-94.88h3.04v3.2h33.12v-3.2h2.88v-42.24h-20.48v10.56h-18.56zm0-44.16v11.2h15.52v-11.2zm0 48.48v11.2h15.68v-11.2zm0 44.16h2.4v3.68h34.08v-3.68h2.56v-14.56h-15.52v-2.72h15.52v-25.44h-20.32v11.04h-18.72v14.4h15.36v2.72h-15.36zm0 4.8v18.72h2.4v3.84h34.08v-4.96h184.8v-17.6zm0-220.64v23.84h40.16v3.68h-2.4v44.48h2.4v3.68h-3.68v43.84h189.28v-92h-4v-3.68h4v-47.68h-4.32v-4.16h-32.8v4.16h-4.16v-4.16h-32.8v4.16h-1.6v23.84zm0 76.96v17.76h35.2v-17.76zm-224.8 238.24h-2.4v12.32h17.12v-14.72h-14.72zm-40.16 47.68h4.48v4.32h31.68v-4.32h2.88v-16.64h-39.04zm-417.44-286.88v21.6h31.68v-21.6zm66.08 250.24v-21.44h-12.32v4.8h-4.96v16.64zm1.28-21.44v33.6h35.84v-33.6zm36.96 33.6h37.76v-33.6H768.8v4.8h-5.12zm-136 26.24h22.56v-25.28h-22.56zm-7.2-86.08v29.92h30.88v-4.8h4.96v-25.12zm-36.96 0v29.92h30.88v-4.8h4.96v-25.12zm-80.96-82.4v50.24h7.36v5.6h48.16v-5.6h5.76v-50.24h-5.76v-6.24h-48.16v6.24zm371.2-200.16h6.08v3.52h-4.96v38.88h4.96v6.08h-4.96v40.8h5.6v7.36h-5.6v22.24h4.96v3.68h-4.96v48h4.96v6.08h-4.96v48h4.96v3.52h-4.96v22.24h5.6v7.36h-5.6v40.8h4.96v6.08h-4.96v38.88h4.96v3.68h-4.96v16.48h5.6v7.52h48.16v-7.52H936v7.52h48.32v-7.52h7.36v7.52h34.24v-7.52h4.16v-16.48h-3.52v-3.68h3.52v-38.88h-3.52v-6.08h3.52v-41.44h-3.52v-6.08h3.52v-22.88h-3.52v-6.08h3.52v-45.44h-3.52v-6.08h3.52v-45.6h-3.52v-6.08h3.52v-22.88h-3.52v-6.08h3.52v-41.44h-3.52v-6.08h4.96v-38.88h-4.96v-3.52h3.52v-16.64h-4.16v-7.36h-34.24v7.36h-7.36v-7.36h-55.68H936v7.36h-7.36v-7.36h-48.16v7.36h-6.72zm-363.84-16.64h-7.36v15.84h1.28v.16h28.32v-.16h1.28v.16h27.84v-.16h1.12v.16h26.56v-.16h1.28v.16h26.56v-.16h1.28v.16h32.64v-23.36h-29.6v7.36h-7.36v-7.36H565.6v7.36h-7.52v-7.36h-48.16zm148.32 14.72h48.16v-22.08H692v5.28h-33.76zm605.12-17.92v31.2h35.84v-31.2h-.96v-4.16h-32.8v4.16zm1.76 51.36h-3.52v9.6h18.4v-13.28h-14.88zm18.72-3.68v13.28h17.28v-9.6h-2.56v-3.68zm-20.8 46.24v1.92h2.08v2.4h33.44v-2.4h1.12v-33.76h-36.8v25.76h-1.28v6.08zm-1.44 7.36v6.24h1.28v24.96h36.8v-32.96h-36.8v1.76zm18.4 32.48h-18.4v9.6h3.52v3.68H1280zm3.84 13.28h14.72v-3.68h2.56v-9.6h-17.28zm-20.48 44.16h2.08v1.44h33.12v-1.12h.64v-27.52h-35.84zm2.08 4.32h-2.08v27.2h35.84v-27.52h-.64v-1.28h-33.12zm-.32 47.84h-3.52v9.6h18.4v-13.28h-14.88zm18.72-3.68v13.28h17.28v-9.6h-2.56v-3.68zm-22.24 45.76h1.28v1.76h36.8v-32.96h-36.8v24.96h-1.28zm0 7.36v6.08h1.28v25.76h36.8v-33.76h-1.12v-2.4h-33.44v2.4h-2.24v1.92zm0 32.96v9.76h3.52v3.68H1280v-13.44zm22.24 0v13.44h14.72v-3.68h2.56v-9.76zm-20.8 60.96h2.4v4.32h32.8v-4.32h.96v-31.2h-36.16zm-3.04-32.48h-17.76v36.8H1260zm-17.76-130.4h18.08v-29.92h-18.08zm0-60.96v29.92h18.08v-29.92zm18.08-130.4v-36.64h-9.44v36.64zm-85.76-17.6h8.64v13.6h4.16v.16h18.56v19.04h-14.88v2.4h33.44v-2.4h3.68v2.4h21.6v-54.24h-21.28v4.16h-4.32v-4.16h-32.8v4.16h-4.16v-4.16h-12.64zm-97.76-14.88v47.68h2.56v1.28h33.92v-1.28h3.84v-24.96h27.68v5.76h5.6v-3.68h3.68v3.68h28v-12.32h-8.64v-20.32h-19.04v4.16h-4.32v-4.16h-32.8v4.16h-4.32v-4.16h-31.68v4.16zm-1.76 331.84h-.96v31.52h.96v3.68h-.96v1.92h80.32v-6.88h24.8v5.6h30.4v-31.04h-18.56v2.4h-3.52v-2.4h-33.44v2.4h-3.68v-2.4h-17.6v15.84h-19.52v-302.4h-33.92v1.28h-5.28v4.8h.96v7.36h-.96v40.48h.96v7.36h-.96v28.48h.96v3.52h4.32v3.68h-4.32v.32h-.96v42.4h.96v1.44h4.8v4.32h-4.8v1.6h-.96v42.4h.96v.16h4.32v3.68h-4.32v3.52h-.96v28.48h.96v7.36h-.96v41.6h.96zm43.2-308v22.56h25.44v-22.56zm74.08 22.56h12.32v-16.64h-12.32zm-77.76 27.52v21.92h2.4v2.4h16.8v-24.32zm0 45.12h17.12v-19.52h-17.12zm0 168.16h17.12v-19.52h-17.12zm34.56 82.88h-32.16v16.64h32.16zm6.4-6.72v25.28h22.56v-25.28zm23.68 25.28h8v-1.92h4.16v4.32h32.8v-4.32h4.32v4.32h12.64v-51.36h-30.24v29.28h-31.68zm-64.64-53.12h96.32v3.04h13.6v-3.04h3.68v3.04h14.08v15.68h58.88v-13.92h-40.8v-51.84h-32.16v2.4h-3.68v-2.4h-33.44v2.4h-3.52v-2.4h-33.44v2.4h-3.68v-2.4h-33.44v2.4h-2.4zm0-68.96h18.24v20.64h127.52v-48.64h40.8v-14.72h-60v-29.92h-12.96v1.28h-3.68v-1.28h-33.12v1.6h-4.16v-1.6h-33.12v1.28h-3.68v-1.28h-33.12v1.6h-2.72v44.16h2.4v3.68h-2.4zm0-75.36h2.72v1.6h33.12v-1.28h3.68v1.28h33.12v-1.6h4.16v1.6h33.12v-1.28h3.68v1.28h12.96v-29.92h60v-14.56h-40.8v-48.8H1132.8v20.64h-18.24v23.2h2.4v3.68h-2.4zm0-139.84v21.28h20.32v25.6h15.52v-2.4h3.68v2.4h33.44v-2.4h3.52v2.4h33.44v-2.4h3.68v2.4h32.16v-51.68h40.8v-14.08h-50.24v18.88zm30.24-21.76v16.8h41.44v-4.32h1.12v4.32h3.84v-16.64h-3.84v3.68h-1.12v-3.84zm237.12 165.92v47.84h33.44v-3.68h3.68v3.68h33.28v-3.68h3.68v3.68h33.44v-50.56h-33.12v2.72H1452v-2.72h-32.96v2.4h-3.68v-2.4h-33.12v2.72zm111.2-.32h-2.56v44.48h2.56v3.68h33.44v-3.68h3.52v3.68h33.44v-3.68h4v-29.12h-11.84v-13.12h11.84v-2.24h-4v-2.4h-33.12v2.72h-4.16v-2.72h-33.12zm-39.84-172.48h37.44v-22.72h-1.6v-4.16h-32.8v4.16h-3.04zm-34.08-22.72h-3.04v22.72H1452v-26.88h-32.8zm-36.96 0h-1.6v22.72h34.4v-26.88h-32.8zm-40.48 22.72h37.76v-22.72h-1.6v-4.16h-33.12v4.16h-3.04zm-39.52 364h.32v4.32h33.12v-4.32h4.96v-29.76 29.76-386.72h-4.96v-4.16h-33.12v4.16h-.32zm-269.44-19.68h-1.6v16.48h2.08v7.52h34.4v-7.52h5.12v-16.48h-4v-3.68h4v-31.52h-5.12v-7.52h5.12v-41.6h-5.12v-7.36h5.12v-28.48h-5.12v-7.36h5.12v-42.4h-5.12v-7.36h5.12v-42.4h-5.12v-7.52h5.12v-28.48h-5.12v-7.36h5.12v-35.36h-40v-.32h-1.6v41.44h1.6v6.08h-1.6v22.88h1.6v6.08h-1.6v45.6h1.6v6.08h-1.6v45.44h1.6v6.08h-1.6v22.88h1.6v6.08h-1.6v41.44h1.6v6.08h-1.6v38.88h1.6zm-1.6-363.84v16.64h1.6v48.64h40v-4.96h-5.12v-7.36h5.12v-32.8h-4v-3.52h4v-16.64h-5.12v-7.36h-34.4v7.36zm10.24 16.32v-18.88h12.32v18.88zm0 4.16h12v38.4h-12zm19.52 2.24h6.4v33.28h-6.4zm280.8 69.92h2.4v3.68h34.08v-50.72h-34.08v2.56h-2.4zm40.16 95.36h.32v.32H1452v-.32h4.32v.32h69.92v-.32h4.16v.32h37.12v-21.76h-4.48v-20.96h4.48v-1.76h-4v-2.4h-33.44v2.4h-3.52v-2.4h-33.44v2.4h-3.68v-2.4H1456v2.4h-3.68v-2.4h-33.28v2.4h-3.68v-2.4h-33.44zm-879.36 135.52h7.36v7.52h-7.36v49.28h7.36v7.52h48.16v-7.52h7.52v7.52h48.16v-7.52h7.36v7.52h5.28v-28.96h24.96v2.4h6.24v2.56h49.44v-2.56h6.08v3.68h-4.96v15.36h5.6v7.52h48.16v-7.52h7.36v7.52h48.32v-7.52h7.36v7.52h48.16v-7.52h.64v-20.16H725.44v-12.16h-18.4v-23.68h69.76v-56.64h40.64v-.64h7.52v.64h48.16v-.64h.64v-153.76h-.64v-.64h-48.16v.64h-7.52v-.64h-24.32v-15.36H776.8v-65.6h96.96v-31.68h-.64v-7.36h-48.16v7.36h-7.36v-7.36h-48.32v7.36h-7.36v-7.36h-48.16v7.36h-6.24v14.72h5.6v3.68h-6.08v-2.56H657.6v2.56h-6.24v-1.28h-148.8v15.68h16.32v15.52h-16.32v1.28h7.36v7.2h-7.36v49.12h7.36v7.36h-7.36v9.44h16.32v15.36h-16.32v25.6h7.36v7.36h-7.36v38.24h63.04v7.52h-.64v50.24h.64v7.36h-7.52v-.48h-48.16v.48h-7.36zm79.68 6.88v-32.48h75.36v32.48h-11.84v-1.28h-22.08v1.28zm76-210.88v-24.16h2.88v1.28h12.32v-1.28h18.72v24.16zm161.12-69.44h4.96v6.08h-4.96v49.76h5.6v5.6h48.16v-5.6h.64v-73.12h-54.4zm-41.44 12.32v33.6h15.2v-7.36h24.96v-55.84h-40.16v23.36h6.24v6.24zm40.16 27.52H794.4v21.6h23.04v-5.6h.64zm-40.16 228.16h6.24v6.08l18.56.16v34.72h15.36v-67.36h-17.76v-22.88h-22.4v7.84h6.24v6.24h-6.24zm41.44 6.24h4.96v5.92h-4.96v28.8h54.4v-84.64h-.64v-5.6h-48.16v5.6h-5.6zm-17.92-33.76h16.64v-16.16h-.64v-5.6h-16zm540.32-54.08h2.4v3.68h34.08v-3.68h2.56v-14.56h-15.52v-2.72h15.52v-25.44h-20.32v11.04h-18.72v14.4h15.36v2.72h-15.36zm-251.36 151.36h-14.72m27.2.64h12.16m-12.16.8h12.16m0-.8h-12.16m-12.48 0h-14.72m39.36.8h-12.16m-12.48 0h-14.72m0 .32h14.72v-1.6m12.48 1.6h12.16m-12.16-1.76h12.16v1.76m-24.64-1.76h-14.72v.64m-517.6-395.84h-48.16m182.24 0H565.6m-55.68 0h48.16m134.08-.8-189.6.8m189.6-.8-134.08.8m-56.96-1.6h191.04m-190.4.8h190.4m-191.04-.8h191.04m-182.24 1.6h48.16m7.52 0h126.56m0-1.92H500.64m616.64 1.92h32.8-37.12m4.32 0h32.8m37.12 0h-32.8m106.88 0h-32.8m69.76 0h-32.8m-41.28 0h-32.8m37.12 0h32.8m-111.2 0h37.12-32.8m36.96 0h32.8m-36.96 0h111.04-106.88m32.8 0h74.08-69.76m32.8 0h36.96-32.8m-189.76-.8h14.72m12.48 0h201.44m-228.64-.8h14.72m12.48 0h201.44m-201.44.8h201.44m-228.64 0h14.72m12.48-.8h201.44m-228.64 0h14.72m26.88 1.6h32.8m4.32 0h32.8m4.16 0h32.8m4.32 0h32.8m4.16 0h32.8m6.08-1.92h-201.44m-12.48 0h-14.72v.32m440.32.8h16.16m-44.8 0h16.32m12.32-.8h16.16m-44.8 0h16.32m28.48-.32H1516m-12.32 0h-16.32m-795.2 397.12h-37.6m0 1.44h37.6m-37.6.32h37.6m0-1.12h-37.6m37.6.8h-37.6m0 .32h37.6v-1.6m0-.16h-37.6v1.76m658.4-1.76h-12.48m24.8.64H1340m-39.52.8h12.48m12.32 0H1340m-39.52.32h12.48m27.04-1.12h-14.72m-12.32 0h-12.48m39.52.8h-14.72m-12.32 0h-12.48m0 .32h12.48v-1.6m12.32 1.6H1340v-.32m-14.72-1.44H1340v.64m-27.04-.64h-12.48v1.76m-798.72-118.88v-45.28m-.64 45.28v-45.28m1.44 45.28v-45.28m-1.92 0v45.28m1.92-197.28-.8-20.32m-1.12 0v20.48m1.12 0v-20.48m-.64 20.48v-20.48m1.44 20.32v-20.32h-1.92v20.48m560.32-16.64h6.24v-34.24h-6.24zm-303.68 270.24h16.16m-270.88-344.48v22.88M492 553.067h26.08" style="fill:none;stroke:#000;stroke-width:5;stroke-linecap:round;stroke-linejoin:round;stroke-miterlimit:10;stroke-dasharray:none;stroke-opacity:1"/></svg>