<?xml version="1.0" encoding="UTF-8"?>
<svg xmlns="http://www.w3.org/2000/svg"
     viewBox="0 0 1074.5084 1028.7027"
     width="1074.5mm" height="1028.7mm">
  <!-- Cinerglass Electrical Panel Locations — Model UT1 -->
  <!-- W2D V06.00 conversion: 427 polylines, 12 labels -->
  <rect width="1074.5084" height="1028.7027" fill="#f8f9fa"/>
  <g id="geometry" stroke="#1c2742" fill="none" stroke-linecap="round" stroke-linejoin="round">
    <path d="M 112.569,905.887 L 112.569,907.529 L 138.243,907.529 L 138.243,905.887" stroke-width="0.35"/>
    <path d="M 158.552,818.573 L 158.552,828.974 L 135.725,828.974 L 135.725,822.953 L 141.911,822.953 L 141.911,818.573 L 144.265,818.573 L 144.265,814.632 L 153.078,814.632 L 153.078,818.573 L 158.552,818.573 Z" stroke-width="0.25"/>
    <path d="M 165.067,905.887 L 165.067,916.288 L 138.791,916.288 L 138.791,905.887 L 146.181,905.887 L 146.181,905.494 L 152.202,905.494 L 152.202,905.887 L 165.067,905.887 Z" stroke-width="0.25"/>
    <path d="M 136.053,939.287 L 140.433,939.287 L 140.433,918.486 L 136.053,918.486 L 136.053,939.287 Z" stroke-width="0.35"/>
    <path d="M 136.053,939.287 L 140.433,939.287 L 140.433,918.486 L 136.053,918.486 L 136.053,939.287 Z" stroke-width="0.35"/>
    <path d="M 140.432,880.706 L 140.432,876.326 L 161.235,876.326 L 161.235,880.706 L 140.432,880.706 Z" stroke-width="0.35"/>
    <path d="M 136.053,939.287 L 140.433,939.287 L 140.433,918.486 L 136.053,918.486 L 136.053,939.287 Z" stroke-width="0.35"/>
    <path d="M 140.432,880.706 L 140.432,876.326 L 161.235,876.326 L 161.235,880.706 L 140.432,880.706 Z" stroke-width="0.35"/>
    <path d="M 223.641,949.133 L 150.286,949.133 L 150.286,944.754 L 223.641,944.754 L 223.641,949.133 Z" stroke-width="0.35"/>
    <path d="M 136.053,939.287 L 140.433,939.287 L 140.433,918.486 L 136.053,918.486 L 136.053,939.287 Z" stroke-width="0.35"/>
    <path d="M 140.432,880.706 L 140.432,876.326 L 161.235,876.326 L 161.235,880.706 L 140.432,880.706 Z" stroke-width="0.35"/>
    <path d="M 223.641,949.133 L 150.286,949.133 L 150.286,944.754 L 223.641,944.754 L 223.641,949.133 Z" stroke-width="0.35"/>
    <path d="M 90.069,920.668 L 69.267,920.668 L 69.267,916.288 L 90.069,916.288 L 90.069,920.668 Z" stroke-width="0.35"/>
    <path d="M 136.053,939.287 L 140.433,939.287 L 140.433,918.486 L 136.053,918.486 L 136.053,939.287 Z" stroke-width="0.35"/>
    <path d="M 140.432,880.706 L 140.432,876.326 L 161.235,876.326 L 161.235,880.706 L 140.432,880.706 Z" stroke-width="0.35"/>
    <path d="M 223.641,949.133 L 150.286,949.133 L 150.286,944.754 L 223.641,944.754 L 223.641,949.133 Z" stroke-width="0.35"/>
    <path d="M 90.069,920.668 L 69.267,920.668 L 69.267,916.288 L 90.069,916.288 L 90.069,920.668 Z" stroke-width="0.35"/>
    <path d="M 119.631,921.763 L 119.631,917.383 L 140.432,917.383 L 140.432,921.763 L 119.631,921.763 Z" stroke-width="0.35"/>
    <path d="M 136.053,939.287 L 140.433,939.287 L 140.433,918.486 L 136.053,918.486 L 136.053,939.287 Z" stroke-width="0.35"/>
    <path d="M 140.432,880.706 L 140.432,876.326 L 161.235,876.326 L 161.235,880.706 L 140.432,880.706 Z" stroke-width="0.35"/>
    <path d="M 223.641,949.133 L 150.286,949.133 L 150.286,944.754 L 223.641,944.754 L 223.641,949.133 Z" stroke-width="0.35"/>
    <path d="M 90.069,920.668 L 69.267,920.668 L 69.267,916.288 L 90.069,916.288 L 90.069,920.668 Z" stroke-width="0.35"/>
    <path d="M 119.631,921.763 L 119.631,917.383 L 140.432,917.383 L 140.432,921.763 L 119.631,921.763 Z" stroke-width="0.35"/>
    <path d="M 225.830,847.313 L 140.432,847.313 L 140.432,842.934 L 225.830,842.934 L 225.830,847.313 Z" stroke-width="0.35"/>
    <path d="M 136.053,939.287 L 140.433,939.287 L 140.433,918.486 L 136.053,918.486 L 136.053,939.287 Z" stroke-width="0.35"/>
    <path d="M 140.432,880.706 L 140.432,876.326 L 161.235,876.326 L 161.235,880.706 L 140.432,880.706 Z" stroke-width="0.35"/>
    <path d="M 223.641,949.133 L 150.286,949.133 L 150.286,944.754 L 223.641,944.754 L 223.641,949.133 Z" stroke-width="0.35"/>
    <path d="M 90.069,920.668 L 69.267,920.668 L 69.267,916.288 L 90.069,916.288 L 90.069,920.668 Z" stroke-width="0.35"/>
    <path d="M 119.631,921.763 L 119.631,917.383 L 140.432,917.383 L 140.432,921.763 L 119.631,921.763 Z" stroke-width="0.35"/>
    <path d="M 225.830,847.313 L 140.432,847.313 L 140.432,842.934 L 225.830,842.934 L 225.830,847.313 Z" stroke-width="0.35"/>
    <path d="M 136.053,939.287 L 140.433,939.287 L 140.433,918.486 L 136.053,918.486 L 136.053,939.287 Z" stroke-width="0.35"/>
    <path d="M 140.432,880.706 L 140.432,876.326 L 161.235,876.326 L 161.235,880.706 L 140.432,880.706 Z" stroke-width="0.35"/>
    <path d="M 223.641,949.133 L 150.286,949.133 L 150.286,944.754 L 223.641,944.754 L 223.641,949.133 Z" stroke-width="0.35"/>
    <path d="M 90.069,920.668 L 69.267,920.668 L 69.267,916.288 L 90.069,916.288 L 90.069,920.668 Z" stroke-width="0.35"/>
    <path d="M 119.631,921.763 L 119.631,917.383 L 140.432,917.383 L 140.432,921.763 L 119.631,921.763 Z" stroke-width="0.35"/>
    <path d="M 225.830,847.313 L 140.432,847.313 L 140.432,842.934 L 225.830,842.934 L 225.830,847.313 Z" stroke-width="0.35"/>
    <path d="M 139.336,942.024 L 139.336,937.645 L 160.138,937.645 L 160.138,942.024 L 139.336,942.024 Z" stroke-width="0.35"/>
    <path d="M 136.053,939.287 L 140.433,939.287 L 140.433,918.486 L 136.053,918.486 L 136.053,939.287 Z" stroke-width="0.35"/>
    <path d="M 140.432,880.706 L 140.432,876.326 L 161.235,876.326 L 161.235,880.706 L 140.432,880.706 Z" stroke-width="0.35"/>
    <path d="M 223.641,949.133 L 150.286,949.133 L 150.286,944.754 L 223.641,944.754 L 223.641,949.133 Z" stroke-width="0.35"/>
    <path d="M 90.069,920.668 L 69.267,920.668 L 69.267,916.288 L 90.069,916.288 L 90.069,920.668 Z" stroke-width="0.35"/>
    <path d="M 119.631,921.763 L 119.631,917.383 L 140.432,917.383 L 140.432,921.763 L 119.631,921.763 Z" stroke-width="0.35"/>
    <path d="M 225.830,847.313 L 140.432,847.313 L 140.432,842.934 L 225.830,842.934 L 225.830,847.313 Z" stroke-width="0.35"/>
    <path d="M 139.336,942.024 L 139.336,937.645 L 160.138,937.645 L 160.138,942.024 L 139.336,942.024 Z" stroke-width="0.35"/>
    <path d="M 139.339,788.739 L 139.339,784.359 L 234.591,784.359 L 234.591,788.739 L 139.339,788.739 Z" stroke-width="0.35"/>
    <path d="M 136.053,939.287 L 140.433,939.287 L 140.433,918.486 L 136.053,918.486 L 136.053,939.287 Z" stroke-width="0.35"/>
    <path d="M 140.432,880.706 L 140.432,876.326 L 161.235,876.326 L 161.235,880.706 L 140.432,880.706 Z" stroke-width="0.35"/>
    <path d="M 223.641,949.133 L 150.286,949.133 L 150.286,944.754 L 223.641,944.754 L 223.641,949.133 Z" stroke-width="0.35"/>
    <path d="M 90.069,920.668 L 69.267,920.668 L 69.267,916.288 L 90.069,916.288 L 90.069,920.668 Z" stroke-width="0.35"/>
    <path d="M 119.631,921.763 L 119.631,917.383 L 140.432,917.383 L 140.432,921.763 L 119.631,921.763 Z" stroke-width="0.35"/>
    <path d="M 225.830,847.313 L 140.432,847.313 L 140.432,842.934 L 225.830,842.934 L 225.830,847.313 Z" stroke-width="0.35"/>
    <path d="M 139.336,942.024 L 139.336,937.645 L 160.138,937.645 L 160.138,942.024 L 139.336,942.024 Z" stroke-width="0.35"/>
    <path d="M 139.339,788.739 L 139.339,784.359 L 234.591,784.359 L 234.591,788.739 L 139.339,788.739 Z" stroke-width="0.35"/>
    <path d="M 136.053,939.287 L 140.433,939.287 L 140.433,918.486 L 136.053,918.486 L 136.053,939.287 Z" stroke-width="0.35"/>
    <path d="M 140.432,880.706 L 140.432,876.326 L 161.235,876.326 L 161.235,880.706 L 140.432,880.706 Z" stroke-width="0.35"/>
    <path d="M 223.641,949.133 L 150.286,949.133 L 150.286,944.754 L 223.641,944.754 L 223.641,949.133 Z" stroke-width="0.35"/>
    <path d="M 90.069,920.668 L 69.267,920.668 L 69.267,916.288 L 90.069,916.288 L 90.069,920.668 Z" stroke-width="0.35"/>
    <path d="M 119.631,921.763 L 119.631,917.383 L 140.432,917.383 L 140.432,921.763 L 119.631,921.763 Z" stroke-width="0.35"/>
    <path d="M 225.830,847.313 L 140.432,847.313 L 140.432,842.934 L 225.830,842.934 L 225.830,847.313 Z" stroke-width="0.35"/>
    <path d="M 139.336,942.024 L 139.336,937.645 L 160.138,937.645 L 160.138,942.024 L 139.336,942.024 Z" stroke-width="0.35"/>
    <path d="M 139.339,788.739 L 139.339,784.359 L 234.591,784.359 L 234.591,788.739 L 139.339,788.739 Z" stroke-width="0.35"/>
    <path d="M 151.381,865.378 L 172.183,865.378 L 172.183,869.757 L 151.381,869.757 L 151.381,865.378 Z" stroke-width="0.35"/>
    <path d="M 136.053,939.287 L 140.433,939.287 L 140.433,918.486 L 136.053,918.486 L 136.053,939.287 Z" stroke-width="0.35"/>
    <path d="M 140.432,880.706 L 140.432,876.326 L 161.235,876.326 L 161.235,880.706 L 140.432,880.706 Z" stroke-width="0.35"/>
    <path d="M 223.641,949.133 L 150.286,949.133 L 150.286,944.754 L 223.641,944.754 L 223.641,949.133 Z" stroke-width="0.35"/>
    <path d="M 90.069,920.668 L 69.267,920.668 L 69.267,916.288 L 90.069,916.288 L 90.069,920.668 Z" stroke-width="0.35"/>
    <path d="M 119.631,921.763 L 119.631,917.383 L 140.432,917.383 L 140.432,921.763 L 119.631,921.763 Z" stroke-width="0.35"/>
    <path d="M 225.830,847.313 L 140.432,847.313 L 140.432,842.934 L 225.830,842.934 L 225.830,847.313 Z" stroke-width="0.35"/>
    <path d="M 139.336,942.024 L 139.336,937.645 L 160.138,937.645 L 160.138,942.024 L 139.336,942.024 Z" stroke-width="0.35"/>
    <path d="M 139.339,788.739 L 139.339,784.359 L 234.591,784.359 L 234.591,788.739 L 139.339,788.739 Z" stroke-width="0.35"/>
    <path d="M 151.381,865.378 L 172.183,865.378 L 172.183,869.757 L 151.381,869.757 L 151.381,865.378 Z" stroke-width="0.35"/>
    <path d="M 140.432,926.142 L 236.232,926.142 L 236.232,921.762 L 140.432,921.762 L 140.432,926.142 Z" stroke-width="0.35"/>
    <path d="M 136.053,939.287 L 140.433,939.287 L 140.433,918.486 L 136.053,918.486 L 136.053,939.287 Z" stroke-width="0.35"/>
    <path d="M 140.432,880.706 L 140.432,876.326 L 161.235,876.326 L 161.235,880.706 L 140.432,880.706 Z" stroke-width="0.35"/>
    <path d="M 223.641,949.133 L 150.286,949.133 L 150.286,944.754 L 223.641,944.754 L 223.641,949.133 Z" stroke-width="0.35"/>
    <path d="M 90.069,920.668 L 69.267,920.668 L 69.267,916.288 L 90.069,916.288 L 90.069,920.668 Z" stroke-width="0.35"/>
    <path d="M 119.631,921.763 L 119.631,917.383 L 140.432,917.383 L 140.432,921.763 L 119.631,921.763 Z" stroke-width="0.35"/>
    <path d="M 225.830,847.313 L 140.432,847.313 L 140.432,842.934 L 225.830,842.934 L 225.830,847.313 Z" stroke-width="0.35"/>
    <path d="M 139.336,942.024 L 139.336,937.645 L 160.138,937.645 L 160.138,942.024 L 139.336,942.024 Z" stroke-width="0.35"/>
    <path d="M 139.339,788.739 L 139.339,784.359 L 234.591,784.359 L 234.591,788.739 L 139.339,788.739 Z" stroke-width="0.35"/>
    <path d="M 151.381,865.378 L 172.183,865.378 L 172.183,869.757 L 151.381,869.757 L 151.381,865.378 Z" stroke-width="0.35"/>
    <path d="M 140.432,926.142 L 236.232,926.142 L 236.232,921.762 L 140.432,921.762 L 140.432,926.142 Z" stroke-width="0.35"/>
    <path d="M 143.719,944.754 L 143.719,949.133 L 236.781,949.133 L 236.781,944.754 L 143.719,944.754 Z" stroke-width="0.35"/>
    <path d="M 136.053,939.287 L 140.433,939.287 L 140.433,918.486 L 136.053,918.486 L 136.053,939.287 Z" stroke-width="0.35"/>
    <path d="M 140.432,880.706 L 140.432,876.326 L 161.235,876.326 L 161.235,880.706 L 140.432,880.706 Z" stroke-width="0.35"/>
    <path d="M 223.641,949.133 L 150.286,949.133 L 150.286,944.754 L 223.641,944.754 L 223.641,949.133 Z" stroke-width="0.35"/>
    <path d="M 90.069,920.668 L 69.267,920.668 L 69.267,916.288 L 90.069,916.288 L 90.069,920.668 Z" stroke-width="0.35"/>
    <path d="M 119.631,921.763 L 119.631,917.383 L 140.432,917.383 L 140.432,921.763 L 119.631,921.763 Z" stroke-width="0.35"/>
    <path d="M 225.830,847.313 L 140.432,847.313 L 140.432,842.934 L 225.830,842.934 L 225.830,847.313 Z" stroke-width="0.35"/>
    <path d="M 139.336,942.024 L 139.336,937.645 L 160.138,937.645 L 160.138,942.024 L 139.336,942.024 Z" stroke-width="0.35"/>
    <path d="M 139.339,788.739 L 139.339,784.359 L 234.591,784.359 L 234.591,788.739 L 139.339,788.739 Z" stroke-width="0.35"/>
    <path d="M 151.381,865.378 L 172.183,865.378 L 172.183,869.757 L 151.381,869.757 L 151.381,865.378 Z" stroke-width="0.35"/>
    <path d="M 140.432,926.142 L 236.232,926.142 L 236.232,921.762 L 140.432,921.762 L 140.432,926.142 Z" stroke-width="0.35"/>
    <path d="M 143.719,944.754 L 143.719,949.133 L 236.781,949.133 L 236.781,944.754 L 143.719,944.754 Z" stroke-width="0.35"/>
    <path d="M 136.053,939.287 L 140.433,939.287 L 140.433,918.486 L 136.053,918.486 L 136.053,939.287 Z" stroke-width="0.35"/>
    <path d="M 140.432,880.706 L 140.432,876.326 L 161.235,876.326 L 161.235,880.706 L 140.432,880.706 Z" stroke-width="0.35"/>
    <path d="M 223.641,949.133 L 150.286,949.133 L 150.286,944.754 L 223.641,944.754 L 223.641,949.133 Z" stroke-width="0.35"/>
    <path d="M 90.069,920.668 L 69.267,920.668 L 69.267,916.288 L 90.069,916.288 L 90.069,920.668 Z" stroke-width="0.35"/>
    <path d="M 119.631,921.763 L 119.631,917.383 L 140.432,917.383 L 140.432,921.763 L 119.631,921.763 Z" stroke-width="0.35"/>
    <path d="M 225.830,847.313 L 140.432,847.313 L 140.432,842.934 L 225.830,842.934 L 225.830,847.313 Z" stroke-width="0.35"/>
    <path d="M 139.336,942.024 L 139.336,937.645 L 160.138,937.645 L 160.138,942.024 L 139.336,942.024 Z" stroke-width="0.35"/>
    <path d="M 139.339,788.739 L 139.339,784.359 L 234.591,784.359 L 234.591,788.739 L 139.339,788.739 Z" stroke-width="0.35"/>
    <path d="M 151.381,865.378 L 172.183,865.378 L 172.183,869.757 L 151.381,869.757 L 151.381,865.378 Z" stroke-width="0.35"/>
    <path d="M 140.432,926.142 L 236.232,926.142 L 236.232,921.762 L 140.432,921.762 L 140.432,926.142 Z" stroke-width="0.35"/>
    <path d="M 143.719,944.754 L 143.719,949.133 L 236.781,949.133 L 236.781,944.754 L 143.719,944.754 Z" stroke-width="0.35"/>
    <path d="M 232.399,927.244 L 140.432,927.244 L 140.432,922.865 L 232.399,922.865 L 232.399,927.244 Z" stroke-width="0.35"/>
    <path d="M 136.053,939.287 L 140.433,939.287 L 140.433,918.486 L 136.053,918.486 L 136.053,939.287 Z" stroke-width="0.35"/>
    <path d="M 140.432,880.706 L 140.432,876.326 L 161.235,876.326 L 161.235,880.706 L 140.432,880.706 Z" stroke-width="0.35"/>
    <path d="M 223.641,949.133 L 150.286,949.133 L 150.286,944.754 L 223.641,944.754 L 223.641,949.133 Z" stroke-width="0.35"/>
    <path d="M 90.069,920.668 L 69.267,920.668 L 69.267,916.288 L 90.069,916.288 L 90.069,920.668 Z" stroke-width="0.35"/>
    <path d="M 119.631,921.763 L 119.631,917.383 L 140.432,917.383 L 140.432,921.763 L 119.631,921.763 Z" stroke-width="0.35"/>
    <path d="M 225.830,847.313 L 140.432,847.313 L 140.432,842.934 L 225.830,842.934 L 225.830,847.313 Z" stroke-width="0.35"/>
    <path d="M 139.336,942.024 L 139.336,937.645 L 160.138,937.645 L 160.138,942.024 L 139.336,942.024 Z" stroke-width="0.35"/>
    <path d="M 139.339,788.739 L 139.339,784.359 L 234.591,784.359 L 234.591,788.739 L 139.339,788.739 Z" stroke-width="0.35"/>
    <path d="M 151.381,865.378 L 172.183,865.378 L 172.183,869.757 L 151.381,869.757 L 151.381,865.378 Z" stroke-width="0.35"/>
    <path d="M 140.432,926.142 L 236.232,926.142 L 236.232,921.762 L 140.432,921.762 L 140.432,926.142 Z" stroke-width="0.35"/>
    <path d="M 143.719,944.754 L 143.719,949.133 L 236.781,949.133 L 236.781,944.754 L 143.719,944.754 Z" stroke-width="0.35"/>
    <path d="M 232.399,927.244 L 140.432,927.244 L 140.432,922.865 L 232.399,922.865 L 232.399,927.244 Z" stroke-width="0.35"/>
    <path d="M 58.319,860.999 L 138.243,860.999 L 138.243,865.378 L 58.319,865.378 L 58.319,860.999 Z" stroke-width="0.35"/>
    <path d="M 136.053,939.287 L 140.433,939.287 L 140.433,918.486 L 136.053,918.486 L 136.053,939.287 Z" stroke-width="0.35"/>
    <path d="M 140.432,880.706 L 140.432,876.326 L 161.235,876.326 L 161.235,880.706 L 140.432,880.706 Z" stroke-width="0.35"/>
    <path d="M 223.641,949.133 L 150.286,949.133 L 150.286,944.754 L 223.641,944.754 L 223.641,949.133 Z" stroke-width="0.35"/>
    <path d="M 90.069,920.668 L 69.267,920.668 L 69.267,916.288 L 90.069,916.288 L 90.069,920.668 Z" stroke-width="0.35"/>
    <path d="M 119.631,921.763 L 119.631,917.383 L 140.432,917.383 L 140.432,921.763 L 119.631,921.763 Z" stroke-width="0.35"/>
    <path d="M 225.830,847.313 L 140.432,847.313 L 140.432,842.934 L 225.830,842.934 L 225.830,847.313 Z" stroke-width="0.35"/>
    <path d="M 139.336,942.024 L 139.336,937.645 L 160.138,937.645 L 160.138,942.024 L 139.336,942.024 Z" stroke-width="0.35"/>
    <path d="M 139.339,788.739 L 139.339,784.359 L 234.591,784.359 L 234.591,788.739 L 139.339,788.739 Z" stroke-width="0.35"/>
    <path d="M 151.381,865.378 L 172.183,865.378 L 172.183,869.757 L 151.381,869.757 L 151.381,865.378 Z" stroke-width="0.35"/>
    <path d="M 140.432,926.142 L 236.232,926.142 L 236.232,921.762 L 140.432,921.762 L 140.432,926.142 Z" stroke-width="0.35"/>
    <path d="M 143.719,944.754 L 143.719,949.133 L 236.781,949.133 L 236.781,944.754 L 143.719,944.754 Z" stroke-width="0.35"/>
    <path d="M 232.399,927.244 L 140.432,927.244 L 140.432,922.865 L 232.399,922.865 L 232.399,927.244 Z" stroke-width="0.35"/>
    <path d="M 58.319,860.999 L 138.243,860.999 L 138.243,865.378 L 58.319,865.378 L 58.319,860.999 Z" stroke-width="0.35"/>
    <path d="M 136.053,939.287 L 140.433,939.287 L 140.433,918.486 L 136.053,918.486 L 136.053,939.287 Z" stroke-width="0.35"/>
    <path d="M 140.432,880.706 L 140.432,876.326 L 161.235,876.326 L 161.235,880.706 L 140.432,880.706 Z" stroke-width="0.35"/>
    <path d="M 223.641,949.133 L 150.286,949.133 L 150.286,944.754 L 223.641,944.754 L 223.641,949.133 Z" stroke-width="0.35"/>
    <path d="M 90.069,920.668 L 69.267,920.668 L 69.267,916.288 L 90.069,916.288 L 90.069,920.668 Z" stroke-width="0.35"/>
    <path d="M 119.631,921.763 L 119.631,917.383 L 140.432,917.383 L 140.432,921.763 L 119.631,921.763 Z" stroke-width="0.35"/>
    <path d="M 225.830,847.313 L 140.432,847.313 L 140.432,842.934 L 225.830,842.934 L 225.830,847.313 Z" stroke-width="0.35"/>
    <path d="M 139.336,942.024 L 139.336,937.645 L 160.138,937.645 L 160.138,942.024 L 139.336,942.024 Z" stroke-width="0.35"/>
    <path d="M 139.339,788.739 L 139.339,784.359 L 234.591,784.359 L 234.591,788.739 L 139.339,788.739 Z" stroke-width="0.35"/>
    <path d="M 151.381,865.378 L 172.183,865.378 L 172.183,869.757 L 151.381,869.757 L 151.381,865.378 Z" stroke-width="0.35"/>
    <path d="M 140.432,926.142 L 236.232,926.142 L 236.232,921.762 L 140.432,921.762 L 140.432,926.142 Z" stroke-width="0.35"/>
    <path d="M 143.719,944.754 L 143.719,949.133 L 236.781,949.133 L 236.781,944.754 L 143.719,944.754 Z" stroke-width="0.35"/>
    <path d="M 232.399,927.244 L 140.432,927.244 L 140.432,922.865 L 232.399,922.865 L 232.399,927.244 Z" stroke-width="0.35"/>
    <path d="M 58.319,860.999 L 138.243,860.999 L 138.243,865.378 L 58.319,865.378 L 58.319,860.999 Z" stroke-width="0.35"/>
    <path d="M 148.096,871.954 L 203.934,871.954 L 203.934,867.575 L 148.096,867.575 L 148.096,871.954 Z" stroke-width="0.35"/>
    <path d="M 136.053,939.287 L 140.433,939.287 L 140.433,918.486 L 136.053,918.486 L 136.053,939.287 Z" stroke-width="0.35"/>
    <path d="M 140.432,880.706 L 140.432,876.326 L 161.235,876.326 L 161.235,880.706 L 140.432,880.706 Z" stroke-width="0.35"/>
    <path d="M 223.641,949.133 L 150.286,949.133 L 150.286,944.754 L 223.641,944.754 L 223.641,949.133 Z" stroke-width="0.35"/>
    <path d="M 90.069,920.668 L 69.267,920.668 L 69.267,916.288 L 90.069,916.288 L 90.069,920.668 Z" stroke-width="0.35"/>
    <path d="M 119.631,921.763 L 119.631,917.383 L 140.432,917.383 L 140.432,921.763 L 119.631,921.763 Z" stroke-width="0.35"/>
    <path d="M 225.830,847.313 L 140.432,847.313 L 140.432,842.934 L 225.830,842.934 L 225.830,847.313 Z" stroke-width="0.35"/>
    <path d="M 139.336,942.024 L 139.336,937.645 L 160.138,937.645 L 160.138,942.024 L 139.336,942.024 Z" stroke-width="0.35"/>
    <path d="M 139.339,788.739 L 139.339,784.359 L 234.591,784.359 L 234.591,788.739 L 139.339,788.739 Z" stroke-width="0.35"/>
    <path d="M 151.381,865.378 L 172.183,865.378 L 172.183,869.757 L 151.381,869.757 L 151.381,865.378 Z" stroke-width="0.35"/>
    <path d="M 140.432,926.142 L 236.232,926.142 L 236.232,921.762 L 140.432,921.762 L 140.432,926.142 Z" stroke-width="0.35"/>
    <path d="M 143.719,944.754 L 143.719,949.133 L 236.781,949.133 L 236.781,944.754 L 143.719,944.754 Z" stroke-width="0.35"/>
    <path d="M 232.399,927.244 L 140.432,927.244 L 140.432,922.865 L 232.399,922.865 L 232.399,927.244 Z" stroke-width="0.35"/>
    <path d="M 58.319,860.999 L 138.243,860.999 L 138.243,865.378 L 58.319,865.378 L 58.319,860.999 Z" stroke-width="0.35"/>
    <path d="M 148.096,871.954 L 203.934,871.954 L 203.934,867.575 L 148.096,867.575 L 148.096,871.954 Z" stroke-width="0.35"/>
    <path d="M 136.053,939.287 L 140.433,939.287 L 140.433,918.486 L 136.053,918.486 L 136.053,939.287 Z" stroke-width="0.35"/>
    <path d="M 140.432,880.706 L 140.432,876.326 L 161.235,876.326 L 161.235,880.706 L 140.432,880.706 Z" stroke-width="0.35"/>
    <path d="M 223.641,949.133 L 150.286,949.133 L 150.286,944.754 L 223.641,944.754 L 223.641,949.133 Z" stroke-width="0.35"/>
    <path d="M 90.069,920.668 L 69.267,920.668 L 69.267,916.288 L 90.069,916.288 L 90.069,920.668 Z" stroke-width="0.35"/>
    <path d="M 119.631,921.763 L 119.631,917.383 L 140.432,917.383 L 140.432,921.763 L 119.631,921.763 Z" stroke-width="0.35"/>
    <path d="M 225.830,847.313 L 140.432,847.313 L 140.432,842.934 L 225.830,842.934 L 225.830,847.313 Z" stroke-width="0.35"/>
    <path d="M 139.336,942.024 L 139.336,937.645 L 160.138,937.645 L 160.138,942.024 L 139.336,942.024 Z" stroke-width="0.35"/>
    <path d="M 139.339,788.739 L 139.339,784.359 L 234.591,784.359 L 234.591,788.739 L 139.339,788.739 Z" stroke-width="0.35"/>
    <path d="M 151.381,865.378 L 172.183,865.378 L 172.183,869.757 L 151.381,869.757 L 151.381,865.378 Z" stroke-width="0.35"/>
    <path d="M 140.432,926.142 L 236.232,926.142 L 236.232,921.762 L 140.432,921.762 L 140.432,926.142 Z" stroke-width="0.35"/>
    <path d="M 143.719,944.754 L 143.719,949.133 L 236.781,949.133 L 236.781,944.754 L 143.719,944.754 Z" stroke-width="0.35"/>
    <path d="M 232.399,927.244 L 140.432,927.244 L 140.432,922.865 L 232.399,922.865 L 232.399,927.244 Z" stroke-width="0.35"/>
    <path d="M 58.319,860.999 L 138.243,860.999 L 138.243,865.378 L 58.319,865.378 L 58.319,860.999 Z" stroke-width="0.35"/>
    <path d="M 148.096,871.954 L 203.934,871.954 L 203.934,867.575 L 148.096,867.575 L 148.096,871.954 Z" stroke-width="0.35"/>
    <path d="M 136.053,939.287 L 140.433,939.287 L 140.433,918.486 L 136.053,918.486 L 136.053,939.287 Z" stroke-width="0.35"/>
    <path d="M 140.432,880.706 L 140.432,876.326 L 161.235,876.326 L 161.235,880.706 L 140.432,880.706 Z" stroke-width="0.35"/>
    <path d="M 223.641,949.133 L 150.286,949.133 L 150.286,944.754 L 223.641,944.754 L 223.641,949.133 Z" stroke-width="0.35"/>
    <path d="M 90.069,920.668 L 69.267,920.668 L 69.267,916.288 L 90.069,916.288 L 90.069,920.668 Z" stroke-width="0.35"/>
    <path d="M 119.631,921.763 L 119.631,917.383 L 140.432,917.383 L 140.432,921.763 L 119.631,921.763 Z" stroke-width="0.35"/>
    <path d="M 225.830,847.313 L 140.432,847.313 L 140.432,842.934 L 225.830,842.934 L 225.830,847.313 Z" stroke-width="0.35"/>
    <path d="M 139.336,942.024 L 139.336,937.645 L 160.138,937.645 L 160.138,942.024 L 139.336,942.024 Z" stroke-width="0.35"/>
    <path d="M 139.339,788.739 L 139.339,784.359 L 234.591,784.359 L 234.591,788.739 L 139.339,788.739 Z" stroke-width="0.35"/>
    <path d="M 151.381,865.378 L 172.183,865.378 L 172.183,869.757 L 151.381,869.757 L 151.381,865.378 Z" stroke-width="0.35"/>
    <path d="M 140.432,926.142 L 236.232,926.142 L 236.232,921.762 L 140.432,921.762 L 140.432,926.142 Z" stroke-width="0.35"/>
    <path d="M 143.719,944.754 L 143.719,949.133 L 236.781,949.133 L 236.781,944.754 L 143.719,944.754 Z" stroke-width="0.35"/>
    <path d="M 232.399,927.244 L 140.432,927.244 L 140.432,922.865 L 232.399,922.865 L 232.399,927.244 Z" stroke-width="0.35"/>
    <path d="M 58.319,860.999 L 138.243,860.999 L 138.243,865.378 L 58.319,865.378 L 58.319,860.999 Z" stroke-width="0.35"/>
    <path d="M 148.096,871.954 L 203.934,871.954 L 203.934,867.575 L 148.096,867.575 L 148.096,871.954 Z" stroke-width="0.35"/>
    <path d="M 158.497,924.499 L 158.497,899.318 L 161.235,899.318 L 161.235,924.499 L 158.497,924.499 Z" stroke-width="0.35"/>
    <path d="M 136.053,939.287 L 140.433,939.287 L 140.433,918.486 L 136.053,918.486 L 136.053,939.287 Z" stroke-width="0.35"/>
    <path d="M 140.432,880.706 L 140.432,876.326 L 161.235,876.326 L 161.235,880.706 L 140.432,880.706 Z" stroke-width="0.35"/>
    <path d="M 223.641,949.133 L 150.286,949.133 L 150.286,944.754 L 223.641,944.754 L 223.641,949.133 Z" stroke-width="0.35"/>
    <path d="M 90.069,920.668 L 69.267,920.668 L 69.267,916.288 L 90.069,916.288 L 90.069,920.668 Z" stroke-width="0.35"/>
    <path d="M 119.631,921.763 L 119.631,917.383 L 140.432,917.383 L 140.432,921.763 L 119.631,921.763 Z" stroke-width="0.35"/>
    <path d="M 225.830,847.313 L 140.432,847.313 L 140.432,842.934 L 225.830,842.934 L 225.830,847.313 Z" stroke-width="0.35"/>
    <path d="M 139.336,942.024 L 139.336,937.645 L 160.138,937.645 L 160.138,942.024 L 139.336,942.024 Z" stroke-width="0.35"/>
    <path d="M 139.339,788.739 L 139.339,784.359 L 234.591,784.359 L 234.591,788.739 L 139.339,788.739 Z" stroke-width="0.35"/>
    <path d="M 151.381,865.378 L 172.183,865.378 L 172.183,869.757 L 151.381,869.757 L 151.381,865.378 Z" stroke-width="0.35"/>
    <path d="M 140.432,926.142 L 236.232,926.142 L 236.232,921.762 L 140.432,921.762 L 140.432,926.142 Z" stroke-width="0.35"/>
    <path d="M 143.719,944.754 L 143.719,949.133 L 236.781,949.133 L 236.781,944.754 L 143.719,944.754 Z" stroke-width="0.35"/>
    <path d="M 232.399,927.244 L 140.432,927.244 L 140.432,922.865 L 232.399,922.865 L 232.399,927.244 Z" stroke-width="0.35"/>
    <path d="M 58.319,860.999 L 138.243,860.999 L 138.243,865.378 L 58.319,865.378 L 58.319,860.999 Z" stroke-width="0.35"/>
    <path d="M 148.096,871.954 L 203.934,871.954 L 203.934,867.575 L 148.096,867.575 L 148.096,871.954 Z" stroke-width="0.35"/>
    <path d="M 158.497,924.499 L 158.497,899.318 L 161.235,899.318 L 161.235,924.499 L 158.497,924.499 Z" stroke-width="0.35"/>
    <path d="M 139.174,841.291 L 139.174,820.489 L 143.553,820.489 L 143.553,841.291 L 139.174,841.291 Z" stroke-width="0.35"/>
    <path d="M 138.243,905.854 L 138.243,905.044 L 138.243,765.331 L 138.243,764.521" stroke-width="0.6"/>
    <path d="M 102.711,906.730 L 138.545,906.730 L 139.355,906.730" stroke-width="0.35"/>
    <path d="M 101.599,905.077 L 137.400,905.077 L 137.433,905.077" stroke-width="0.35"/>
    <path d="M 139.114,906.730 L 139.081,906.730 L 103.280,906.730" stroke-width="0.35"/>
    <path d="M 174.887,905.077 L 174.077,905.077 L 138.243,905.077" stroke-width="0.35"/>
    <path d="M 420.950,865.050 L 602.171,865.050 L 602.171,853.006 L 420.950,853.006 L 420.950,865.050 Z" stroke-width="0.6"/>
    <path d="M 573.725,904.978 L 602.437,904.978 L 602.437,893.844 L 573.725,893.844 L 573.725,904.978 Z" stroke-width="0.35"/>
    <path d="M 589.593,762.154 L 618.059,762.154 L 618.059,750.940 L 589.593,750.940 L 589.593,762.154 Z" stroke-width="0.35"/>
    <path d="M 197.365,905.841 L 270.610,905.841 L 270.610,894.673 L 197.365,894.673 L 197.365,905.841 Z" stroke-width="0.35"/>
    <path d="M 72.880,856.560 L 128.958,856.560 L 128.958,905.883 L 72.880,905.883 L 72.880,856.560 Z" stroke-width="0.35"/>
    <path d="M 373.826,901.372 L 404.482,901.372 L 404.482,960.494 L 373.826,960.494 L 373.826,901.372 Z" stroke-width="0.35"/>
    <path d="M 410.104,906.380 L 440.267,906.380 L 440.267,849.804 L 410.104,849.804 L 410.104,906.380 Z" stroke-width="0.35"/>
    <path d="M 577.029,913.496 L 789.467,913.496 L 789.467,902.361 L 577.029,902.361 L 577.029,913.496 Z" stroke-width="0.6"/>
    <path d="M 138.243,860.451 L 138.243,856.619 L 143.279,856.619 L 143.279,835.201 L 164.793,835.201 L 164.793,834.448 L 164.793,859.217 L 143.717,859.217 L 143.717,860.451 L 138.243,860.451 Z" stroke-width="0.25"/>
    <path d="M 116.839,851.693 L 139.666,851.693 L 139.666,862.093 L 134.192,862.093 L 134.192,866.036 L 125.379,866.036 L 125.379,862.093 L 123.025,862.093 L 123.025,857.715 L 116.839,857.715 L 116.839,851.693 Z" stroke-width="0.25"/>
    <path d="M 825.888,975.136 L 899.380,975.131 L 899.380,963.996 L 825.888,963.996 L 825.888,975.136 Z" stroke-width="0.35"/>
    <path d="M 138.243,905.920 L 422.443,905.920 L 422.443,905.044 L 138.243,905.044 L 138.243,905.920 Z" stroke-width="0.6"/>
    <path d="M 134.630,905.011 L 134.630,905.044 L 134.630,905.854 L 134.630,905.887 L 120.835,905.887" stroke-width="0.35"/>
    <path d="M 144.976,905.887 L 268.694,905.887 L 268.694,905.011 L 144.976,905.011" stroke-width="0.6"/>
    <path d="M 134.630,905.887 L 120.835,905.887 L 120.835,906.763" stroke-width="0.35"/>
    <path d="M 138.243,905.011 L 5.000,905.011 L 5.000,905.887" stroke-width="0.6"/>
    <path d="M 199.464,905.855 L 199.464,905.887 L 313.093,905.887" stroke-width="0.6"/>
    <path d="M 114.044,905.887 L 67.469,905.887 L 67.469,906.763 L 114.044,906.763" stroke-width="0.35"/>
    <path d="M 138.243,905.887 L 151.929,905.887 L 265.558,905.887 L 265.558,905.011" stroke-width="0.6"/>
    <path d="M 124.557,905.887 L 33.959,905.887 L 33.959,906.763 L 124.557,906.763" stroke-width="0.35"/>
    <path d="M 138.243,905.855 L 109.777,905.855 L 109.777,906.731 L 138.243,906.731" stroke-width="0.35"/>
    <path d="M 139.009,905.887 L 139.009,864.283 L 138.243,864.283" stroke-width="0.35"/>
    <path d="M 139.010,905.887 L 139.010,887.932 L 138.243,887.932 L 138.243,888.972" stroke-width="0.35"/>
    <path d="M 138.243,906.654 L 138.243,922.802 L 139.010,922.802" stroke-width="0.35"/>
    <path d="M 138.243,865.925 L 138.243,905.887 L 139.283,905.887 L 139.283,865.925 L 138.243,865.925 Z" stroke-width="0.35"/>
    <path d="M 138.243,865.925 L 138.243,905.887 L 139.283,905.887 L 139.283,865.925 L 138.243,865.925 Z" stroke-width="0.35"/>
    <path d="M 138.243,905.887 L 164.519,905.887 L 164.519,904.847 L 138.243,904.847 L 138.243,905.887 Z" stroke-width="0.35"/>
    <path d="M 138.243,905.887 L 160.140,905.887 L 160.140,904.847 L 138.243,904.847 L 138.243,905.887 Z" stroke-width="0.35"/>
    <path d="M 138.243,905.887 L 161.235,905.887 L 161.235,904.847 L 138.243,904.847 L 138.243,905.887 Z" stroke-width="0.35"/>
    <path d="M 138.243,905.887 L 161.235,905.887 L 161.235,904.847 L 138.243,904.847 L 138.243,905.887 Z" stroke-width="0.35"/>
    <path d="M 138.243,905.887 L 161.235,905.887 L 161.235,904.847 L 138.243,904.847 L 138.243,905.887 Z" stroke-width="0.35"/>
    <path d="M 138.243,905.887 L 161.235,905.887 L 161.235,904.847 L 138.243,904.847 L 138.243,905.887 Z" stroke-width="0.35"/>
    <path d="M 138.243,905.887 L 161.235,905.887 L 161.235,904.847 L 138.243,904.847 L 138.243,905.887 Z" stroke-width="0.35"/>
    <path d="M 138.243,905.887 L 161.235,905.887 L 161.235,904.847 L 138.243,904.847 L 138.243,905.887 Z" stroke-width="0.35"/>
    <path d="M 138.243,905.887 L 166.709,905.887 L 166.709,904.847 L 138.243,904.847 L 138.243,905.887 Z" stroke-width="0.35"/>
    <path d="M 138.243,905.887 L 182.037,905.887 L 182.037,904.847 L 138.243,904.847 L 138.243,905.887 Z" stroke-width="0.35"/>
    <path d="M 138.243,905.887 L 164.519,905.887 L 164.519,904.847 L 138.243,904.847 L 138.243,905.887 Z" stroke-width="0.35"/>
    <path d="M 138.243,905.887 L 160.140,905.887 L 160.140,904.847 L 138.243,904.847 L 138.243,905.887 Z" stroke-width="0.35"/>
    <path d="M 138.243,905.887 L 161.235,905.887 L 161.235,904.847 L 138.243,904.847 L 138.243,905.887 Z" stroke-width="0.35"/>
    <path d="M 138.243,905.887 L 161.234,905.887 L 161.234,904.847 L 138.243,904.847 L 138.243,905.887 Z" stroke-width="0.35"/>
    <path d="M 138.243,905.887 L 161.235,905.887 L 161.235,904.847 L 138.243,904.847 L 138.243,905.887 Z" stroke-width="0.35"/>
    <path d="M 138.243,905.887 L 161.235,905.887 L 161.235,904.847 L 138.243,904.847 L 138.243,905.887 Z" stroke-width="0.35"/>
    <path d="M 138.243,905.887 L 161.235,905.887 L 161.235,904.847 L 138.243,904.847 L 138.243,905.887 Z" stroke-width="0.35"/>
    <path d="M 138.243,905.887 L 161.235,905.887 L 161.235,904.847 L 138.243,904.847 L 138.243,905.887 Z" stroke-width="0.35"/>
    <path d="M 138.243,905.887 L 166.709,905.887 L 166.709,904.847 L 138.243,904.847 L 138.243,905.887 Z" stroke-width="0.35"/>
    <path d="M 138.243,859.302 L 138.243,905.887 L 139.283,905.887 L 139.283,859.302" stroke-width="0.35"/>
    <path d="M 169.446,905.887 L 138.243,905.887 L 138.243,908.624 L 169.446,908.624 L 169.446,905.887 Z" stroke-width="0.35"/>
    <path d="M 138.243,934.627 L 138.243,905.887 L 135.506,905.887 L 135.506,934.627 L 138.243,934.627 Z" stroke-width="0.35"/>
    <path d="M 169.446,905.887 L 138.243,905.887 L 138.243,908.624 L 169.446,908.624 L 169.446,905.887 Z" stroke-width="0.35"/>
    <path d="M 187.909,905.887 L 135.767,905.887 L 135.767,908.624" stroke-width="0.35"/>
    <path d="M 139.193,905.887 L 122.332,905.886 L 122.332,906.926 L 139.193,906.927 L 139.193,905.887 Z" stroke-width="0.35"/>
    <path d="M 138.262,925.704 L 138.263,905.887 L 137.224,905.887 L 137.222,925.704 L 138.262,925.704 Z" stroke-width="0.35"/>
    <path d="M 137.203,905.887 L 137.201,924.663 L 138.241,924.663" stroke-width="0.35"/>
    <path d="M 124.611,906.071 L 139.283,906.071 L 139.283,905.031" stroke-width="0.35"/>
    <path d="M 137.203,905.887 L 123.571,905.887 L 123.571,906.927" stroke-width="0.35"/>
    <path d="M 117.724,906.927 L 138.691,906.927 L 138.691,905.887 L 117.724,905.887 L 117.724,906.927 Z" stroke-width="0.35"/>
    <path d="M 138.455,905.887 L 124.822,905.887 L 124.822,906.927 L 138.455,906.927" stroke-width="0.35"/>
    <path d="M 137.351,905.887 L 137.351,927.620 L 138.392,927.620 L 138.392,905.887 L 137.351,905.887 Z" stroke-width="0.35"/>
    <path d="M 138.002,905.887 L 138.002,945.630 L 138.768,945.630 L 138.768,905.887 L 138.002,905.887 Z" stroke-width="0.35"/>
    <path d="M 139.283,904.847 L 124.611,904.847 L 124.611,905.887" stroke-width="0.35"/>
    <path d="M 137.203,905.887 L 137.203,926.416 L 138.243,926.416" stroke-width="0.35"/>
    <path d="M 138.846,925.704 L 138.848,905.887 L 137.808,905.887 L 137.806,925.704 L 138.846,925.704 Z" stroke-width="0.35"/>
    <path d="M 138.441,924.664 L 138.441,905.887 L 137.401,905.887 L 137.401,924.664" stroke-width="0.35"/>
    <path d="M 138.298,925.704 L 138.298,905.887 L 137.259,905.887 L 137.259,925.704 L 138.298,925.704 Z" stroke-width="0.35"/>
    <path d="M 117.021,906.927 L 138.535,906.927 L 138.535,905.887 L 117.021,905.887 L 117.021,906.927 Z" stroke-width="0.35"/>
    <path d="M 138.599,921.160 L 138.599,905.887 L 137.559,905.887 L 137.559,921.160 L 138.599,921.160 Z" stroke-width="0.35"/>
    <path d="M 139.283,905.887 L 139.283,887.111 L 138.243,887.111" stroke-width="0.35"/>
    <path d="M 138.243,906.927 L 154.063,906.929 L 154.063,905.888" stroke-width="0.35"/>
    <path d="M 121.644,906.927 L 138.504,906.927 L 138.504,905.887" stroke-width="0.35"/>
    <path d="M 138.464,925.704 L 138.466,905.887 L 137.426,905.887 L 137.424,925.704 L 138.464,925.704 Z" stroke-width="0.35"/>
    <path d="M 94.805,906.654 L 138.380,906.654 L 138.380,905.887 L 94.805,905.887 L 94.805,906.654 Z" stroke-width="0.35"/>
    <path d="M 138.783,925.704 L 138.783,905.887 L 137.743,905.887 L 137.743,925.704 L 138.783,925.704 Z" stroke-width="0.35"/>
    <path d="M 137.203,905.887 L 137.203,906.927 L 151.874,906.927" stroke-width="0.35"/>
    <path d="M 100.797,906.654 L 138.350,906.654 L 138.350,905.887 L 100.797,905.887 L 100.797,906.654 Z" stroke-width="0.35"/>
    <path d="M 138.242,906.927 L 138.241,925.704 L 139.281,925.704" stroke-width="0.35"/>
    <path d="M 139.169,924.007 L 139.169,905.887 L 138.129,905.887 L 138.129,924.007 L 139.169,924.007 Z" stroke-width="0.35"/>
    <path d="M 138.243,904.847 L 138.243,884.319 L 137.203,884.319" stroke-width="0.35"/>
    <path d="M 138.646,925.704 L 138.648,905.887 L 137.608,905.887 L 137.606,925.704 L 138.646,925.704 Z" stroke-width="0.35"/>
    <path d="M 137.796,905.887 L 137.796,921.161 L 138.837,921.161 L 138.837,905.887 L 137.796,905.887 Z" stroke-width="0.35"/>
    <path d="M 138.528,905.888 L 121.667,905.886 L 121.667,906.926 L 138.528,906.927 L 138.528,905.888 Z" stroke-width="0.35"/>
    <path d="M 138.012,905.887 L 138.012,926.033 L 139.052,926.033 L 139.052,905.887 L 138.012,905.887 Z" stroke-width="0.35"/>
    <path d="M 122.478,906.927 L 138.298,906.927 L 138.298,905.887 L 122.478,905.887" stroke-width="0.35"/>
    <path d="M 137.946,905.887 L 122.126,905.886 L 122.126,906.926 L 137.946,906.927" stroke-width="0.35"/>
    <path d="M 139.129,925.704 L 139.130,905.887 L 138.090,905.887 L 138.088,925.704 L 139.129,925.704 Z" stroke-width="0.35"/>
    <path d="M 137.484,905.887 L 137.484,947.272 L 138.250,947.272 L 138.250,905.887 L 137.484,905.887 Z" stroke-width="0.35"/>
    <path d="M 138.205,905.887 L 138.205,925.704 L 139.245,925.704 L 139.245,905.887 L 138.205,905.887 Z" stroke-width="0.35"/>
    <path d="M 138.499,925.102 L 138.499,905.887 L 137.459,905.887 L 137.459,925.102 L 138.499,925.102 Z" stroke-width="0.35"/>
    <path d="M 139.189,925.704 L 139.190,905.887 L 138.150,905.887 L 138.148,925.704 L 139.189,925.704 Z" stroke-width="0.35"/>
    <path d="M 94.852,906.654 L 138.427,906.654 L 138.427,905.887 L 94.852,905.887 L 94.852,906.654 Z" stroke-width="0.35"/>
    <path d="M 138.581,905.887 L 137.541,905.887 L 137.541,925.704 L 138.581,925.704 L 138.581,906.927" stroke-width="0.35"/>
    <path d="M 106.766,906.511 L 138.243,906.511 L 138.243,905.855 L 106.766,905.855 L 106.766,906.511 Z" stroke-width="0.35"/>
    <path d="M 132.768,905.887 L 118.295,905.887 L 118.295,906.544 L 132.768,906.544" stroke-width="0.35"/>
    <path d="M 138.243,905.887 L 143.717,905.887 L 157.490,905.887 L 157.490,905.230" stroke-width="0.35"/>
    <path d="M 138.243,905.920 L 169.720,905.920 L 169.720,905.263 L 138.243,905.263 L 138.243,905.920 Z" stroke-width="0.35"/>
    <path d="M 137.400,765.605 L 137.400,814.705 L 138.210,814.705 L 138.210,765.605" stroke-width="0.35"/>
    <path d="M 138.243,966.022 L 138.243,916.908 L 137.432,916.908 L 137.432,966.022" stroke-width="0.35"/>
    <path d="M 138.243,905.340 L 138.243,856.240 L 137.367,856.240 L 137.367,905.340" stroke-width="0.35"/>
    <path d="M 138.243,906.435 L 138.243,955.549 L 139.119,955.549" stroke-width="0.35"/>
    <path d="M 139.338,905.887 L 139.338,921.653 L 139.557,921.653 L 139.557,905.887 L 139.338,905.887 Z" stroke-width="0.35"/>
    <path d="M 155.761,906.215 L 138.243,921.981 L 155.761,921.981 L 155.761,906.215 L 138.243,906.215 L 155.761,921.981" stroke-width="0.25"/>
    <path d="M 161.235,905.887 L 138.243,905.887 L 138.243,908.624 L 161.235,908.624 L 161.235,905.887 Z" stroke-width="0.35"/>
    <path d="M 131.508,916.096 L 146.124,916.098 L 146.125,910.295" stroke-width="0.35"/>
    <path d="M 138.243,906.763 L 137.476,906.763 L 137.476,867.020 L 138.243,867.020 L 138.243,906.763 Z" stroke-width="0.35"/>
    <path d="M 161.235,905.887 L 138.243,905.887 L 138.243,908.624 L 161.235,908.624 L 161.235,905.887 Z" stroke-width="0.35"/>
    <path d="M 143.825,889.081 L 130.360,889.081 L 130.360,900.550" stroke-width="0.35"/>
    <path d="M 138.243,906.763 L 137.476,906.763 L 137.476,867.020 L 138.243,867.020 L 138.243,906.763 Z" stroke-width="0.35"/>
    <path d="M 144.977,895.679 L 130.361,895.677 L 130.361,901.480" stroke-width="0.35"/>
    <path d="M 144.977,900.086 L 130.361,900.084 L 130.359,910.293" stroke-width="0.35"/>
    <path d="M 134.548,921.133 L 146.126,921.133 L 146.126,906.052" stroke-width="0.35"/>
    <path d="M 138.243,867.020 L 137.476,867.020 L 137.476,906.763 L 138.243,906.763 L 138.243,867.020 Z" stroke-width="0.35"/>
    <path d="M 131.509,919.217 L 146.126,919.217 L 146.126,905.723" stroke-width="0.35"/>
    <path d="M 143.827,892.393 L 130.360,892.393 L 130.360,905.723" stroke-width="0.35"/>
    <path d="M 131.509,911.689 L 146.125,911.691 L 146.126,901.481" stroke-width="0.35"/>
    <path d="M 138.243,906.350 L 137.476,906.350 L 137.476,889.161 L 138.243,889.161 L 138.243,906.350 Z" stroke-width="0.35"/>
    <path d="M 134.548,924.445 L 146.126,924.445 L 146.126,911.225" stroke-width="0.35"/>
    <path d="M 138.243,867.020 L 137.476,867.020 L 137.476,906.763 L 138.243,906.763 L 138.243,867.020 Z" stroke-width="0.35"/>
    <path d="M 161.235,905.887 L 138.243,905.887 L 138.243,908.624 L 161.235,908.624 L 161.235,905.887 Z" stroke-width="0.35"/>
    <path d="M 146.126,900.002 L 146.126,886.782 L 134.548,886.782" stroke-width="0.35"/>
    <path d="M 161.235,905.887 L 138.243,905.887 L 138.243,908.624 L 161.235,908.624 L 161.235,905.887 Z" stroke-width="0.35"/>
    <path d="M 146.126,905.176 L 146.126,890.094 L 134.548,890.094" stroke-width="0.35"/>
    <path d="M 131.509,917.356 L 146.126,917.356 L 146.126,900.550" stroke-width="0.35"/>
    <path d="M 138.243,925.266 L 137.444,925.266 L 137.444,905.887 L 138.243,905.887" stroke-width="0.35"/>
    <path d="M 138.243,865.007 L 137.476,865.007 L 137.476,906.392 L 138.243,906.392 L 138.243,865.007 Z" stroke-width="0.35"/>
    <path d="M 96.667,905.903 L 138.243,905.903 L 138.365,905.903" stroke-width="0.35"/>
    <path d="M 138.227,883.552 L 138.227,905.887 L 138.227,906.009" stroke-width="0.35"/>
    <path d="M 138.227,871.030 L 138.227,905.887 L 138.227,906.009" stroke-width="0.35"/>
    <path d="M 138.243,905.887 L 186.142,905.887 L 138.243,905.887 Z" stroke-width="0.35"/>
    <path d="M 138.243,905.887 L 77.885,905.885 L 138.243,905.887 Z" stroke-width="0.35"/>
    <path d="M 138.243,848.298 L 137.695,848.298 L 137.695,905.887 L 138.243,905.887" stroke-width="0.35"/>
    <path d="M 138.243,848.079 L 137.859,848.079 L 137.859,905.887 L 138.243,905.887" stroke-width="0.35"/>
    <path d="M 138.243,848.079 L 137.860,848.079 L 137.860,905.887 L 138.243,905.887" stroke-width="0.35"/>
    <path d="M 138.243,848.079 L 137.859,848.079 L 137.859,905.887 L 138.243,905.887" stroke-width="0.35"/>
    <path d="M 138.243,848.079 L 137.859,848.079 L 137.859,905.887 L 138.243,905.887" stroke-width="0.35"/>
    <path d="M 138.243,848.079 L 137.860,848.079 L 137.860,905.887 L 138.243,905.887" stroke-width="0.35"/>
    <path d="M 138.243,859.110 L 137.696,859.110 L 137.696,905.887 L 138.243,905.887" stroke-width="0.35"/>
    <path d="M 138.243,859.329 L 137.696,859.329 L 137.696,905.887 L 138.243,905.887" stroke-width="0.35"/>
    <path d="M 138.243,851.118 L 137.859,851.118 L 137.859,905.887 L 138.243,905.887" stroke-width="0.35"/>
    <path d="M 138.243,851.118 L 137.860,851.118 L 137.860,905.887 L 138.243,905.887" stroke-width="0.35"/>
    <path d="M 138.243,851.118 L 137.859,851.118 L 137.859,905.887 L 138.243,905.887" stroke-width="0.35"/>
    <path d="M 138.243,851.118 L 137.859,851.118 L 137.859,905.887 L 138.243,905.887" stroke-width="0.35"/>
    <path d="M 138.243,851.118 L 137.860,851.118 L 137.860,905.887 L 138.243,905.887" stroke-width="0.35"/>
    <path d="M 138.243,851.118 L 137.696,851.118 L 137.696,905.887 L 138.243,905.887" stroke-width="0.35"/>
    <path d="M 138.243,851.118 L 137.860,851.118 L 137.860,905.887 L 138.243,905.887" stroke-width="0.35"/>
    <path d="M 138.243,851.118 L 137.859,851.118 L 137.859,905.887 L 138.243,905.887" stroke-width="0.35"/>
    <path d="M 138.243,851.118 L 137.859,851.118 L 137.859,905.887 L 138.243,905.887" stroke-width="0.35"/>
    <path d="M 138.243,851.118 L 137.860,851.118 L 137.860,905.887 L 138.243,905.887" stroke-width="0.35"/>
    <path d="M 138.243,851.118 L 137.859,851.118 L 137.859,905.887 L 138.243,905.887" stroke-width="0.35"/>
    <path d="M 138.243,851.118 L 137.696,851.118 L 137.696,905.887 L 138.243,905.887" stroke-width="0.35"/>
    <path d="M 94.423,905.887 L 94.423,906.982 L 138.243,906.982 L 138.243,905.887" stroke-width="0.35"/>
    <path d="M 94.423,905.887 L 94.423,906.872 L 138.243,906.873 L 138.243,905.887" stroke-width="0.35"/>
    <path d="M 100.744,905.887 L 100.744,906.982 L 138.243,906.982 L 138.243,905.887" stroke-width="0.35"/>
    <path d="M 100.745,905.887 L 100.745,906.982 L 138.243,906.982 L 138.243,905.887" stroke-width="0.35"/>
    <path d="M 94.423,905.887 L 94.423,906.982 L 138.243,906.982 L 138.243,905.887" stroke-width="0.35"/>
    <path d="M 94.423,905.887 L 94.423,906.982 L 138.243,906.982 L 138.243,905.887" stroke-width="0.35"/>
    <path d="M 94.422,905.887 L 94.422,906.872 L 138.243,906.873 L 138.243,905.887" stroke-width="0.35"/>
    <path d="M 138.243,866.199 L 137.148,866.199 L 137.148,905.887 L 138.243,905.887" stroke-width="0.35"/>
    <path d="M 138.243,864.557 L 137.148,864.557 L 137.148,905.887 L 138.243,905.887" stroke-width="0.35"/>
    <path d="M 138.243,866.199 L 137.148,866.199 L 137.148,905.887 L 138.243,905.887" stroke-width="0.35"/>
    <path d="M 138.243,866.199 L 137.148,866.199 L 137.148,905.887 L 138.243,905.887" stroke-width="0.35"/>
    <path d="M 138.243,864.557 L 137.148,864.557 L 137.148,905.887 L 138.243,905.887" stroke-width="0.35"/>
    <path d="M 138.243,866.199 L 137.148,866.199 L 137.148,905.887 L 138.243,905.887" stroke-width="0.35"/>
    <path d="M 138.242,922.092 L 138.653,922.092 L 138.653,905.887" stroke-width="0.35"/>
    <path d="M 138.243,922.092 L 138.653,922.092 L 138.654,905.887 L 138.243,905.887" stroke-width="0.35"/>
    <path d="M 94.642,905.887 L 94.642,905.909 L 138.243,905.909 L 138.243,905.887" stroke-width="0.35"/>
    <path d="M 94.642,905.887 L 94.642,905.909 L 138.243,905.909 L 138.243,905.887" stroke-width="0.35"/>
    <path d="M 138.243,939.014 L 138.265,939.014 L 138.265,905.887 L 138.243,905.887" stroke-width="0.35"/>
    <path d="M 138.243,881.527 L 138.221,881.527 L 138.221,905.887 L 138.243,905.887" stroke-width="0.35"/>
    <path d="M 138.242,920.426 L 138.264,920.426 L 138.265,905.887 L 138.243,905.887" stroke-width="0.35"/>
    <path d="M 138.243,920.435 L 138.265,920.435 L 138.265,905.887 L 138.243,905.887" stroke-width="0.35"/>
    <path d="M 124.578,905.887 L 124.578,905.909 L 138.243,905.909 L 138.243,905.887" stroke-width="0.35"/>
    <path d="M 138.242,920.426 L 138.264,920.426 L 138.265,905.887 L 138.243,905.887" stroke-width="0.35"/>
    <path d="M 138.243,920.435 L 138.265,920.435 L 138.265,905.887 L 138.243,905.887" stroke-width="0.35"/>
    <path d="M 138.243,869.470 L 138.221,869.470 L 138.221,905.887 L 138.243,905.887" stroke-width="0.35"/>
    <path d="M 124.174,905.887 L 124.174,906.435 L 138.243,906.435 L 138.243,905.887" stroke-width="0.35"/>
    <path d="M 124.755,905.887 L 124.755,906.434 L 138.243,906.434 L 138.243,905.887" stroke-width="0.35"/>
    <path d="M 124.787,905.887 L 124.787,907.201 L 138.243,907.201 L 138.243,905.887" stroke-width="0.35"/>
    <path d="M 138.243,890.778 L 137.695,890.778 L 137.695,905.887 L 138.243,905.887" stroke-width="0.35"/>
    <path d="M 138.243,890.778 L 137.695,890.778 L 137.695,905.887 L 138.243,905.887" stroke-width="0.35"/>
    <path d="M 138.243,890.778 L 137.695,890.778 L 137.695,905.887 L 138.243,905.887" stroke-width="0.35"/>
    <path d="M 138.243,890.778 L 137.695,890.778 L 137.695,905.887 L 138.243,905.887" stroke-width="0.35"/>
    <path d="M 124.755,905.887 L 124.755,906.434 L 138.243,906.434 L 138.243,905.887" stroke-width="0.35"/>
    <path d="M 137.887,904.514 L 137.887,905.887 L 137.887,921.092" stroke-width="0.35"/>
    <path d="M 139.556,951.734 L 138.243,951.734 L 139.556,951.734 L 139.556,905.887 L 138.243,905.887" stroke-width="0.35"/>
    <path d="M 138.243,951.734 L 139.556,951.734 L 139.556,905.887 L 138.243,905.887" stroke-width="0.35"/>
    <path d="M 1069.508,5.000" stroke-width="0.35"/>
    <path d="M 138.243,882.786 L 137.586,882.786 L 137.586,905.887 L 138.243,905.887" stroke-width="0.35"/>
    <path d="M 138.243,882.786 L 137.586,882.786 L 137.586,905.887 L 138.243,905.887" stroke-width="0.35"/>
    <path d="M 138.243,882.786 L 137.586,882.786 L 137.586,905.887 L 138.243,905.887" stroke-width="0.35"/>
    <path d="M 138.243,882.786 L 137.586,882.786 L 137.586,905.887 L 138.243,905.887" stroke-width="0.35"/>
    <path d="M 151.627,905.887 L 151.627,905.531 L 138.243,905.531 L 138.243,905.887" stroke-width="0.35"/>
    <path d="M 124.859,905.887 L 124.859,906.243 L 138.243,906.243 L 138.243,905.887" stroke-width="0.35"/>
    <path d="M 124.859,905.887 L 124.859,906.243 L 138.243,906.243 L 138.243,905.887" stroke-width="0.35"/>
    <path d="M 186.142,905.887 L 186.142,905.066 L 138.243,905.066 L 138.243,905.887" stroke-width="0.35"/>
    <path d="M 198.601,905.888 L 198.601,905.067 L 138.243,905.066 L 138.243,905.887" stroke-width="0.35"/>
    <path d="M 230.654,944.948 L 230.654,904.986 L 232.078,904.986 L 232.078,944.948 L 230.654,944.948 Z" stroke-width="0.35"/>
    <path d="M 140.215,905.887 L 140.215,865.925 L 145.689,865.925 L 145.689,863.139 L 174.156,863.139 L 174.156,865.891 L 178.863,865.891 L 178.863,905.887 L 174.156,905.887 L 174.156,908.953 L 153.627,908.953 L 153.627,909.326 L 147.606,909.326 L 147.606,908.953 L 145.689,908.953 L 145.689,905.887 L 140.215,905.887 Z" stroke-width="0.25"/>
    <path d="M 220.938,870.491 L 243.383,870.491 L 243.383,890.472 L 220.938,890.472 L 220.938,870.491 L 220.938,890.472 L 243.383,890.472 L 243.383,870.491 L 220.938,870.491 Z" stroke-width="0.25"/>
    <path d="M 190.845,956.295 L 205.625,956.297 L 205.625,993.959 L 190.843,993.959 L 190.845,956.295 L 190.843,993.959 L 205.625,993.959 L 205.625,956.297 L 190.845,956.295 Z" stroke-width="0.25"/>
    <path d="M 119.306,836.176 L 119.308,798.513 L 134.089,798.515 L 134.088,836.177 L 119.306,836.176 L 134.088,836.177 L 134.089,798.515 L 119.308,798.513 L 119.306,836.176 Z" stroke-width="0.25"/>
    <path d="M 117.187,930.134 L 119.560,930.134 L 119.560,926.193 L 128.374,926.193 L 128.374,930.134 L 173.044,930.134 L 173.044,971.738 L 128.374,971.738 L 128.374,975.680 L 119.560,975.680 L 119.560,971.738 L 117.206,971.738 L 117.206,959.695 L 117.206,942.177 L 117.208,942.177 L 117.187,930.134 L 117.208,942.177 L 117.206,942.177 L 117.206,959.695 L 117.206,971.738 L 119.560,971.738 L 119.560,975.680 L 128.374,975.680 L 128.374,971.738 L 173.044,971.738 L 173.044,930.134 L 128.374,930.134 L 128.374,926.193 L 119.560,926.193 L 119.560,930.134 L 117.187,930.134 Z" stroke-width="0.25"/>
    <path d="M 117.587,882.071 L 117.587,842.109 L 125.032,842.109 L 125.032,836.881 L 153.499,836.881 L 153.499,842.109 L 158.206,842.109 L 158.206,882.071 L 153.499,882.071 L 153.499,885.137 L 125.032,885.137 L 125.032,882.071 L 117.587,882.071 L 125.032,882.071 L 125.032,885.137 L 153.499,885.137 L 153.499,882.071 L 158.206,882.071 L 158.206,842.109 L 153.499,842.109 L 153.499,836.881 L 125.032,836.881 L 125.032,842.109 L 117.587,842.109 L 117.587,882.071 Z" stroke-width="0.25"/>
    <path d="M 151.881,885.919 L 166.113,885.919 L 166.113,880.177 L 151.881,880.177 L 151.881,885.919 Z" stroke-width="0.35"/>
    <path d="M 61.001,932.711 L 68.446,932.711 L 68.446,935.503 L 96.913,935.503 L 96.913,932.711 L 102.387,932.711 L 102.387,935.498 L 146.181,935.498 L 146.181,932.711 L 150.888,932.711 L 150.888,892.749 L 146.181,892.749 L 146.181,889.684 L 102.387,889.684 L 102.387,892.749 L 96.912,892.749 L 96.912,889.684 L 77.753,889.684 L 68.446,889.684 L 68.446,892.749 L 61.001,892.749 L 61.001,932.711 Z" stroke-width="0.25"/>
    <path d="M 119.711,920.773 L 136.119,920.773 L 136.119,915.031 L 119.711,915.031 L 119.711,920.773 Z" stroke-width="0.35"/>
    <path d="M 465.331,915.548 L 465.331,878.353 L 468.671,878.353 L 468.671,874.521 L 465.331,874.521 L 465.331,832.917 L 468.670,832.917 L 468.670,829.086 L 465.331,829.086 L 465.331,795.562 L 512.479,795.562 L 512.479,829.085 L 506.442,829.085 L 506.442,832.917 L 512.452,832.917 L 512.452,874.521 L 506.442,874.521 L 506.442,878.354 L 512.464,878.354 L 512.464,915.548 L 465.331,915.548 L 512.464,915.548 L 512.464,878.354 L 506.442,878.354 L 506.442,874.521 L 512.452,874.521 L 512.452,832.917 L 506.442,832.917 L 506.442,829.085 L 512.479,829.085 L 512.479,795.562 L 465.331,795.562 L 465.331,829.086 L 468.670,829.086 L 468.670,832.917 L 465.331,832.917 L 465.331,874.521 L 468.671,874.521 L 468.671,878.353 L 465.331,878.353 L 465.331,915.548 Z" stroke-width="0.6"/>
    <path d="M 58.624,842.432 L 61.635,842.432 L 61.635,841.830 L 73.409,841.830 L 73.409,881.244 L 58.624,881.244 L 58.624,842.432 L 58.624,881.244 L 73.409,881.244 L 73.409,841.830 L 61.635,841.830 L 61.635,842.432 L 58.624,842.432 Z" stroke-width="0.25"/>
    <path d="M 147.006,984.288 L 161.791,984.288 L 161.791,1011.331 L 161.787,1023.699 L 150.017,1023.703 L 150.017,1023.101 L 147.006,1023.101 L 147.006,984.288 L 147.006,1023.101 L 150.017,1023.101 L 150.017,1023.703 L 161.787,1023.699 L 161.791,1011.331 L 161.791,984.288 L 147.006,984.288 Z" stroke-width="0.25"/>
    <path d="M 152.463,905.887 L 151.662,905.887 L 138.517,905.887" stroke-width="0.35"/>
    <path d="M 152.189,908.758 L 167.010,908.758 L 167.010,903.016 L 152.189,903.016 L 152.189,908.758 Z" stroke-width="0.35"/>
    <path d="M 144.264,905.887 L 164.793,905.887 L 164.793,905.121 L 144.264,905.121" stroke-width="0.35"/>
    <path d="M 138.243,860.451 L 138.243,856.619 L 143.279,856.619 L 143.279,835.214 L 164.793,835.214 L 164.793,856.619 L 171.088,856.619 L 171.088,860.451 L 165.614,860.451 L 165.614,859.246 L 143.717,859.246 L 143.717,860.451 L 138.243,860.451 Z" stroke-width="0.25"/>
    <path d="M 72.245,905.887 L 72.245,945.849 L 79.121,945.849 L 79.121,951.077 L 105.397,951.077 L 105.397,945.849 L 110.872,945.849 L 110.872,951.077 L 132.769,951.077 L 132.769,945.849 L 138.243,945.849 L 138.243,951.077 L 161.235,951.077 L 161.235,811.429 L 138.243,811.429 L 138.243,816.657 L 132.769,816.657 L 132.769,811.429 L 110.872,811.429 L 110.872,816.657 L 105.397,816.657 L 105.397,811.429 L 79.121,811.429 L 79.121,816.657 L 72.245,816.657 L 72.245,856.619 L 79.121,856.619 L 79.121,860.451 L 72.245,860.451 L 72.245,902.055 L 79.121,902.055 L 79.121,905.887 L 72.245,905.887 Z" stroke-width="0.6"/>
    <path d="M 138.243,860.451 L 138.243,856.619 L 143.279,856.619 L 143.279,835.214 L 164.793,835.214 L 164.793,856.619 L 171.088,856.619 L 171.088,860.451 L 165.614,860.451 L 165.614,859.246 L 143.717,859.246 L 143.717,860.451 L 138.243,860.451 Z" stroke-width="0.25"/>
    <path d="M 137.696,922.200 L 137.915,922.200 L 137.915,905.887 L 137.696,905.887 L 137.696,922.200 Z" stroke-width="0.35"/>
    <path d="M 157.403,905.887 L 138.462,889.574 L 157.403,889.574 L 157.403,905.887 L 138.462,905.887 L 157.403,889.574" stroke-width="0.25"/>
    <path d="M 132.768,905.887 L 118.295,905.887 L 118.295,906.544 L 132.768,906.544" stroke-width="0.35"/>
    <path d="M 143.717,905.887 L 157.490,905.887 L 157.490,905.230" stroke-width="0.35"/>
  </g>
  <g id="labels" font-family="Arial,sans-serif" fill="#0d3066" font-size="3">
    <text x="510.451" y="170.608">5R x 16</text>
    <text x="282.664" y="778.989">NORTH-WEST</text>
    <text x="964.908" y="784.374">766.12</text>
    <text x="639.077" y="784.374">14.97</text>
    <text x="658.178" y="784.374">18.58</text>
    <text x="658.178" y="784.374">18.58</text>
    <text x="668.338" y="784.374">79.84</text>
    <text x="997.115" y="784.374">186.32</text>
    <text x="658.178" y="784.374">19.39</text>
    <text x="658.076" y="784.374">19.38</text>
    <text x="168.262" y="886.075">d01.29</text>
    <text x="907.910" y="784.374">386.63</text>
  </g>
</svg>