<svg xmlns="http://www.w3.org/2000/svg" viewBox="0 0 2010 471" width="2010" height="471">
  <title>UTL-01 Level 5m — Simplified Floor Plan</title>
  <rect width="2010" height="471" fill="#fafaf8"/>
  <rect x="70.0" y="50.0" width="1870.0" height="341.0" fill="#ffffff" stroke="none"/>
  <g fill="#d6eaf8" stroke="#2980b9" stroke-width="0.7">
    <rect x="272.40" y="325.00" width="46.20" height="11.00"/>
    <rect x="272.40" y="252.40" width="189.20" height="8.80"/>
    <rect x="270.20" y="122.60" width="209.00" height="11.00"/>
    <rect x="296.60" y="300.80" width="46.20" height="11.00"/>
    <rect x="92.00" y="292.00" width="176.00" height="8.80"/>
    <rect x="290.00" y="307.40" width="123.20" height="8.80"/>
    <rect x="268.00" y="388.80" width="624.80" height="2.20"/>
    <rect x="268.00" y="388.80" width="57.20" height="2.20"/>
    <rect x="268.00" y="388.80" width="48.40" height="2.20"/>
    <rect x="268.00" y="388.80" width="50.60" height="2.20"/>
    <rect x="268.00" y="388.80" width="61.60" height="2.20"/>
    <rect x="268.00" y="388.80" width="96.80" height="2.20"/>
    <rect x="268.00" y="391.00" width="68.20" height="6.60"/>
    <rect x="232.80" y="391.00" width="37.40" height="2.20"/>
    <rect x="221.80" y="391.00" width="46.20" height="2.20"/>
    <rect x="173.40" y="391.00" width="94.60" height="2.20"/>
    <rect x="186.60" y="391.00" width="81.40" height="2.20"/>
    <rect x="230.60" y="391.00" width="37.40" height="2.20"/>
    <rect x="199.80" y="391.00" width="68.20" height="2.20"/>
    <rect x="268.00" y="388.80" width="68.20" height="2.20"/>
    <rect x="268.00" y="391.00" width="50.60" height="6.60"/>
  </g>
  <g fill="#d5d8dc" stroke="#2c3e50" stroke-width="1.8" stroke-linejoin="miter">
    <path d="M 122.81,391.00 122.81,478.92 137.93,478.92 137.93,490.42 195.74,490.42 195.74,478.92 207.78,478.92 207.78,490.42 255.96,490.42 255.96,478.92 268.00,478.92 268.00,490.42 318.58,490.42 318.58,183.19 268.00,183.19 268.00,194.69 255.96,194.69 255.96,183.19 207.78,183.19 207.78,194.69 195.74,194.69 195.74,183.19 137.93,183.19 137.93,194.69 122.81,194.69 122.81,282.61 137.93,282.61 137.93,291.04 122.81,291.04 122.81,382.57 137.93,382.57 137.93,391.00 122.81,391.00 Z"/>
    <path d="M 987.59,412.25 987.59,330.43 994.94,330.43 994.94,322.00 987.59,322.00 987.59,230.47 994.94,230.47 994.94,222.04 987.59,222.04 987.59,148.29 1091.32,148.29 1091.32,222.04 1078.04,222.04 1078.04,230.47 1091.26,230.47 1091.26,322.00 1078.04,322.00 1078.04,330.43 1091.29,330.43 1091.29,412.25 987.59,412.25 1091.29,412.25 1091.29,330.43 1078.04,330.43 1078.04,322.00 1091.26,322.00 1091.26,230.47 1078.04,230.47 1078.04,222.04 1091.32,222.04 1091.32,148.29 987.59,148.29 987.59,222.04 994.94,222.04 994.94,230.47 987.59,230.47 987.59,322.00 994.94,322.00 994.94,330.43 987.59,330.43 987.59,412.25 Z"/>
    <path d="M 222.56,338.60 222.56,250.69 238.94,250.69 238.94,239.19 301.56,239.19 301.56,250.69 311.92,250.69 311.92,338.60 301.56,338.60 301.56,345.35 238.94,345.35 238.94,338.60 222.56,338.60 238.94,338.60 238.94,345.35 301.56,345.35 301.56,338.60 311.92,338.60 311.92,250.69 301.56,250.69 301.56,239.19 238.94,239.19 238.94,250.69 222.56,250.69 222.56,338.60 Z"/>
    <path d="M 272.34,391.00 272.34,303.08 284.38,303.08 284.38,296.95 347.01,296.95 347.01,303.01 357.37,303.01 357.37,391.00 347.01,391.00 347.01,397.74 301.84,397.74 301.84,398.56 288.60,398.56 288.60,397.74 284.38,397.74 284.38,391.00 272.34,391.00 Z"/>
    <path d="M 449.93,313.13 499.31,313.13 499.31,357.09 449.93,357.09 449.93,313.13 449.93,357.09 499.31,357.09 499.31,313.13 449.93,313.13 Z"/>
  </g>
  <g fill="#4a5568" stroke="none">
    <rect x="70.00" y="380.00" width="1870.00" height="22.00"/>
    <rect x="70.00" y="39.00" width="1870.00" height="22.00"/>
    <rect x="59.00" y="39.00" width="22.00" height="363.00"/>
    <rect x="1929.00" y="39.00" width="22.00" height="363.00"/>
  </g>
  <rect x="70.00" y="50.00" width="1870.00" height="341.00" fill="none" stroke="#1a1a2e" stroke-width="22.00" stroke-linejoin="miter"/>
  <g stroke="#2c3e50" stroke-width="5.50" stroke-linecap="square" fill="none">
    <!-- Inner wall: east edge of stairwell complex -->
    <line x1="318.60" y1="364.60" x2="318.60" y2="50.00"/>
    <line x1="272.40" y1="391.00" x2="272.40" y2="296.40"/>
    <line x1="318.60" y1="171.00" x2="972.00" y2="171.00"/>
    <!-- Vertical wall before mid stairwell -->
    <line x1="972.00" y1="391.00" x2="972.00" y2="50.00"/>
    <line x1="1090.80" y1="391.00" x2="1090.80" y2="50.00"/>
    <line x1="268.00" y1="171.00" x2="318.60" y2="171.00"/>
  </g>
  <g stroke="#555" stroke-width="1.0" fill="none" stroke-dasharray="none">
    <path d="M 378.00,391.00 L 404.40,391.00 M 404.40,391.00 A 26.40,26.40 0 0,1 378.00,417.40"/>
    <path d="M 318.60,281.00 L 318.60,254.60 M 318.60,254.60 A 26.40,26.40 0 0,0 292.20,281.00"/>
    <path d="M 318.60,127.00 L 318.60,100.60 M 318.60,100.60 A 26.40,26.40 0 0,0 292.20,127.00"/>
    <path d="M 972.00,281.00 L 972.00,254.60 M 972.00,254.60 A 26.40,26.40 0 0,1 998.40,281.00"/>
    <path d="M 1090.80,281.00 L 1090.80,254.60 M 1090.80,254.60 A 26.40,26.40 0 0,0 1064.40,281.00"/>
    <path d="M 1368.00,50.00 L 1401.00,50.00 M 1401.00,50.00 A 33.00,33.00 0 0,0 1368.00,17.00"/>
    <path d="M 268.00,239.20 L 294.40,239.20 M 294.40,239.20 A 26.40,26.40 0 0,0 268.00,212.80"/>
  </g>
  <g stroke="#888" stroke-width="0.8" stroke-dasharray="4,2">
    <line x1="131.6" y1="382.2" x2="309.8" y2="291.5"/>
    <polyline points="304.8,283.5 309.8,291.5 314.8,283.5" fill="none"/>
    <line x1="994.2" y1="384.4" x2="1084.7" y2="154.9"/>
    <polyline points="1079.7,146.9 1084.7,154.9 1089.7,146.9" fill="none"/>
  </g>
  <text x="195" y="288" font-family="Arial,Helvetica,sans-serif" font-size="7" font-weight="normal" fill="#4a5568" text-anchor="middle">
    <tspan x="195" dy="-4.5">STAIR</tspan>
    <tspan x="195" dy="4.5">COMPLEX</tspan>
  </text>
  <text x="248" y="292" font-family="Arial,Helvetica,sans-serif" font-size="6.5" font-weight="normal" fill="#4a5568" text-anchor="middle">
    <tspan x="248" dy="-4.2">STAIR</tspan>
    <tspan x="248" dy="4.2">SHAFT</tspan>
  </text>
  <text x="312" y="347" font-family="Arial,Helvetica,sans-serif" font-size="6.5" font-weight="normal" fill="#4a5568" text-anchor="middle">
    <tspan x="312" dy="0.0">STAIR</tspan>
  </text>
  <text x="1038" y="281" font-family="Arial,Helvetica,sans-serif" font-size="7" font-weight="normal" fill="#4a5568" text-anchor="middle">
    <tspan x="1038" dy="0.0">STAIRWELL</tspan>
  </text>
  <text x="642" y="281" font-family="Arial,Helvetica,sans-serif" font-size="10" font-weight="bold" fill="#1a4f8a" text-anchor="middle">
    <tspan x="642" dy="-6.5">MAIN ELECTRICAL</tspan>
    <tspan x="642" dy="6.5">/ SWITCHGEAR ROOM</tspan>
  </text>
  <text x="642" y="105" font-family="Arial,Helvetica,sans-serif" font-size="8" font-weight="normal" fill="#555" text-anchor="middle">
    <tspan x="642" dy="0.0">CABLE TRAYS / WALKWAY</tspan>
  </text>
  <text x="1511" y="222" font-family="Arial,Helvetica,sans-serif" font-size="10" font-weight="bold" fill="#1a4f8a" text-anchor="middle">
    <tspan x="1511" dy="0.0">PLANT / INDUSTRIAL AREA</tspan>
  </text>
  <g stroke="#aaa" stroke-width="0.7" fill="none">
    <line x1="70.0" y1="402.0" x2="1940.0" y2="402.0"/>
    <line x1="70.0" y1="396.0" x2="70.0" y2="408.0"/>
    <line x1="1940.0" y1="396.0" x2="1940.0" y2="408.0"/>
  </g>
  <text x="1005" y="418" font-family="Arial" font-size="8" fill="#888" text-anchor="middle">~178 m (at 1:200)</text>
  <g transform="translate(1960,80)">
    <circle r="22" fill="white" stroke="#2c3e50" stroke-width="1.5"/>
    <polygon points="0,-18 -6,8 0,4 6,8" fill="#2c3e50"/>
    <polygon points="0,18 -6,-8 0,-4 6,-8" fill="#ddd"/>
    <text x="0" y="-8" font-family="Arial" font-size="10" text-anchor="middle" fill="white" font-weight="bold">N</text>
  </g>
  <text x="1005" y="459" font-family="Arial,sans-serif" font-size="12" font-weight="bold" fill="#1a1a2e" text-anchor="middle">UTL-01 — LEVEL +5.0 m — SIMPLIFIED FLOOR PLAN</text>
</svg>